<svg
  version="1.0" xmlns="http://www.w3.org/2000/svg"
  width="1504pt" height="362pt" viewBox="0 0 1504.000000 362.000000"
  preserveAspectRatio="xMidYMid meet"
>
  <g
    transform="translate(0,362) scale(0.1,-0.1)"
    fill="#ff6a00">
    <path
      d="M735 2709 c-84 -12 -195 -69 -260 -134 -61 -61 -120 -172 -135 -254
      -6 -31 -10 -251 -10 -520 0 -514 3 -543 61 -652 38 -71 127 -157 200 -194 102
      -52 126 -55 512 -55 196 0 357 3 357 6 0 3 -34 54 -75 113 l-75 107 -223 68
      c-122 37 -244 78 -272 91 -53 26 -89 69 -105 126 -14 49 -13 757 1 800 16 48
      55 96 91 115 16 9 134 47 262 86 127 39 237 75 244 81 18 15 152 206 152 217
      0 12 -640 11 -725 -1z"/>
    <path
      d="M2110 2712 c0 -5 35 -58 78 -117 l77 -108 235 -72 c259 -79 286 -90
      324 -135 45 -54 47 -79 44 -496 l-3 -390 -27 -41 c-15 -22 -42 -50 -60 -60
      -18 -11 -142 -53 -274 -94 l-241 -73 -74 -105 c-41 -57 -75 -108 -77 -113 -5
      -12 704 -9 758 3 151 35 286 156 344 307 20 55 21 74 24 561 2 339 -1 522 -8
      557 -39 187 -206 343 -400 374 -78 12 -720 14 -720 2z"/>
    <path
      d="M4105 2628 c-11 -34 -435 -1637 -435 -1647 0 -7 37 -11 113 -11 l113
      0 38 147 c22 82 48 181 59 221 l19 72 238 0 238 0 11 -47 c7 -27 33 -126 58
      -220 l46 -173 114 0 115 0 -7 28 c-8 36 -424 1602 -431 1625 -5 15 -21 17
      -145 17 -103 0 -141 -3 -144 -12z m234 -663 c45 -170 81 -313 81 -317 0 -5
      -78 -8 -173 -8 l-173 0 85 324 c47 179 89 322 92 318 3 -4 43 -146 88 -317z"/>
    <path d="M4930 1805 l0 -835 115 0 115 0 0 835 0 835 -115 0 -115 0 0 -835z"/>
    <path d="M5370 2530 l0 -110 110 0 110 0 0 110 0 110 -110 0 -110 0 0 -110z"/>
    <path
      d="M5800 1805 l0 -835 115 0 115 0 0 40 0 40 44 -34 c77 -58 189 -84
      289 -65 149 27 260 126 302 271 14 49 16 104 13 375 l-3 318 -33 67 c-41 83
      -119 158 -200 189 -88 35 -216 33 -299 -5 -34 -16 -70 -37 -79 -47 -9 -11 -21
      -19 -26 -19 -4 0 -8 122 -8 270 l0 270 -115 0 -115 0 0 -835z m501 173 c54
      -16 114 -70 134 -121 14 -36 16 -81 13 -303 l-3 -261 -27 -41 c-79 -119 -245
      -127 -336 -17 -16 20 -34 53 -41 74 -14 50 -15 472 0 525 21 75 121 154 198
      156 13 0 41 -5 62 -12z"/>
    <path
      d="M7840 1805 l0 -835 115 0 115 0 0 36 c0 36 0 36 23 20 121 -87 271
      -105 402 -47 63 28 150 113 182 180 l28 56 0 355 0 355 -27 57 c-78 167 -277
      254 -455 200 -38 -12 -88 -35 -111 -52 l-42 -30 0 270 0 270 -115 0 -115 0 0
      -835z m527 161 c36 -18 80 -62 101 -101 25 -45 31 -494 7 -564 -27 -83 -111
      -143 -197 -143 -66 0 -134 36 -173 91 l-30 43 -3 264 c-3 243 -1 267 16 308
      21 47 72 93 124 113 39 15 116 10 155 -11z"/>
    <path
      d="M10646 2629 c-171 -40 -331 -203 -366 -373 -7 -35 -10 -199 -8 -492
      3 -432 3 -440 26 -496 111 -275 432 -400 700 -273 160 76 268 227 288 405 l7
      60 -115 0 -115 0 -7 -42 c-22 -137 -145 -248 -275 -248 -104 0 -213 70 -257
      165 -24 50 -24 51 -24 461 l0 410 26 52 c67 135 235 196 367 132 87 -41 167
      -157 167 -242 0 -16 11 -18 116 -18 l117 0 -7 60 c-24 208 -163 374 -365 434
      -60 18 -209 20 -275 5z"/>
    <path d="M11390 1805 l0 -835 115 0 115 0 0 835 0 835 -115 0 -115 0 0 -835z"/>
    <path
      d="M14460 2370 l0 -270 -42 30 c-23 17 -73 40 -111 52 -179 54 -371 -30
      -454 -200 l-28 -57 0 -355 0 -355 28 -57 c37 -75 128 -159 204 -188 66 -25
      183 -31 248 -12 22 6 66 27 98 46 l57 35 0 -35 0 -34 115 0 115 0 0 835 0 835
      -115 0 -115 0 0 -270z m-149 -392 c54 -16 114 -70 134 -121 14 -36 16 -82 13
      -304 l-3 -261 -30 -43 c-101 -143 -323 -108 -374 60 -14 50 -15 472 0 525 21
      75 121 154 198 156 13 0 41 -5 62 -12z"/>
    <path d="M5370 1585 l0 -615 110 0 110 0 0 615 0 615 -110 0 -110 0 0 -615z"/>
    <path
      d="M7143 2185 c-29 -8 -72 -24 -94 -36 -52 -26 -134 -102 -166 -153 -23
      -35 -63 -137 -63 -158 0 -4 51 -8 114 -8 l114 0 6 32 c9 47 91 122 148 136 56
      14 99 7 154 -24 70 -40 104 -105 104 -200 l0 -64 -165 0 c-90 0 -188 -5 -217
      -11 -115 -25 -213 -101 -265 -207 -26 -52 -28 -67 -28 -167 0 -101 2 -115 28
      -165 37 -71 106 -141 171 -173 135 -66 323 -54 432 29 l44 34 0 -40 0 -40 115
      0 116 0 -3 448 c-3 437 -4 448 -25 502 -46 112 -144 210 -253 251 -72 27 -197
      34 -267 14z m317 -738 c0 -148 -39 -226 -138 -274 -69 -33 -139 -35 -197 -5
      -124 63 -153 204 -62 301 52 54 75 60 245 61 l152 0 0 -83z"/>
    <path
      d="M9200 2189 c-70 -14 -166 -66 -220 -119 -49 -50 -105 -149 -116 -207
      l-6 -33 111 0 111 0 15 38 c21 49 80 109 123 123 82 27 171 2 230 -65 36 -42
      52 -91 52 -163 l0 -53 -158 0 c-241 0 -326 -23 -417 -115 -149 -148 -148 -396
      1 -540 138 -135 391 -151 536 -35 l38 31 0 -41 0 -40 115 0 115 0 0 418 c0
      343 -3 428 -15 477 -61 232 -279 370 -515 324z m298 -761 c-5 -113 -18 -149
      -72 -206 -90 -97 -224 -102 -319 -13 -42 38 -57 74 -57 134 0 70 39 135 101
      165 39 20 60 22 198 22 l154 0 -5 -102z"/>
    <path
      d="M12110 2189 c-165 -32 -308 -178 -340 -348 -13 -69 -13 -472 0 -541
      16 -83 54 -155 116 -221 211 -221 586 -159 717 118 l32 68 0 306 0 305 -38 76
      c-90 182 -284 277 -487 237z m193 -251 c23 -13 55 -42 72 -66 l30 -44 3 -239
      c3 -237 3 -241 -22 -294 -41 -90 -138 -137 -233 -113 -65 16 -135 86 -151 150
      -15 60 -16 429 -1 482 14 50 83 123 134 141 50 19 115 12 168 -17z"/>
    <path
      d="M12792 1713 l3 -488 27 -57 c71 -153 243 -246 405 -219 71 12 115 30
      171 70 l42 31 0 -40 0 -40 115 0 115 0 0 615 0 615 -115 0 -115 0 0 -438 0
      -438 -26 -53 c-30 -59 -91 -106 -153 -117 -80 -15 -176 35 -218 116 -23 43
      -23 44 -23 487 l0 443 -115 0 -116 0 3 -487z"/>
    <path d="M1300 1815 l0 -115 485 0 485 0 0 115 0 115 -485 0 -485 0 0 -115z"/>
  </g>
</svg>
