<svg
  version="1.1"
  xmlns="http://www.w3.org/2000/svg"
  class="svg-icon"
  viewBox="0 0 1024 1024"
  style="width: 1em; height: 1em;vertical-align: middle;overflow: hidden;fill: none;stroke: #22ADF6;stroke-width: 10;stroke-linecap: round;stroke-linejoin: round;stroke-miterlimit: 10;"
>
  <path d="M712 782H312c-38.598 0-70-31.402-70-70V312c0-38.598 31.402-70 70-70h400c38.598 0 70 31.402 70 70v400c0 38.598-31.402 70-70 70zM312 282c-16.542 0-30 13.458-30 30v400c0 16.542 13.458 30 30 30h400c16.542 0 30-13.458 30-30V312c0-16.542-13.458-30-30-30H312z"  />
  <path d="M620 667H404c-25.916 0-47-21.084-47-47V404c0-25.916 21.084-47 47-47h216c25.916 0 47 21.084 47 47v216c0 25.916-21.084 47-47 47zM404 397c-3.86 0-7 3.14-7 7v216c0 3.859 3.14 7 7 7h216c3.859 0 7-3.141 7-7V404c0-3.86-3.141-7-7-7H404zM357 278.978c-11.046 0-20-8.954-20-20V138.983c0-11.046 8.954-20 20-20s20 8.954 20 20v119.994c0 11.046-8.954 20.001-20 20.001zM460.333 278.978c-11.046 0-20-8.954-20-20V138.983c0-11.046 8.954-20 20-20s20 8.954 20 20v119.994c0 11.046-8.954 20.001-20 20.001zM563.666 278.978c-11.046 0-20-8.954-20-20V138.983c0-11.046 8.954-20 20-20s20 8.954 20 20v119.994c0 11.046-8.954 20.001-20 20.001zM667 278.978c-11.046 0-20-8.954-20-20V138.983c0-11.046 8.954-20 20-20s20 8.954 20 20v119.994c0 11.046-8.954 20.001-20 20.001z"  />
  <path d="M357 903.978c-11.046 0-20-8.954-20-20V763.983c0-11.046 8.954-20 20-20s20 8.954 20 20v119.994c0 11.046-8.954 20.001-20 20.001zM460.333 903.978c-11.046 0-20-8.954-20-20V763.983c0-11.046 8.954-20 20-20s20 8.954 20 20v119.994c0 11.046-8.954 20.001-20 20.001zM563.666 903.978c-11.046 0-20-8.954-20-20V763.983c0-11.046 8.954-20 20-20s20 8.954 20 20v119.994c0 11.046-8.954 20.001-20 20.001zM667 903.978c-11.046 0-20-8.954-20-20V763.983c0-11.046 8.954-20 20-20s20 8.954 20 20v119.994c0 11.046-8.954 20.001-20 20.001z"  />
  <path d="M259.497 686.48H139.503c-11.046 0-20-8.954-20-20s8.954-20 20-20h119.994c11.046 0 20 8.954 20 20s-8.954 20-20 20zM259.497 583.147H139.503c-11.046 0-20-8.954-20-20s8.954-20 20-20h119.994c11.046 0 20 8.954 20 20s-8.954 20-20 20zM259.497 479.814H139.503c-11.046 0-20-8.954-20-20s8.954-20 20-20h119.994c11.046 0 20 8.954 20 20s-8.954 20-20 20zM259.497 376.48H139.503c-11.046 0-20-8.954-20-20s8.954-20 20-20h119.994c11.046 0 20 8.954 20 20s-8.954 20-20 20z"  />
  <path d="M884.497 686.48H764.503c-11.046 0-20-8.954-20-20s8.954-20 20-20h119.994c11.046 0 20 8.954 20 20s-8.954 20-20 20zM884.497 583.147H764.503c-11.046 0-20-8.954-20-20s8.954-20 20-20h119.994c11.046 0 20 8.954 20 20s-8.954 20-20 20zM884.497 479.814H764.503c-11.046 0-20-8.954-20-20s8.954-20 20-20h119.994c11.046 0 20 8.954 20 20s-8.954 20-20 20zM884.497 376.48H764.503c-11.046 0-20-8.954-20-20s8.954-20 20-20h119.994c11.046 0 20 8.954 20 20s-8.954 20-20 20z"  />
</svg>
