<svg xmlns="http://www.w3.org/2000/svg" width="2500" height="742" viewBox="0 0 256 76" preserveAspectRatio="xMinYMin meet" xmlns:v="https://vecta.io/nano"><defs><linearGradient x1="48.377%" y1="-14.475%" x2="51.439%" y2="108.205%" id="A"><stop stop-color="#6a3894" offset="0%"/><stop stop-color="#8a2f83" offset="10.58%"/><stop stop-color="#b4256c" offset="26.53%"/><stop stop-color="#d31c5d" offset="40.92%"/><stop stop-color="#e51e54" offset="53.09%"/><stop stop-color="#ec1e4f" offset="61.58%"/><stop stop-color="#f8e47f" offset="100%"/></linearGradient><linearGradient x1="49.461%" y1="25.137%" x2="52.042%" y2="134.885%" id="B"><stop stop-color="#6a3894" offset="0%"/><stop stop-color="#8a2f83" offset="10.58%"/><stop stop-color="#b4256c" offset="26.53%"/><stop stop-color="#d31c5d" offset="40.92%"/><stop stop-color="#e51e54" offset="53.09%"/><stop stop-color="#ec1e4f" offset="61.58%"/><stop stop-color="#f8e47f" offset="100%"/></linearGradient><linearGradient x1="48.221%" y1="-15.768%" x2="51.662%" y2="108.575%" id="C"><stop stop-color="#6a3894" offset="0%"/><stop stop-color="#8a2f83" offset="10.58%"/><stop stop-color="#b4256c" offset="26.53%"/><stop stop-color="#d31c5d" offset="40.92%"/><stop stop-color="#e51e54" offset="53.09%"/><stop stop-color="#ec1e4f" offset="61.58%"/><stop stop-color="#f8e47f" offset="100%"/></linearGradient><linearGradient x1="48.846%" y1="14.371%" x2="52.552%" y2="133.906%" id="D"><stop stop-color="#6a3894" offset="0%"/><stop stop-color="#8a2f83" offset="10.58%"/><stop stop-color="#b4256c" offset="26.53%"/><stop stop-color="#d31c5d" offset="40.92%"/><stop stop-color="#e51e54" offset="53.09%"/><stop stop-color="#ec1e4f" offset="61.58%"/><stop stop-color="#f8e47f" offset="100%"/></linearGradient><linearGradient x1="48.477%" y1="-17.018%" x2="51.653%" y2="108.531%" id="E"><stop stop-color="#6a3894" offset="0%"/><stop stop-color="#8a2f83" offset="10.58%"/><stop stop-color="#b4256c" offset="26.53%"/><stop stop-color="#d31c5d" offset="40.92%"/><stop stop-color="#e51e54" offset="53.09%"/><stop stop-color="#ec1e4f" offset="61.58%"/><stop stop-color="#f8e47f" offset="100%"/></linearGradient><linearGradient x1="48.957%" y1="4.908%" x2="52.141%" y2="155.044%" id="F"><stop stop-color="#6a3894" offset="0%"/><stop stop-color="#8a2f83" offset="10.58%"/><stop stop-color="#b4256c" offset="26.53%"/><stop stop-color="#d31c5d" offset="40.92%"/><stop stop-color="#e51e54" offset="53.09%"/><stop stop-color="#ec1e4f" offset="61.58%"/><stop stop-color="#f8e47f" offset="100%"/></linearGradient><linearGradient x1="48.747%" y1="-20.569%" x2="51.571%" y2="111.805%" id="G"><stop stop-color="#6a3894" offset="0%"/><stop stop-color="#8a2f83" offset="10.58%"/><stop stop-color="#b4256c" offset="26.53%"/><stop stop-color="#d31c5d" offset="40.92%"/><stop stop-color="#e51e54" offset="53.09%"/><stop stop-color="#ec1e4f" offset="61.58%"/><stop stop-color="#f8e47f" offset="100%"/></linearGradient><linearGradient x1="48.901%" y1="-8.264%" x2="51.964%" y2="139.507%" id="H"><stop stop-color="#6a3894" offset="0%"/><stop stop-color="#8a2f83" offset="10.58%"/><stop stop-color="#b4256c" offset="26.53%"/><stop stop-color="#d31c5d" offset="40.92%"/><stop stop-color="#e51e54" offset="53.09%"/><stop stop-color="#ec1e4f" offset="61.58%"/><stop stop-color="#f8e47f" offset="100%"/></linearGradient><linearGradient x1="48.878%" y1="-40.568%" x2="49.752%" y2="35.508%" id="I"><stop stop-color="#f8e47f" offset="0%"/><stop stop-color="#f7db7c" offset="10.57%"/><stop stop-color="#f3c87b" offset="34.93%"/><stop stop-color="#f2c179" offset="51.98%"/><stop stop-color="#f6d17b" offset="70.96%"/><stop stop-color="#f8e47f" offset="100%"/></linearGradient><linearGradient x1="61.295%" y1="-95.754%" x2="47.167%" y2="83.377%" id="J"><stop stop-color="#f8e47f" offset="0%"/><stop stop-color="#f7db7c" offset="10.57%"/><stop stop-color="#f3c87b" offset="34.93%"/><stop stop-color="#f2c179" offset="51.98%"/><stop stop-color="#f6d17b" offset="70.96%"/><stop stop-color="#f8e47f" offset="100%"/></linearGradient><linearGradient x1="48.763%" y1="-62.555%" x2="49.829%" y2="31.517%" id="K"><stop stop-color="#f8e47f" offset="0%"/><stop stop-color="#f7db7c" offset="10.57%"/><stop stop-color="#f3c87b" offset="34.93%"/><stop stop-color="#f2c179" offset="51.98%"/><stop stop-color="#f6d17b" offset="70.96%"/><stop stop-color="#f8e47f" offset="100%"/></linearGradient><linearGradient x1="61.892%" y1="-134.186%" x2="44.032%" y2="133.252%" id="L"><stop stop-color="#f8e47f" offset="0%"/><stop stop-color="#f7db7c" offset="10.57%"/><stop stop-color="#f3c87b" offset="34.93%"/><stop stop-color="#f2c179" offset="51.98%"/><stop stop-color="#f6d17b" offset="70.96%"/><stop stop-color="#f8e47f" offset="100%"/></linearGradient><linearGradient x1="47.962%" y1="-127.501%" x2="49.584%" y2="28.726%" id="M"><stop stop-color="#f8e47f" offset="0%"/><stop stop-color="#f7db7c" offset="10.57%"/><stop stop-color="#f3c87b" offset="34.93%"/><stop stop-color="#f2c179" offset="51.98%"/><stop stop-color="#f6d17b" offset="70.96%"/><stop stop-color="#f8e47f" offset="100%"/></linearGradient><linearGradient x1="48.008%" y1="-165.229%" x2="49.998%" y2="24.96%" id="N"><stop stop-color="#f8e47f" offset="0%"/><stop stop-color="#f7db7c" offset="10.57%"/><stop stop-color="#f3c87b" offset="34.93%"/><stop stop-color="#f2c179" offset="51.98%"/><stop stop-color="#f6d17b" offset="70.96%"/><stop stop-color="#f8e47f" offset="100%"/></linearGradient><linearGradient x1="49.42%" y1="-96.09%" x2="51.331%" y2="148.654%" id="O"><stop stop-color="#f8e47f" offset="0%"/><stop stop-color="#f7db7c" offset="10.57%"/><stop stop-color="#f3c87b" offset="34.93%"/><stop stop-color="#f2c179" offset="51.98%"/><stop stop-color="#f6d17b" offset="70.96%"/><stop stop-color="#f8e47f" offset="100%"/></linearGradient><linearGradient x1="47.285%" y1="-269.553%" x2="50.255%" y2="94.973%" id="P"><stop stop-color="#f8e47f" offset="0%"/><stop stop-color="#f7db7c" offset="10.57%"/><stop stop-color="#f3c87b" offset="34.93%"/><stop stop-color="#f2c179" offset="51.98%"/><stop stop-color="#f6d17b" offset="70.96%"/><stop stop-color="#f8e47f" offset="100%"/></linearGradient><linearGradient x1="36.812%" y1="136.87%" x2="63.32%" y2="-33.291%" id="Q"><stop stop-color="#6a3894" offset="0%"/><stop stop-color="#8a2f83" offset="10.58%"/><stop stop-color="#b4256c" offset="26.53%"/><stop stop-color="#d31c5d" offset="40.92%"/><stop stop-color="#e51e54" offset="53.09%"/><stop stop-color="#ec1e4f" offset="61.58%"/><stop stop-color="#f8e47f" offset="100%"/></linearGradient><linearGradient x1="51.268%" y1="47.797%" x2="111.195%" y2="-92.982%" id="R"><stop stop-color="#6a3894" offset="0%"/><stop stop-color="#8a2f83" offset="10.58%"/><stop stop-color="#b4256c" offset="26.53%"/><stop stop-color="#d31c5d" offset="40.92%"/><stop stop-color="#e51e54" offset="53.09%"/><stop stop-color="#ec1e4f" offset="61.58%"/><stop stop-color="#f8e47f" offset="100%"/></linearGradient><linearGradient x1="28.861%" y1="154.57%" x2="66.465%" y2="-25.939%" id="S"><stop stop-color="#6a3894" offset="0%"/><stop stop-color="#8a2f83" offset="10.58%"/><stop stop-color="#b4256c" offset="26.53%"/><stop stop-color="#d31c5d" offset="40.92%"/><stop stop-color="#e51e54" offset="53.09%"/><stop stop-color="#ec1e4f" offset="61.58%"/><stop stop-color="#f8e47f" offset="100%"/></linearGradient><linearGradient x1="39.406%" y1="88.523%" x2="98.6%" y2="-60.132%" id="T"><stop stop-color="#6a3894" offset="0%"/><stop stop-color="#8a2f83" offset="10.58%"/><stop stop-color="#b4256c" offset="26.53%"/><stop stop-color="#d31c5d" offset="40.92%"/><stop stop-color="#e51e54" offset="53.09%"/><stop stop-color="#ec1e4f" offset="61.58%"/><stop stop-color="#f8e47f" offset="100%"/></linearGradient><linearGradient x1="30.207%" y1="198.316%" x2="63.342%" y2="-44.553%" id="U"><stop stop-color="#6a3894" offset="0%"/><stop stop-color="#8a2f83" offset="10.58%"/><stop stop-color="#b4256c" offset="26.53%"/><stop stop-color="#d31c5d" offset="40.92%"/><stop stop-color="#e51e54" offset="53.09%"/><stop stop-color="#ec1e4f" offset="61.58%"/><stop stop-color="#f8e47f" offset="100%"/></linearGradient><linearGradient x1="23.353%" y1="145.501%" x2="83.033%" y2="-60.884%" id="V"><stop stop-color="#6a3894" offset="0%"/><stop stop-color="#8a2f83" offset="10.58%"/><stop stop-color="#b4256c" offset="26.53%"/><stop stop-color="#d31c5d" offset="40.92%"/><stop stop-color="#e51e54" offset="53.09%"/><stop stop-color="#ec1e4f" offset="61.58%"/><stop stop-color="#f8e47f" offset="100%"/></linearGradient><linearGradient x1="27.956%" y1="228.377%" x2="59.913%" y2="-21.3%" id="W"><stop stop-color="#6a3894" offset="0%"/><stop stop-color="#8a2f83" offset="10.58%"/><stop stop-color="#b4256c" offset="26.53%"/><stop stop-color="#d31c5d" offset="40.92%"/><stop stop-color="#e51e54" offset="53.09%"/><stop stop-color="#ec1e4f" offset="61.58%"/><stop stop-color="#f8e47f" offset="100%"/></linearGradient><linearGradient x1="50.047%" y1="55.245%" x2="50.949%" y2="155.804%" id="X"><stop stop-color="#f8e47f" offset="0%"/><stop stop-color="#f7db7c" offset="10.57%"/><stop stop-color="#f3c87b" offset="34.93%"/><stop stop-color="#f2c179" offset="51.98%"/><stop stop-color="#f6d17b" offset="70.96%"/><stop stop-color="#f8e47f" offset="100%"/></linearGradient><linearGradient x1="52.935%" y1="4.416%" x2="41.003%" y2="204.29%" id="Y"><stop stop-color="#f8e47f" offset="0%"/><stop stop-color="#f7db7c" offset="10.57%"/><stop stop-color="#f3c87b" offset="34.93%"/><stop stop-color="#f2c179" offset="51.98%"/><stop stop-color="#f6d17b" offset="70.96%"/><stop stop-color="#f8e47f" offset="100%"/></linearGradient><linearGradient x1="54.558%" y1="-13.072%" x2="39.844%" y2="224.278%" id="Z"><stop stop-color="#f8e47f" offset="0%"/><stop stop-color="#f7db7c" offset="10.57%"/><stop stop-color="#f3c87b" offset="34.93%"/><stop stop-color="#f2c179" offset="51.98%"/><stop stop-color="#f6d17b" offset="70.96%"/><stop stop-color="#f8e47f" offset="100%"/></linearGradient><linearGradient x1="58.244%" y1="-110.719%" x2="35.884%" y2="341.376%" id="a"><stop stop-color="#f8e47f" offset="0%"/><stop stop-color="#f7db7c" offset="10.57%"/><stop stop-color="#f3c87b" offset="34.93%"/><stop stop-color="#f2c179" offset="51.98%"/><stop stop-color="#f6d17b" offset="70.96%"/><stop stop-color="#f8e47f" offset="100%"/></linearGradient><linearGradient x1="48.739%" y1="-111.609%" x2="50.613%" y2="138.354%" id="b"><stop stop-color="#f8e47f" offset="0%"/><stop stop-color="#f7db7c" offset="10.57%"/><stop stop-color="#f3c87b" offset="34.93%"/><stop stop-color="#f2c179" offset="51.98%"/><stop stop-color="#f6d17b" offset="70.96%"/><stop stop-color="#f8e47f" offset="100%"/></linearGradient><linearGradient x1="49.45%" y1="4.043%" x2="50.598%" y2="145.152%" id="c"><stop stop-color="#f8e47f" offset="0%"/><stop stop-color="#f7db7c" offset="10.57%"/><stop stop-color="#f3c87b" offset="34.93%"/><stop stop-color="#f2c179" offset="51.98%"/><stop stop-color="#f6d17b" offset="70.96%"/><stop stop-color="#f8e47f" offset="100%"/></linearGradient><linearGradient x1="106.724%" y1="8.252%" x2=".727%" y2="121.341%" id="d"><stop stop-color="#7f3996" offset="0%"/><stop stop-color="#9c2f82" offset="7.1%"/><stop stop-color="#b92770" offset="15.99%"/><stop stop-color="#d02162" offset="25.42%"/><stop stop-color="#df1e57" offset="35.54%"/><stop stop-color="#e91f52" offset="46.82%"/><stop stop-color="#ec1e4f" offset="61.58%"/><stop stop-color="#f8e47f" offset="100%"/></linearGradient><linearGradient x1="99.542%" y1="11.089%" x2="9.968%" y2="104.952%" id="e"><stop stop-color="#7f3996" offset="0%"/><stop stop-color="#9c2f82" offset="7.1%"/><stop stop-color="#b92770" offset="15.99%"/><stop stop-color="#d02162" offset="25.42%"/><stop stop-color="#df1e57" offset="35.54%"/><stop stop-color="#e91f52" offset="46.82%"/><stop stop-color="#ec1e4f" offset="61.58%"/><stop stop-color="#f8e47f" offset="100%"/></linearGradient><linearGradient x1="87.196%" y1="12.426%" x2="13.244%" y2="100.149%" id="f"><stop stop-color="#7f3996" offset="0%"/><stop stop-color="#9c2f82" offset="7.1%"/><stop stop-color="#b92770" offset="15.99%"/><stop stop-color="#d02162" offset="25.42%"/><stop stop-color="#df1e57" offset="35.54%"/><stop stop-color="#e91f52" offset="46.82%"/><stop stop-color="#ec1e4f" offset="61.58%"/><stop stop-color="#f8e47f" offset="100%"/></linearGradient><linearGradient x1="80.291%" y1="14.091%" x2="21.404%" y2="97.156%" id="g"><stop stop-color="#7f3996" offset="0%"/><stop stop-color="#9c2f82" offset="7.1%"/><stop stop-color="#b92770" offset="15.99%"/><stop stop-color="#d02162" offset="25.42%"/><stop stop-color="#df1e57" offset="35.54%"/><stop stop-color="#e91f52" offset="46.82%"/><stop stop-color="#ec1e4f" offset="61.58%"/><stop stop-color="#f8e47f" offset="100%"/></linearGradient><linearGradient x1="76.025%" y1="-4.778%" x2="25.917%" y2="100.047%" id="h"><stop stop-color="#7f3996" offset="0%"/><stop stop-color="#873a93" offset="9.59%"/><stop stop-color="#9e3b90" offset="24.69%"/><stop stop-color="#c23b89" offset="43.29%"/><stop stop-color="#ec3e81" offset="61.58%"/><stop stop-color="#f8e47f" offset="100%"/></linearGradient><linearGradient x1="54.805%" y1="35.23%" x2="35.235%" y2="97.281%" id="i"><stop stop-color="#7f3996" offset="0%"/><stop stop-color="#9c2f82" offset="7.1%"/><stop stop-color="#b92770" offset="15.99%"/><stop stop-color="#d02162" offset="25.42%"/><stop stop-color="#df1e57" offset="35.54%"/><stop stop-color="#e91f52" offset="46.82%"/><stop stop-color="#ec1e4f" offset="61.58%"/><stop stop-color="#f8e47f" offset="100%"/></linearGradient><linearGradient x1="56.075%" y1="31.589%" x2="41.889%" y2="89.903%" id="j"><stop stop-color="#7f3996" offset="0%"/><stop stop-color="#9c2f82" offset="7.1%"/><stop stop-color="#b92770" offset="15.99%"/><stop stop-color="#d02162" offset="25.42%"/><stop stop-color="#df1e57" offset="35.54%"/><stop stop-color="#e91f52" offset="46.82%"/><stop stop-color="#ec1e4f" offset="61.58%"/><stop stop-color="#f8e47f" offset="100%"/></linearGradient><linearGradient x1="54.689%" y1="22.488%" x2="32.079%" y2="154.954%" id="k"><stop stop-color="#7f3996" offset="0%"/><stop stop-color="#9c2f82" offset="7.1%"/><stop stop-color="#b92770" offset="15.99%"/><stop stop-color="#d02162" offset="25.42%"/><stop stop-color="#df1e57" offset="35.54%"/><stop stop-color="#e91f52" offset="46.82%"/><stop stop-color="#ec1e4f" offset="61.58%"/><stop stop-color="#f8e47f" offset="100%"/></linearGradient><linearGradient x1="56.249%" y1="25.105%" x2="40.593%" y2="88.789%" id="l"><stop stop-color="#7f3996" offset="0%"/><stop stop-color="#9c2f82" offset="7.1%"/><stop stop-color="#b92770" offset="15.99%"/><stop stop-color="#d02162" offset="25.42%"/><stop stop-color="#df1e57" offset="35.54%"/><stop stop-color="#e91f52" offset="46.82%"/><stop stop-color="#ec1e4f" offset="61.58%"/><stop stop-color="#f8e47f" offset="100%"/></linearGradient><linearGradient x1="55.804%" y1="12.814%" x2="33.194%" y2="155.289%" id="m"><stop stop-color="#7f3996" offset="0%"/><stop stop-color="#9c2f82" offset="7.1%"/><stop stop-color="#b92770" offset="15.99%"/><stop stop-color="#d02162" offset="25.42%"/><stop stop-color="#df1e57" offset="35.54%"/><stop stop-color="#e91f52" offset="46.82%"/><stop stop-color="#ec1e4f" offset="61.58%"/><stop stop-color="#f8e47f" offset="100%"/></linearGradient><linearGradient x1="54.103%" y1="7.856%" x2="46.781%" y2="83.491%" id="n"><stop stop-color="#7f3996" offset="0%"/><stop stop-color="#9c2f82" offset="7.1%"/><stop stop-color="#b92770" offset="15.99%"/><stop stop-color="#d02162" offset="25.42%"/><stop stop-color="#df1e57" offset="35.54%"/><stop stop-color="#e91f52" offset="46.82%"/><stop stop-color="#ec1e4f" offset="61.58%"/><stop stop-color="#f8e47f" offset="100%"/></linearGradient><linearGradient x1="52.814%" y1="16.019%" x2="44.77%" y2="115.366%" id="o"><stop stop-color="#7f3996" offset="0%"/><stop stop-color="#9c2f82" offset="7.1%"/><stop stop-color="#b92770" offset="15.99%"/><stop stop-color="#d02162" offset="25.42%"/><stop stop-color="#df1e57" offset="35.54%"/><stop stop-color="#e91f52" offset="46.82%"/><stop stop-color="#ec1e4f" offset="61.58%"/><stop stop-color="#f8e47f" offset="100%"/></linearGradient><linearGradient x1="53.103%" y1="11.805%" x2="44.409%" y2="118.907%" id="p"><stop stop-color="#7f3996" offset="0%"/><stop stop-color="#9c2f82" offset="7.1%"/><stop stop-color="#b92770" offset="15.99%"/><stop stop-color="#d02162" offset="25.42%"/><stop stop-color="#df1e57" offset="35.54%"/><stop stop-color="#e91f52" offset="46.82%"/><stop stop-color="#ec1e4f" offset="61.58%"/><stop stop-color="#f8e47f" offset="100%"/></linearGradient><linearGradient x1="55.463%" y1=".975%" x2="37.302%" y2="159.673%" id="q"><stop stop-color="#7f3996" offset="0%"/><stop stop-color="#9c2f82" offset="7.1%"/><stop stop-color="#b92770" offset="15.99%"/><stop stop-color="#d02162" offset="25.42%"/><stop stop-color="#df1e57" offset="35.54%"/><stop stop-color="#e91f52" offset="46.82%"/><stop stop-color="#ec1e4f" offset="61.58%"/><stop stop-color="#f8e47f" offset="100%"/></linearGradient><linearGradient x1="54.841%" y1="-.941%" x2="39.382%" y2="157.756%" id="r"><stop stop-color="#7f3996" offset="0%"/><stop stop-color="#9c2f82" offset="7.1%"/><stop stop-color="#b92770" offset="15.99%"/><stop stop-color="#d02162" offset="25.42%"/><stop stop-color="#df1e57" offset="35.54%"/><stop stop-color="#e91f52" offset="46.82%"/><stop stop-color="#ec1e4f" offset="61.58%"/><stop stop-color="#f8e47f" offset="100%"/></linearGradient><linearGradient x1="54.572%" y1="15.507%" x2="44.507%" y2="89.969%" id="s"><stop stop-color="#7f3996" offset="0%"/><stop stop-color="#9c2f82" offset="7.1%"/><stop stop-color="#b92770" offset="15.99%"/><stop stop-color="#d02162" offset="25.42%"/><stop stop-color="#df1e57" offset="35.54%"/><stop stop-color="#e91f52" offset="46.82%"/><stop stop-color="#ec1e4f" offset="61.58%"/><stop stop-color="#f8e47f" offset="100%"/></linearGradient><linearGradient x1="54.242%" y1="-3.009%" x2="41.208%" y2="160.547%" id="t"><stop stop-color="#7f3996" offset="0%"/><stop stop-color="#9c2f82" offset="7.1%"/><stop stop-color="#b92770" offset="15.99%"/><stop stop-color="#d02162" offset="25.42%"/><stop stop-color="#df1e57" offset="35.54%"/><stop stop-color="#e91f52" offset="46.82%"/><stop stop-color="#ec1e4f" offset="61.58%"/><stop stop-color="#f8e47f" offset="100%"/></linearGradient><linearGradient x1="53.775%" y1="17.448%" x2="45.321%" y2="92.293%" id="u"><stop stop-color="#7f3996" offset="0%"/><stop stop-color="#9c2f82" offset="7.1%"/><stop stop-color="#b92770" offset="15.99%"/><stop stop-color="#d02162" offset="25.42%"/><stop stop-color="#df1e57" offset="35.54%"/><stop stop-color="#e91f52" offset="46.82%"/><stop stop-color="#ec1e4f" offset="61.58%"/><stop stop-color="#f8e47f" offset="100%"/></linearGradient><linearGradient x1="53.991%" y1="-4.158%" x2="41.86%" y2="155.329%" id="v"><stop stop-color="#7f3996" offset="0%"/><stop stop-color="#9c2f82" offset="7.1%"/><stop stop-color="#b92770" offset="15.99%"/><stop stop-color="#d02162" offset="25.42%"/><stop stop-color="#df1e57" offset="35.54%"/><stop stop-color="#e91f52" offset="46.82%"/><stop stop-color="#ec1e4f" offset="61.58%"/><stop stop-color="#f8e47f" offset="100%"/></linearGradient><linearGradient x1="52.894%" y1="20.818%" x2="45.151%" y2="98.465%" id="w"><stop stop-color="#7f3996" offset="0%"/><stop stop-color="#9c2f82" offset="7.1%"/><stop stop-color="#b92770" offset="15.99%"/><stop stop-color="#d02162" offset="25.42%"/><stop stop-color="#df1e57" offset="35.54%"/><stop stop-color="#e91f52" offset="46.82%"/><stop stop-color="#ec1e4f" offset="61.58%"/><stop stop-color="#f8e47f" offset="100%"/></linearGradient><linearGradient x1="18.8%" y1="73.647%" x2="117.397%" y2="-83.503%" id="x"><stop stop-color="#6a3894" offset="0%"/><stop stop-color="#8a2f83" offset="10.58%"/><stop stop-color="#b4256c" offset="26.53%"/><stop stop-color="#d31c5d" offset="40.92%"/><stop stop-color="#e51e54" offset="53.09%"/><stop stop-color="#ec1e4f" offset="61.58%"/><stop stop-color="#f8e47f" offset="100%"/></linearGradient><linearGradient x1="27.745%" y1="80.148%" x2="109.998%" y2="-58.869%" id="y"><stop stop-color="#6a3894" offset="0%"/><stop stop-color="#8a2f83" offset="10.58%"/><stop stop-color="#b4256c" offset="26.53%"/><stop stop-color="#d31c5d" offset="40.92%"/><stop stop-color="#e51e54" offset="53.09%"/><stop stop-color="#ec1e4f" offset="61.58%"/><stop stop-color="#f8e47f" offset="100%"/></linearGradient><linearGradient x1="38.21%" y1="76.922%" x2="91.4%" y2="-54.681%" id="z"><stop stop-color="#6a3894" offset="0%"/><stop stop-color="#8a2f83" offset="10.58%"/><stop stop-color="#b4256c" offset="26.53%"/><stop stop-color="#d31c5d" offset="40.92%"/><stop stop-color="#e51e54" offset="53.09%"/><stop stop-color="#ec1e4f" offset="61.58%"/><stop stop-color="#f8e47f" offset="100%"/></linearGradient><linearGradient x1="32.743%" y1="82.686%" x2="87.579%" y2="-44.689%" id="AA"><stop stop-color="#6a3894" offset="0%"/><stop stop-color="#8a2f83" offset="10.58%"/><stop stop-color="#b4256c" offset="26.53%"/><stop stop-color="#d31c5d" offset="40.92%"/><stop stop-color="#e51e54" offset="53.09%"/><stop stop-color="#ec1e4f" offset="61.58%"/><stop stop-color="#f8e47f" offset="100%"/></linearGradient><linearGradient x1="40.24%" y1="78.535%" x2="84.908%" y2="-52.423%" id="AB"><stop stop-color="#6a3894" offset="0%"/><stop stop-color="#8a2f83" offset="10.58%"/><stop stop-color="#b4256c" offset="26.53%"/><stop stop-color="#d31c5d" offset="40.92%"/><stop stop-color="#e51e54" offset="53.09%"/><stop stop-color="#ec1e4f" offset="61.58%"/><stop stop-color="#f8e47f" offset="100%"/></linearGradient><linearGradient x1="33.922%" y1="87.723%" x2="78.718%" y2="-34.245%" id="AC"><stop stop-color="#6a3894" offset="0%"/><stop stop-color="#8a2f83" offset="10.58%"/><stop stop-color="#b4256c" offset="26.53%"/><stop stop-color="#d31c5d" offset="40.92%"/><stop stop-color="#e51e54" offset="53.09%"/><stop stop-color="#ec1e4f" offset="61.58%"/><stop stop-color="#f8e47f" offset="100%"/></linearGradient><linearGradient x1="41.127%" y1="77.814%" x2="78.045%" y2="-44.174%" id="AD"><stop stop-color="#6a3894" offset="0%"/><stop stop-color="#8a2f83" offset="10.58%"/><stop stop-color="#b4256c" offset="26.53%"/><stop stop-color="#d31c5d" offset="40.92%"/><stop stop-color="#e51e54" offset="53.09%"/><stop stop-color="#ec1e4f" offset="61.58%"/><stop stop-color="#f8e47f" offset="100%"/></linearGradient><linearGradient x1="40.866%" y1="82%" x2="80.114%" y2="-43.425%" id="AE"><stop stop-color="#6a3894" offset="0%"/><stop stop-color="#8a2f83" offset="10.58%"/><stop stop-color="#b4256c" offset="26.53%"/><stop stop-color="#d31c5d" offset="40.92%"/><stop stop-color="#e51e54" offset="53.09%"/><stop stop-color="#ec1e4f" offset="61.58%"/><stop stop-color="#f8e47f" offset="100%"/></linearGradient><linearGradient x1="33.909%" y1="98.207%" x2="77.477%" y2="-29.168%" id="AF"><stop stop-color="#6a3894" offset="0%"/><stop stop-color="#8a2f83" offset="10.58%"/><stop stop-color="#b4256c" offset="26.53%"/><stop stop-color="#d31c5d" offset="40.92%"/><stop stop-color="#e51e54" offset="53.09%"/><stop stop-color="#ec1e4f" offset="61.58%"/><stop stop-color="#f8e47f" offset="100%"/></linearGradient><linearGradient x1="40.31%" y1="85.981%" x2="78.446%" y2="-51.021%" id="AG"><stop stop-color="#6a3894" offset="0%"/><stop stop-color="#8a2f83" offset="10.58%"/><stop stop-color="#b4256c" offset="26.53%"/><stop stop-color="#d31c5d" offset="40.92%"/><stop stop-color="#e51e54" offset="53.09%"/><stop stop-color="#ec1e4f" offset="61.58%"/><stop stop-color="#f8e47f" offset="100%"/></linearGradient><linearGradient x1="32.376%" y1="106.137%" x2="74.783%" y2="-27.147%" id="AH"><stop stop-color="#6a3894" offset="0%"/><stop stop-color="#8a2f83" offset="10.58%"/><stop stop-color="#b4256c" offset="26.53%"/><stop stop-color="#d31c5d" offset="40.92%"/><stop stop-color="#e51e54" offset="53.09%"/><stop stop-color="#ec1e4f" offset="61.58%"/><stop stop-color="#f8e47f" offset="100%"/></linearGradient><linearGradient x1="39.507%" y1="90.206%" x2="78.191%" y2="-48.937%" id="AI"><stop stop-color="#6a3894" offset="0%"/><stop stop-color="#8a2f83" offset="10.58%"/><stop stop-color="#b4256c" offset="26.53%"/><stop stop-color="#d31c5d" offset="40.92%"/><stop stop-color="#e51e54" offset="53.09%"/><stop stop-color="#ec1e4f" offset="61.58%"/><stop stop-color="#f8e47f" offset="100%"/></linearGradient><linearGradient x1="31.245%" y1="113.21%" x2="72.91%" y2="-28.086%" id="AJ"><stop stop-color="#6a3894" offset="0%"/><stop stop-color="#8a2f83" offset="10.58%"/><stop stop-color="#b4256c" offset="26.53%"/><stop stop-color="#d31c5d" offset="40.92%"/><stop stop-color="#e51e54" offset="53.09%"/><stop stop-color="#ec1e4f" offset="61.58%"/><stop stop-color="#f8e47f" offset="100%"/></linearGradient><linearGradient x1="40.419%" y1="97.375%" x2="72.375%" y2="-52.712%" id="AK"><stop stop-color="#6a3894" offset="0%"/><stop stop-color="#8a2f83" offset="10.58%"/><stop stop-color="#b4256c" offset="26.53%"/><stop stop-color="#d31c5d" offset="40.92%"/><stop stop-color="#e51e54" offset="53.09%"/><stop stop-color="#ec1e4f" offset="61.58%"/><stop stop-color="#f8e47f" offset="100%"/></linearGradient><linearGradient x1="28.389%" y1="127.879%" x2="69.164%" y2="-23.332%" id="AL"><stop stop-color="#6a3894" offset="0%"/><stop stop-color="#8a2f83" offset="10.58%"/><stop stop-color="#b4256c" offset="26.53%"/><stop stop-color="#d31c5d" offset="40.92%"/><stop stop-color="#e51e54" offset="53.09%"/><stop stop-color="#ec1e4f" offset="61.58%"/><stop stop-color="#f8e47f" offset="100%"/></linearGradient><linearGradient x1="39.344%" y1="105.266%" x2="68.744%" y2="-45.668%" id="AM"><stop stop-color="#6a3894" offset="0%"/><stop stop-color="#8a2f83" offset="10.58%"/><stop stop-color="#b4256c" offset="26.53%"/><stop stop-color="#d31c5d" offset="40.92%"/><stop stop-color="#e51e54" offset="53.09%"/><stop stop-color="#ec1e4f" offset="61.58%"/><stop stop-color="#f8e47f" offset="100%"/></linearGradient><linearGradient x1="38.567%" y1="109.272%" x2="67.755%" y2="-46.05%" id="AN"><stop stop-color="#6a3894" offset="0%"/><stop stop-color="#8a2f83" offset="10.58%"/><stop stop-color="#b4256c" offset="26.53%"/><stop stop-color="#d31c5d" offset="40.92%"/><stop stop-color="#e51e54" offset="53.09%"/><stop stop-color="#ec1e4f" offset="61.58%"/><stop stop-color="#f8e47f" offset="100%"/></linearGradient><linearGradient x1="39.202%" y1="117.022%" x2="65.885%" y2="-33.064%" id="AO"><stop stop-color="#6a3894" offset="0%"/><stop stop-color="#8a2f83" offset="10.58%"/><stop stop-color="#b4256c" offset="26.53%"/><stop stop-color="#d31c5d" offset="40.92%"/><stop stop-color="#e51e54" offset="53.09%"/><stop stop-color="#ec1e4f" offset="61.58%"/><stop stop-color="#f8e47f" offset="100%"/></linearGradient><linearGradient x1="31.855%" y1="87.333%" x2="99.209%" y2="-50.691%" id="AP"><stop stop-color="#6a3894" offset="0%"/><stop stop-color="#8a2f83" offset="10.58%"/><stop stop-color="#b4256c" offset="26.53%"/><stop stop-color="#d31c5d" offset="40.92%"/><stop stop-color="#e51e54" offset="53.09%"/><stop stop-color="#ec1e4f" offset="61.58%"/><stop stop-color="#f8e47f" offset="100%"/></linearGradient><linearGradient x1="24.991%" y1="105.669%" x2="90.165%" y2="-33.201%" id="AQ"><stop stop-color="#6a3894" offset="0%"/><stop stop-color="#8a2f83" offset="10.58%"/><stop stop-color="#b4256c" offset="26.53%"/><stop stop-color="#d31c5d" offset="40.92%"/><stop stop-color="#e51e54" offset="53.09%"/><stop stop-color="#ec1e4f" offset="61.58%"/><stop stop-color="#f8e47f" offset="100%"/></linearGradient><linearGradient x1="139.779%" y1=".615%" x2="-149.959%" y2="198.322%" id="AR"><stop stop-color="#d4e5ee" offset="0%"/><stop stop-color="#cddfe8" offset="7.22%"/><stop stop-color="#b4cbd7" offset="18.58%"/><stop stop-color="#90abbb" offset="32.67%"/><stop stop-color="#5f8096" offset="48.78%"/><stop stop-color="#486d86" offset="55.37%"/><stop stop-color="#5d7e95" offset="59.41%"/><stop stop-color="#88a3b5" offset="68.5%"/><stop stop-color="#aac1ce" offset="77.34%"/><stop stop-color="#c1d5e0" offset="85.72%"/><stop stop-color="#d0e1ea" offset="93.48%"/><stop stop-color="#d4e5ee" offset="100%"/></linearGradient><linearGradient x1="110.786%" y1="-267.695%" x2="29.296%" y2="157.982%" id="AS"><stop stop-color="#d4e5ee" offset="0%"/><stop stop-color="#cddfe8" offset="7.22%"/><stop stop-color="#b4cbd7" offset="18.58%"/><stop stop-color="#90abbb" offset="32.67%"/><stop stop-color="#5f8096" offset="48.78%"/><stop stop-color="#486d86" offset="55.37%"/><stop stop-color="#5d7e95" offset="59.41%"/><stop stop-color="#88a3b5" offset="68.5%"/><stop stop-color="#aac1ce" offset="77.34%"/><stop stop-color="#c1d5e0" offset="85.72%"/><stop stop-color="#d0e1ea" offset="93.48%"/><stop stop-color="#d4e5ee" offset="100%"/></linearGradient><linearGradient x1="103.516%" y1="-125.978%" x2="-26.868%" y2="304.088%" id="AT"><stop stop-color="#d4e5ee" offset="0%"/><stop stop-color="#cddfe8" offset="7.22%"/><stop stop-color="#b4cbd7" offset="18.58%"/><stop stop-color="#90abbb" offset="32.67%"/><stop stop-color="#5f8096" offset="48.78%"/><stop stop-color="#486d86" offset="55.37%"/><stop stop-color="#5d7e95" offset="59.41%"/><stop stop-color="#88a3b5" offset="68.5%"/><stop stop-color="#aac1ce" offset="77.34%"/><stop stop-color="#c1d5e0" offset="85.72%"/><stop stop-color="#d0e1ea" offset="93.48%"/><stop stop-color="#d4e5ee" offset="100%"/></linearGradient><linearGradient x1="154.582%" y1="-23.7%" x2="-217.943%" y2="218.837%" id="AU"><stop stop-color="#d4e5ee" offset="0%"/><stop stop-color="#cddfe8" offset="7.22%"/><stop stop-color="#b4cbd7" offset="18.58%"/><stop stop-color="#90abbb" offset="32.67%"/><stop stop-color="#5f8096" offset="48.78%"/><stop stop-color="#486d86" offset="55.37%"/><stop stop-color="#5d7e95" offset="59.41%"/><stop stop-color="#88a3b5" offset="68.5%"/><stop stop-color="#aac1ce" offset="77.34%"/><stop stop-color="#c1d5e0" offset="85.72%"/><stop stop-color="#d0e1ea" offset="93.48%"/><stop stop-color="#d4e5ee" offset="100%"/></linearGradient><linearGradient x1="99.211%" y1="-20.856%" x2="-47.287%" y2="216.169%" id="AV"><stop stop-color="#d4e5ee" offset="0%"/><stop stop-color="#cddfe8" offset="7.22%"/><stop stop-color="#b4cbd7" offset="18.58%"/><stop stop-color="#90abbb" offset="32.67%"/><stop stop-color="#5f8096" offset="48.78%"/><stop stop-color="#486d86" offset="55.37%"/><stop stop-color="#5d7e95" offset="59.41%"/><stop stop-color="#88a3b5" offset="68.5%"/><stop stop-color="#aac1ce" offset="77.34%"/><stop stop-color="#c1d5e0" offset="85.72%"/><stop stop-color="#d0e1ea" offset="93.48%"/><stop stop-color="#d4e5ee" offset="100%"/></linearGradient><linearGradient x1="116.137%" y1="-19.298%" x2="-120.924%" y2="219.081%" id="AW"><stop stop-color="#d4e5ee" offset="0%"/><stop stop-color="#cddfe8" offset="7.22%"/><stop stop-color="#b4cbd7" offset="18.58%"/><stop stop-color="#90abbb" offset="32.67%"/><stop stop-color="#5f8096" offset="48.78%"/><stop stop-color="#486d86" offset="55.37%"/><stop stop-color="#5d7e95" offset="59.41%"/><stop stop-color="#88a3b5" offset="68.5%"/><stop stop-color="#aac1ce" offset="77.34%"/><stop stop-color="#c1d5e0" offset="85.72%"/><stop stop-color="#d0e1ea" offset="93.48%"/><stop stop-color="#d4e5ee" offset="100%"/></linearGradient><linearGradient x1="107.112%" y1="-1209.887%" x2="17.807%" y2="686.309%" id="AX"><stop stop-color="#d4e5ee" offset="0%"/><stop stop-color="#cddfe8" offset="7.22%"/><stop stop-color="#b4cbd7" offset="18.58%"/><stop stop-color="#90abbb" offset="32.67%"/><stop stop-color="#5f8096" offset="48.78%"/><stop stop-color="#486d86" offset="55.37%"/><stop stop-color="#5d7e95" offset="59.41%"/><stop stop-color="#88a3b5" offset="68.5%"/><stop stop-color="#aac1ce" offset="77.34%"/><stop stop-color="#c1d5e0" offset="85.72%"/><stop stop-color="#d0e1ea" offset="93.48%"/><stop stop-color="#d4e5ee" offset="100%"/></linearGradient><linearGradient x1="103.166%" y1="-263.873%" x2="33.442%" y2="149.161%" id="AY"><stop stop-color="#d4e5ee" offset="0%"/><stop stop-color="#cddfe8" offset="7.22%"/><stop stop-color="#b4cbd7" offset="18.58%"/><stop stop-color="#90abbb" offset="32.67%"/><stop stop-color="#5f8096" offset="48.78%"/><stop stop-color="#486d86" offset="55.37%"/><stop stop-color="#5d7e95" offset="59.41%"/><stop stop-color="#88a3b5" offset="68.5%"/><stop stop-color="#aac1ce" offset="77.34%"/><stop stop-color="#c1d5e0" offset="85.72%"/><stop stop-color="#d0e1ea" offset="93.48%"/><stop stop-color="#d4e5ee" offset="100%"/></linearGradient><linearGradient x1="120.648%" y1="-176.667%" x2="27.518%" y2="107.118%" id="AZ"><stop stop-color="#d4e5ee" offset="0%"/><stop stop-color="#cddfe8" offset="7.22%"/><stop stop-color="#b4cbd7" offset="18.58%"/><stop stop-color="#90abbb" offset="32.67%"/><stop stop-color="#5f8096" offset="48.78%"/><stop stop-color="#486d86" offset="55.37%"/><stop stop-color="#5d7e95" offset="59.41%"/><stop stop-color="#88a3b5" offset="68.5%"/><stop stop-color="#aac1ce" offset="77.34%"/><stop stop-color="#c1d5e0" offset="85.72%"/><stop stop-color="#d0e1ea" offset="93.48%"/><stop stop-color="#d4e5ee" offset="100%"/></linearGradient><linearGradient x1="164.291%" y1="-159.745%" x2="3.324%" y2="104.282%" id="Aa"><stop stop-color="#d4e5ee" offset="0%"/><stop stop-color="#cddfe8" offset="7.22%"/><stop stop-color="#b4cbd7" offset="18.58%"/><stop stop-color="#90abbb" offset="32.67%"/><stop stop-color="#5f8096" offset="48.78%"/><stop stop-color="#486d86" offset="55.37%"/><stop stop-color="#5d7e95" offset="59.41%"/><stop stop-color="#88a3b5" offset="68.5%"/><stop stop-color="#aac1ce" offset="77.34%"/><stop stop-color="#c1d5e0" offset="85.72%"/><stop stop-color="#d0e1ea" offset="93.48%"/><stop stop-color="#d4e5ee" offset="100%"/></linearGradient></defs><path d="M254.802 62.05l-.2-.1v-.593l-.3-.791-.598-.692-.8-.495-.099-.198-.6-.593-.898-.495-.798-.296h-.2l-.799-.693-1.098-.593-1.198-.593-1.298-.396h-.2l-.998-1.088-1.198-.989-1.199-.593-1.198-.297h-.2l-1.098-.791-1.797-.693-.799-.098-1.098-.693-1.198-.494-1.098-.198-1.198-.099-1.199.099-.898.198-.5-.89-1.497-.99-1.897-.395h-1.697l-2.097.396-.6.197-1.497-.593-1.697-.495-1.797-.197h-1.698l-1.797.197h-.2l-1.797-.692-1.897-.494-1.897-.297-.998-.099-1.598-1.483-1.797-1.286-1.797-.89-1.598-.495-1.997-.099-.898.1-.799-.693-1.398-.593-1.697-.198-.999.198-1.397-.495-1.498-.396-1.398-.197h-.5l-2.096-.792-2.596-.692-2.396-.198h-.3l-2.196-1.285-2.496-.594h-1.698l-3.694-.89-2.396-.198h-.799l-1.198-1.187-1.697-.989-1.897-.494-1.897.198-1.199.296-1.597-.296-1.697-.1-1.997.1h-.1v-.297l-2.995-.692-2.796-.396-2.596-.099-.899.1v-.1l-1.996-.297-1.997-.197h-.2l-2.197-.89-2.296-.594-2.097-.297h-1.497l-2.197-.79-1.797-.396-1.897-.1h-.3l-2.096-1.384-1.997-.791-1.498-.198-1.597-.791-2.397-.593-2.096.098-2.097-.989-2.197-.494h-1.098l-2.197-1.187-2.196-.593-2.197-.1-.4.1-2.895-1.484-2.196-.791-2.297-.198h-.1l-1.198-.692-1.298-.594-1.397-.395-1.498-.1-1.198.1-1.398-.99-1.697-.691-1.897-.297-1.598.099-1.897.395-.2.1-1.897-.89-1.996-.495-1.898-.1-1.497-.988-1.598-.594-1.697-.198-1.598.198-1.397.396-1.099-1.088-1.397-.89-1.698-.297-1.497.297-1.099.494-.699-.494-.699-.297-.798-.297-.6-.098-.898.098-.899.297-.898.594-.2.197-1.697-.395-1.698.099-1.497.494-1.198.89-.999 1.187-.699 1.484-.499 1.582-.4 1.681-.199 1.682.1 7.516-2.896-1.088.1-1.088.2-1.186.1-1.286.1-1.286.1-1.187.1-1.187-.1-1.186-.1-1.187-.1-1.187-.2-.989-.3-.989-.1-.396.1-.296.3-.99.4-.988.299-.99.5-.988-1.698 1.582-.799.692-.3-.395-.698-.693-.8-.593.2 1.187.2 1.187.2.79-.5.693-.299.693-.1-.297-.2-.594-.199-.692-.2-.791v-.692l-.1-.792-.1-.692-.1-.791v-.791l.1-.693.1-.692.1-.692.2-.693.2-.593-.899 1.187-.699 1.286-.499 1.285-.3 1.286-.1 1.385v1.384l.2 1.385.3 1.384.3 1.088-.5-.296-.5-.693-.598-.79-.6-.792-.498-.89-.5-.99-.399-1.186-.3-1.385-.1-1.582-1.098.989-.599 1.088-.3 1.187v1.186l.2 1.187.5 1.286.599 1.286.599.989-1.099-.198-1.198-.099.8.495.798.494.799.495.699.494.698.495.6.593.998 1.088.998.989.899.989.799.89.699.791.399.495.4.494.2.297C27.955 19.918 15.375 14.379 0 7.06c3.095 5.044 14.477 10.286 19.17 13.847 4.992 2.67 11.881 5.538 17.872 7.813l-1.298.296-1.298.198-.499.1h-.3l-.898.098-.899.099h-.898l-.899.099h-1.797l-.899-.099-.898-.099-.899-.099-.899-.099-.898-.198-.899-.197.999.692.998.593.999.396.998.297.6.099-1.299.395-1.298.495-1.597.89-1.198.791-.999.791-.899.99-.798.988-.6 1.187-.399 1.385.4-.495.499-.494.5-.495.498-.494.6-.396.598-.396.6-.395.599-.396.698-.296.6-.297.698-.198.7-.297.698-.197.7-.198.598-.1.7-.098 1.197-.495 1.298-.692 1.298-.791 1.298-.791 1.198-.693.6-.197h.1l-.9.494-.898.594-.998.593-.999.692-.898.594-.999.593-.898.593-.999.594-.998.593-.999.594-.998.593-.999.593-1.198.792-1.098.593 1.098.099 1.098-.099.999-.198.998-.296.999-.396-.3.297-.699 1.088-.499 1.186-.2 1.286.2 1.286.5 1.286.798-1.484.799-1.187.799-1.088.798-.89.8-.692.898-.594.898-.593.899-.494.5-.297-.1.099-.3 1.285-.2 1.583.1 1.681.3 1.88.599 2.175.2-1.088.199-.989.3-.989.299-.989.3-.989.399-.89.4-.989.498-.989.5-.89.499-.89.5-.99.498-.89.6-.89.598-.988.6-.99.499-.79c.799.296 1.497.593 2.196.79l-1.298 2.176-1.198 2.374-.998 2.868-.4 1.583-.1 1.483.1 1.484.3 1.285.699 1.385 1.098 1.187 1.598.89 1.597.494.4.89.898 1.187.899.792.798.593.9.494.898.297.798.099h.999l.898 1.187 1.298.989 1.498.593 1.797.1 1.398-.396.2.296 1.298 1.187 1.298.89 1.298.594 1.797.296 1.098-.099 1.098.792 1.698.692 1.497.396 1.099.79 1.797.792 2.296.494 2.097.1.1.098 1.597 1.187 1.598.89 1.498.495 1.897.197 1.697-.296.699.395 1.298.594 1.398.296 1.298.1 1.198-.198.4.296 2.096.693 2.396.296 2.596-.099.5.297 2.096.692 2.097.297 2.795-.099 1.798.594 2.196.296 2.097-.099.699.396 2.096.791 2.397.297 2.396-.297v-.099l1.198.297h1.997l2.197-.494 1.298.494 1.697.396 1.697.197h2.097l.5.198 1.996.594 2.097.395 2.296.1 2.297-.199v-.099l1.198.297 1.897.297 1.897.099.1-.198 1.298.396 2.496.395 2.695.1 2.896-.1.4.1 1.797.395 1.697.197 1.697.1.1.098 1.598.791 1.897.495h1.697l1.797-.396 1.498-.89 1.697.495 2.297.198h2.396l.5.197 2.395.396 2.297-.198 2.396-.791 1.997.198 2.496-.1 1.897-.296 1.098.198 1.398.099 3.095-.297.999.396 1.497.198 1.298-.297.999-.495h.1l1.597.495 1.697.297h1.698l1.797-.396 1.897-.89 1.797-1.088 1.398.099 1.897-.099 1.598-.198.898.297 1.598.297 1.597.197 1.698-.099 1.597-.296.3.099 1.996.692 1.798.396h1.597l1.598-.495.798-.791.4.099 1.098.296 1.098.198 1.198-.099 1.099-.197.799-.297 1.397.099 1.498-.198 1.398-.593h.2l1.397-.1 1.198-.197 1.398-.594.999-.692h1.298l1.198-.198 1.098-.296 1.198-.495h.5l.698-.099.7-.296.199-.198.799-.1.898-.395.4-.692.1-.495h.299l.899-.89.1-.395.2.099.099-2.473-1.198-1.385zM41.236 25.257l-1.498-.593-.1-.198v-.198l.1.198-.1-.297v-.395l.1-1.187.1-1.187.1-1.187.1-1.088.1-.79.1.89.099.988.2.99.2.988.199.99.2.988.1 1.088zm-4.194 3.56h.1l-.5.297h-.599l.3-.197.7-.1zm-2.596 2.77l.899-.89.898-.99.4-.395.599-.297-.4.1.2-.198c.5.197 1.098.395 1.598.593l-.6.396-.998.494-1.198.594-1.198.593-.699.297.5-.297zm5.192-1.385l-.5.495-.698.395-.6.396.2-.396.8-1.582c.399.198.798.297 1.197.396l-.399.296z" fill="#dcddde"/><g stroke="#231f20"><path d="M255.8 61.8C235.2 59 159 55.1 125.1 49.6c-27.3-4.5-54-12.6-79.5-21.1-6.6-2.2-18.2-6.7-25.7-10.8-4.7-3.6-16.1-9-19.2-14C50.1 27.1 70 33.5 127.9 45.3c23.5 4.8 108.9 11.7 127.9 16.5z" stroke-width=".596" fill="#231f20"/><g stroke-width=".254"><path d="M182.8 70.9l-2.2.8-2.2.1-2.1-.3-2.2-.9-2.1-1.1-2.1-1.6-2-1.7-1.9-1.9-1.9-1.9-1.8-1.9-1.7-1.9-1.5-1.7-1.5-1.5-1.3-1.1-1.2-.8-1-.3h.8l1 .1 1 .1 1.1.1 1 .1 1.1.1 1 .1.9.1 1.5 1.4 1.4 1.2 1.2 1.3 1.1 1.3 1.1 1.2 1.1 1.2 1 1.2 1 1.1 1.1 1.1 1.1 1 1.2 1 1.3.9 1.4.9 1.6.8 1.7.8 2 .6z" fill="url(#A)"/><path d="M190 70.6l-2.5.4-2.4.1-2.2-.2-2.1-.6-2-.8-1.7-1-1.8-1.1-1.5-1.4-1.6-1.4-1.5-1.5-1.4-1.6-1.4-1.6-1.5-1.6-1.4-1.5-1.5-1.5L162 54h1.2l.6.1h.6l.7.1.6.1.7.1h.6l.6.1.7.1.7.1h.7l.7.1h1.4l.7.1.5.8.6 1 .9 1.2.8 1.2 1.1 1.3 1.1 1.4 1.2 1.4 1.2 1.3 1.3 1.3 1.2 1.2 1.4 1.1 1.3.9 1.2.8 1.3.5 1.3.3h1.1z" fill="url(#B)"/><path d="M194.8 70.7l-1.5.1-1.4.2-1.3-.1-1.3-.2-1.4-.3-1.3-.5-1.2-.7-1.4-.9-1.3-.9-1.4-1.2-1.3-1.4-1.4-1.5-1.5-1.8-1.5-2-1.6-2.2-1.6-2.4h1l.9.1 1 .1.9.1.9.1 1 .1h2.1l1 .9.8 1 .9 1 .9 1 .8 1 .9 1.1.8.9.9 1.1.8 1 .9 1 .9 1 .9.9 1 .9 1 .8 1 .9 1.1.8z" fill="url(#C)"/><path d="M199.9 70.4l-1.1.6-1.3.2-1.2-.1-1.3-.5-1.3-.8-1.3-1.1-1.3-1.1-1.4-1.4-1.3-1.5-1.3-1.5-1.2-1.5-1.3-1.5-1.1-1.4-1.1-1.3-1.1-1.1-.9-.9 6.2.6.7.9.8.9.7 1 .7.9.7.9.7.9.7 1 .8.9.8.9.8.9.8.9 1 .9.9.8 1 .9 1.1.8 1.1.8z" fill="url(#D)"/><path d="M210.2 69.1l-1.8 1.1-1.7.8-1.7.4h-1.6l-1.6-.3-1.5-.6-1.5-.8-1.4-1-1.4-1.3-1.4-1.3-1.3-1.6-1.4-1.6-1.3-1.7-1.2-1.7-1.3-1.8-1.2-1.6 1.1.1.8.1h.6l.5.1.5.1h1.3l1 .1 1.1 1.5 1.1 1.5L196 61l1.2 1.2 1.2 1.1 1.2 1.1 1.2.9 1.2.8 1.1.7 1.2.7 1.1.4 1 .4 1.1.4.9.2 1 .1.8.1z" fill="url(#E)"/><path d="M215.6 68.7l-1.9.3-1.8.1-1.7-.1-1.7-.3-1.6-.3-1.6-.5-1.4-.7-1.4-.8-1.4-.9-1.3-1-1.3-1.1-1.2-1.2-1.2-1.3-1.1-1.4-1.1-1.4-1-1.5h1.1l1.3.1 1.2.2h1.3l1 .1.9.1h.6l.3.1.1.1.3.3.5.5.6.6.6.7.8.8.9.8 1 1 1.1.9 1.2 1 1.1.9 1.3 1 1.3.8 1.4.8 1.4.7 1.4.6z" fill="url(#F)"/><path d="M222.7 69.1l-1.5.3-1.5.1-1.6-.1-1.6-.3-1.6-.5-1.5-.7-1.5-.7-1.5-1-1.4-1-1.4-1-1.3-1.1-1.3-1.2-1.2-1.2-1.2-1.2-1.1-1.1-1-1.2h.7l.9.1h1.9l1 .1.9.1.8.1.6.1v.1l.2.3.6.5.8.6 1 .9 1.2.9 1.3 1 1.3 1 1.4 1 1.4 1.1 1.4.9 1.2.9 1.2.8 1.1.7.8.4.5.3z" fill="url(#G)"/><path d="M230.7 69.1l-1 .9-1.2.4H227l-1.7-.4-1.9-.7-1.9-1-2-1.1-2-1.3-2-1.4-1.8-1.4-1.8-1.4-1.5-1.2-1.3-1.1-1-.9-.7-.5-.3-.3.8.1h.8l.9.1.8.1 1 .1h.9l.9.1h1l1.1.7 1 .6 1.1.7 1 .7 1 .7 1 .7 1.1.7 1 .7 1 .8 1 .7 1 .7 1 .7 1.1.6 1 .6 1 .7 1.1.6z" fill="url(#H)"/><path d="M236.5 69.2l-1 .3-1 .2-1 .1-1-.2-1-.3-1-.4-1.1-.6-1.2-.7-1.3-.8-1.3-.9-1.5-1.1-1.6-1.1-1.8-1.2-1.9-1.3-2.1-1.4-2.3-1.5.9.1h2.1l1 .1h.9l.7.1.5.1h.1l.2.2.3.3.5.5.7.6.9.8 1 .9 1 .8 1.3 1 1.2.9 1.3.9 1.3.8 1.3.9 1.3.7 1.3.5 1.2.4 1.1.3z" fill="url(#I)"/><path d="M240.7 68.5l-1.3.6-1.4.2-1.6-.1-1.5-.4-1.7-.6-1.5-.8-1.7-.9-1.5-1-1.4-1.1-1.4-1.1-1.3-1-1.1-1.1-1-.9-.8-.7-.6-.5-.3-.4.9.1h.9l.9.1.8.1.9.1h.8l1 .1.9.1.7.6.8.7.6.6.8.7.8.8.7.7.8.7.9.7.8.6.8.6.9.6.8.5.9.5.9.4.9.3.9.2z" fill="url(#J)"/><path d="M245.9 66.9l-1.2.8-1.2.5-1.1.3h-1.2l-1.2-.2-1.1-.4-1.2-.5-1.1-.7-1.2-.7-1.1-1-1.1-.9-1.1-1-1.1-1-1.1-1-1-1-1.1-.9h.7l.6.1.8.1.8.1.9.1h.9l1 .1 1 .1.2.7.4.7.5.6.5.7.6.6.6.5.6.6.8.5.8.5.8.4.9.4.8.3 1 .2.9.2 1 .1 1 .1z" fill="url(#K)"/><path d="M250.5 66l-1 .4-1.1.3-1.1.2h-1.2l-1.2-.1-1.2-.1-1.3-.4-1.2-.3-1.2-.6-1.1-.5-1-.7-.9-.7-.8-.8-.7-.9-.5-1-.4-1 .7.1h.7l.8.1.7.1h.8l.8.1.9.1h1l.4.6.5.6.4.5.5.5.4.4.6.4.5.4.5.3.6.3.6.3.7.3.7.3.7.2.7.2.9.2.8.2z" fill="url(#L)"/><path d="M252.9 65.2l-.4.4-.5.2-.7.1h-.7l-.8-.1-.8-.1-1-.3-.9-.3-.9-.4-1-.5-.9-.5-.8-.6-.8-.6-.7-.7-.6-.7-.4-.8.5.1h.5l.5.1.6.1h.5l.5.1h.8v.2l.5.5.9.6 1.1.8 1.4.7 1.4.8 1.4.6 1.3.3z" fill="url(#M)"/><path d="M254.5 63.6l-.1.8-.3.5-.4.2-.7.2-.7-.2-.9-.2-.9-.4-.9-.5-.9-.5-.9-.6-.9-.5-.7-.6-.6-.4-.5-.4-.3-.2v-.1l4.5.5.4.2.5.3.7.4.8.3.8.4.8.3.7.3.5.2z" fill="url(#N)"/><path d="M249.3 61.2h1l.9.1.8.1h.7l.7.1h.8l.8.2.8.1-.1 1.1-.6.6h-.8l-1-.3-1.1-.6-1.1-.5-1-.6-.8-.3z" fill="url(#O)"/><path d="M249.5 60.6l1 .2.8.1.8.2.8.1.7.2.7.1.8.2.8.2.1-1.2-.5-.9-.8-.2-1.1-.1-1.2.2-1.2.3-1 .4-.7.2z" fill="url(#P)"/><path d="M188.9 36.9l-2.6-.9-2.4-.7-2.3-.2-2.2.2-2.1.4-1.9.7-1.8 1-1.8 1.1-1.8 1.3-1.7 1.4-1.7 1.5-1.6 1.5-1.6 1.4-1.7 1.4-1.6 1.4-1.7 1.2.6.1.7.1h.6l.6.2h.6l.7.1h.7l.6.1h.6l.7.1.7.1.7.1h.7l.7.1.7.1.7.1.6-.8.8-1 .8-1.1 1.1-1.2 1.1-1.3 1.2-1.3 1.4-1.3 1.3-1.2 1.5-1.2 1.4-1 1.5-.9 1.5-.8 1.4-.6 1.5-.3 1.4-.1 1.4.2z" fill="url(#Q)"/><path d="M193.3 37.9l-1.5-.5-1.4-.3-1.3-.3-1.4-.1-1.4.1-1.4.3-1.3.4-1.4.7-1.5.8-1.4 1-1.5 1.3-1.6 1.4-1.7 1.7-1.7 1.9-1.8 2.2-1.9 2.4h1l1 .2h.8l.9.1.8.1.8.2 1 .1 1.2.2 1.1-.9.9-.9 1.1-1 .9-1 1-1 1-1 .9-1 1-.9 1-1 1.1-.8.9-.9 1.1-.9 1.1-.8 1.2-.6 1.1-.6 1.3-.6z" fill="url(#R)"/><path d="M198.1 39.2l-1.1-.9-1.2-.5-1.3-.1-1.4.3-1.4.6-1.5.8-1.5 1-1.5 1.3-1.5 1.3-1.5 1.4-1.5 1.4-1.4 1.5-1.3 1.3-1.2 1.2-1.1 1.1-1.1.9 6.4.7.8-.9.8-1 .7-.9.9-.9.8-1 .8-.9.9-1 .8-.9.9-.8.9-.9 1-.8 1.1-.8 1.1-.7 1.1-.7 1.3-.6 1.2-.5z" fill="url(#S)"/><path d="M207.7 43.3l-1.7-1.7-1.7-1.2-1.7-.8-1.6-.5-1.6-.1-1.6.3-1.6.6-1.5.7-1.5 1.1-1.5 1.2-1.5 1.4-1.4 1.5-1.4 1.6-1.4 1.7-1.4 1.7-1.4 1.6 1.1.1.9.1h.8l.7.1.7.2.7.1.9.1 1.1.2 1.2-1.6 1.1-1.4 1.3-1.3 1.1-1.1 1.3-.9 1.1-.9 1.1-.7 1.2-.5 1.1-.5 1-.4 1.2-.2 1-.3 1-.1 1-.1h1.9z" fill="url(#T)"/><path d="M214.5 44.8l-1.9-.7-1.8-.5-1.8-.3-1.7-.1h-1.7l-1.6.3-1.6.3-1.5.5-1.5.7-1.4.8-1.5.9-1.3 1.1-1.4 1.1-1.2 1.3-1.3 1.4-1.2 1.5 1.2.2 1.4.2 1.4.2 1.4.1 1.3.2 1 .1.8.1h.3l.1-.1.3-.3.4-.4.5-.5.6-.6.8-.7.9-.7 1-.9 1.1-.7 1.1-.8 1.3-.8 1.4-.7 1.4-.7 1.5-.6 1.6-.5 1.6-.4z" fill="url(#U)"/><path d="M223.1 45.9l-1.5-.6-1.6-.5-1.7-.2h-1.6l-1.7.2-1.7.3-1.6.6-1.7.6-1.6.8-1.6.8-1.5 1-1.5 1-1.3 1-1.4 1.1-1.2 1.1-1.1 1.1.8.1.9.1 1 .1 1.1.1 1.2.2.9.1h1.6v-.1l.2-.3.6-.4.9-.6 1-.6 1.3-.8 1.4-.8 1.4-.8 1.5-.8 1.5-.8 1.5-.8 1.4-.7 1.3-.6 1.1-.4 1-.3.7-.2z" fill="url(#V)"/><path d="M231.3 47.6l-.8-1.3-1.2-.8-1.6-.2H226l-1.9.4-2.1.6-2.2.9-2.2 1-2.2 1.1-2 1.1-2 1.2-1.7 1.1-1.5.9-1.1.7-.7.5-.4.2.8.2 1 .1 1 .1 1 .1 1.1.1 1.1.1 1.1.2 1 .1 1.1-.5 1.1-.5 1.1-.6 1-.6 1.1-.5 1-.6 1.1-.6 1.1-.6 1-.5 1.1-.6 1.1-.5 1-.5 1.1-.5 1.1-.4 1.1-.5 1.1-.4z" fill="url(#W)"/><path d="M241.7 50.4l-1.3-1-1.4-.5-1.5-.2h-1.7l-1.7.3-1.7.5-1.7.6-1.7.8-1.5.9-1.6.8-1.4 1-1.2.8-1.1.8-.9.7-.7.4-.3.3.9.1.9.1.8.2h.7l.8.1.8.1.9.1.9.1.8-.5.8-.5.9-.7.9-.6.9-.6.9-.6 1-.7.9-.6.9-.5 1-.5 1-.5.9-.3 1-.3 1-.2h.9l.9.1z" fill="url(#X)"/><path d="M237.9 48.7l-1-.7-1.1-.4-1-.3-1-.1-1 .1-1.2.2-1.2.4-1.3.5-1.4.6-1.4.7-1.6.9-1.8.9-1.9 1-2.1 1.1-2.3 1.1-2.5 1.2 1 .1 1 .1 1 .1 1.1.2.9.1.7.1.6.1.2-.1.1-.1.4-.3.5-.5.7-.5.9-.6 1.1-.7 1.1-.8 1.2-.7 1.3-.8 1.4-.8 1.4-.6 1.5-.6 1.4-.5 1.5-.3 1.4-.1h1.4z" fill="url(#Y)"/><path d="M246.4 53.3l-1.1-1.1-1.1-.9-1.1-.6-1.1-.3-1.2-.1-1.2.1-1.3.3-1.2.4-1.3.7-1.2.6-1.3.8-1.3.8-1.3.9-1.2.8-1.2.9-1.2.8.6.1h.8l.9.2.9.1 1 .1 1.1.2.9.1 1 .1.4-.8.4-.6.5-.7.5-.5.6-.6.7-.4.7-.4.8-.3.8-.3.9-.3.8-.1 1-.1 1-.1h.9l1 .1 1.1.1z" fill="url(#Z)"/><path d="M253.6 57.2l-.3-.5-.5-.4-.6-.4-.7-.2-.9-.2h-2.9l-1 .2-1 .3-1 .3-.9.4-.9.5-.8.6-.7.6-.5.7.5.1.6.1.7.1.6.2h.6l.5.1h.4l.3-.1.5-.4 1-.5 1.2-.5 1.3-.4 1.5-.5 1.5-.2 1.5.1z" fill="url(#a)"/><path d="M255 59.6v-1l-.2-.7-.4-.4-.7-.3-.7-.2-.9.1-.9.1-1.1.3-1 .3-1 .4-.9.3-.8.4-.7.3-.6.2-.3.3h-.1l4.7.8.4-.1.6-.2.7-.2.8-.3.8-.1.9-.2h.7l.7.2z" fill="url(#b)"/><path d="M251.1 55.7l-.9-.8-1-.6-1.1-.5-1.2-.4-1.3-.2-1.2-.2h-1.3l-1.3.2-1.2.2-1.2.4-1.1.5-1.1.5-.9.8-.9.8-.6.9-.5 1 .7.1.7.1.8.1.8.1.8.1.9.1.9.1 1 .2.4-.6.4-.4.4-.4.6-.4.5-.4.7-.3.6-.3.7-.3.7-.2.8-.2.7-.1.7-.1h2.3l.7.2z" fill="url(#c)"/><path d="M43.7 27.8l-.1.2-.3.4-.4.8-.5.9-.6 1.1-.6 1.3-.5 1.4-.5 1.4-.3 1.4-.1 1.4v1.4l.3 1.3.7 1.2 1 1 1.4.8 1.8.6-.3-.9-.2-.9-.2-.9-.1-1.1-.1-1v-1.1l.1-1.1.1-1.1.1-1.1.1-1.1.2-1.1.2-1 .2-.9.2-.9.3-.9.2-.7-.3-.2h-.2l-.3-.1-.2-.1-.3-.1-.2-.1-.3-.1-.3-.1z" fill="url(#d)"/><path d="M45.7 28.6l-.8 3.2-.6 2.9-.3 2.5v2.2l.1 2 .3 1.6.5 1.4.5 1.2.7.9.8.7.7.6.8.4.8.3.7.1h1.2l-.3-.9-.4-.9-.3-1.1-.2-1-.2-1.2-.2-1.1-.2-1.2-.1-1.2-.1-1.3v-1.2l.1-1.3.1-1.2.2-1.3.2-1.2.3-1.2.4-1.2-.7-.3-.7-.2-.7-.2-.6-.2-.5-.2-.6-.2-.5-.1-.4-.1z" fill="url(#e)"/><path d="M50.4 30.1l-.3 1.1-.4 1.5-.2 1.6-.1 1.8-.1 2v2l.2 2 .3 1.9.4 1.8.5 1.7.8 1.4.9 1.2 1.1.9 1.3.4 1.4.1 1.7-.5-.6-1-.7-1.1-.5-1.2-.5-1.1-.3-1.2-.4-1.2-.2-1.2-.2-1.2-.2-1.3V38l.1-1.2.1-1.3.2-1.2.3-1.3.3-1.3-.6-.2-.7-.2-.7-.2-.7-.3-.7-.2-.5-.2-.6-.2-.4-.1z" fill="url(#f)"/><path d="M65.2 54.2l-1.5.1-1.6-.2-1.3-.6-1.2-.8-1.2-1.1-1-1.3-.8-1.5-.7-1.7-.6-1.8-.5-2-.3-1.9-.1-2v-2l.2-2 .3-1.9.5-1.8.7.2.6.3.7.1.7.3.7.2.8.2.7.3.7.2v2.6l.1 1.5v1.5l.1 1.6.1 1.6.1 1.7.2 1.6.3 1.6.2 1.4.3 1.4.4 1.3.5 1 .6.9.6.6.7.4z" fill="url(#g)"/><path d="M61.1 33.5l.6.3.6.2.5.1.6.1.5.2.6.2.6.2.5.2.1 1.2.1 1.2.1 1.4v4.5l.1 1.6v1.5l.2 1.5.1 1.5.3 1.4.3 1.3.5 1.2.5 1.2.7.9.8.7-1.7-.4-1.4-.5-1.2-.9-1-.9-.8-1.1-.6-1.3-.5-1.4-.3-1.4-.3-1.7-.2-1.7v-1.7l-.1-1.9v-1.8l-.1-1.9v-2l-.1-2z" fill="url(#h)"/><path d="M76.5 58.4l-2.3-.1-2-.5-1.6-.7-1.3-1-1.1-1.3-.8-1.5-.6-1.6-.4-1.8-.2-1.9-.2-1.9-.1-2v-5.7l-.1-1.8-.1-1.6.6.2.6.1.5.2.6.2.6.2.5.1.6.2.7.1-.1.2-.1.4-.1.7-.2.8-.1 1-.1 1.2-.1 1.3.1 1.5.1 1.6.3 1.8.6 1.8.6 1.8.9 2 1.2 2 1.4 2 1.7 2z" fill="url(#i)"/><path d="M84.5 60.9l-1.6.3-1.6-.1-1.5-.5-1.5-.9-1.5-1.1-1.4-1.3-1.2-1.6-1.2-1.8-1-2-.9-2.1-.7-2.2-.5-2.2-.2-2.3-.1-2.3.2-2.2.5-2.3 5.5 1.8v.9l-.1 1.1.1 1.2.1 1.4.2 1.5.3 1.6.2 1.6.5 1.7.5 1.7.7 1.6.7 1.6.9 1.6.9 1.5 1.1 1.4 1.2 1.3 1.4 1.1z" fill="url(#j)"/><path d="M75.7 38l.9.3 1.1.2 1.2.5 1.3.3 1.2.4 1.2.4 1.1.2.8.2.1 1.4.1 1.4.1 1.5.1 1.5.1 1.5.2 1.6.1 1.5.3 1.5.3 1.5.3 1.4.5 1.4.5 1.2.6 1.3.8 1 .8 1 1 .9-1.2.1H88l-1.2-.3-1.2-.5-1.3-.8-1.2-.9-1.1-1.2-1.2-1.4-1.1-1.6-.9-1.9-.9-2-.7-2.3-.6-2.5-.5-2.7-.3-3-.1-3.1z" fill="url(#k)"/><path d="M98 63.2l-2.6.1-2.2-.2-1.9-.6-1.5-1-1.3-1.2-1.1-1.5-.7-1.6-.6-1.9-.5-1.8-.3-2.1-.1-2-.2-1.9-.1-2-.1-1.8-.1-1.7-.2-1.5.8.1.7.2.7.2.6.2.7.2.6.2.8.2.9.2.2 1.6.1 1.5.2 1.5.2 1.5.2 1.4.2 1.4.3 1.4.3 1.3.4 1.3.5 1.3.6 1.2.6 1.2.8 1.2.9 1.2 1.1 1.1 1.1 1.1z" fill="url(#l)"/><path d="M105.1 64.5l-2.3.1-2.1-.3-1.8-.6-1.6-1-1.3-1.2-1.2-1.5-.9-1.7-.8-1.8-.7-1.8-.5-2-.5-1.9-.2-2-.3-1.9-.2-1.7-.2-1.7-.1-1.4.8.2.7.2.6.2.7.1.6.2.6.1.8.2.8.2.3 2.3.4 2.1.4 2 .4 1.9.5 1.6.5 1.7.6 1.4.6 1.3.5 1.2.7 1.1.7 1 .6.8.7.9.7.6.8.6.7.5z" fill="url(#m)"/><path d="M111.7 65.4l-2.2.1-2-.3-1.7-.6-1.6-1-1.4-1.2-1.2-1.4-1.1-1.6-.9-1.8-.8-1.8-.7-1.9-.5-1.9-.4-1.9-.5-1.8-.2-1.8-.3-1.6-.2-1.4.7.2.7.1.7.2.7.2.7.2.7.1.7.2.7.2.1 1.1.2 1.2.2 1.3.4 1.4.4 1.5.6 1.5.6 1.5.6 1.5.8 1.6.8 1.4.8 1.4.9 1.2.9 1.3.9 1 1 .9.9.7z" fill="url(#n)"/><path d="M119 66.7l-2.3.3-2.1-.3-1.9-.7-1.7-1.2-1.7-1.5-1.4-1.7-1.2-2-1.2-2-.9-2.2-.9-2.1-.7-2-.5-1.9-.4-1.6-.3-1.4-.2-.9v-.6l.9.1.8.2.8.3.9.1.8.3.7.1.8.2.7.1.3 1 .3 1.2.4 1.3.4 1.5.5 1.6.5 1.6.6 1.7.6 1.7.7 1.6.8 1.5.8 1.5.9 1.2.9 1.1 1 .9 1.1.7 1.2.3z" fill="url(#o)"/><path d="M124.3 66.4l-2.1.5h-1.8l-1.7-.4-1.6-.8-1.4-1.1-1.2-1.4-1.1-1.6-1-1.8-.8-1.8-.8-1.9-.5-2-.6-1.8-.5-1.8-.3-1.6-.4-1.4-.3-1.1.7.2h.6l.6.1.5.1.6.2.5.1.5.1.5.1.2 1.3.3 1.4.3 1.4.4 1.3.4 1.4.6 1.4.5 1.3.7 1.2.7 1.3.9 1.2.9 1.2.9 1 1.1 1.1 1.1.9 1.3.9 1.3.8z" fill="url(#p)"/><path d="M131 67.5h-1.8l-1.7-.2-1.6-.4-1.6-.6-1.4-.8-1.5-1-1.3-1.2-1.3-1.3-1.1-1.4-1-1.6-1-1.7-.8-1.8-.7-2-.6-2-.5-2.1-.4-2.1.8.1.7.1.8.2.8.1.7.2.7.1.8.1.7.2.4 1.2.2 1.3.4 1.2.3 1.3.3 1.2.4 1.2.5 1.2.5 1.2.6 1.2.7 1.2.9 1.2 1 1.1 1.2 1.1 1.4 1.2 1.6 1.2 1.9 1.1z" fill="url(#q)"/><path d="M140.4 68.6l-2.3.1-2.2-.1-2-.3-2-.6-1.8-.8-1.7-1-1.5-1.1-1.4-1.4-1.3-1.5-1.2-1.6-1-1.8-.9-1.8-.8-2-.6-2-.5-2.1-.3-2.1.6.1.7.2.7.1.7.1.7.1.8.2.7.1.8.2.2 1.4.4 1.5.4 1.4.6 1.4.7 1.4.8 1.4.9 1.4.9 1.3 1.1 1.2 1.2 1.2 1.2 1.1 1.3 1.1 1.4.9 1.5.9 1.6.7 1.6.7z" fill="url(#r)"/><path d="M145.6 69.1l-2-.1-1.8-.3-1.9-.4-1.8-.7-1.7-.9-1.7-.9-1.5-1.1-1.5-1.3-1.3-1.4-1.3-1.5-1.1-1.7-1-1.7-.8-1.8-.7-1.8-.6-1.9-.3-2 .6.1h.6l.5.1.6.1h.5l.6.1.7.2.8.1.8 1.7.7 1.5.7 1.5.6 1.4.7 1.4.7 1.2.7 1.2.7 1.1.9 1.1.9 1 1 1 1.2 1 1.3.9 1.6 1 1.6.9 2 .9z" fill="url(#s)"/><path d="M154.9 69.7l-2.9.1-2.6-.1-2.4-.4-2.2-.6-2.1-.9-1.8-1.1-1.7-1.2-1.5-1.4-1.4-1.5L135 61l-1.1-1.7-1-1.8-1-1.8-.9-1.8-.8-1.9-.8-1.8.5.1.7.1.9.1.9.1.9.2.8.1.7.1.6.1.7 1.6.7 1.6.9 1.6.9 1.4 1 1.4 1 1.3 1.1 1.2 1.2 1.2 1.3 1.1 1.3 1.1 1.4 1 1.5 1 1.5.8 1.6.9 1.6.7 1.8.7z" fill="url(#t)"/><path d="M160.4 70.5h-1.5l-1.7-.3-1.7-.4-1.8-.6-1.8-.8-1.8-.9-1.9-1.1-1.8-1.2-1.7-1.4-1.7-1.5-1.6-1.6-1.5-1.8-1.3-1.8-1.2-1.9-1.1-2-.9-2.1.9.1.9.1.9.1.9.1h.8l.7.2.6.1.3.2 1.1.8 1 .8 1.1 1.1 1.1 1 1.1 1.2 1.2 1.2 1.2 1.3 1.1 1.3 1.2 1.3 1.2 1.3 1.3 1.3 1.2 1.3 1.3 1.2 1.3 1.2 1.3 1.2 1.3 1z" fill="url(#u)"/><path d="M168.9 70.5l-1.5 1-1.6.4h-1.5l-1.7-.4-1.6-.8-1.6-1.1-1.7-1.4-1.7-1.6-1.7-1.8-1.7-1.8-1.9-2-1.8-2-1.8-1.9-1.8-1.9-1.9-1.8-1.9-1.6h.7l.7.2h.9l.9.2.9.1 1 .2.8.1.8.2 1.4 1.3 1.5 1.3 1.4 1.4 1.4 1.4 1.3 1.4 1.4 1.4 1.3 1.4 1.3 1.3 1.3 1.3 1.3 1.2 1.2 1 1.2.9 1.2.8 1.2.7 1.2.6 1.1.3z" fill="url(#v)"/><path d="M175.5 71.3h-2.4l-2.2-.3-2.1-.5-2-.8-1.8-.9-1.7-1.2-1.6-1.3-1.5-1.4-1.5-1.5-1.5-1.6-1.4-1.5-1.4-1.7-1.5-1.6-1.5-1.6-1.6-1.4-1.6-1.4h.6l.7.1.8.1.9.1.9.1h.7l.6.1h.3l1 .2 1 .5 1 .6 1 .9 1.1 1.1 1.1 1.2 1.2 1.3 1.1 1.4 1.4 1.4 1.3 1.5 1.5 1.5 1.6 1.4 1.7 1.5 1.8 1.3 1.9 1.3 2.1 1.1z" fill="url(#w)"/><path d="M45.9 23.3v-.2l-.1-.7v-1l-.1-1.2-.1-1.4.1-1.6.1-1.6.1-1.7.4-1.6.4-1.5.6-1.4.9-1.1 1-.8 1.3-.4L52 7l1.8.5-.5.5-.6.7-.5.9-.5.9-.4 1.1-.4 1-.4 1.2-.4 1.2-.4 1.2-.3 1.2-.3 1.2-.3 1.2-.2 1.2-.2 1.1-.2 1-.2.9h-.3l-.2-.1-.3-.1-.2-.1-.2-.1-.3-.1-.3-.1-.3-.1z" fill="url(#x)"/><path d="M48 24.2l.8-3.8.8-3.2.8-2.7.8-2.3.8-1.8.9-1.5.8-1 .7-.8.8-.5.7-.2.8-.1.6.1.7.2.6.3.5.4.5.3-.9.8-.8.9-.7.8-.7.9-.7.9-.6 1-.6 1-.5 1.1-.5 1.1-.5 1.1-.5 1.2-.4 1.2-.3 1.3-.4 1.3-.3 1.3-.3 1.4-.7-.1h-.5l-.4-.2-.2-.1h-.3l-.2-.1-.2-.1-.4-.1z" fill="url(#y)"/><path d="M50.9 25.3l.2-1.4.3-1.6.5-1.7.6-1.9.7-1.9.9-1.9.9-1.8 1.1-1.7 1.1-1.5 1.1-1.3 1.3-1 1.2-.6 1.4-.2 1.3.2 1.3.7 1.3 1.4-1 .7-1 .9-.9.9-.9.9-.9.9-.7 1-.7 1.1-.7 1-.6 1.2-.5 1.2-.6 1.2-.4 1.3-.4 1.3-.3 1.4-.3 1.5-.2 1.5-.6-.2-.7-.2-.8-.3-.7-.2-.7-.3-.7-.3-.5-.2-.4-.1z" fill="url(#z)"/><path d="M73.7 10l-1.4-.9-1.4-.5-1.5-.2-1.4.2-1.5.4-1.4.8-1.3 1-1.3 1.3-1.1 1.4-1.2 1.6-1 1.8-.9 1.9-.7 1.9-.6 2.1-.5 2.1-.2 2.2.7.2.7.1.7.3.7.2.8.3.7.2.7.2.8.1.5-1.3.5-1.5.5-1.4.6-1.5.5-1.5.7-1.5.6-1.5.7-1.4.7-1.3.7-1.2.8-1.2.9-1 .9-.9.9-.7 1-.5 1.1-.3z" fill="url(#AA)"/><path d="M80.1 11.7l-2.3-.9-1.9-.6h-1.8l-1.6.3-1.4.6-1.2 1-1.1 1.2-1 1.5-.8 1.6-.8 1.8-.8 1.9-.7 1.9-.6 1.9-.7 1.9-.7 1.8-.7 1.7.6.1.6.1.6.2.5.2.6.2.6.2.7.2.6.1.1-.2v-.6l.2-.7.2-1.1.2-1.2.5-1.4.4-1.5.7-1.6.7-1.6.9-1.5 1.1-1.6 1.2-1.5 1.5-1.4 1.6-1.1 1.9-1.1 2.1-.8z" fill="url(#AB)"/><path d="M88.3 13L87 12l-1.5-.7-1.7-.2-1.6.1-1.7.3-1.8.7-1.7 1-1.7 1.1-1.6 1.5-1.5 1.6-1.3 1.9-1.3 2-1 2.2-.8 2.3-.5 2.4-.3 2.6 6 1.5.3-1 .5-1.1.4-1.3.6-1.3.7-1.4.7-1.5.8-1.4.9-1.5 1-1.4L80 19l1.2-1.3 1.2-1.2 1.3-1.1 1.5-1 1.5-.8 1.6-.6z" fill="url(#AC)"/><path d="M72.9 32.5l.9.2 1.1.2 1.1.3 1.2.4 1.2.4 1.1.3 1 .3 1 .3-.2-.1.8-1.4.7-1.5.6-1.5.6-1.6.7-1.6.6-1.4.6-1.6.8-1.6.8-1.4.8-1.2 1-1.3 1-1.1.9-1 1.2-.8 1.2-.6 1.2-.5-1.1-.7-1.1-.5-1.2-.4L90 13l-1.4.1-1.4.4-1.5.6-1.5.9-1.5 1.1-1.5 1.4-1.5 1.7-1.5 2-1.4 2.3-1.4 2.6-1.3 3.1-1.2 3.3z" fill="url(#AD)"/><path d="M102.1 17.2l-2.4-1.3-2.1-.7-2-.2-1.8.3-1.6.7-1.5 1-1.3 1.4-1.2 1.6-1 1.8-1 1.9-.9 2.1-.8 2-.8 2-.8 1.9-.7 1.8-.7 1.5.8.2.7.1.7.2.6.1.7.2.7.2.7.1.9.2.8-1.6.7-1.6.7-1.5.7-1.5.6-1.4.8-1.3.8-1.4.7-1.2.9-1.2.9-1.1.9-1.1 1.1-1 1.2-.9 1.2-.8 1.4-.8 1.4-.7z" fill="url(#AE)"/><path d="M109.4 19.3l-2.2-1.2-2-.5-2-.2-1.8.3-1.7.7-1.6 1.1-1.5 1.3-1.4 1.5-1.3 1.7-1.2 1.8-1.2 1.9-.9 1.9-1 2-.8 1.7-.7 1.7-.6 1.4.8.2.8.2.7.2.6.1.7.2.7.1.9.1.9.2 1-2.3 1.1-2.2 1-1.9 1-1.9.9-1.6.9-1.4.9-1.3.9-1.3.9-.9.9-.9 1-.8 1-.6.9-.5 1.1-.4 1.1-.2 1.2-.2z" fill="url(#AF)"/><path d="M114.8 20.9l-2.1-1-1.9-.5h-1.9l-1.8.4-1.6.7-1.6 1-1.5 1.2-1.4 1.5-1.2 1.6-1.1 1.8-1.2 1.8-.9 1.8-.9 1.8-.8 1.7-.7 1.6-.6 1.5.7.2.6.1.7.1.6.2.6.1.6.1.7.2.8.1.3-1.1.6-1.3.6-1.3.8-1.4.8-1.4 1-1.4 1-1.4 1.1-1.4 1.1-1.3 1.2-1.3 1.3-1.1 1.2-1 1.3-.9 1.2-.8 1.2-.6 1.2-.3z" fill="url(#AG)"/><path d="M121.4 22.6l-2.1-1.2-2.1-.5h-2.1l-2 .6-1.9.9-1.9 1.4-1.7 1.6-1.7 1.7-1.5 1.9-1.3 1.9-1.2 1.9-1 1.8-.8 1.5-.7 1.4-.3 1-.2.6.9.1.7.2.8.2.7.2.8.1.7.1.8.2.7.1.5-1 .6-1.2.7-1.4.8-1.4.9-1.6.9-1.5 1-1.5 1.1-1.6 1.1-1.5 1.1-1.3 1.3-1.2 1.2-1 1.3-.8 1.2-.6 1.4-.2 1.3.1z" fill="url(#AH)"/><path d="M126.2 24.4l-1.9-1.3-1.9-.7-1.7-.1-1.8.3-1.6.7-1.6 1-1.4 1.3-1.4 1.6-1.3 1.7-1.2 1.8-1.1 1.8-1.1 1.9-.9 1.7-.8 1.7-.6 1.4-.6 1.1.7.1.6.2.5.2.5.2.5.1.5.2.4.1.6.1.5-1.4.6-1.5.7-1.4.7-1.4.8-1.4.8-1.2.9-1.3 1-1.2 1.1-1.2 1.1-1.1 1.2-.9 1.3-.9 1.4-.7 1.4-.7 1.5-.4 1.6-.4z" fill="url(#AI)"/><path d="M132.3 25.8l-1.7-.6-1.7-.4-1.8-.2-1.6.2-1.7.3-1.6.5-1.5.9-1.6.9-1.5 1.2-1.4 1.4-1.3 1.5-1.3 1.7-1.2 1.9-1 2-1.1 2.2-.9 2.2.8.2.8.1.7.2.8.2.7.2.8.2.7.2.8.1.5-1.3.5-1.3.6-1.3.5-1.4.6-1.2.7-1.3.7-1.2.8-1.2 1-1.1 1.1-1.1 1.2-1 1.3-1 1.6-.8 1.6-.7 2-.7 2.1-.5z" fill="url(#AJ)"/><path d="M140.9 27.8l-2.2-.9-2.2-.6-2.1-.3h-2l-1.9.3-1.9.5-1.8.8-1.6.9-1.6 1.3-1.5 1.4-1.3 1.5-1.3 1.8-1.2 1.9-.9 2.1-1 2.1-.8 2.2.7.1.7.2.8.1.8.1.8.1.8.1.8.1.8.2.5-1.7.5-1.5.7-1.5.8-1.5.9-1.3 1-1.3 1-1.2 1.2-1.1 1.2-1.1 1.4-.8 1.5-.9 1.5-.7 1.6-.5 1.7-.5 1.8-.2 1.8-.2z" fill="url(#AK)"/><path d="M145.1 28.3l-1.9-.3-2-.2-1.9.1-1.9.2-1.8.5-1.8.6-1.7.7-1.6 1L129 32l-1.5 1.3-1.2 1.4-1.3 1.5-1 1.8-.9 1.9-.8 2-.6 2.1.7.1.6.1.6.1.6.1.6.1.5.1.7.2.8.1 1-1.7.9-1.6.8-1.5.8-1.4.8-1.3.8-1.2.7-1.2.9-1 .9-1 1.1-.9 1.1-.8 1.3-.8 1.5-.6 1.7-.6 1.9-.5 2.1-.5z" fill="url(#AL)"/><path d="M154.4 29.5l-2.9-.7-2.8-.4-2.5-.1-2.3.2-2.1.5-2 .7-1.8.9-1.7 1.1-1.5 1.3-1.4 1.5-1.3 1.6-1.2 1.7-1.1 1.7-1.1 1.9-.9 1.8-.9 1.9.4.1.7.1.7.1.7.2.8.1.7.2.6.1h.5l.9-1.7.9-1.6 1.1-1.5 1.1-1.4 1.2-1.4 1.2-1.2 1.3-1.1 1.4-1 1.5-1 1.5-.8 1.6-.8 1.6-.8 1.7-.6 1.7-.6 1.8-.5 1.9-.5z" fill="url(#AM)"/><path d="M159.9 30.1l-1.6-.3-1.7-.1-1.9.1-1.9.3-1.9.4-2 .6-2 .8-1.9.9-2 1.1-1.9 1.3-1.8 1.4-1.7 1.6-1.6 1.7-1.5 1.9-1.2 2-1.1 2.2.8.1.8.1.8.2.8.1.7.2.6.2h.8l1.1-.7 1.2-.8 1.2-1 1.3-1 1.3-1.1 1.3-1.2 1.4-1.2 1.4-1.2 1.5-1.2 1.4-1.2 1.5-1.2 1.5-1.2 1.6-1.1 1.5-1 1.7-.9 1.5-.8z" fill="url(#AN)"/><path d="M167.7 32.3l-1.5-1.5-1.6-.8-1.6-.4-1.7.1-1.7.5-1.9.9-1.8 1.2-2 1.3-2 1.6-2 1.7-2.1 1.8-2 1.8-2.1 1.8-2.1 1.7-2.1 1.6-2.1 1.4.6.1.8.1h.9l1 .1.9.1h1.9l.8-.1 1.5-1.1 1.6-1.2 1.5-1.3 1.4-1.2 1.4-1.3L153 40l1.3-1.2 1.4-1.2 1.4-1 1.3-1 1.4-.9 1.5-.8 1.5-.6 1.6-.5 1.6-.3 1.7-.2z" fill="url(#AO)"/><path d="M173.5 33l-2.4-.6-2.3-.2-2.2.1-2 .4-1.9.7-1.9.9-1.8 1.1-1.7 1.2-1.7 1.4-1.7 1.4-1.7 1.5-1.6 1.6-1.7 1.4-1.7 1.5-1.8 1.2-1.8 1.3h.6l.7.1.9.2h.9l.8.1.8.2h.6l.3.1h1.1l1-.3 1.1-.6 1.2-.7 1.2-.9L156 45l1.4-1.3 1.4-1.3 1.4-1.3 1.6-1.4 1.7-1.3 1.7-1.3 2-1.2 1.9-1.2 2.1-.9 2.3-.8z" fill="url(#AP)"/><path d="M180.8 35l-2.1-1.2-2.3-.5h-2.2l-2.3.5-2.2.8-2.3 1.3-2.2 1.4-2.2 1.6-2 1.7-2 1.8-1.9 1.6-1.8 1.5-1.5 1.3-1.5 1-1.3.6-1.1.2 1 .1.9.2 1.2.1 1.1.2 1.2.1 1.1.2 1.2.1h.9l1.7-1.2 1.4-1.2 1.4-1.1 1.2-1.2 1.2-1.1 1.1-1.1 1.2-1 1.1-1 1.1-.9 1.2-.9 1.3-.8 1.4-.8 1.5-.7 1.6-.6 1.9-.5 2-.5z" fill="url(#AQ)"/></g><g stroke-width=".254"><path d="M39.7 11.1l-.2-.5-.3-.7-.2-.6-.2-.7-.2-.7-.1-.7-.1-.7-.1-.8-.1-.7V2.8l.1-.7.1-.7.2-.7.2-.6-1 1.2-.7 1.3-.5 1.3-.3 1.4-.1 1.4v1.4l.2 1.4.3 1.4.3 1.3.5 1.4.5 1.3.5 1.4.6 1.2.5 1.3.6 1.2.5 1.2-.1-.3-.1-.4v-.9l-.1-.7v-2l-.1-.8v-1.6l-.1-.7v-.7l-.2-.7-.1-.7-.2-.6z" fill="url(#AR)"/><path d="M22 35.3l1.1-.6 1.1-.7 1.1-.7 1-.6 1-.6 1-.6.9-.6 1-.6.9-.6 1-.6.9-.7 1-.5.9-.6 1-.5 1.1-.6 1-.6-.9.9-.9 1-1 .9-.9.9-1 .9-1 .8-1 .8-1 .8-1 .7-1.1.6-1 .5-1 .4-1 .4-1.1.1-1 .1-1.1-.1z" fill="url(#AS)"/><path d="M30.7 12l.8.5.7.5.8.5.7.6.7.5.6.6.7.6.6.6.6.6.6.7.6.6.5.7.6.6.5.7.5.7.5.7-.2-.7-.3-.8-.3-.8-.3-.8-.4-.8-.4-.8-.4-.7-.6-.8-.5-.7-.8-.6-.7-.6-.8-.5-1-.4-.9-.3-1.2-.3-1.2-.1z" fill="url(#AT)"/><path d="M39.3 5l.3 1.2.1 1.2.3 1.1.2 1.1.1 1.1.1 1 .2 1.1.1 1 .2 1.1.1 1 .1 1 .2 1.1.2 1 .2 1.1.2 1 .2 1.1.2-1.3.1-1.2.2-1.3.1-1.3v-1.2l.1-1.2-.1-1.2v-1.2l-.2-1.2-.1-1-.3-1.1-.4-.9-.4-.9-.6-.8-.6-.7-.8-.7z" fill="url(#AU)"/><path d="M33.1 3.1l-1 1-.7 1.1-.3 1.2v1.2l.2 1.2.5 1.3.6 1.3.8 1.3.8 1.2 1 1.2 1 1.2 1 1 .9 1.1.8.8.7.9.6.6-.1-1.8-.3-1.5-.3-1.3-.4-1.1-.5-1-.6-.9-.6-.8-.6-.8-.6-.7-.6-.8-.6-.8-.5-.9-.4-1.1-.4-1.1-.3-1.4-.1-1.6z" fill="url(#AV)"/><path d="M40.6 21.7v-2.3l.1-1.2V17l.1-1.1.1-1.1.1-1.1.1-1 .2-1.1.2-1.1.3-1.1.2-1 .3-1 .4-1.1.4-1 .4-1.1-1.7 1.6-1.4 1.6-.9 1.5-.7 1.4-.5 1.3-.2 1.2-.1 1.3.1 1.1.3 1 .3 1 .4.9.4.8.4.9.3.7.3.7.1.5z" fill="url(#AW)"/><path d="M23.5 25.8l.9.1 1 .2.9.1.9.2h1l.9.1h1.8l.9-.1h.9l.9-.1.9-.1h1l.8-.1 1-.2.8-.1-.7.4-.8.3-.8.3-.8.3-.9.3-.9.2-.9.3-.9.1h-2.9l-1-.2-1-.3-1-.4-1-.6-1-.7z" fill="url(#AX)"/><path d="M28.9 30.5l-.7.1-.6.1-.7.2-.7.2-.7.3-.7.2-.6.3-.7.3-.7.4-.6.4-.6.4-.6.4-.5.5-.5.4-.4.5-.5.5.5-1.4.6-1.2.7-1 1-1 1-.8 1.2-.8 1.3-.6 1.3-.6 1.4-.4 1.4-.5L31 27l1.4-.3 1.5-.3 1.4-.3 1.3-.2 1.2-.3-.6.2-.9.5-1 .7-1.3.7-1.3.9-1.3.7-1.3.7-1.2.5z" fill="url(#AY)"/><path d="M26.3 40.9l-.6-1.3-.1-1.3.1-1.3.5-1.2.7-1.1.9-1.1 1.1-1 1.3-.9 1.2-1 1.4-.8 1.4-.8 1.3-.7 1.2-.7 1.2-.5 1-.6.7-.4-.8 1.7-.8 1.4-.9 1.1-.8 1-.8.7-.9.7-.9.5-.9.6-.8.5-.9.6-.9.6-.8.7-.8.8-.8 1.1-.8 1.2-.7 1.5z" fill="url(#AZ)"/><path d="M40.9 26.6l-.6 1-.7 1-.6.9-.6 1-.5.9-.5 1-.5.9-.5 1-.5 1-.4 1-.4.9-.3 1-.3 1-.3 1-.3 1.1-.2 1.1-.6-2.2-.3-2v-1.7L33 35l.3-1.3.5-1.2.7-1 .7-.8.8-.7.8-.7.9-.5.8-.5.7-.4.7-.4.6-.5.4-.4z" fill="url(#Aa)"/></g></g></svg>