<svg width="53" height="62" viewBox="0 0 53 62" fill="none" xmlns="http://www.w3.org/2000/svg">
<g clip-path="url(#clip0)">
<path d="M14.21 30.8H39.5M36.37 6.01L46.71 16.36L36.37 6.01ZM36.37 6.01L9 6C7.9 6 7 6.9 7 8V18.17V55.36C7 56.46 7.9 57.36 9 57.36H44.71C45.81 57.36 46.71 56.46 46.71 55.36V16.36L36.37 6.01ZM36.37 6.01V14.35C36.37 15.45 37.27 16.35 38.37 16.35H46.71L36.37 6.01ZM14.21 14.96H26.28H14.21ZM14.21 22.88H39.5H14.21Z" stroke="#22ADF6" stroke-width="2" stroke-miterlimit="10" stroke-linecap="round" stroke-linejoin="round"/>
<path d="M15.9885 48C15.9085 48 15.8405 47.972 15.7845 47.916C15.7285 47.86 15.7005 47.792 15.7005 47.712V46.524C15.7005 46.444 15.7285 46.376 15.7845 46.32C15.8405 46.256 15.9085 46.224 15.9885 46.224H17.1885C17.2685 46.224 17.3365 46.256 17.3925 46.32C17.4485 46.376 17.4765 46.444 17.4765 46.524V47.712C17.4765 47.792 17.4485 47.86 17.3925 47.916C17.3365 47.972 17.2685 48 17.1885 48H15.9885ZM21.6014 48.12C20.7214 48.12 20.0174 47.876 19.4894 47.388C18.9694 46.9 18.6934 46.224 18.6614 45.36L18.6494 44.88L18.6614 44.4C18.6934 43.536 18.9694 42.86 19.4894 42.372C20.0174 41.884 20.7214 41.64 21.6014 41.64C22.2254 41.64 22.7534 41.752 23.1854 41.976C23.6254 42.2 23.9494 42.476 24.1574 42.804C24.3734 43.124 24.4894 43.428 24.5054 43.716C24.5134 43.796 24.4854 43.864 24.4214 43.92C24.3654 43.976 24.2974 44.004 24.2174 44.004H23.1614C23.0814 44.004 23.0174 43.988 22.9694 43.956C22.9294 43.916 22.8894 43.852 22.8494 43.764C22.7294 43.452 22.5694 43.228 22.3694 43.092C22.1774 42.956 21.9294 42.888 21.6254 42.888C21.2174 42.888 20.8974 43.02 20.6654 43.284C20.4334 43.54 20.3094 43.932 20.2934 44.46L20.2814 44.904L20.2934 45.3C20.3254 46.348 20.7694 46.872 21.6254 46.872C21.9374 46.872 22.1894 46.804 22.3814 46.668C22.5734 46.532 22.7294 46.308 22.8494 45.996C22.8894 45.908 22.9294 45.848 22.9694 45.816C23.0174 45.776 23.0814 45.756 23.1614 45.756H24.2174C24.2974 45.756 24.3654 45.784 24.4214 45.84C24.4854 45.896 24.5134 45.964 24.5054 46.044C24.4894 46.324 24.3774 46.624 24.1694 46.944C23.9614 47.264 23.6414 47.54 23.2094 47.772C22.7774 48.004 22.2414 48.12 21.6014 48.12ZM28.1208 48.12C27.5208 48.12 27.0168 48.032 26.6088 47.856C26.2008 47.672 25.8968 47.46 25.6968 47.22C25.5048 46.972 25.4088 46.76 25.4088 46.584C25.4088 46.504 25.4368 46.44 25.4928 46.392C25.5488 46.344 25.6128 46.32 25.6848 46.32H26.6328C26.7048 46.32 26.7648 46.348 26.8128 46.404C26.8448 46.428 26.9288 46.5 27.0648 46.62C27.2008 46.748 27.3608 46.848 27.5448 46.92C27.7288 46.992 27.9328 47.028 28.1568 47.028C28.4768 47.028 28.7408 46.964 28.9488 46.836C29.1568 46.708 29.2608 46.532 29.2608 46.308C29.2608 46.14 29.2128 46.004 29.1168 45.9C29.0288 45.796 28.8648 45.704 28.6248 45.624C28.3848 45.536 28.0288 45.444 27.5568 45.348C26.8768 45.204 26.3728 44.984 26.0448 44.688C25.7248 44.392 25.5648 44 25.5648 43.512C25.5648 43.192 25.6608 42.892 25.8528 42.612C26.0448 42.324 26.3288 42.092 26.7048 41.916C27.0888 41.732 27.5448 41.64 28.0728 41.64C28.6088 41.64 29.0728 41.728 29.4648 41.904C29.8568 42.072 30.1528 42.276 30.3528 42.516C30.5608 42.748 30.6648 42.956 30.6648 43.14C30.6648 43.212 30.6368 43.276 30.5808 43.332C30.5328 43.38 30.4728 43.404 30.4008 43.404H29.5128C29.4488 43.404 29.3808 43.376 29.3088 43.32C29.2528 43.28 29.1648 43.204 29.0448 43.092C28.9248 42.98 28.7848 42.892 28.6248 42.828C28.4648 42.764 28.2768 42.732 28.0608 42.732C27.7648 42.732 27.5328 42.796 27.3648 42.924C27.2048 43.052 27.1248 43.22 27.1248 43.428C27.1248 43.58 27.1648 43.704 27.2448 43.8C27.3248 43.896 27.4808 43.988 27.7128 44.076C27.9448 44.164 28.2928 44.252 28.7568 44.34C29.5248 44.492 30.0728 44.728 30.4008 45.048C30.7368 45.368 30.9048 45.76 30.9048 46.224C30.9048 46.784 30.6608 47.24 30.1728 47.592C29.6848 47.944 29.0008 48.12 28.1208 48.12ZM34.1289 48C34.0089 48 33.9169 47.976 33.8529 47.928C33.7889 47.872 33.7369 47.796 33.6969 47.7L31.4529 42.132L31.4289 42.024C31.4289 41.952 31.4529 41.892 31.5009 41.844C31.5569 41.788 31.6209 41.76 31.6929 41.76H32.6649C32.8169 41.76 32.9209 41.836 32.9769 41.988L34.5729 46.2L36.1689 41.988C36.1929 41.932 36.2289 41.88 36.2769 41.832C36.3329 41.784 36.4009 41.76 36.4809 41.76H37.4649C37.5289 41.76 37.5849 41.788 37.6329 41.844C37.6889 41.892 37.7169 41.952 37.7169 42.024C37.7169 42.072 37.7129 42.108 37.7049 42.132L35.4489 47.7C35.4089 47.796 35.3569 47.872 35.2929 47.928C35.2289 47.976 35.1369 48 35.0169 48H34.1289Z" fill="#22ADF6"/>
</g>
<defs>
<clipPath id="clip0">
<rect width="41.71" height="53.36" fill="white" transform="translate(6 5)"/>
</clipPath>
</defs>
</svg>
