<svg xmlns="http://www.w3.org/2000/svg" xmlns:xlink="http://www.w3.org/1999/xlink" viewBox="0 0 792 612" xmlns:v="https://vecta.io/nano"><linearGradient id="A" gradientUnits="userSpaceOnUse" x1="328.75" y1="242.604" x2="421.636" y2="207.739"><stop offset=".15" stop-color="#f04e23"/><stop offset=".701" stop-color="#782b90"/><stop offset=".839" stop-color="#8a2890"/><stop offset="1" stop-color="#9c258f"/></linearGradient><path fill="url(#A)" d="M405 244.4l-44.3 15.1c-1.9.7-3.6 1-4.4-.9-.7-1.9.7-2.8 2.7-3.6l43.3-17.7c10.8-4.1 16.3-16.2 12.3-27s-16.2-16.3-27-12.3l-63.2 22.2c-1.9.7-3.6 1-4.4-.9-.7-1.9.7-2.8 2.7-3.6l62.2-24.8c14.7-5.5 31.2 2 36.7 16.7 5.6 14.9-1.9 31.3-16.6 36.8z"/><linearGradient id="B" gradientUnits="userSpaceOnUse" x1="340.02" y1="238.374" x2="467.793" y2="190.414"><stop offset=".15" stop-color="#f04e23"/><stop offset=".701" stop-color="#782b90"/><stop offset=".839" stop-color="#8a2890"/><stop offset="1" stop-color="#9c258f"/></linearGradient><path fill="url(#B)" d="M422.3 290.6l-51.9 18c-1.9.7-3.6 1-4.4-.9-.7-1.9.7-2.8 2.7-3.6l50.9-20.6c36.3-13.6 54.7-54.2 41.1-90.5s-54.2-54.7-90.5-41.1l-51.9 18c-1.9.7-3.6 1-4.4-.9-.7-1.9.7-2.8 2.7-3.6l50.9-20.6c40.2-15.1 85.1 5.3 100.2 45.5 15.2 40.3-5.2 85.2-45.4 100.3z"/><linearGradient id="C" gradientUnits="userSpaceOnUse" x1="298.302" y1="254.032" x2="444.714" y2="199.077"><stop offset=".15" stop-color="#f04e23"/><stop offset=".701" stop-color="#782b90"/><stop offset=".839" stop-color="#8a2890"/><stop offset="1" stop-color="#9c258f"/></linearGradient><path fill="url(#C)" d="M413.7 267.5l-93.6 33.7c-1.9.7-3.6 1-4.4-.9s.7-2.8 2.7-3.6l92.7-36.2c23.5-8.8 35.5-35.2 26.7-58.7s-35.2-35.5-58.7-26.7l-83.8 30c-1.9.7-3.6 1-4.4-.9-.7-1.9.7-2.8 2.7-3.6l82.9-32.6c27.4-10.3 58.1 3.6 68.4 31.1 10.1 27.4-3.8 58.1-31.2 68.4z"/><g fill="#00233b"><path d="M209.4 353h25.4c25.9 0 43.6 16.4 43.6 40.5S260.7 434 234.8 434h-25.4v-81zm24.5 75.7c24.1 0 38.7-14.1 38.7-35.2s-14.6-35.2-38.7-35.2h-18.6v70.4h18.6z"/><path d="M234.8 435.1h-26.4V352h26.4c13 0 24.1 4 32.2 11.5s12.4 17.9 12.4 30-4.3 22.5-12.4 30c-8.1 7.6-19.2 11.6-32.2 11.6zm-24.4-2.1h24.3c12.5 0 23.1-3.8 30.9-11 7.7-7.2 11.8-17 11.8-28.5s-4.1-21.4-11.8-28.5c-7.7-7.2-18.4-11-30.9-11h-24.3v79zm23.5-3.3h-19.7v-72.4h19.7c12 0 22 3.4 29.1 10 7 6.4 10.6 15.5 10.6 26.2s-3.7 19.8-10.6 26.2c-7.1 6.6-17.2 10-29.1 10zm-17.7-2h17.6c11.4 0 21-3.3 27.7-9.4 6.5-6 10-14.6 10-24.8 0-10.1-3.5-18.7-10-24.8-6.7-6.2-16.2-9.4-27.7-9.4h-17.6v68.4zM316.7 353h33.8c16.2 0 25.1 8.9 25.1 21.9s-8.9 22-25.1 22h-28v37.2h-5.8V353zm33.3 38.6c12.7 0 19.9-6 19.9-16.7 0-10.5-7.2-16.6-19.9-16.6h-27.4v33.2H350z"/><path d="M323.5 435.1h-7.8V352h34.8c16.1 0 26.1 8.8 26.1 22.9 0 6.8-2.4 12.5-6.8 16.6-4.6 4.2-11.3 6.4-19.3 6.4h-27v37.2zm-5.8-2.1h3.8v-37.2h29c7.5 0 13.7-2 18-5.9 4-3.7 6.2-8.9 6.2-15.1s-2.1-11.4-6.1-15.1c-4.2-3.8-10.4-5.8-18-5.8h-32.8V433zm32.3-40.4h-28.5v-35.3H350c13.3 0 20.9 6.4 20.9 17.6s-7.6 17.7-20.9 17.7zm-26.5-2.1H350c12.2 0 18.9-5.6 18.9-15.7 0-10-6.7-15.5-18.9-15.5h-26.4v31.2zm87.8-37.5h25.4c25.9 0 43.6 16.4 43.6 40.5S462.6 434 436.7 434h-25.4v-81zm24.4 75.7c24.1 0 38.7-14.1 38.7-35.2s-14.6-35.2-38.7-35.2h-18.6v70.4h18.6z"/><path d="M436.7 435.1h-26.4V352h26.4c13 0 24.1 4 32.2 11.5s12.4 17.9 12.4 30-4.3 22.5-12.4 30c-8.1 7.6-19.3 11.6-32.2 11.6zm-24.4-2.1h24.3c12.5 0 23.1-3.8 30.9-11 7.7-7.2 11.8-17 11.8-28.5s-4.1-21.4-11.8-28.5c-7.7-7.2-18.4-11-30.9-11h-24.3v79zm23.4-3.3H416v-72.4h19.7c12 0 22 3.4 29.1 10 7 6.4 10.6 15.5 10.6 26.2s-3.7 19.8-10.6 26.2c-7.1 6.6-17.1 10-29.1 10zm-17.6-2h17.6c11.4 0 21-3.3 27.7-9.4 6.5-6 10-14.6 10-24.8 0-10.1-3.5-18.7-10-24.8-6.7-6.2-16.2-9.4-27.7-9.4h-17.6v68.4zM518.6 353h5.8v35.7l40.8-35.7h8l-42.3 37.2 48.7 43.9h-8.7l-46.5-42v42h-5.8V353z"/><path d="M582.3 435.1h-11.7l-.3-.3-44.8-40.5v40.8h-7.8V352h7.8v34.4l39.4-34.4H576l-43.4 38.2 49.7 44.9zm-11-2.1h5.6l-47.6-42.9 41.1-36.1h-4.9L524 390.3l47.3 42.7zm-51.7 0h3.8v-79h-3.8v79z"/></g><g fill="#f04e23"><use xlink:href="#E"/><use xlink:href="#F"/><path d="M246.1 462.9h-5.5v-1h12v1h-5.5v14.3H246v-14.3zm13-1.1h1l6.9 15.4h-1.1l-2-4.5h-8.5l-2 4.5h-1.1l6.8-15.4zm4.3 10l-3.9-8.5-3.9 8.5h7.8zm18.9-9.9h6.4c3.1 0 4.7 1.7 4.7 4.1s-1.7 4.2-4.7 4.2h-5.3v7h-1.1v-15.3zm6.3 7.3c2.4 0 3.8-1.1 3.8-3.1s-1.4-3.1-3.8-3.1h-5.2v6.3h5.2zm8.5-7.3h1.1v14.3h8.9v1h-9.9v-15.3z"/><use xlink:href="#F" x="82.5"/><path d="M326.7 461.9h1l10.3 13.4v-13.4h1.1v15.3h-.9l-10.3-13.4v13.4h-1.1v-15.3zm17.2 0h10.3v1H345v5.6h7.6v1H345v6.7h9.5v1h-10.6v-15.3z"/><use xlink:href="#E" x="158.5"/><use xlink:href="#G"/><path d="M400.1 461.9h1.2l6.2 13.9 6.1-13.9h1.2l-6.9 15.4h-1l-6.8-15.4z"/><use xlink:href="#G" x="30.7"/><path d="M432.3 461.9h1.1v14.3h8.9v1h-9.9v-15.3zm11.3 7.7c0-4.5 3.3-7.9 7.6-7.9s7.6 3.4 7.6 7.9-3.3 7.9-7.6 7.9-7.6-3.4-7.6-7.9zm14.2 0c0-4-2.9-6.9-6.5-6.9s-6.5 2.9-6.5 6.9 2.9 6.9 6.5 6.9 6.5-3 6.5-6.9zm5.2-7.7h6.4c3.1 0 4.7 1.7 4.7 4.1s-1.7 4.2-4.7 4.2h-5.3v7H463v-15.3zm6.3 7.3c2.4 0 3.8-1.1 3.8-3.1s-1.4-3.1-3.8-3.1h-5.2v6.3h5.2zm8.5-7.3h1.1l5.9 7.7 5.9-7.7h1.1v15.3h-1.1v-13.6l-5.5 7.3h-.7l-5.6-7.3v13.6h-1.1v-15.3z"/><use xlink:href="#G" x="109.1"/><path d="M510.7 461.9h1l10.3 13.4v-13.4h1.1v15.3h-.9l-10.3-13.4v13.4h-1.1v-15.3zm21.1 1h-5.5v-1h12v1h-5.5v14.3h-1.1v-14.3zm20.9-1h1.1v6.7l7.7-6.7h1.5l-8 7 9.2 8.3h-1.6l-8.8-7.9v7.9h-1.1v-15.3zm14.4 0h1.1v15.3h-1.1v-15.3zm9.9 1h-5.5v-1h12v1H578v14.3h-1v-14.3z"/></g><defs ><path id="E" d="M211.7 461.9h4.8c4.9 0 8.2 3.1 8.2 7.7 0 4.5-3.3 7.7-8.2 7.7h-4.8v-15.4zm4.6 14.3c4.5 0 7.3-2.7 7.3-6.6s-2.8-6.6-7.3-6.6h-3.5v13.3h3.5z"/><path id="F" d="M233.1 461.8h1l6.9 15.4h-1.1l-2-4.5h-8.5l-2 4.5h-1.1l6.8-15.4zm4.4 10l-3.9-8.5-3.9 8.5h7.8z"/><path id="G" d="M387.4,461.9h10.3v1h-9.2v5.6h7.6v1h-7.6v6.7h9.5v1h-10.6V461.9z"/></defs></svg>