<svg id="Layer_1" data-name="Layer 1" xmlns="http://www.w3.org/2000/svg" viewBox="0 0 553.03 144"><defs><style>.cls-1{fill:#00b0b9;}.cls-2{fill:#fff;}</style></defs><title>Fitbit_logo_reversed_RGB</title><path class="cls-1" d="M141.09,72A10.81,10.81,0,1,1,130.28,61.2,10.81,10.81,0,0,1,141.09,72ZM130.28,91.36a11.24,11.24,0,1,0,11.24,11.24A11.24,11.24,0,0,0,130.28,91.36Zm0,30.17A11.68,11.68,0,1,0,142,133.2,11.68,11.68,0,0,0,130.28,121.53Zm0,31a11.24,11.24,0,1,0,11.24,11.24A11.24,11.24,0,0,0,130.28,152.55Zm0,31a10.81,10.81,0,1,0,10.81,10.81A10.81,10.81,0,0,0,130.28,183.58ZM160,89.92a12.68,12.68,0,1,0,12.68,12.68A12.68,12.68,0,0,0,160,89.92Zm0,30.17a13.12,13.12,0,1,0,13.12,13.12A13.12,13.12,0,0,0,160,120.08Zm0,31a12.68,12.68,0,1,0,12.68,12.68A12.68,12.68,0,0,0,160,151.11Zm30.56-32.47a14.56,14.56,0,1,0,14.56,14.56A14.56,14.56,0,0,0,190.61,118.64ZM100.12,92.8a9.8,9.8,0,1,0,9.8,9.8A9.8,9.8,0,0,0,100.12,92.8Zm0,30.17a10.23,10.23,0,1,0,10.23,10.23A10.23,10.23,0,0,0,100.12,123Zm0,31a9.8,9.8,0,1,0,9.8,9.8A9.8,9.8,0,0,0,100.12,154ZM70,124.41a8.79,8.79,0,1,0,8.79,8.79A8.79,8.79,0,0,0,70,124.41Z" transform="translate(-61.17 -61.2)"/><rect class="cls-2" x="252.7" y="53.05" width="12.98" height="80.14" rx="1.9" ry="1.9"/><path class="cls-2" d="M320.36,82.17A8.79,8.79,0,1,0,329.15,91,8.8,8.8,0,0,0,320.36,82.17Z" transform="translate(-61.17 -61.2)"/><rect class="cls-2" x="448.75" y="53.05" width="12.98" height="80.14" rx="1.9" ry="1.9"/><path class="cls-2" d="M516.41,82.17a8.79,8.79,0,1,0,0,17.58A8.79,8.79,0,0,0,516.41,82.17Z" transform="translate(-61.17 -61.2)"/><path class="cls-2" d="M391.52,114.25H371.94V84.83a1.9,1.9,0,0,0-1.9-1.9h-9.18a1.9,1.9,0,0,0-1.9,1.9v29.42h-9.85a1.9,1.9,0,0,0-1.9,1.9v9.18a1.9,1.9,0,0,0,1.9,1.9H359v44.54c0,13.53,9.09,22.62,22.62,22.62h9.94a1.9,1.9,0,0,0,1.9-1.9V183.3a1.9,1.9,0,0,0-1.9-1.9h-8.79c-6.35,0-10.79-4.56-10.79-11.08V127.23h19.58a1.9,1.9,0,0,0,1.9-1.9v-9.18A1.9,1.9,0,0,0,391.52,114.25Z" transform="translate(-61.17 -61.2)"/><path class="cls-2" d="M585.62,114.25H566V84.83a1.9,1.9,0,0,0-1.9-1.9H555a1.9,1.9,0,0,0-1.9,1.9v29.42h-9.85a1.9,1.9,0,0,0-1.9,1.9v9.18a1.9,1.9,0,0,0,1.9,1.9h9.85v44.54c0,13.53,9.09,22.62,22.62,22.62h9.94a1.9,1.9,0,0,0,1.9-1.9V183.3a1.9,1.9,0,0,0-1.9-1.9h-8.79c-6.35,0-10.78-4.56-10.78-11.08V127.23h19.58a1.9,1.9,0,0,0,1.9-1.9v-9.18A1.9,1.9,0,0,0,585.62,114.25Z" transform="translate(-61.17 -61.2)"/><path class="cls-2" d="M292.3,72h-10a24.61,24.61,0,0,0-24.58,24.58v17.66h-9.85a1.9,1.9,0,0,0-1.9,1.9v9.18a1.9,1.9,0,0,0,1.9,1.9h9.85v65.26a1.9,1.9,0,0,0,1.9,1.9h9.18a1.9,1.9,0,0,0,1.9-1.9V127.23h21.6a1.9,1.9,0,0,0,1.9-1.9v-9.18a1.9,1.9,0,0,0-1.9-1.9H270.7V96.59c0-6.61,4.64-11.6,10.79-11.6H292.3a1.9,1.9,0,0,0,1.9-1.9V73.91A1.9,1.9,0,0,0,292.3,72Z" transform="translate(-61.17 -61.2)"/><path class="cls-2" d="M452.36,111.49c-10,0-20.53,4.45-26.59,10.94V73.91a1.9,1.9,0,0,0-1.9-1.9h-9.2a1.9,1.9,0,0,0-1.9,1.9v80.43c0,29.75,19.88,43.06,39.58,43.06s39.58-13.31,39.58-43.06c0-12.3-3.84-23-11.12-30.8A38.24,38.24,0,0,0,452.36,111.49Zm0,72.92c-19.6,0-26.59-15.53-26.59-30.07,0-17.86,10.69-29.86,26.59-29.86s26.59,12,26.59,29.86C479,168.87,472,184.41,452.36,184.41Z" transform="translate(-61.17 -61.2)"/><path class="cls-2" d="M608.5,188.41a2.22,2.22,0,0,0-.4-4.4h-3.17v7.35h0.94v-2.91h1.23l2.08,2.9v0h1.16l-2.09-2.91Zm-2.63-.9v-2.56h2.22a1.28,1.28,0,0,1,0,2.56h-2.22Z" transform="translate(-61.17 -61.2)"/><path class="cls-2" d="M607.34,181a6.85,6.85,0,1,0,6.85,6.85A6.86,6.86,0,0,0,607.34,181Zm0,13a6.15,6.15,0,1,1,6.15-6.15A6.15,6.15,0,0,1,607.34,194Z" transform="translate(-61.17 -61.2)"/></svg>