<?xml version="1.0" standalone="no"?>
<!DOCTYPE svg PUBLIC "-//W3C//DTD SVG 20010904//EN"
 "http://www.w3.org/TR/2001/REC-SVG-20010904/DTD/svg10.dtd">
<svg version="1.0" xmlns="http://www.w3.org/2000/svg"
 width="1353.000000pt" height="1406.000000pt" viewBox="0 0 1353.000000 1406.000000"
 preserveAspectRatio="xMidYMid meet">

<g transform="translate(0.000000,1406.000000) scale(0.100000,-0.100000)"
fill="#000000" stroke="none">
<path d="M7990 10720 c0 -2657 0 -2670 -20 -2690 -20 -20 -33 -20 -1205 -20
-1172 0 -1185 0 -1205 20 -20 20 -20 33 -20 1044 0 648 -4 1027 -10 1031 -5 3
-29 -4 -52 -16 -69 -35 -1716 -937 -1790 -980 l-68 -40 0 -3628 c0 -3443 1
-3629 18 -3643 14 -13 1789 -1040 1860 -1077 12 -7 27 -9 32 -6 7 4 10 943 10
2671 0 2651 0 2664 20 2684 20 20 33 20 1205 20 1172 0 1185 0 1205 -20 20
-20 20 -33 20 -1045 0 -950 1 -1025 17 -1025 14 0 1764 954 1866 1017 l37 23
0 3624 c0 3107 -2 3627 -14 3639 -23 23 -1873 1087 -1890 1087 -14 0 -16 -258
-16 -2670z"/>
<path d="M4635 12881 c-473 -274 -1490 -861 -2260 -1306 -770 -444 -1408 -814
-1417 -823 -17 -14 -18 -203 -18 -3704 l0 -3688 43 -26 c268 -160 1705 -983
1712 -981 7 3 12 1232 15 3650 4 3224 7 3648 20 3661 8 8 625 348 1370 756
745 408 1372 753 1393 766 l37 24 0 1085 c0 1027 -1 1085 -17 1084 -10 0 -405
-224 -878 -498z"/>
<path d="M10827 11753 c-4 -3 -7 -1639 -7 -3634 0 -2137 -4 -3637 -9 -3651 -7
-19 -318 -194 -1393 -783 -760 -417 -1393 -765 -1405 -773 l-23 -14 0 -1089
c0 -732 3 -1090 10 -1094 10 -6 4535 2600 4573 2633 16 14 17 201 15 3711 l-3
3696 -870 502 c-478 277 -873 503 -876 503 -3 0 -9 -3 -12 -7z"/>
</g>
</svg>
