<?xml version="1.0" encoding="utf-8"?>
<!-- Generator: Adobe Illustrator 26.1.0, SVG Export Plug-In . SVG Version: 6.00 Build 0)  -->
<svg version="1.1" id="Layer_1" xmlns="http://www.w3.org/2000/svg" xmlns:xlink="http://www.w3.org/1999/xlink" x="0px" y="0px"
	 viewBox="0 0 2500 2542.3" style="enable-background:new 0 0 2500 2542.3;" xml:space="preserve">
	<style type="text/css">
		.st0{fill-rule:evenodd;clip-rule:evenodd;fill:url(#SVGID_1_);}
		.st1{fill-rule:evenodd;clip-rule:evenodd;fill:url(#SVGID_00000128457471882774727590000006435958253162753955_);}
		.st2{fill-rule:evenodd;clip-rule:evenodd;fill:url(#SVGID_00000011000370064862567500000000404917366994798978_);}
		.st3{fill-rule:evenodd;clip-rule:evenodd;fill:url(#SVGID_00000137116489008277178270000015689506959394845597_);}
		.st4{fill-rule:evenodd;clip-rule:evenodd;fill:url(#SVGID_00000142164541022144219960000012732332283912101554_);}
		.st5{fill-rule:evenodd;clip-rule:evenodd;fill:url(#SVGID_00000115503613311259226570000002246577531996740784_);}
		.st6{fill-rule:evenodd;clip-rule:evenodd;fill:url(#SVGID_00000074411675606625668280000011609226627482329224_);}
	</style>
	<linearGradient id="SVGID_1_" gradientUnits="userSpaceOnUse" x1="1098.2402" y1="787.1111" x2="2033.2356" y2="1079.8679" gradientTransform="matrix(1 0 0 -1 0 2148)">
		<stop  offset="0" style="stop-color:#D30971"/>
		<stop  offset="0.7506" style="stop-color:#8E2AFF"/>
	</linearGradient>
	<path class="st0" d="M1857.3,1754.1l589.2-135.3c9.4-2.1,17.7-5.2,25-10.4c7.3-5.2,13.5-12.5,18.7-19.8c5.2-8.3,8.3-16.7,9.4-26
		c1-9.4,0-18.7-2.1-27.1L2247.7,447.6c-4.2-17.7-15.6-33.3-32.3-42.7c-15.6-9.4-35.4-12.5-53.1-8.3L1573.1,532
		c-17.7,4.2-33.3,15.6-42.7,32.3c-9.4,15.6-12.5,34.4-7.3,53.1L1773,1704.2c4.2,17.7,15.6,33.3,32.3,42.7
		C1820.8,1756.2,1839.6,1758.3,1857.3,1754.1z"/>
	<linearGradient id="SVGID_00000178165930846537625230000010768457516497297583_" gradientUnits="userSpaceOnUse" x1="1139.3483" y1="62.2894" x2="1904.094" y2="62.2894" gradientTransform="matrix(1 0 0 -1 0 2148)">
		<stop  offset="0" style="stop-color:#D30971"/>
		<stop  offset="0.9996" style="stop-color:#8E2AFF"/>
	</linearGradient>
	<path style="fill-rule:evenodd;clip-rule:evenodd;fill:url(#SVGID_00000178165930846537625230000010768457516497297583_);" d="
		M1654.3,2426.6l715.2-662.1c27.1-27.1,19.8-43.7-16.7-30.2l-491.4,111.4c-20.8,5.2-38.5,14.6-54.1,29.1s-27.1,32.3-33.3,52.1
		l-148.9,479.9C1613.7,2443.3,1627.2,2453.7,1654.3,2426.6z"/>
	<linearGradient id="SVGID_00000164492073558292570130000015419941078461199240_" gradientUnits="userSpaceOnUse" x1="157.5244" y1="127.6609" x2="1547.4091" y2="127.6609" gradientTransform="matrix(1 0 0 -1 0 2148)">
		<stop  offset="0" style="stop-color:#D30971"/>
		<stop  offset="0.9996" style="stop-color:#8E2AFF"/>
	</linearGradient>
	<path style="fill-rule:evenodd;clip-rule:evenodd;fill:url(#SVGID_00000164492073558292570130000015419941078461199240_);" d="
		M350.9,2210.1l1070.2,331c18.7,3.1,37.5,0,53.1-9.4c16.7-9.4,28.1-23.9,34.4-41.6l179.1-573.6c2.1-9.4,3.1-18.7,2.1-28.1
		c-1-9.4-4.2-18.7-8.3-26c-4.2-7.3-10.4-15.6-17.7-20.8c-7.3-6.2-15.6-10.4-25-12.5L569.5,1501.2c-17.7-5.2-37.5-3.1-54.1,6.2
		c-16.7,9.4-29.1,23.9-34.4,42.7l-178,572.6c-5.2,17.7-3.1,37.5,5.2,54.1C317.6,2192.4,332.2,2204.9,350.9,2210.1z"/>
	<linearGradient id="SVGID_00000013888263567964181960000002029421532939738271_" gradientUnits="userSpaceOnUse" x1="1.7322" y1="640.9189" x2="1128.3356" y2="640.9189" gradientTransform="matrix(1 0 0 -1 0 2148)">
		<stop  offset="0" style="stop-color:#D30971"/>
		<stop  offset="0.9996" style="stop-color:#8E2AFF"/>
	</linearGradient>
	<path style="fill-rule:evenodd;clip-rule:evenodd;fill:url(#SVGID_00000013888263567964181960000002029421532939738271_);" d="
		M5.3,1034.8l216.5,950.5c7.3,37.5,23.9,37.5,33.3,0L404,1505.3c5.2-20.8,5.2-41.6,1-62.5c-4.2-20.8-14.6-39.6-27.1-56.2L35.5,1017.1
		C11.5,990-6.1,997.3,5.3,1034.8z"/>
	<linearGradient id="SVGID_00000095318380232363931400000013639267224376705687_" gradientUnits="userSpaceOnUse" x1="-277.2061" y1="1477.5315" x2="1090.4514" y2="1477.5315" gradientTransform="matrix(1 0 0 -1 0 2148)">
		<stop  offset="0" style="stop-color:#D30971"/>
		<stop  offset="0.9996" style="stop-color:#8E2AFF"/>
	</linearGradient>
	<path style="fill-rule:evenodd;clip-rule:evenodd;fill:url(#SVGID_00000095318380232363931400000013639267224376705687_);" d="
		M842.3,19.8L22,778.7C8.4,791.2,1.1,808.9,0.1,826.6c-1,17.7,6.2,35.4,17.7,48.9L429,1319c12.5,13.5,30.2,20.8,48.9,21.9
		c18.7,1,36.4-6.2,50-18.7l819.3-759.9c13.5-12.5,20.8-29.1,21.9-47.9c1-17.7-6.2-35.4-18.7-48.9L941.2,21.9
		c-6.2-6.2-13.5-12.5-21.9-15.6C911,2.1,901.6,0,892.3,0c-9.4,0-18.7,1-27.1,5.2C855.8,8.3,848.5,13.5,842.3,19.8z"/>
	<linearGradient id="SVGID_00000008854597141673330750000000569054445276125631_" gradientUnits="userSpaceOnUse" x1="278.457" y1="964.6642" x2="1374.9913" y2="964.6642" gradientTransform="matrix(1 0 0 -1 0 2148)">
		<stop  offset="0" style="stop-color:#D30971"/>
		<stop  offset="0.9996" style="stop-color:#8E2AFF"/>
	</linearGradient>
	<path style="fill-rule:evenodd;clip-rule:evenodd;fill:url(#SVGID_00000008854597141673330750000000569054445276125631_);" d="
		M1634.5,1737.5c37.5,10.4,61.4-10.4,51-48.9L1448.2,662.1c-10.4-37.5-40.6-46.8-67.7-20.8l-772.4,717.3
		c-27.1,27.1-20.8,57.3,16.7,67.7L1634.5,1737.5z"/>
	<linearGradient id="SVGID_00000175282324570359201650000018195675834760749186_" gradientUnits="userSpaceOnUse" x1="170.6167" y1="1311.0896" x2="1070.6161" y2="1737.0089" gradientTransform="matrix(1 0 0 -1 0 2148)">
		<stop  offset="0" style="stop-color:#D30971"/>
		<stop  offset="0.9996" style="stop-color:#8E2AFF"/>
	</linearGradient>
	<path style="fill-rule:evenodd;clip-rule:evenodd;fill:url(#SVGID_00000175282324570359201650000018195675834760749186_);" d="
		M2037.4,306.1L1102.5,19.8c-37.5-10.4-43.7,3.1-13.5,33.3l342.5,368.5c15.6,14.6,34.4,25,54.1,30.2c19.8,5.2,41.6,6.2,62.5,2.1
		l491.4-111.4C2074.9,333.1,2074.9,315.4,2037.4,306.1z"/>
</svg>
