<svg xmlns="http://www.w3.org/2000/svg" xmlns:xlink="http://www.w3.org/1999/xlink" width="299.149" height="354.188" xmlns:v="https://vecta.io/nano"><style><![CDATA[.B{color-interpolation-filters:sRGB}.C{fill:#020204}.D{clip-path:none}.E{fill:#fdfdfb}]]></style><defs><linearGradient id="A" xlink:href="#Al"><stop offset="0" stop-color="#b98309"/><stop offset="1" stop-color="#382605"/></linearGradient><filter id="B" x="-.108" width="1.215" y="-.108" height="1.217" class="B"><feGaussianBlur stdDeviation="3.924"/></filter><filter id="C" class="B"><feGaussianBlur stdDeviation="2.437"/></filter><filter id="D" class="B"><feGaussianBlur stdDeviation=".37"/></filter><filter id="E" x="-.101" width="1.202" y="-.043" height="1.085" class="B"><feGaussianBlur stdDeviation="1.132"/></filter><linearGradient id="F" xlink:href="#Al"><stop offset="0" stop-color="#7c7c7c"/><stop offset="1" stop-color="#7c7c7c" stop-opacity=".329"/></linearGradient><filter id="G" x="-.07" width="1.141" y="-.151" height="1.301" class="B"><feGaussianBlur stdDeviation="1.025"/></filter><linearGradient id="H" xlink:href="#Al"><stop offset="0" stop-color="#110800"/><stop offset=".591" stop-color="#a65a00" stop-opacity=".8"/><stop offset="1" stop-color="#ff921e" stop-opacity="0"/></linearGradient><filter id="I" x="-.201" width="1.401" y="-.234" height="1.468" class="B"><feGaussianBlur stdDeviation="2.844"/></filter><filter id="J" x="-.091" width="1.183" y="-.107" height="1.213" class="B"><feGaussianBlur stdDeviation="1.297"/></filter><filter id="K" x="-.469" width="1.939" y="-.274" height="1.547" class="B"><feGaussianBlur stdDeviation=".86"/></filter><filter id="L" x="-.604" width="2.208" y="-.482" height="1.965" class="B"><feGaussianBlur stdDeviation="2.64"/></filter><filter id="M" class="B"><feGaussianBlur stdDeviation="2.209"/></filter><linearGradient id="N" xlink:href="#Al"><stop offset="0" stop-color="#3e2a06"/><stop offset="1" stop-color="#ad780a"/></linearGradient><filter id="O" x="-.145" width="1.29" y="-.143" height="1.286" class="B"><feGaussianBlur stdDeviation="4.779"/></filter><filter id="P" x="-.115" width="1.231" y="-.125" height="1.25" class="B"><feGaussianBlur stdDeviation="3.173"/></filter><filter id="Q" x="-.021" width="1.042" y="-.129" height="1.259" class="B"><feGaussianBlur stdDeviation=".479"/></filter><filter id="R" x="-.178" width="1.355" y="-.159" height="1.319" class="B"><feGaussianBlur stdDeviation=".901"/></filter><filter height="1.116" y="-.058" width="2.633" x="-.817" id="S" class="B"><feGaussianBlur stdDeviation="1.446"/></filter><linearGradient id="T" xlink:href="#Al"><stop offset="0"/><stop offset="1" stop-opacity=".249"/></linearGradient><filter id="U" class="B"><feGaussianBlur stdDeviation=".785"/></filter><filter id="V" class="B"><feGaussianBlur stdDeviation="1.138"/></filter><filter id="W" class="B"><feGaussianBlur stdDeviation=".643"/></filter><filter id="X" x="-.118" width="1.235" y="-.04" height="1.08" class="B"><feGaussianBlur stdDeviation="1.352"/></filter><linearGradient id="Y" xlink:href="#Al"><stop offset="0" stop-color="#d2940a"/><stop offset=".751" stop-color="#d89c08"/><stop offset=".866" stop-color="#b67e07"/><stop offset="1" stop-color="#946106"/></linearGradient><filter height="1.43" y="-.215" width="1.31" x="-.155" id="Z" class="B"><feGaussianBlur stdDeviation=".899"/></filter><filter id="a" class="B"><feGaussianBlur stdDeviation=".758"/></filter><filter id="b" x="-.161" width="1.322" y="-.13" height="1.261" class="B"><feGaussianBlur stdDeviation=".849"/></filter><linearGradient id="c" xlink:href="#Al"><stop offset="0" stop-color="#3a2903"/><stop offset=".555" stop-color="#735208"/><stop offset="1" stop-color="#ac8c04"/></linearGradient><filter id="d" class="B"><feGaussianBlur stdDeviation=".11"/></filter><filter id="e" x="-.116" width="1.233" y="-.106" height="1.211" class="B"><feGaussianBlur stdDeviation=".11"/></filter><filter height="1.272" y="-.136" width="1.215" x="-.107" id="f" class="B"><feGaussianBlur stdDeviation=".264"/></filter><filter height="1.292" y="-.146" width="1.469" x="-.234" id="g" class="B"><feGaussianBlur stdDeviation=".513"/></filter><linearGradient id="h" xlink:href="#Al"><stop offset="0" stop-color="#646464" stop-opacity="0"/><stop offset=".306" stop-color="#646464" stop-opacity=".583"/><stop offset=".47" stop-color="#646464"/><stop offset=".728" stop-color="#646464" stop-opacity=".257"/><stop offset="1" stop-color="#646464" stop-opacity="0"/></linearGradient><filter id="i" class="B"><feGaussianBlur stdDeviation=".135"/></filter><filter id="j" class="B"><feGaussianBlur stdDeviation=".148"/></filter><filter height="1.418" y="-.209" width="1.316" x="-.158" id="k" class="B"><feGaussianBlur stdDeviation=".249"/></filter><filter height="1.363" y="-.181" width="1.357" x="-.179" id="l" class="B"><feGaussianBlur stdDeviation=".519"/></filter><filter id="m" x="-.292" width="1.584" y="-.308" height="1.617" class="B"><feGaussianBlur stdDeviation="1.74"/></filter><linearGradient id="n" xlink:href="#Al"><stop offset="0" stop-color="#fefefc"/><stop offset=".757" stop-color="#fefefc"/><stop offset="1" stop-color="#d4d4d4"/></linearGradient><filter id="o" class="B"><feGaussianBlur stdDeviation=".932"/></filter><filter height="1.258" y="-.129" width="1.153" x="-.076" id="p" class="B"><feGaussianBlur stdDeviation="2.036"/></filter><radialGradient xlink:href="#n" id="q" gradientTransform="matrix(0.81524244,-0.03431182,0.02961133,1.2479887,-208.43744,-35.542647)" cx="223.196" cy="137.661" fx="223.196" fy="137.661" r="14.572"/><radialGradient xlink:href="#n" id="r" gradientTransform="matrix(1.0857794,-0.03431182,0.03943781,1.2479887,-233.54194,-35.542647)" cx="223.196" cy="137.661" fx="223.196" fy="137.661" r="14.572"/><radialGradient id="s" gradientTransform="matrix(0.69784558,-0.50717348,0.46034105,0.63340638,-271.10191,183.03011)" cx="275.538" cy="150.651" fx="275.538" fy="150.651" r="15.382" xlink:href="#Al"><stop offset="0" stop-color="#020204"/><stop offset=".734" stop-color="#020204"/><stop offset="1" stop-color="#5c5c5c"/></radialGradient><linearGradient id="t" x1="153.016" y1="74.408" x2="159.733" y2="82.363" xlink:href="#Al"><stop offset="0" stop-color="#949494" stop-opacity=".392"/><stop offset=".5" stop-color="#949494"/><stop offset="1" stop-color="#949494" stop-opacity=".392"/></linearGradient><linearGradient id="u" x1="87.25" y1="119.987" x2="108.625" y2="132.487" xlink:href="#Al"><stop offset="0" stop-color="#747474"/><stop offset=".125" stop-color="#8c8c8c"/><stop offset=".25" stop-color="#a4a4a4"/><stop offset=".5" stop-color="#d4d4d4"/><stop offset=".619" stop-color="#d4d4d4"/><stop offset="1" stop-color="#7c7c7c"/></linearGradient><linearGradient xlink:href="#h" id="v" x1="-5.49" y1="113.562" x2="8.74" y2="126.997"/><linearGradient xlink:href="#h" id="w" x1="-46.773" y1="114.666" x2="-33.373" y2="127.571"/><linearGradient id="x" x1="114.049" y1="73.701" x2="119.882" y2="84.13" xlink:href="#Al"><stop offset="0" stop-color="#757574" stop-opacity="0"/><stop offset=".263" stop-color="#757574"/><stop offset=".5" stop-color="#757574"/><stop offset="1" stop-color="#757574" stop-opacity="0"/></linearGradient><radialGradient xlink:href="#Y" id="y" gradientTransform="matrix(0.93618683,-0.38640412,0.27133164,0.65738721,-244.47527,146.7229)" cx="294.485" cy="193.099" fx="294.485" fy="193.099" r="31.111"/><linearGradient id="z" x1="46.857" y1="158.314" x2="103.337" y2="157.872" xlink:href="#Al"><stop offset="0" stop-color="#ad780a"/><stop offset=".12" stop-color="#d89e08"/><stop offset=".255" stop-color="#edb80b"/><stop offset=".392" stop-color="#ebc80d"/><stop offset=".527" stop-color="#f5d838"/><stop offset=".769" stop-color="#f6d811"/><stop offset="1" stop-color="#f5cd31"/></linearGradient><radialGradient xlink:href="#c" id="AA" gradientTransform="matrix(1.0000004,0,0,0.5833264,59.999805,3.054009)" cx="77.672" cy="147.093" fx="77.672" fy="147.093" r="3.23"/><radialGradient xlink:href="#c" id="AB" gradientTransform="matrix(1,0,0,1.0751189,59.99984,-69.456344)" cx="63.125" cy="147.441" fx="63.125" fy="147.441" r="1.535"/><linearGradient id="AC" x1="243.031" y1="157.018" x2="243.469" y2="159.768" xlink:href="#Al"><stop offset="0" stop-color="#f5ce2d"/><stop offset="1" stop-color="#d79b08"/></linearGradient><radialGradient id="AD" gradientTransform="matrix(0.20141143,-0.03316079,0.03065006,0.18616184,-3.1263574,114.03586)" cx="268.07" cy="126.535" fx="268.07" fy="126.535" r="35.511" xlink:href="#Al"><stop offset="0" stop-color="#c8c8c8"/><stop offset="1" stop-color="#797978"/></radialGradient><radialGradient xlink:href="#T" id="AE" gradientTransform="matrix(-0.69844216,0,0,0.76335815,166.3057,50.219935)" cx="336.224" cy="220.538" fx="336.224" fy="220.538" r="27.391"/><radialGradient xlink:href="#T" id="AF" gradientTransform="matrix(1,0,0,0.76335815,-150.00015,-8.142243)" cx="312.145" cy="236.366" fx="312.145" fy="236.366" r="27.391"/><radialGradient xlink:href="#T" id="AG" gradientTransform="matrix(1,0,0,1.0692348,-150.00016,-73.222483)" cx="275.554" cy="225.135" fx="275.554" fy="225.135" r="10.845"/><linearGradient id="AH" x1="28.286" y1="323.901" x2="31.982" y2="351.487" xlink:href="#Al"><stop offset="0"/><stop offset="1" stop-opacity="0"/></linearGradient><linearGradient xlink:href="#N" id="AI" x1="192.039" y1="313.182" x2="240.122" y2="235.223"/><linearGradient id="AJ" x1="205.164" y1="229.227" x2="203.749" y2="241.955" xlink:href="#Al"><stop offset="0" stop-color="#f3cd0c"/><stop offset="1" stop-color="#f3cd0c" stop-opacity="0"/></linearGradient><radialGradient xlink:href="#H" id="AK" gradientTransform="matrix(1.3082075,0.35053296,-0.36795399,1.3732236,-150.50951,-298.71133)" cx="363.34" cy="303.415" fx="363.34" fy="303.415" r="16.846"/><radialGradient xlink:href="#H" id="AL" gradientTransform="matrix(1.3082075,0.35053296,-0.36795399,1.3732236,-310.50935,-240.34915)" cx="363.34" cy="303.415" fx="363.34" fy="303.415" r="16.846"/><radialGradient xlink:href="#F" id="AM" gradientTransform="matrix(0.36025223,0.15680447,-0.07246786,0.16649214,260.61683,181.93825)" cx="382.235" cy="246.858" fx="382.235" fy="246.858" r="20.538"/><linearGradient xlink:href="#F" id="AN" x1="358.5" y1="279.362" x2="361.5" y2="279.237"/><linearGradient xlink:href="#A" id="AO" x1="43.134" y1="243.178" x2="90.864" y2="323.258"/><linearGradient id="AP" x1="91.04" y1="263.861" x2="106.066" y2="292.145" xlink:href="#Al"><stop offset="0" stop-color="#ebc40c"/><stop offset="1" stop-color="#ebc40c" stop-opacity="0"/></linearGradient><clipPath id="AQ"><path d="M137.577 281.019c1.599-.663 3.398-.784 5.101-.47s3.311 1.049 4.743 2.022c2.864 1.946 4.988 4.778 7.023 7.58 4.672 6.434 9.169 13.002 13.245 19.829 3.306 5.538 6.344 11.257 10.164 16.453 2.494 3.392 5.307 6.539 7.813 9.922s4.728 7.056 5.839 11.117c1.444 5.277.885 11.093-1.627 15.953-1.767 3.419-4.476 6.352-7.772 8.339s-7.171 3.014-11.016 2.87c-6.114-.229-11.699-3.285-17.384-5.549-11.581-4.613-24.16-6.059-36.097-9.652-3.669-1.104-7.276-2.411-10.97-3.426-1.641-.451-3.309-.848-4.859-1.551s-3-1.749-3.862-3.217c-.666-1.134-.948-2.47-.93-3.786s.326-2.615.774-3.852c.896-2.474 2.343-4.714 3.32-7.157 1.595-3.989 1.882-8.388 1.667-12.679s-.911-8.545-1.205-12.831c-.131-1.914-.181-3.853.185-5.736s1.176-3.725 2.558-5.055c1.274-1.227 2.965-1.955 4.696-2.317s3.515-.377 5.284-.338 3.541.134 5.304-.011 3.533-.541 5.069-1.418c1.46-.834 2.654-2.075 3.644-3.434s1.789-2.846 2.609-4.314 1.668-2.932 2.742-4.226 2.389-2.423 3.943-3.067" transform="matrix(1 0 0 1.01828 0 -4.031344)" fill="url(#AR)"/></clipPath><linearGradient xlink:href="#A" id="AR" x1="123.134" y1="301.54" x2="170.864" y2="381.62"/><clipPath id="AS"><path transform="translate(-240 -1)" d="M137.577 281.019c1.599-.663 3.398-.784 5.101-.47s3.311 1.049 4.743 2.022c2.864 1.946 4.988 4.778 7.023 7.58 4.672 6.434 9.169 13.002 13.245 19.829 3.306 5.538 6.344 11.257 10.164 16.453 2.494 3.392 5.307 6.539 7.813 9.922s4.728 7.056 5.839 11.117c1.444 5.277.885 11.093-1.627 15.953-1.767 3.419-4.476 6.352-7.772 8.339s-7.171 3.014-11.016 2.87c-6.114-.229-11.699-3.285-17.384-5.549-11.581-4.613-24.16-6.059-36.097-9.652-3.669-1.104-7.276-2.411-10.97-3.426-1.641-.451-3.309-.848-4.859-1.551s-3-1.749-3.862-3.217c-.666-1.134-.948-2.47-.93-3.786s.326-2.615.774-3.852c.896-2.474 2.343-4.714 3.32-7.157 1.595-3.989 1.882-8.388 1.667-12.679s-.911-8.545-1.205-12.831c-.131-1.914-.181-3.853.185-5.736s1.176-3.725 2.558-5.055c1.274-1.227 2.965-1.955 4.696-2.317s3.515-.377 5.284-.338 3.541.134 5.304-.011 3.533-.541 5.069-1.418c1.46-.834 2.654-2.075 3.644-3.434s1.789-2.846 2.609-4.314 1.668-2.932 2.742-4.226 2.389-2.423 3.943-3.067" fill="url(#AR)"/></clipPath><clipPath id="AT"><path d="M513.19 336.614c-2.624 3.115-6.268 5.17-9.896 7.02-6.189 3.154-12.602 5.922-18.42 9.717-3.898 2.542-7.496 5.527-10.86 8.742-2.877 2.75-5.606 5.687-8.832 8.018-3.256 2.351-7.019 4.054-10.991 4.65-4.83.725-9.821-.213-14.299-2.164-3.138-1.367-6.156-3.323-7.963-6.229-1.814-2.918-2.228-6.488-2.233-9.924-.008-6.077 1.118-12.09 2.178-18.073.881-4.972 1.719-9.955 2.26-14.975.983-9.131.976-18.353.32-27.513-.11-1.534-.238-3.083-.008-4.604s.855-3.037 2.021-4.04c1.077-.927 2.521-1.336 3.939-1.414s2.834.147 4.24.352c3.313.484 6.652.865 9.889 1.717 2.043.537 4.033 1.259 6.072 1.811 3.403.92 6.966 1.361 10.467.952 3.769-.441 7.43-1.857 11.224-1.765 1.557.038 3.101.332 4.586.8 1.515.478 3.009 1.162 4.123 2.295.846.861 1.436 1.945 1.879 3.069.66 1.674 1.015 3.457 1.167 5.249.135 1.588.113 3.194.414 4.759.495 2.575 1.847 4.923 3.528 6.935s3.69 3.72 5.696 5.408c1.999 1.681 4.011 3.355 6.167 4.828 1.012.692 2.056 1.339 3.017 2.101s1.845 1.647 2.445 2.715c.815 1.449 1.064 3.208.538 4.877s-1.482 3.277-2.671 4.688z" fill="url(#AI)" class="D"/></clipPath><clipPath id="AU"><path d="M509.363 335.745c-2.296 2.528-5.484 4.196-8.659 5.697-5.414 2.56-11.025 4.805-16.116 7.885-3.41 2.063-6.558 4.485-9.502 7.094-2.517 2.232-4.905 4.615-7.728 6.506-2.848 1.908-6.141 3.29-9.616 3.774-4.226.588-8.593-.173-12.51-1.756-2.745-1.11-5.386-2.697-6.967-5.055-1.587-2.368-1.949-5.265-1.953-8.053-.007-4.931.978-9.811 1.906-14.666.771-4.035 1.504-8.078 1.977-12.152.86-7.41.854-14.893.28-22.327-.096-1.245-.208-2.502-.007-3.736s.748-2.464 1.768-3.278c.942-.752 2.206-1.084 3.447-1.148s2.48.119 3.709.286c2.898.393 5.82.702 8.652 1.393 1.787.436 3.529 1.022 5.313 1.469 2.977.747 6.095 1.105 9.158.772 3.298-.358 6.5-1.507 9.82-1.432 1.362.031 2.714.269 4.013.649 1.326.388 2.633.943 3.607 1.862.741.699 1.256 1.579 1.644 2.49.577 1.358.888 2.805 1.021 4.26.118 1.289.099 2.592.363 3.862.433 2.089 1.616 3.995 3.087 5.628s3.228 3.019 4.984 4.388c1.749 1.364 3.509 2.722 5.396 3.918.885.561 1.799 1.087 2.64 1.705s1.614 1.336 2.14 2.203c.713 1.176.931 2.603.47 3.957s-1.296 2.659-2.337 3.804z" fill="url(#AV)" stroke-width=".843" class="D"/></clipPath><linearGradient xlink:href="#N" id="AV" x1="228.384" y1="316.73" x2="270.453" y2="253.468"/><clipPath id="AW"><path d="M263.19 278.252c-2.624 3.115-6.268 5.17-9.896 7.02-6.189 3.154-12.602 5.922-18.42 9.717-3.898 2.542-7.496 5.527-10.86 8.742-2.877 2.75-5.606 5.687-8.832 8.018-3.256 2.351-7.019 4.054-10.991 4.65-4.83.725-9.821-.213-14.299-2.164-3.138-1.367-6.156-3.323-7.963-6.229-1.814-2.918-2.228-6.488-2.233-9.924-.008-6.077 1.118-12.09 2.178-18.073.881-4.972 1.719-9.955 2.26-14.975.983-9.131.976-18.353.32-27.513-.11-1.534-.238-3.083-.008-4.604s.855-3.037 2.021-4.04c1.077-.927 2.521-1.336 3.939-1.415s2.834.147 4.24.352c3.313.484 6.652.865 9.889 1.717 2.043.537 4.033 1.259 6.072 1.811 3.403.92 6.966 1.361 10.467.952 3.769-.441 7.43-1.857 11.224-1.765 1.557.038 3.101.332 4.586.8 1.515.478 3.009 1.162 4.123 2.295.846.861 1.436 1.945 1.879 3.069.66 1.674 1.015 3.457 1.167 5.249.135 1.588.113 3.194.414 4.759.495 2.575 1.847 4.923 3.528 6.935s3.69 3.72 5.696 5.408c1.999 1.681 4.011 3.355 6.167 4.828 1.012.692 2.056 1.339 3.017 2.101s1.845 1.647 2.445 2.715c.815 1.449 1.064 3.208.538 4.877s-1.482 3.277-2.671 4.688z" fill="url(#AX)" class="D"/></clipPath><linearGradient xlink:href="#N" id="AX" x1="-57.961" y1="254.82" x2="-9.878" y2="176.861"/><clipPath id="AY"><path d="M304.847 225.45c5.977 4.895 9.769 12.286 10.943 20.003.916 6.019.321 12.195-1.012 18.132s-3.391 11.676-5.434 17.401c-.815 2.283-1.633 4.587-1.956 6.993s-.119 4.954 1.021 7.088c1.307 2.446 3.745 4.13 6.367 4.923 2.588.783 5.384.766 8.004.102s5.066-1.963 7.198-3.649c5.418-4.283 8.687-10.949 9.952-17.812s.684-13.95-.493-20.83c-1.604-9.381-4.304-18.551-7.74-27.408a96.08 96.08 0 0 0-9.618-18.52c-3.779-5.668-9.142-10.093-13.103-15.635-1.376-1.925-3.032-3.932-4.384-5.878-2.916-4.198-2.255-3.415-4.064-6.132-1.312-1.971-3.384-2.649-5.565-3.511s-4.629-1.116-6.881-.471c-2.968.85-5.392 3.231-6.682 6.082s-1.515 6.123-1.014 9.22c.647 3.995 2.442 7.703 4.466 11.189 2.285 3.937 4.933 7.727 8.384 10.654 3.602 3.055 7.958 5.069 11.611 8.06" stroke-width=".991" class="C"/></clipPath><clipPath id="AZ"><path d="M240.473 195.036c-7.073 8.037-14.352 15.816-18.346 24.505-1.976 4.413-2.911 9.207-4.265 13.849-1.538 5.272-3.626 10.37-5.971 15.336-2.165 4.585-4.55 9.063-6.939 13.536-1.738 3.254-3.505 6.581-4.108 10.221-.476 2.876-.198 5.844.534 8.666s1.91 5.511 3.238 8.106c5.667 11.075 14.17 20.622 24.242 27.925 4.571 3.314 9.467 6.181 14.602 8.526 2.782 1.27 5.714 2.404 8.772 2.457 1.529.026 3.074-.225 4.474-.841s2.651-1.604 3.483-2.887c1.023-1.578 1.37-3.538 1.165-5.407s-.935-3.653-1.913-5.259c-2.39-3.923-6.165-6.761-9.796-9.573-7.841-6.074-15.425-12.48-22.682-19.24-2.049-1.909-4.098-3.878-5.53-6.284-1.394-2.344-2.148-5.014-2.658-7.693-1.4-7.349-1.041-15.083 1.46-22.133.978-2.758 2.271-5.392 3.518-8.04 2.161-4.589 4.207-9.266 7.049-13.467 3.538-5.23 8.267-9.66 11.151-15.278 2.434-4.741 3.42-10.072 4.362-15.318.737-4.104 2.15-8.124 2.869-12.232-1.406 2.666-5.938 7.043-8.711 10.525z" class="C"/></clipPath><clipPath id="Aa"><path d="M386.188 285.328c-.405-1.104-1.118-2.082-1.991-2.87s-1.9-1.392-2.983-1.852c-2.165-.919-4.521-1.261-6.832-1.696l-6.528-1.277c-2.271-.386-4.618-.632-6.865-.125-1.966.443-3.784 1.459-5.272 2.819s-2.649 3.056-3.485 4.89c-1.472 3.23-1.935 6.865-1.654 10.403.209 2.633.875 5.346 2.609 7.339 1.401 1.611 3.387 2.615 5.434 3.221 3.525 1.043 7.367.988 10.86-.155a28.59 28.59 0 0 0 14.33-10.779c1.139-1.65 2.112-3.448 2.553-5.403.336-1.49.348-3.081-.178-4.515" class="C"/></clipPath><clipPath id="Ab"><path d="M386.188 285.328c-.405-1.104-1.118-2.082-1.991-2.87s-1.9-1.392-2.983-1.852c-2.165-.919-4.521-1.261-6.832-1.696l-6.528-1.277c-2.271-.386-4.618-.632-6.865-.125-1.966.443-3.784 1.459-5.272 2.819s-2.649 3.056-3.485 4.89c-1.472 3.23-1.935 6.865-1.654 10.403.209 2.633.875 5.346 2.609 7.339 1.401 1.611 3.387 2.615 5.434 3.221 3.525 1.043 7.367.988 10.86-.155a28.59 28.59 0 0 0 14.33-10.779c1.139-1.65 2.112-3.448 2.553-5.403.336-1.49.348-3.081-.178-4.515" class="C"/></clipPath><clipPath id="Ac"><path d="M85.75 122.362c-2.78 1.91-5.111 4.575-6.25 7.75-1.436 4.002-.886 8.481.5 12.5 1.419 4.117 3.794 8.041 7.379 10.512 1.793 1.236 3.868 2.083 6.03 2.339s4.409-.095 6.34-1.101c2.353-1.226 4.148-3.373 5.262-5.781s1.589-5.07 1.738-7.719c.19-3.375-.14-6.806-1.25-10-1.205-3.469-3.39-6.671-6.473-8.667-1.541-.998-3.292-1.684-5.111-1.935s-3.705-.063-5.416.602c-.975.379-1.887.907-2.75 1.5" fill="url(#Ad)"/></clipPath><radialGradient xlink:href="#n" id="Ad" gradientTransform="matrix(1.0857794,-0.03431182,0.03943781,1.2479887,-15.5421,-75.904827)" cx="223.196" cy="137.661" fx="223.196" fy="137.661" r="14.572"/><clipPath id="Ae"><path d="M54.232 122.362c-1.781.097-3.485.919-4.788 2.137s-2.221 2.812-2.786 4.504c-1.13 3.384-.875 7.052-.619 10.61.233 3.222.47 6.505 1.677 9.502.603 1.498 1.45 2.91 2.58 4.064s2.552 2.042 4.118 2.434c1.469.368 3.038.292 4.483-.162s2.764-1.279 3.846-2.338c1.579-1.545 2.643-3.566 3.253-5.689s.784-4.352.752-6.561c-.04-2.764-.401-5.539-1.266-8.164s-2.246-5.103-4.173-7.086c-.933-.96-1.998-1.805-3.199-2.397s-2.543-.925-3.88-.853" fill="url(#Af)"/></clipPath><radialGradient xlink:href="#n" id="Af" gradientTransform="matrix(0.81524244,-0.03431182,0.02961133,1.2479887,9.5624,-75.904827)" cx="223.196" cy="137.661" fx="223.196" fy="137.661" r="14.572"/><clipPath id="Ag"><path d="M214.636 148.038a27.27 27.27 0 0 0-7.271.884c-4.053 1.057-7.574 2.939-10.085 5.393-1.628.855-3.05 1.899-4.207 3.086-.662.679-1.244 1.417-1.501 2.248-.202.653-.199 1.345-.285 2.02-.032.253-.078.507-.036.765.021.129.063.258.138.381.022.036.053.071.081.106.083.15.183.297.315.431.288.293.68.531 1.094.732s.853.368 1.281.549c2.28.966 4.228 2.325 5.993 3.759 2.368 1.925 4.529 4.061 7.51 5.46 2.105.988 4.528 1.552 6.926 1.724 2.816.202 5.585-.123 8.182-.693 2.406-.529 4.697-1.271 6.752-2.254 3.907-1.868 6.987-4.606 11.424-5.834.969-.268 1.99-.459 2.913-.79s1.763-.827 2.119-1.527c.343-.673.205-1.45.236-2.19.033-.791.264-1.556.333-2.343s-.038-1.629-.622-2.352a3.34 3.34 0 0 0-.452-.452c-.051-.292-.221-.58-.466-.832-.505-.52-1.293-.872-2.095-1.117-1.098-.336-2.256-.502-3.399-.696a66.96 66.96 0 0 1-10.295-2.604c-1.653-.561-3.271-1.183-4.904-1.779-1.679-.613-3.387-1.201-5.165-1.577a23.68 23.68 0 0 0-4.513-.498z" fill="url(#Ah)" stroke-width=".775"/></clipPath><radialGradient xlink:href="#Y" id="Ah" gradientTransform="matrix(0.81494503,-0.25452614,0.31491054,0.43302392,-75.371375,150.73818)" cx="294.485" cy="193.099" fx="294.485" fy="193.099" r="31.111"/><clipPath id="Ai"><path d="M-26.296 154.814c-1.046 1.311-1.728 2.887-2.139 4.514s-.562 3.308-.627 4.984c-.128 3.353.076 6.77-.811 10.006-.949 3.459-3.076 6.456-5.158 9.378-3.605 5.059-7.249 10.25-9.027 16.202-1.077 3.605-1.436 7.423-1.048 11.165-4.035 5.926-7.529 12.221-10.423 18.781-4.386 9.942-7.396 20.527-8.455 31.341-1.296 13.242.398 26.862 5.627 39.097 3.781 8.846 9.418 16.944 16.686 23.247a57.05 57.05 0 0 0 12.189 8.097c15.213 7.477 34.013 7.491 48.973-.48 7.818-4.166 14.418-10.258 20.781-16.422 3.832-3.712 7.644-7.512 10.567-11.976 5.627-8.592 7.587-19.036 8.805-29.234 2.13-17.833 2.198-36.67-5.621-52.838a58.29 58.29 0 0 0-10.581-15.141c-1.145-7.781-3.406-15.397-6.692-22.542-2.37-5.155-5.268-10.062-7.471-15.291-.904-2.147-1.69-4.345-2.693-6.447s-2.241-4.125-3.924-5.735c-1.723-1.649-3.871-2.818-6.136-3.566s-4.649-1.087-7.031-1.207c-4.765-.24-9.539.383-14.306.194-3.795-.151-7.578-.816-11.369-.592-1.896.112-3.791.451-5.55 1.165s-3.382 1.817-4.566 3.301" class="E"/></clipPath><clipPath id="Aj"><path d="M-47.296 161.444c-1.046 1.424-1.728 3.135-2.139 4.9s-.562 3.591-.627 5.411c-.128 3.64.077 7.35-.811 10.863-.949 3.756-3.076 7.01-5.158 10.181-3.605 5.492-7.249 11.128-9.027 17.59a33.8 33.8 0 0 0-1.048 12.121A131.75 131.75 0 0 0-76.528 242.9c-4.386 10.793-7.396 22.285-8.455 34.025-1.296 14.377.398 29.163 5.627 42.445 3.781 9.604 9.418 18.395 16.686 25.238 3.695 3.479 7.8 6.448 12.189 8.791 15.213 8.118 34.013 8.133 48.973-.521 7.818-4.523 14.418-11.137 20.781-17.829 3.832-4.03 7.644-8.156 10.567-13.001 5.627-9.328 7.587-20.666 8.805-31.738 2.13-19.361 2.198-39.811-5.621-57.364-2.692-6.043-6.279-11.615-10.581-16.437-1.145-8.447-3.406-16.715-6.692-24.473-2.37-5.597-5.268-10.924-7.471-16.601-.904-2.331-1.69-4.717-2.693-6.999s-2.241-4.478-3.924-6.227c-1.723-1.79-3.871-3.06-6.136-3.872s-4.649-1.18-7.031-1.31c-4.765-.26-9.539.416-14.306.211-3.795-.164-7.578-.886-11.369-.643-1.896.121-3.791.489-5.55 1.265s-3.382 1.973-4.566 3.584" stroke-width="1.042" class="E"/></clipPath><path id="Ak" d="M362.219 276.456a13.48 13.48 0 0 0-1.625.188c-3.47.617-6.647 2.809-8.437 5.844a12.38 12.38 0 0 0-1.656 7.156c.073-1.742.529-3.447 1.375-4.969 1.434-2.582 4.032-4.53 6.938-5.062 1.79-.328 3.632-.131 5.438.094 1.733.216 3.481.443 5.188.813 2.641.572 5.254 1.451 7.469 3 .516.361 1 .769 1.406 1.25s.722 1.038.844 1.656c.178.904-.079 1.853-.531 2.656s-1.065 1.507-1.719 2.156c-.529.526-1.095 1.034-1.656 1.531 2.559-.496 5.152-1.198 7.281-2.687.9-.63 1.715-1.385 2.25-2.344s.762-2.121.5-3.187c-.177-.72-.571-1.382-1.062-1.937s-1.08-1.012-1.687-1.437c-2.679-1.877-5.815-3.079-9.062-3.469-2.081-.383-4.181-.706-6.281-.969-1.643-.206-3.321-.373-4.969-.281z"/><linearGradient id="Al" gradientUnits="userSpaceOnUse"/></defs><g transform="translate(8 4.6)"><path d="M140.813 19.578c-7.168-.078-14.424 1.375-20.734 4.775-6.707 3.614-12.201 9.395-15.586 16.221s-4.713 14.108-4.914 22.133c-.382 15.247.344 31.239 1.494 45.73.305 4.413.854 6.995.293 11.523-1.887 9.63-10.313 16.112-14.805 24.57-4.955 9.331-7.043 19.881-10.783 29.762-3.422 9.042-8.228 17.521-11.471 26.629-4.535 12.736-5.891 26.731-2.895 39.914 2.284 10.05 7.055 19.473 13.484 27.533l-2.793 5.031c-2.979 5.147-6.62 10.027-8.316 15.727-.848 2.85-1.182 5.89-.635 8.813s2.027 5.719 4.352 7.572c1.522 1.213 3.357 1.995 5.254 2.434s3.857.545 5.803.504c7.395-.157 14.559-2.405 21.713-4.283 4.239-1.113 8.51-2.101 12.803-2.988 15.241-3.122 32.25-1.876 46.398.176 4.792.724 9.55 1.671 14.26 2.813 7.377 1.788 14.729 4.067 22.316 4.283 1.997.057 4.011-.031 5.961-.465s3.842-1.227 5.404-2.473c2.329-1.857 3.808-4.657 4.355-7.586s.209-5.977-.648-8.83c-1.715-5.706-5.389-10.575-8.436-15.695-1.202-2.02-2.32-4.093-3.514-6.117 9.169-10.296 16.548-22.203 20.816-35.281 4.659-14.275 5.514-29.646 3.553-44.533s-6.682-29.321-12.898-42.99c-7.798-17.138-14.353-23.331-19.104-38.381-5.135-16.266-.895-35.514-4.711-50.268-1.362-5.017-3.533-9.807-6.326-14.191-3.273-5.137-7.425-9.742-12.357-13.316-7.871-5.703-17.615-8.638-27.334-8.744z" class="C"/><path d="M112.704 105.452c-1.046 1.311-1.728 2.887-2.139 4.514s-.562 3.308-.627 4.984c-.128 3.353.076 6.77-.811 10.006-.949 3.46-3.076 6.456-5.158 9.378-3.605 5.059-7.249 10.25-9.027 16.202-1.077 3.605-1.436 7.423-1.048 11.165-4.035 5.926-7.529 12.221-10.423 18.781-4.386 9.942-7.396 20.527-8.455 31.341-1.296 13.242.398 26.862 5.627 39.097 3.781 8.846 9.418 16.944 16.686 23.247a57.05 57.05 0 0 0 12.189 8.097c15.213 7.477 34.013 7.491 48.973-.48 7.818-4.166 14.418-10.258 20.781-16.422 3.832-3.712 7.644-7.512 10.567-11.976 5.627-8.592 7.587-19.036 8.805-29.234 2.13-17.833 2.198-36.67-5.621-52.838a58.29 58.29 0 0 0-10.581-15.141c-1.145-7.781-3.406-15.397-6.692-22.542-2.37-5.155-5.268-10.062-7.471-15.291-.904-2.147-1.69-4.345-2.693-6.447s-2.241-4.125-3.924-5.735c-1.723-1.649-3.871-2.818-6.136-3.566s-4.649-1.087-7.031-1.207c-4.765-.24-9.539.383-14.306.194-3.795-.151-7.578-.816-11.369-.592-1.896.112-3.791.451-5.55 1.165s-3.382 1.817-4.566 3.301" class="E"/><path transform="matrix(1.154304 0 0 1 166.33231 -58.362183)" d="M-61.003 211.593c.88 1.524-.547 6.778 19.964 3.415 0 0-3.602.457-7.153 1.404-5.521 2.133-10.33 4.517-14.04 7.675-3.676 3.122-6.367 7.197-9.74 10.697 0 0 5.462-11.519 6.823-14.987s-.228-3.31.849-8.414 3.713-10.007 3.713-10.007-2.152 7.211-.417 10.216z" opacity=".25" fill="url(#AE)" filter="url(#W)"/><path d="M172.05 151.856c-4.825 3.361-7.652 2.963-13.507 3.621s-21.698.419-21.698.419 2.294-.043 7.378.904 15.453 1.852 21.292 4.075 7.968 2.857 11.517 5.101c5.051 3.194 8.758 8.197 13.587 11.697 0 0 .234-4.644-1.716-8.112s-7.19-8.935-8.732-14.039-2.274-15.132-2.274-15.132-1.021 8.105-5.846 11.466z" opacity=".42" fill="url(#AF)" filter="url(#V)"/><path d="M126.67 144.678l-.697 4.344c-.141.709-.295 1.42-.559 2.093s-.644 1.312-1.181 1.796c-.471.424-1.044.716-1.621.98-2.248 1.029-4.654 1.713-7.108 2.019l2.935.268c.615.067 1.232.142 1.832.296s1.185.39 1.684.755c.548.401.978.948 1.299 1.546.64 1.192.854 2.563.973 3.91.151 1.723.162 3.459.033 5.184.116-1.154.358-2.296.72-3.398.653-1.986 1.704-3.848 3.12-5.386a11.66 11.66 0 0 1 1.859-1.648 10.29 10.29 0 0 1 7.236-1.761 11.24 11.24 0 0 1-7.194-2.233c-1.042-.785-1.949-1.763-2.58-2.905a8.11 8.11 0 0 1-.751-5.861" opacity=".2" fill="url(#AG)" filter="url(#U)"/><path d="M120.5 178.719a88.71 88.71 0 0 0-2.526 14.277c-.637 6.812-.484 13.672-.849 20.505-.31 5.798-.991 11.656.016 17.374.48 2.727 1.343 5.385 2.555 7.875a26.9 26.9 0 0 0 .422-2.876c.427-4.636-.354-9.287-.618-13.935-.462-8.147.666-16.29 1.125-24.437.353-6.255.311-12.532-.125-18.781h0" opacity=".11" filter="url(#S)"/><g fill="#7c7c7c"><path d="M351.96 200.857c-1.452.389-1.23 3.994-.296 5.498.789 1.27 3.072 2.271 3.759 1.005 1.114-2.056-1.472-7.036-3.462-6.503z" transform="matrix(-.069919 .957009 -.564507 -.118534 236.56758 -180.37928)" opacity=".25" filter="url(#K)"/><path transform="matrix(-.095961 -.957009 -.774762 .118534 398.90188 493.24449)" d="M361.75 209.343c.002-1.533-7.565-10.056-9.79-8.486s-.492 3.784-.296 5.498-.945 6.609.238 7.259 3.366-2.52 5.301-4.277c1.558-1.415 4.544 1.539 4.546.006z" opacity=".75" filter="url(#L)"/><path d="M277.96 90.857c-2.225 1.57-1.253 3.53-.296 5.498s-2.104 7.64-2.137 7.884 6.025-2.875 7.676-4.902c1.95-2.393 6.877 3.238 6.609 2.381.002-1.533-9.627-12.431-11.852-10.861z" transform="matrix(1.152214 0 0 1.152214 -163.02721 -72.199565)" filter="url(#m)"/></g><path d="M16.687 165.862c-2.162 1.969 1.014 4.928 2.52 8.404.936 2.161 3.527 5.205 6.032 4.718 1.885-.367 3.054-3.079 2.876-4.991-.344-3.689-3.457-4.553-5.717-5.819-1.791-1.004-4.193-3.694-5.711-2.311z" transform="translate(160 -57.362)" fill="#838384" filter="url(#R)"/><path clip-path="url(#Ai)" transform="translate(139 -49.362)" d="M-28.632 172.601c1.703 4.938 5.13 9.152 9.186 12.444 1.349 1.095 2.782 2.104 4.366 2.817s3.332 1.119 5.062.972c1.695-.144 3.307-.809 4.789-1.646s2.856-1.847 4.293-2.757c2.463-1.56 5.1-2.821 7.657-4.221 3.082-1.687 6.07-3.59 8.665-5.959 1.188-1.085 2.296-2.268 3.608-3.199s2.883-1.606 4.488-1.497c1.204.082 2.333.594 3.512.848.59.127 1.201.189 1.797.098s1.18-.344 1.598-.779c.512-.533.736-1.3.71-2.039s-.284-1.453-.629-2.107c-.689-1.308-1.735-2.435-2.2-3.838-.414-1.249-.33-2.599-.294-3.914s.008-2.689-.599-3.857c-.462-.889-1.236-1.595-2.122-2.064s-1.879-.71-2.876-.804c-1.995-.187-3.994.2-5.994.313-2.656.151-5.322-.182-7.977-.022-3.311.199-6.557 1.161-9.874 1.166-3.786.007-7.568-1.232-11.308-.64-1.605.254-3.135.838-4.676 1.352s-3.133.967-4.757.944c-1.844-.027-3.629-.665-5.469-.797-.92-.066-1.862 0-2.726.323s-1.645.924-2.068 1.743c-.243.469-.363.997-.386 1.525s.05 1.057.178 1.57c.255 1.026.724 1.983 1.11 2.967 1.393 3.554 1.692 7.448 2.937 11.056" fill-opacity=".259" filter="url(#p)"/><path clip-path="url(#Aj)" d="M-54.381 165.474c3.308 2.219 6.277 4.944 8.769 8.052 2.313 2.884 4.281 6.154 7.299 8.289 2.133 1.508 4.695 2.358 7.294 2.616 3.052.303 6.14-.187 9.082-1.052 2.727-.802 5.363-1.929 7.782-3.421 4.598-2.836 8.439-6.993 13.51-8.857 1.107-.407 2.259-.698 3.327-1.2s2.071-1.254 2.581-2.318c.49-1.022.471-2.202.631-3.325.171-1.201.554-2.362.764-3.556s.235-2.472-.281-3.57c-.428-.909-1.205-1.628-2.1-2.085s-1.901-.664-2.904-.714c-2.006-.099-3.988.415-5.988.598-2.65.242-5.318-.099-7.977-.019-3.308.1-6.568.849-9.874 1.005-3.772.178-7.534-.418-11.308-.551-1.632-.058-3.275-.029-4.884.253s-3.188.822-4.549 1.726c-1.32.877-2.397 2.067-3.607 3.091-.605.512-1.248.985-1.954 1.345s-1.479.605-2.27.643c-.407.02-.818-.015-1.221.047a2.59 2.59 0 0 0-2.121 3.005h0" transform="matrix(1 0 0 .921106 159.99984 -43.254675)" opacity=".3" filter="url(#o)"/><path d="M205.101 167.087c6.085 4.895 9.946 12.286 11.141 20.003.932 6.019.326 12.195-1.031 18.132s-3.452 11.676-5.532 17.401c-.829 2.283-1.662 4.587-1.992 6.993s-.121 4.954 1.04 7.088c1.33 2.446 3.813 4.13 6.482 4.923 2.635.783 5.481.766 8.148.102s7.157-1.526 9.328-3.212c5.516-4.283 6.825-11.719 8.132-18.25 1.363-6.81.696-13.95-.501-20.83-1.633-9.381-4.382-18.551-7.88-27.408a95.48 95.48 0 0 0-9.791-18.52c-3.848-5.668-9.307-10.093-13.34-15.635-1.401-1.925-3.087-3.932-4.463-5.878-2.968-4.198-2.296-3.415-4.138-6.132-1.336-1.971-3.446-2.649-5.665-3.511s-4.713-1.116-7.005-.471c-3.021.85-5.49 3.231-6.803 6.082s-1.543 6.123-1.032 9.22c.659 3.995 2.486 7.703 4.546 11.189 2.327 3.937 5.022 7.727 8.536 10.654 3.667 3.055 8.102 5.069 11.82 8.06M90.473 136.674c-7.073 8.037-14.352 15.816-18.346 24.505-1.976 4.413-2.911 9.207-4.265 13.849-1.538 5.272-3.626 10.37-5.971 15.336-2.165 4.585-4.55 9.063-6.939 13.536-1.738 3.254-3.505 6.581-4.108 10.221-.476 2.876-.198 5.844.534 8.666s1.91 5.511 3.238 8.106c5.667 11.075 14.17 20.622 24.242 27.925 4.571 3.314 9.467 6.181 14.602 8.526 2.782 1.27 5.714 2.404 8.772 2.457 1.529.026 3.074-.225 4.474-.841s2.651-1.604 3.483-2.887c1.023-1.578 1.37-3.538 1.165-5.407s-.935-3.653-1.913-5.259c-2.39-3.923-6.165-6.761-9.796-9.573-7.841-6.074-15.425-12.48-22.682-19.24-2.049-1.909-4.098-3.878-5.53-6.284-1.394-2.344-2.148-5.014-2.658-7.693-1.4-7.349-1.041-15.083 1.46-22.133.978-2.758 2.271-5.392 3.518-8.04 2.161-4.589 4.207-9.266 7.049-13.467 3.538-5.23 8.267-9.66 11.151-15.278 2.434-4.741 3.42-10.072 4.362-15.318.737-4.104 2.15-8.124 2.869-12.232-1.406 2.666-5.938 7.043-8.711 10.525z" class="C"/><path d="M290.781 216.018l1.5 1.375c3.667 3.055 5.619 6.485 9.338 9.477 6.085 4.895 12.259 13.344 13.454 21.061.932 6.019-.301 9.289-1.805 16.388s-5.769 17.148-8.074 23.992c-.919 2.729 1.861 1.603 1.496 4.48a17.72 17.72 0 0 0-.035 4.259l.069-.822c.443-3.923 1.623-7.695 2.909-11.395 2.474-7.122 5.314-14.101 7.272-21.408s1.74-12.564.719-18.844c-1.285-7.896-5.797-15.187-12.187-20-4.519-3.403-9.847-5.585-14.656-8.562z" clip-path="url(#AY)" transform="matrix(1.018073 0 0 1 -105.25547 -58.362183)" fill="#838384" filter="url(#X)"/><path d="M232.33 224.27a33 33 0 0 0-5.953 7.318c-2.668 4.459-4.239 9.468-6.178 14.289-1.444 3.589-3.125 7.193-3.327 11.056-.103 1.984.191 3.966.257 5.952s-.118 4.051-1.09 5.784c-.813 1.45-2.166 2.589-3.733 3.144a11.07 11.07 0 0 1 5.335 3.865c1.115 1.499 1.828 3.254 2.796 4.851.787 1.298 1.753 2.501 2.943 3.445s2.611 1.62 4.117 1.813a7.26 7.26 0 0 0 5.765-1.842c-1.925-18.036-.162-36.457 5.15-53.8.335-1.095.687-2.198.77-3.341s-.129-2.348-.824-3.258c-.37-.485-.868-.871-1.43-1.108s-1.186-.325-1.791-.252-1.191.306-1.681.67-.882.857-1.127 1.415h0" clip-path="url(#AZ)" transform="translate(-150 -58.362)" opacity=".95" fill="#7c7c7c" filter="url(#E)"/><path transform="matrix(1.026883 0 0 1 157.6864 -58.362183)" d="M86.056 328.132a16.61 16.61 0 0 1-2.05 4.411c-1.981 3.012-4.854 5.279-7.727 7.37-4.899 3.566-10.003 6.838-14.563 10.89-3.056 2.715-5.841 5.759-8.423 8.965-2.208 2.741-4.284 5.619-6.801 8.057-2.54 2.46-5.53 4.447-8.752 5.529-3.918 1.317-8.058 1.253-11.832.259-2.645-.696-5.224-1.907-6.862-4.097-1.645-2.198-2.178-5.152-2.368-8.052-.337-5.129.26-10.37.803-15.575.452-4.326.868-8.655 1.039-12.972.31-7.852-.197-15.636-1.232-23.273-.173-1.279-.362-2.568-.257-3.886s.535-2.688 1.436-3.705c.832-.939 1.993-1.496 3.151-1.769s2.33-.29 3.493-.322c2.74-.075 5.496-.24 8.195.006 1.703.156 3.373.475 5.073.643 2.838.281 5.781.133 8.627-.724 3.064-.922 5.986-2.652 9.099-3.127 1.277-.195 2.559-.173 3.801.006 1.267.182 2.528.542 3.502 1.336.74.604 1.282 1.433 1.706 2.317.631 1.317 1.019 2.77 1.241 4.261.197 1.321.266 2.68.598 3.957.545 2.101 1.781 3.886 3.267 5.34s3.225 2.602 4.961 3.734c1.729 1.127 3.468 2.247 5.315 3.176.867.436 1.758.831 2.586 1.333s1.601 1.121 2.151 1.935c.746 1.105 1.046 2.553.822 3.975h0" opacity=".2" fill="url(#AH)" filter="url(#M)"/><path d="M263.19 278.252c-2.624 3.115-6.268 5.17-9.896 7.02-6.189 3.154-12.602 5.922-18.42 9.717-3.898 2.542-7.496 5.527-10.86 8.742-2.877 2.75-5.606 5.687-8.832 8.018-3.256 2.351-7.019 4.054-10.991 4.65-4.83.725-9.821-.213-14.299-2.164-3.138-1.367-6.156-3.323-7.963-6.229-1.814-2.918-2.228-6.488-2.233-9.924-.008-6.077 1.118-12.09 2.178-18.073.881-4.972 1.719-9.955 2.26-14.975.983-9.131.976-18.353.32-27.513-.11-1.534-.238-3.083-.008-4.604s.855-3.037 2.021-4.04c1.077-.927 2.521-1.336 3.939-1.415s2.834.147 4.24.352c3.313.484 6.652.865 9.889 1.717 2.043.537 4.033 1.259 6.072 1.811 3.403.92 6.966 1.361 10.467.952 3.769-.441 7.43-1.857 11.224-1.765 1.557.038 3.101.332 4.586.8 1.515.478 3.009 1.162 4.123 2.295.846.861 1.436 1.945 1.879 3.069.66 1.674 1.015 3.457 1.167 5.249.135 1.588.113 3.194.414 4.759.495 2.575 1.847 4.923 3.528 6.935s3.69 3.72 5.696 5.408c1.999 1.681 4.011 3.355 6.167 4.828 1.012.692 2.056 1.339 3.017 2.101s1.845 1.647 2.445 2.715c.815 1.449 1.064 3.208.538 4.877s-1.482 3.277-2.671 4.688z" fill="url(#AI)" class="D"/><path transform="translate(-250 -58.362)" clip-path="url(#AT)" d="M512.891 328.724a15.31 15.31 0 0 1-2.571 4.26c-2.402 2.814-5.729 4.654-9.038 6.311-5.653 2.83-11.503 5.318-16.821 8.735-3.554 2.284-6.841 4.966-9.918 7.86-2.629 2.473-5.125 5.116-8.066 7.208-2.981 2.12-6.418 3.647-10.037 4.181-4.409.65-8.96-.193-13.058-1.946-2.857-1.222-5.617-2.97-7.272-5.6-1.646-2.617-2.031-5.83-2.039-8.922-.014-5.465 1.018-10.871 1.989-16.248.807-4.469 1.575-8.948 2.064-13.463.889-8.208.848-16.498.292-24.735-.093-1.38-.2-2.774.012-4.141s.778-2.727 1.826-3.63c.983-.847 2.303-1.218 3.599-1.286s2.587.142 3.871.331c3.023.445 6.072.779 9.031 1.543 1.865.482 3.684 1.132 5.545 1.628 3.109.829 6.362 1.225 9.559.856 3.441-.397 6.787-1.671 10.25-1.587 1.421.035 2.831.3 4.188.719 1.382.426 2.749 1.034 3.765 2.063.766.775 1.295 1.754 1.716 2.759.626 1.497 1.033 3.097 1.066 4.719.035 1.694-.336 3.395-.106 5.073.186 1.363.764 2.648 1.501 3.809s1.634 2.211 2.523 3.261c1.717 2.029 3.439 4.097 5.593 5.655 2.452 1.774 5.362 2.811 7.895 4.467.755.494 1.486 1.052 2.018 1.781a4.76 4.76 0 0 1 .624 4.339h0" fill="#cd8907" filter="url(#O)"/><path clip-path="url(#AU)" transform="matrix(1.142972 0 0 1.232305 -318.99817 -135.48838)" d="M508.793 327.925c-.602 1.265-1.382 2.444-2.311 3.491-2.153 2.428-5.061 4.099-8.123 5.173-5.042 1.767-10.546 2.004-15.495 4.016-3.016 1.226-5.731 3.073-8.479 4.819-2.222 1.411-4.492 2.769-6.932 3.756-2.755 1.115-5.686 1.74-8.626 2.179-1.871.279-3.763.484-5.652.387s-3.784-.507-5.451-1.401c-1.264-.678-2.401-1.653-3.076-2.918-.75-1.406-.88-3.056-.862-4.649.046-4.246 1.026-8.446.996-12.692-.026-3.696-.815-7.345-1.042-11.034-.437-7.095 1.205-14.313-.24-21.273-.231-1.114-.542-2.227-.527-3.365.008-.569.099-1.141.315-1.667s.563-1.005 1.025-1.338c.389-.28.85-.45 1.323-.527s.957-.062 1.432.007c.948.137 1.852.482 2.775.737 2.642.73 5.433.714 8.117 1.265 1.685.346 3.317.911 4.984 1.334 2.8.71 5.72 1.013 8.592.701 3.089-.335 6.107-1.375 9.213-1.3 1.273.031 2.537.25 3.765.589s2.455.82 3.384 1.691c.669.628 1.151 1.431 1.542 2.261.57 1.212.967 2.529.958 3.868-.005.697-.119 1.388-.187 2.081s-.088 1.404.091 2.077.554 1.287.983 1.84.915 1.06 1.358 1.602c1.242 1.517 2.13 3.285 3.097 4.991s2.052 3.393 3.58 4.621c2.08 1.672 4.778 2.34 7.096 3.661.679.387 1.337.841 1.814 1.459a3.77 3.77 0 0 1 .561 3.556h0" fill="#f5c021" filter="url(#P)"/><path clip-path="url(#AW)" d="M187.309 230.288c3.276-.887 6.066 1.597 8.442 3.472 1.535 1.309 3.753.98 5.637 1.042 3.121-.113 6.225.523 9.347.136 6.145-.519 12.168-2.03 18.342-2.29 2.949-.186 6.26-.357 8.808 1.365 1.033.715 2.547 3.741 3.566 2.605-.42-3.178-2.777-6.256-5.939-7.102-2.475-.389-4.99.291-7.489.071-7.423-.177-14.793-1.555-22.234-1.16-5.176.045-10.347-.195-15.515-.397-2.031-.415-2.747 1.389-3.849 2.081" fill="url(#AJ)" filter="url(#Q)"/><path d="M57.577 222.657c1.599-.663 3.398-.784 5.101-.47s3.311 1.049 4.743 2.022c2.864 1.946 4.988 4.778 7.023 7.58 4.672 6.434 9.169 13.002 13.245 19.829 3.306 5.538 6.344 11.257 10.164 16.453 2.494 3.392 5.307 6.539 7.813 9.922s4.728 7.056 5.839 11.117c1.444 5.277.885 11.093-1.627 15.953-1.767 3.419-4.476 6.352-7.772 8.339s-7.171 3.014-11.016 2.87c-6.114-.229-11.699-3.285-17.384-5.549-11.581-4.613-24.16-6.059-36.097-9.652-3.669-1.104-7.276-2.411-10.97-3.426-1.641-.451-3.309-.848-4.859-1.551s-3-1.749-3.862-3.217c-.666-1.134-.948-2.47-.93-3.786s.326-2.615.774-3.852c.896-2.474 2.343-4.714 3.32-7.157 1.595-3.989 1.882-8.388 1.667-12.679s-.911-8.545-1.205-12.831c-.131-1.914-.181-3.853.185-5.736s1.176-3.725 2.558-5.055c1.274-1.227 2.965-1.955 4.696-2.317s3.515-.377 5.284-.338 3.541.134 5.304-.011 3.533-.541 5.069-1.418c1.46-.834 2.654-2.075 3.644-3.434s1.789-2.846 2.609-4.314 1.668-2.932 2.742-4.226 2.389-2.423 3.943-3.067" fill="url(#AO)"/><path transform="translate(160 -57.362)" clip-path="url(#AS)" d="M-99.89 282.779c1.455-.586 3.094-.651 4.623-.304s2.95 1.09 4.188 2.047c2.478 1.914 4.2 4.614 5.854 7.269 3.97 6.433 7.851 12.934 11.516 19.567 2.777 4.993 5.425 10.093 8.837 14.679 2.264 3.042 4.847 5.831 7.158 8.837s4.371 6.282 5.393 9.933c1.316 4.706.783 9.91-1.495 14.233a18.98 18.98 0 0 1-7.186 7.513 18.5 18.5 0 0 1-10.087 2.488c-5.598-.258-10.711-3.054-15.981-4.951-10.103-3.666-21.053-4.158-31.416-7.02-3.715-1.008-7.337-2.353-11.07-3.294-1.652-.417-3.333-.757-4.902-1.419s-3.047-1.689-3.898-3.165c-.633-1.097-.886-2.388-.847-3.654s.359-2.51.81-3.694c.902-2.367 2.32-4.51 3.229-6.875 1.379-3.574 1.55-7.504 1.294-11.326s-.921-7.609-1.153-11.434c-.104-1.709-.119-3.439.226-5.116s1.076-3.31 2.295-4.512c1.321-1.309 3.141-2.024 4.977-2.304s3.706-.158 5.555.007 3.705.373 5.561.262 3.736-.563 5.269-1.607c1.397-.945 2.446-2.324 3.244-3.798s1.368-3.055 1.976-4.617 1.267-3.122 2.222-4.51 2.236-2.605 3.806-3.235" fill="#d99a03" filter="url(#B)"/><path clip-path="url(#AQ)" transform="matrix(1 0 0 .982048 -80.00015 -54.40321)" d="M138.753 281.235c1.409-.712 3.071-.858 4.616-.537s2.978 1.091 4.196 2.096c2.435 2.01 3.98 4.875 5.419 7.685 3.305 6.455 6.383 13.05 10.338 19.128 2.869 4.41 6.18 8.517 9.082 12.905 3.936 5.951 7.136 12.496 8.456 19.507.888 4.716.859 9.81-1.372 14.058-1.469 2.796-3.85 5.09-6.663 6.525s-6.043 2.017-9.189 1.734c-4.954-.445-9.454-2.925-14.117-4.655-8.275-3.069-17.218-3.803-25.734-6.119-3.592-.977-7.11-2.235-10.751-3.01-1.606-.342-3.244-.591-4.777-1.179s-2.986-1.566-3.77-3.009c-.551-1.016-.737-2.205-.654-3.357s.421-2.275.865-3.342c.888-2.134 2.201-4.089 2.89-6.296 1.013-3.242.597-6.757-.164-10.068s-1.857-6.561-2.194-9.941c-.15-1.505-.147-3.04.191-4.515s1.027-2.892 2.109-3.95c1.393-1.362 3.344-2.04 5.283-2.229s3.892.069 5.82.351 3.868.59 5.815.5 3.928-.611 5.453-1.824c1.508-1.2 2.456-2.987 2.999-4.836s.72-3.782.943-5.696.5-3.846 1.23-5.63 1.961-3.428 3.681-4.297" fill="#f5bd0c" filter="url(#C)"/><path d="M76.407 237.607c2.606 4.713 4.196 10.122 6.781 14.875 2.378 4.372 5.084 8.874 7.5 12.906 1.075 1.795 3.583 4.555 6.119 8.837 2.298 3.881 4.618 9.297 5.917 11.116-.746-2.129-2.279-7.847-4.109-11.923-1.71-3.809-3.7-5.982-4.927-8.031-2.416-4.032-5.017-7.656-7.5-11.5-3.425-5.302-6.036-11.235-9.781-16.281z" fill="url(#AP)" filter="url(#D)"/><path d="M231.484 237.278c-.563-1.102-1.587-1.926-2.729-2.403s-2.397-.629-3.634-.619c-2.475.019-4.935.664-7.4.45-2.083-.18-4.059-.963-6.09-1.457-2.097-.51-4.322-.71-6.405-.143-2.226.606-4.189 2.094-5.419 4.045-1.084 1.721-1.599 3.753-1.761 5.78s.013 4.066.218 6.089c.148 1.464.314 2.931.668 4.359s.904 2.823 1.766 4.015c1.241 1.716 3.083 2.94 5.069 3.675a14.09 14.09 0 0 0 10.132-.177c5.659-2.457 10.449-6.864 13.369-12.299 1.045-1.946 1.857-4.019 2.382-6.165.208-.853.372-1.722.38-2.6s-.147-1.769-.546-2.551" opacity=".35" fill="url(#AK)" filter="url(#I)"/><path d="M71.484 295.64c-.563-1.102-1.587-1.926-2.729-2.403s-2.397-.629-3.634-.619c-2.475.019-4.935.664-7.4.45-2.083-.18-4.059-.963-6.09-1.457-2.097-.51-4.322-.71-6.405-.143-2.226.606-4.189 2.094-5.419 4.045-1.084 1.721-1.599 3.753-1.761 5.78s.013 4.066.218 6.089c.148 1.464.314 2.931.668 4.359s.904 2.823 1.766 4.015c1.241 1.716 3.083 2.94 5.069 3.675a14.09 14.09 0 0 0 10.132-.177c5.659-2.457 10.449-6.864 13.369-12.299 1.045-1.946 1.857-4.019 2.382-6.165.208-.853.372-1.722.38-2.6s-.147-1.769-.546-2.551" transform="matrix(1 0 0 .722925 159.99984 20.396294)" opacity=".35" fill="url(#AL)" filter="url(#J)"/><path d="M236.187 226.966c-.405-1.104-1.118-2.082-1.991-2.87s-1.9-1.392-2.983-1.852c-2.165-.919-4.521-1.261-6.832-1.696l-6.528-1.277c-2.271-.386-4.618-.632-6.865-.125-1.966.443-3.784 1.459-5.272 2.819s-2.649 3.056-3.485 4.89c-1.472 3.23-1.935 6.865-1.654 10.403.209 2.633.875 5.346 2.609 7.339 1.401 1.611 3.387 2.615 5.434 3.221 3.525 1.043 7.367.988 10.86-.155a28.59 28.59 0 0 0 14.33-10.779c1.139-1.65 2.112-3.448 2.553-5.403.336-1.49.348-3.081-.178-4.515" class="C"/><g transform="translate(-150 -58.362)"><use xlink:href="#Ak" clip-path="url(#Aa)" fill="url(#AM)" filter="url(#G)"/><use xlink:href="#Ak" clip-path="url(#Ab)" fill="url(#AN)" filter="url(#G)"/></g><path d="M-24.768 113.362c-1.781.097-3.485.919-4.788 2.137s-2.221 2.812-2.786 4.504c-1.13 3.384-.875 7.052-.619 10.61.233 3.222.47 6.505 1.677 9.502.603 1.498 1.45 2.91 2.58 4.064s2.552 2.042 4.118 2.434c1.469.368 3.038.292 4.483-.162s2.764-1.279 3.846-2.338c1.579-1.545 2.643-3.566 3.253-5.689s.784-4.352.752-6.561c-.04-2.764-.401-5.539-1.266-8.164s-2.246-5.103-4.173-7.086c-.933-.96-1.998-1.805-3.199-2.397s-2.543-.925-3.88-.853" transform="translate(139 -49.362)" fill="url(#q)"/><path d="M109.939 78.749c-.372 2.246-.386 4.602.386 6.743.51 1.414 1.35 2.697 2.372 3.799.669.722 1.428 1.378 2.316 1.803s1.916.606 2.87.367c.881-.221 1.652-.789 2.22-1.497s.948-1.553 1.218-2.42c.797-2.561.669-5.362-.122-7.924-.577-1.867-1.532-3.668-3.027-4.927-.713-.601-1.548-1.071-2.455-1.287s-1.889-.165-2.738.221c-.942.428-1.672 1.243-2.149 2.161s-.723 1.939-.892 2.96" class="C"/><path d="M114.687 77.125c.242.634 1.054.864 1.5 1.375.433.497.887 1.011 1.125 1.625.455 1.176-.449 2.919.5 3.75.298.261.895.266 1.188 0 1.145-1.042.891-3.144.438-4.625-.412-1.344-1.427-2.616-2.679-3.255-.579-.295-1.451-.541-1.946-.12-.319.271-.274.859-.125 1.25z" fill="url(#x)" filter="url(#g)"/><path transform="translate(60 -58.362)" clip-path="url(#Ae)" d="M50.392 129.527c2.685-1.599 5.955-1.97 9.067-1.676s6.125 1.208 9.141 2.029c2.212.602 4.452 1.161 6.525 2.138s4 2.416 5.142 4.403l.539.962c.194.312.423.609.716.83s.657.364 1.024.344c.184-.01.366-.061.524-.154s.293-.229.378-.392c.098-.187.128-.404.117-.616a2.94 2.94 0 0 0-.117-.622c-.755-2.753-2.535-5.088-3.889-7.601l-2.298-4.596c-2.818-5.16-7.444-9.216-12.701-11.847s-11.127-3.896-16.997-4.239c-6.801-.398-13.62.409-20.329 1.591-2.909.512-5.861 1.115-8.436 2.562-1.287.723-2.467 1.657-3.388 2.811s-1.576 2.535-1.788 3.997c-.204 1.409.009 2.861.501 4.196s1.258 2.558 2.157 3.662c1.797 2.208 4.101 3.934 6.222 5.831s4.09 3.992 6.463 5.563c1.186.785 2.473 1.435 3.843 1.817s2.83.489 4.224.204c1.445-.296 2.783-1.005 3.954-1.902s2.186-1.98 3.148-3.098c1.925-2.236 3.723-4.686 6.257-6.196" fill="url(#AD)"/><path transform="translate(160 -57.362)" d="M-38.438 119.378c2.504 2.345 4.365 5.24 5.625 8.309-.551-3.385-1.423-6.104-3.625-8.309-1.351-1.266-2.886-2.378-4.625-3.159-1.521-.683-3.214-1.108-4.181-1.126s-1.202.004-1.401.013-.357.016.272.088 2.034.451 3.541 1.128 3.043 1.789 4.394 3.055z" fill="url(#w)" filter="url(#i)"/><path d="M6.75 113.362c-2.78 1.91-5.111 4.575-6.25 7.75-1.436 4.002-.886 8.481.5 12.5 1.419 4.117 3.794 8.041 7.379 10.512 1.793 1.236 3.868 2.083 6.03 2.339s4.409-.095 6.34-1.101c2.353-1.226 4.148-3.373 5.262-5.781s1.589-5.07 1.738-7.719c.19-3.375-.14-6.806-1.25-10-1.205-3.469-3.39-6.671-6.473-8.667-1.541-.998-3.292-1.684-5.111-1.935s-3.705-.063-5.416.602c-.975.379-1.887.907-2.75 1.5" transform="translate(139 -49.362)" fill="url(#r)"/><path d="M152.161 72.395c-1.045.075-2.064.432-2.951.99s-1.643 1.315-2.237 2.179c-1.187 1.728-1.709 3.847-1.793 5.941-.063 1.572.111 3.165.632 4.65s1.401 2.859 2.613 3.863c1.24 1.027 2.816 1.644 4.425 1.721s3.239-.387 4.561-1.307c1.053-.733 1.902-1.742 2.507-2.873s.969-2.383 1.135-3.655c.294-2.247-.038-4.593-1.077-6.607s-2.801-3.673-4.927-4.456c-.921-.339-1.909-.516-2.888-.446" class="C"/><path d="M154.656 79.25c-.866.342-2.237.127-2.616.977-.225.504.093 1.333.603 1.541 1.032.421 2.632-.341 3.049-1.375.181-.449-.093-1.161-.54-1.349-.165-.069-.33.141-.496.206z" fill="#141413" filter="url(#k)"/><path d="M158.625 81.5c1.161-1.161-.826-4.24-2.375-5.5-1.122-.913-4.391-1.869-4.25-.875s1.61 2.266 2.595 3.237c1.212 1.195 3.479 3.689 4.03 3.138z" fill="url(#t)" filter="url(#l)"/><path transform="translate(60 -58.362)" clip-path="url(#Ac)" d="M75.25 132.487a23.71 23.71 0 0 1 8.122-4.4c6.086-1.881 13-1.137 18.378 2.275 1.857 1.178 3.512 2.642 5.239 4.004s3.561 2.641 5.636 3.371c1.121.394 2.318.623 3.5.5 1.068-.112 2.099-.512 2.984-1.119s1.625-1.418 2.181-2.337c1.112-1.837 1.47-4.065 1.278-6.203-.383-4.277-2.796-8.053-4.818-11.841-.633-1.186-1.236-2.393-2-3.5-2.343-3.396-6.073-5.636-9.985-6.948s-8.046-1.786-12.14-2.302c-1.826-.23-3.673-.47-5.5-.25-2.1.253-4.076 1.101-6.125 1.625-.973.249-1.964.425-2.928.704s-1.913.669-2.697 1.296c-1.145.916-1.865 2.291-2.177 3.723s-.241 2.924-.012 4.372c.458 2.896 1.541 5.724 1.438 8.654-.071 2.012-.702 3.988-.625 6 .023.59.107 1.177.25 1.75" fill="url(#u)"/><path transform="translate(160 -57.362)" d="M-4.594 113.125c-.477.6-.908 1.252-1.25 1.969 2.146.462 4.199 1.346 6.031 2.563 3.545 2.354 6.237 5.796 8.125 9.625.441-.488.842-1.012 1.188-1.594-1.898-3.988-4.644-7.595-8.312-10.031-1.762-1.17-3.725-2.054-5.781-2.531z" fill="url(#v)" filter="url(#j)"/><path transform="translate(139 -49.362)" d="M-16.399 136.862c1.767-1.987 2.976-4.411 4.674-6.457.849-1.023 1.828-1.955 2.982-2.617s2.492-1.041 3.817-.926c1.474.128 2.855.862 3.934 1.875s1.88 2.29 2.519 3.625c.612 1.278 1.098 2.64 1.979 3.75.94 1.184 2.26 1.992 3.451 2.923.596.465 1.167.969 1.638 1.56s.84 1.276.991 2.017a4.21 4.21 0 0 1-.185 2.267c-.262.721-.707 1.372-1.26 1.904-1.106 1.065-2.614 1.64-4.134 1.855-3.04.43-6.115-.476-9.184-.391-3.107.085-6.142 1.184-9.248 1.07-1.553-.057-3.128-.436-4.404-1.323a5.57 5.57 0 0 1-1.596-1.676c-.402-.665-.647-1.429-.673-2.206-.025-.741.148-1.481.444-2.161s.713-1.302 1.182-1.876c.939-1.148 2.087-2.106 3.072-3.214" fill="url(#s)"/><g transform="translate(60 -58.362)"><path d="M45.752 165.032c.061.295.173.58.327.839.266.445.654.806 1.073 1.111s.873.559 1.312.835c2.334 1.467 4.235 3.529 5.925 5.707 2.267 2.922 4.272 6.165 7.299 8.289 2.138 1.5 4.696 2.355 7.294 2.616 3.051.307 6.14-.186 9.082-1.052 2.726-.803 5.363-1.93 7.782-3.421 4.599-2.836 8.439-6.993 13.51-8.857 1.107-.407 2.259-.698 3.326-1.2s2.071-1.254 2.581-2.318c.49-1.022.471-2.202.631-3.325.171-1.201.554-2.362.764-3.556s.235-2.472-.281-3.57c-.428-.909-1.205-1.628-2.1-2.085s-1.901-.664-2.904-.714c-2.006-.099-3.988.415-5.988.598-2.65.242-5.318-.098-7.977-.019-3.308.099-6.568.845-9.874 1.005-3.772.183-7.535-.399-11.308-.551-1.634-.066-3.28-.051-4.892.225s-3.195.824-4.541 1.753c-1.311.906-2.356 2.14-3.56 3.184-.602.522-1.249.999-1.966 1.347s-1.507.564-2.304.547c-.41-.009-.831-.077-1.221.047-.244.077-.46.227-.644.406s-.335.387-.478.599a10.52 10.52 0 0 0-.867 1.558" fill="url(#y)"/><path d="M60.557 169.097a6.7 6.7 0 0 0 4.346 7.847c1.978.659 4.207.336 6.055-.628 1.071-.559 2.051-1.346 2.669-2.384a4.51 4.51 0 0 0 .605-1.696c.081-.599.025-1.219-.185-1.785-.23-.621-.64-1.168-1.146-1.596s-1.105-.738-1.733-.946c-1.258-.416-2.611-.424-3.934-.361a38.86 38.86 0 0 0-5.969.753" fill="#d9b30d" filter="url(#Z)"/><path d="M54.066 156.68l-3.898 2.563c-.657.466-1.334.969-1.681 1.696-.246.515-.302 1.099-.31 1.669s.029 1.144-.046 1.71c-.051.386-.154.766-.172 1.155-.009.195.005.391.056.579a1.2 1.2 0 0 0 .275.509c.173.183.408.296.649.369s.491.111.736.169c1.175.276 2.197.997 3.094 1.804l2.639 2.476c2.537 2.064 5.89 2.919 9.161 2.973s6.504-.631 9.695-1.349l7.425-2.044c3.703-1.365 7.141-3.432 10.118-6.022 1.35-1.174 2.617-2.464 4.133-3.415 1.341-.842 2.843-1.398 4.206-2.203.122-.072.243-.146.352-.237s.206-.198.269-.325c.109-.219.109-.481.039-.716s-.206-.444-.36-.634c-.17-.211-.363-.402-.569-.578-1.424-1.219-3.357-1.662-5.226-1.811s-3.761-.043-5.61-.352c-1.739-.29-3.393-.939-5.072-1.477a37.34 37.34 0 0 0-5.389-1.31c-4.295-.701-8.717-.566-12.977.321-4.058.845-7.971 2.371-11.539 4.48" fill="#604405" filter="url(#a)"/><path d="M53.639 152.154c-1.929 1.299-3.666 2.883-5.136 4.685-.841 1.031-1.604 2.151-2.027 3.412-.333.992-.446 2.042-.656 3.067-.079.384-.171.769-.17 1.161.001.196.026.393.086.579s.158.362.294.503c.225.234.54.361.858.426s.644.075.966.112c1.455.165 2.794.872 4 1.702l3.554 2.578c2.734 1.729 5.995 2.498 9.227 2.623s6.457-.366 9.629-1c2.521-.503 5.034-1.101 7.425-2.044 3.662-1.444 6.964-3.667 10.118-6.022 1.433-1.07 2.846-2.173 4.133-3.415.437-.422.859-.859 1.328-1.246s.988-.722 1.566-.908c.881-.283 1.836-.202 2.748-.049.687.115 1.376.269 2.072.241.348-.014.697-.074 1.02-.204s.622-.33.843-.599a2.02 2.02 0 0 0 .442-1.272c.002-.458-.139-.911-.371-1.305-.465-.789-1.268-1.323-2.105-1.695-1.146-.509-2.386-.761-3.606-1.056-3.745-.904-7.385-2.241-10.836-3.954-1.716-.852-3.384-1.796-5.072-2.7-1.736-.93-3.505-1.824-5.389-2.395-4.213-1.277-8.819-.858-12.977.586-4.62 1.604-8.797 4.463-11.966 8.188h0" fill="url(#z)"/><path d="M83.239 153.08c-.226-.286-.551-.488-.901-.591s-.725-.11-1.084-.049c-.72.123-1.364.51-1.966.924-1.709 1.176-3.219 2.628-4.537 4.23-1.745 2.12-3.185 4.572-3.668 7.275-.081.455-.135.921-.078 1.38s.233.915.559 1.243c.286.288.676.464 1.078.522s.816.002 1.201-.128c.77-.26 1.409-.799 2.014-1.341 3.336-2.985 6.353-6.568 7.56-10.879.121-.433.224-.876.221-1.325s-.119-.909-.398-1.262" fill="#f6da4a" filter="url(#b)"/></g><path d="M135.251 88.528c.231.742 1.428.619 2.119.975.607.312 1.094.997 1.777 1.017.651.019 1.664-.225 1.749-.871.112-.853-1.134-1.395-1.935-1.708-1.031-.402-2.353-.606-3.321-.068-.222.123-.464.412-.388.655z" opacity=".8" fill="url(#AA)" filter="url(#d)"/><path d="M123.827 88.108c-.888-.289-2.357 1.277-1.878 2.079.132.22.535.499.806.35.409-.225.744-1.03 1.187-1.345.296-.211.23-.972-.116-1.084z" opacity=".8" fill="url(#AB)" filter="url(#e)"/><path transform="matrix(1.095622 0 -.170179 1.518131 -76.24447 -140.47964)" d="M245.905 158.284c0 .617-.275 1.21-.764 1.646s-1.152.682-1.844.682c-1.44 0-2.608-1.042-2.608-2.328 0-.617.275-1.21.764-1.646s1.152-.682 1.844-.682 1.355.245 1.844.682.764 1.029.764 1.646z" clip-path="url(#Ag)" fill="url(#AC)" filter="url(#f)"/></g></svg>