<svg width="53" height="62" viewBox="0 0 53 62" fill="none" xmlns="http://www.w3.org/2000/svg">
<g clip-path="url(#clip0)">
<path d="M14.21 30.8H39.5M36.37 6.01L46.71 16.36L36.37 6.01ZM36.37 6.01L9 6C7.9 6 7 6.9 7 8V18.17V55.36C7 56.46 7.9 57.36 9 57.36H44.71C45.81 57.36 46.71 56.46 46.71 55.36V16.36L36.37 6.01ZM36.37 6.01V14.35C36.37 15.45 37.27 16.35 38.37 16.35H46.71L36.37 6.01ZM14.21 14.96H26.28H14.21ZM14.21 22.88H39.5H14.21Z" stroke="#22ADF6" stroke-width="2" stroke-miterlimit="10" stroke-linecap="round" stroke-linejoin="round"/>
<path d="M15.5256 48C15.4456 48 15.3776 47.972 15.3216 47.916C15.2656 47.86 15.2376 47.792 15.2376 47.712V46.524C15.2376 46.444 15.2656 46.376 15.3216 46.32C15.3776 46.256 15.4456 46.224 15.5256 46.224H16.7256C16.8056 46.224 16.8736 46.256 16.9296 46.32C16.9856 46.376 17.0136 46.444 17.0136 46.524V47.712C17.0136 47.792 16.9856 47.86 16.9296 47.916C16.8736 47.972 16.8056 48 16.7256 48H15.5256ZM18.8205 48C18.7405 48 18.6725 47.972 18.6165 47.916C18.5605 47.86 18.5325 47.792 18.5325 47.712V39.768C18.5325 39.68 18.5605 39.612 18.6165 39.564C18.6725 39.508 18.7405 39.48 18.8205 39.48H19.8165C19.9045 39.48 19.9725 39.508 20.0205 39.564C20.0765 39.612 20.1045 39.68 20.1045 39.768V47.712C20.1045 47.792 20.0765 47.86 20.0205 47.916C19.9725 47.972 19.9045 48 19.8165 48H18.8205ZM21.9363 40.728C21.8563 40.728 21.7883 40.7 21.7323 40.644C21.6763 40.588 21.6483 40.52 21.6483 40.44V39.576C21.6483 39.496 21.6763 39.428 21.7323 39.372C21.7883 39.316 21.8563 39.288 21.9363 39.288H23.0283C23.1083 39.288 23.1763 39.316 23.2323 39.372C23.2963 39.428 23.3283 39.496 23.3283 39.576V40.44C23.3283 40.52 23.3003 40.588 23.2443 40.644C23.1883 40.7 23.1163 40.728 23.0283 40.728H21.9363ZM21.9843 48C21.9043 48 21.8363 47.972 21.7803 47.916C21.7243 47.86 21.6963 47.792 21.6963 47.712V42.048C21.6963 41.968 21.7243 41.9 21.7803 41.844C21.8363 41.788 21.9043 41.76 21.9843 41.76H22.9803C23.0683 41.76 23.1363 41.788 23.1843 41.844C23.2403 41.892 23.2683 41.96 23.2683 42.048V47.712C23.2683 47.792 23.2403 47.86 23.1843 47.916C23.1363 47.972 23.0683 48 22.9803 48H21.9843ZM25.1484 48C25.0684 48 25.0004 47.972 24.9444 47.916C24.8884 47.86 24.8604 47.792 24.8604 47.712V42.048C24.8604 41.968 24.8884 41.9 24.9444 41.844C25.0004 41.788 25.0684 41.76 25.1484 41.76H26.1324C26.2124 41.76 26.2804 41.788 26.3364 41.844C26.3924 41.9 26.4204 41.968 26.4204 42.048V42.54C26.8924 41.94 27.5604 41.64 28.4244 41.64C29.1604 41.64 29.7444 41.884 30.1764 42.372C30.6084 42.852 30.8244 43.508 30.8244 44.34V47.712C30.8244 47.792 30.7964 47.86 30.7404 47.916C30.6924 47.972 30.6244 48 30.5364 48H29.4804C29.4004 48 29.3324 47.972 29.2764 47.916C29.2204 47.86 29.1924 47.792 29.1924 47.712V44.412C29.1924 43.94 29.0764 43.576 28.8444 43.32C28.6204 43.056 28.2924 42.924 27.8604 42.924C27.4364 42.924 27.1004 43.056 26.8524 43.32C26.6124 43.584 26.4924 43.948 26.4924 44.412V47.712C26.4924 47.792 26.4644 47.86 26.4084 47.916C26.3604 47.972 26.2924 48 26.2044 48H25.1484ZM35.0366 48.12C34.1486 48.12 33.4406 47.864 32.9126 47.352C32.3926 46.832 32.1166 46.104 32.0846 45.168L32.0726 44.868L32.0846 44.568C32.1246 43.656 32.4046 42.94 32.9246 42.42C33.4526 41.9 34.1566 41.64 35.0366 41.64C35.9806 41.64 36.7086 41.928 37.2206 42.504C37.7406 43.08 38.0006 43.848 38.0006 44.808V45.06C38.0006 45.14 37.9726 45.208 37.9166 45.264C37.8606 45.32 37.7886 45.348 37.7006 45.348H33.7166V45.444C33.7326 45.884 33.8526 46.256 34.0766 46.56C34.3086 46.856 34.6246 47.004 35.0246 47.004C35.4966 47.004 35.8766 46.82 36.1646 46.452C36.2366 46.364 36.2926 46.308 36.3326 46.284C36.3806 46.26 36.4486 46.248 36.5366 46.248H37.5686C37.6406 46.248 37.7006 46.272 37.7486 46.32C37.8046 46.36 37.8326 46.412 37.8326 46.476C37.8326 46.668 37.7166 46.896 37.4846 47.16C37.2606 47.416 36.9366 47.64 36.5126 47.832C36.0886 48.024 35.5966 48.12 35.0366 48.12ZM36.3686 44.34V44.304C36.3686 43.832 36.2486 43.452 36.0086 43.164C35.7766 42.876 35.4526 42.732 35.0366 42.732C34.6206 42.732 34.2966 42.876 34.0646 43.164C33.8326 43.452 33.7166 43.832 33.7166 44.304V44.34H36.3686Z" fill="#22ADF6"/>
</g>
<defs>
<clipPath id="clip0">
<rect width="41.71" height="53.36" fill="white" transform="translate(6 5)"/>
</clipPath>
</defs>
</svg>
