<svg xmlns="http://www.w3.org/2000/svg" xmlns:xlink="http://www.w3.org/1999/xlink" height="1122.52" width="793.701" xmlns:v="https://vecta.io/nano"><defs><radialGradient cx="23.857" cy="40" fx="23.857" fy="40" gradientTransform="matrix(1,0,0,0.5,0,20)" id="A" r="17.143" xlink:href="#G"><stop offset="0"/><stop offset="1" stop-opacity="0"/></radialGradient><linearGradient id="B" x1="24" x2="24" y1="16.525" y2="13.285" xlink:href="#G"><stop offset="0" stop-color="#fff" stop-opacity="1"/><stop offset="1" stop-color="#729fcf"/></linearGradient><linearGradient id="C" x1="187.335" y1="421.173" x2="181.294" y2="643.174" xlink:href="#G"><stop offset="0" stop-color="#fff"/><stop offset="1" stop-color="#fff" stop-opacity="0"/></linearGradient><linearGradient id="D" x1="213.373" y1="249.104" x2="653.342" y2="1149.188" xlink:href="#G"><stop offset="0" stop-color="#3977c3"/><stop offset="1" stop-color="#89aedc" stop-opacity="0"/></linearGradient><linearGradient id="E" x1="47.252" y1="517.921" x2="671.462" y2="517.921" xlink:href="#G"><stop offset="0" stop-color="#729fcf"/><stop offset=".316" stop-color="#babdb6"/><stop offset="1" stop-color="#3465a4"/></linearGradient><linearGradient id="F" x1="44.809" y1="517.921" x2="673.905" y2="517.921" xlink:href="#G"><stop offset="0" stop-color="#729fcf"/><stop offset="1" stop-color="#204a87"/></linearGradient><linearGradient id="G" gradientUnits="userSpaceOnUse"/></defs><path d="M 41,40 A 17.142857,8.5714283 0 1 1 6.7142868,40 17.142857,8.5714283 0 1 1 41,40 z" transform="matrix(22.385097 0 0 24.340956 -173.03587 -228.02997)" fill="url(#A)"/><g stroke-width="21.143" stroke-miterlimit="10"><path d="M356.666 141.313c-166.171 0-301.286 59.253-301.286 132.143v488.93c0 72.89 135.115 132.143 301.286 132.143s306.667-59.253 306.667-132.143v-488.93c0-72.89-140.497-132.143-306.667-132.143z" fill="url(#E)" stroke="url(#F)"/><path d="M356.848 157.79c-154.929 0-280.904 55.245-280.904 123.204v467.814c0 67.959 125.976 123.204 280.904 123.204S642.77 816.767 642.77 748.808V280.994c0-67.959-130.991-123.204-285.922-123.204z" opacity=".544" fill="none" stroke="url(#D)"/></g><path d="m 36.857142,14.071428 a 12.857142,5.5 0 1 1 -25.714284,0 12.857142,5.5 0 1 1 25.714284,0 z" transform="matrix(21.931347 0 0 20.183418 -168.36368 -12.347239)" fill="#3465a4" stroke="url(#B)" stroke-width="1.005" stroke-miterlimit="10"/><path d="M139.009 369.826l7.55 354.899 96.653 27.184-3.019-353.388s43.795 0 114.776-4.531c-110.277-4.928-236.449-52.322-279.389-83.061 29.958 44.235 63.429 58.898 63.429 58.898z" opacity=".494" fill="url(#C)"/><path d="M134.228 626.779c-7.029 0-12.619 2.62-16.773 7.859-4.121 5.24-6.182 12.38-6.182 21.421 0 9.009 2.061 16.134 6.182 21.373 4.153 5.24 9.744 7.859 16.773 7.859s12.588-2.62 16.677-7.859c4.121-5.239 6.182-12.364 6.182-21.373 0-9.041-2.061-16.182-6.182-21.421-4.089-5.239-9.648-7.859-16.677-7.859m0-7.859c10.032 0 18.051 3.371 24.057 10.112 6.006 6.709 9.009 15.719 9.009 27.028 0 11.278-3.003 20.287-9.009 27.028-6.006 6.709-14.025 10.064-24.057 10.064-10.064 0-18.115-3.354-24.153-10.064-6.006-6.709-9.009-15.719-9.009-27.028s3.003-20.319 9.009-27.028c6.038-6.741 14.089-10.112 24.153-10.112m56.356 64.791v28.466h-8.866v-74.088h8.866v8.147c1.853-3.195 4.185-5.559 6.997-7.093 2.843-1.565 6.23-2.348 10.159-2.348 6.517 0 11.805 2.588 15.862 7.764 4.089 5.176 6.134 11.981 6.134 20.415s-2.045 15.239-6.134 20.415c-4.057 5.176-9.345 7.763-15.862 7.763-3.93 0-7.316-.767-10.159-2.3-2.811-1.565-5.144-3.946-6.997-7.14m29.999-18.738c0-6.485-1.342-11.565-4.026-15.239-2.652-3.706-6.31-5.559-10.974-5.559s-8.339 1.853-11.022 5.559c-2.652 3.674-3.978 8.754-3.978 15.239s1.326 11.581 3.978 15.287c2.684 3.674 6.358 5.511 11.022 5.511s8.322-1.837 10.974-5.511c2.684-3.706 4.025-8.802 4.026-15.287m69.68-2.253v4.313h-40.542c.383 6.07 2.204 10.703 5.463 13.897 3.291 3.163 7.859 4.744 13.706 4.744 3.386 0 6.661-.416 9.824-1.246 3.195-.831 6.358-2.077 9.489-3.738v8.339a52.89 52.89 0 0 1-9.728 3.067 48.72 48.72 0 0 1-10.112 1.054c-8.562 0-15.351-2.492-20.367-7.476-4.984-4.984-7.476-11.725-7.476-20.223 0-8.786 2.364-15.75 7.092-20.894 4.76-5.176 11.166-7.763 19.217-7.764 7.22 0 12.923 2.332 17.108 6.997 4.217 4.632 6.326 10.942 6.326 18.929m-8.818-2.588c-.061-4.824-1.422-8.674-4.073-11.549-2.62-2.875-6.102-4.313-10.447-4.313-4.92 0-8.866 1.39-11.837 4.169-2.939 2.78-4.633 6.693-5.08 11.741l31.437-.049m67.906-.764v32.395h-8.818v-32.108c0-5.08-.99-8.882-2.971-11.406s-4.952-3.786-8.914-3.786c-4.76 0-8.514 1.518-11.262 4.553s-4.121 7.172-4.121 12.412v30.335H304.4v-53.673h8.866v8.339c2.109-3.227 4.585-5.639 7.428-7.236 2.875-1.597 6.182-2.396 9.92-2.396 6.166 0 10.83 1.917 13.993 5.751 3.163 3.802 4.744 9.409 4.744 16.821" stroke="#000" stroke-width="3.999"/><path d="M366.133 617.942h9.777v64.033h35.186v8.228h-44.963v-72.261m64.952 8.034v56.192h11.81c9.97 0 17.262-2.259 21.877-6.776 4.646-4.517 6.97-11.648 6.97-21.393 0-9.68-2.323-16.762-6.97-21.247-4.614-4.517-11.906-6.776-21.877-6.776h-11.81m-9.777-8.034h20.086c14.004 0 24.28 2.92 30.831 8.76 6.55 5.808 9.825 14.907 9.825 27.297 0 12.455-3.291 21.602-9.874 27.443s-16.843 8.76-30.782 8.76h-20.086v-72.261m98.687 9.633l-13.262 35.961h26.571l-13.31-35.961m-5.518-9.632h11.083l27.539 72.261h-10.164l-6.582-18.537h-32.573l-6.582 18.537H486.89l27.588-72.261m58.902 8.034v27.152h12.294c4.549 0 8.066-1.178 10.551-3.533s3.727-5.711 3.727-10.067c0-4.324-1.242-7.663-3.727-10.019s-6.002-3.533-10.551-3.533H573.38m-9.777-8.034h22.07c8.099 0 14.213 1.839 18.343 5.518 4.162 3.646 6.243 9.002 6.243 16.069 0 7.131-2.081 12.519-6.243 16.165-4.13 3.646-10.245 5.469-18.343 5.469H573.38v29.04h-9.777v-72.261" fill="#75507b" stroke="#75507b" stroke-width="4.002"/><path d="M612.642 620.24h9.684v1.303h-4.064v10.144h-1.556v-10.144h-4.064v-1.303"/><path d="M623.829 620.24h2.308l2.921 7.79 2.937-7.79h2.308v11.447h-1.51v-10.052l-2.952 7.851h-1.556l-2.952-7.851v10.052h-1.503V620.24" stroke="#000"/></svg>