<svg xmlns="http://www.w3.org/2000/svg" width="130" height="91" xmlns:v="https://vecta.io/nano"><path d="M17.373 83.585v-6.5h4.3c4.744 0 6.7 1.314 6.7 4.5 0 2.883-1.869 4.5-5.2 4.5-2.133 0-2.8.476-2.8 2 0 1.111-.667 2-1.5 2-1.18 0-1.5-1.389-1.5-6.5zm6.776-.676c.859-.859.88-1.533.078-2.5-1.801-2.17-3.854-1.544-3.854 1.176 0 2.651 1.814 3.287 3.776 1.324zm6.795 5.605c-2.15-2.15-2.003-7.728.257-9.774 2.427-2.197 7.454-2.105 9.516.174 2.197 2.427 2.105 7.454-.174 9.516-2.313 2.094-7.544 2.139-9.6.084zm7.874-3.147c1.499-3.906-2.183-7.401-4.916-4.668-1.942 1.942-1.942 3.83 0 5.772 1.733 1.733 4.025 1.219 4.916-1.104zm5.555 3.194c0-1.284.623-1.497 2.905-.996 4.325.95 4.738-1.184.567-2.927-3.075-1.285-3.562-1.918-3.29-4.28.286-2.487.757-2.804 4.569-3.08 3.422-.248 4.25.017 4.25 1.358 0 1.266-.585 1.519-2.439 1.054-3.917-.983-3.93 1.118-.014 2.411 3.199 1.056 3.534 1.501 3.259 4.331-.292 3.003-.534 3.168-5.056 3.459-3.853.247-4.75-.004-4.75-1.329zm15-3.975c0-4.833-.242-5.5-2-5.5-1.1 0-2-.45-2-1s2.475-1 5.5-1 5.5.45 5.5 1-.9 1-2 1c-1.758 0-2 .667-2 5.5 0 4.222-.348 5.5-1.5 5.5s-1.5-1.278-1.5-5.5zm10-1v-6.5h4.5c2.475 0 4.5.45 4.5 1s-1.35 1-3 1c-2 0-3 .5-3 1.5s1 1.5 3 1.5c1.65 0 3 .45 3 1s-1.35 1-3 1c-2.667 0-3 .333-3 3 0 2-.5 3-1.5 3-1.18 0-1.5-1.389-1.5-6.5zm12 0c0-5.111.321-6.5 1.5-6.5s1.5 1.389 1.5 6.5-.321 6.5-1.5 6.5-1.5-1.389-1.5-6.5zm6.862 3.224l2.025-3.276-2.041-3.224c-2.019-3.189-2.02-3.224-.066-3.224 1.087 0 2.545.686 3.242 1.525 1.135 1.367 1.441 1.367 2.951 0 .927-.839 2.482-1.525 3.455-1.525 1.636 0 1.616.242-.272 3.224l-2.041 3.224 4.049 6.552h-2.073c-1.14 0-2.617-.871-3.282-1.936-1.196-1.915-1.224-1.915-2.565 0-.746 1.065-2.267 1.936-3.381 1.936H86.21zM37.622 74.336h41.5c11.412.16 2.075.292-20.75.292s-32.162-.131-20.75-.292zm-11.924-8.273c-8.557-1.739-15.643-7.819-16.896-14.497-.996-5.311 1.393-7.481 8.239-7.481 4.718 0 5.807.412 9.095 3.442l3.735 3.442 4.217-4.118c3.882-3.791 4.424-4.023 6.825-2.93 1.435.654 3.024.931 3.533.617 1.763-1.089 1.019-9.064-1.095-11.753-1.723-2.191-2.569-2.484-5.75-1.992-2.051.317-5.529 1.483-7.729 2.592-2.454 1.236-6.805 2.199-11.257 2.489l-7.257.474-3.465-3.674c-4.288-4.547-6.182-10.287-4.888-14.817 1.715-6.004 8.405-4.268 10.197 2.645.51 1.968 1.408 3.051 2.485 2.998l6.661-.25c4.383-.147 5.15-.506 6.453-3.026.813-1.573 2.85-3.427 4.526-4.121 2.284-.946 3.056-1.92 3.083-3.891.109-8.111 10.853-14.791 16.782-10.434 2.362 1.736 3.042 1.817 5.683.684C64.287.138 69.944.729 73.607 4.002c2.835 2.533 3.266 3.556 3.266 7.75 0 3.778-.624 5.647-2.86 8.571-3.033 3.965-2.936 4.147 2.683 5.055 2.28.369 2.998-.007 3.739-1.956 1.127-2.963 10.354-12.338 12.144-12.338.715 0 2.566-1.34 4.112-2.979 7.391-7.831 23.603-5.198 30.437 4.943 3.211 4.764 3.677 7.42 2.219 12.628-3.126 11.166-14.769 15.097-29.47 9.95-3.848-1.347-7.297-2.133-7.664-1.746s-.819 2.054-1.004 3.704c-.316 2.823-.111 3.019 3.47 3.314 4.307.355 5.501 2.121 3.863 5.714-.688 1.511-.737 2.621-.131 2.995 1.488.919 1.138 5.781-.594 8.254-2.969 4.239-12.234 2.465-18.693-3.579-2.711-2.536-2.75-2.542-2.75-.386 0 1.203-.46 2.187-1.021 2.187s-1.53 1.116-2.152 2.481c-1.259 2.763-4.503 4.243-6.006 2.74-.543-.543-3.759-.755-7.237-.475-7.857.631-13.195-1.571-15.149-6.247-.726-1.736-2.014-3.734-2.864-4.44-2.042-1.694-4.571-.637-4.571 1.91 0 1.117-.45 2.031-1 2.031-1.517 0-1.201 2.487.75 5.9 3.287 5.751-1.224 8.151-11.424 6.079zm47.256-23.112c.228-2.401 1.028-4.82 1.778-5.376.866-.641 1.19-2.195.887-4.26-.547-3.728-3.098-4.841-8.925-3.896-4.852.787-5.077 1.256-2.121 4.425 3.349 3.591 4.416 5.827 5.287 11.085.882 5.319 2.499 4.284 3.094-1.98zm45.668-11.572c-2.362-.455-3.153-2.283-1-2.31.905-.011.87-.256-.128-.888-2.171-1.375-.319-3.108 3.187-2.98 1.755.064 2.428.317 1.496.563-2.105.555-1.234 3.315 1.052 3.337 1.426.013 1.445.143.143.985-.942.609-1.048.975-.285.985 2.058.026 3.511-3.968 2.807-7.718-1.05-5.6-5.253-14.266-6.918-14.266-1.872 0-11.604 2.06-11.604 2.456 0 .16.887 2.295 1.971 4.746s2.271 7.008 2.638 10.127l.667 5.671 4.112-.136c2.291-.076 3.116-.328 1.862-.57zm-3.844-8.446c-.865-1.399 2.248-3.848 4.892-3.848 1.292 0 1.728.488 1.34 1.5-.317.825-.14 1.5.393 1.5s.969.45.969 1c0 1.393-6.722 1.259-7.594-.152zm-.406-4.631c0-1.119 4.928-2.622 5.785-1.765.796.796.063 1.298-3.037 2.076-1.625.408-2.748.281-2.748-.31zm-1-3.217c0-.55.869-1 1.93-1 1.218 0 2.077-.83 2.327-2.25.395-2.241.4-2.24 1.445.25.906 2.158.759 2.589-1.077 3.15-3.248.994-4.626.949-4.626-.15zm-77.349 9.532c-.31-.807-.133-1.734.393-2.059s.985.223 1.02 1.218c.051 1.457.239 1.371.968-.441.497-1.238.549-3.21.115-4.384-.775-2.096-.829-2.084-2.968.635-2.568 3.265-2.852 6.5-.571 6.5 1.002 0 1.395-.553 1.044-1.468zm-5.113-1.471c-.319-.516-.008-1.304.691-1.75s1.946-1.673 2.771-2.725c1.414-1.804 1.373-1.846-.727-.727-3.152 1.68-5.487 6.141-3.214 6.141.582 0 .798-.422.479-.939z" fill="#f2e69e"/><path d="M17.373 83.585v-6.5h4.3c4.744 0 6.7 1.314 6.7 4.5 0 2.883-1.869 4.5-5.2 4.5-2.133 0-2.8.476-2.8 2 0 1.111-.667 2-1.5 2-1.18 0-1.5-1.389-1.5-6.5zm6.418-.107c2.038-.782 2.038-3.004 0-3.786-2.743-1.052-3.418-.678-3.418 1.893s.676 2.945 3.418 1.893zm7.237 4.778c-2.197-2.427-2.105-7.454.174-9.516 2.427-2.197 7.454-2.105 9.516.174 2.197 2.427 2.105 7.454-.174 9.516-2.427 2.197-7.454 2.105-9.516-.174zm7.413-2.298c1.372-2.563-.203-6.874-2.511-6.874-2.397 0-3.95 3.841-2.681 6.626 1.342 2.946 3.688 3.058 5.192.247zm5.932 2.547c0-1.223.655-1.436 2.905-.941 4.289.942 4.754-1.177.636-2.898-2.685-1.122-3.54-2.07-3.54-3.923 0-2.68 1.625-3.658 6.082-3.658 1.872 0 2.918.516 2.918 1.438 0 .881-.872 1.365-2.25 1.25-2.79-.233-3.828 1.678-1.179 2.169 2.912.54 4.429 2.135 4.429 4.658 0 2.59-1.69 3.484-6.582 3.484-2.448 0-3.418-.448-3.418-1.579zm15-3.921c0-4.833-.242-5.5-2-5.5-1.1 0-2-.45-2-1s2.475-1 5.5-1 5.5.45 5.5 1-.9 1-2 1c-1.758 0-2 .667-2 5.5 0 4.222-.348 5.5-1.5 5.5s-1.5-1.278-1.5-5.5zm10-1v-6.5h4.5c2.475 0 4.5.45 4.5 1s-1.35 1-3 1c-2 0-3 .5-3 1.5s1 1.5 3 1.5c1.65 0 3 .45 3 1s-1.35 1-3 1c-2.667 0-3 .333-3 3 0 2-.5 3-1.5 3-1.18 0-1.5-1.389-1.5-6.5zm12 0c0-5.111.321-6.5 1.5-6.5s1.5 1.389 1.5 6.5-.321 6.5-1.5 6.5-1.5-1.389-1.5-6.5zm6.996 3.006l2.159-3.494-2.173-2.756c-1.955-2.48-2.001-2.791-.459-3.103.942-.19 2.423.363 3.289 1.23 1.431 1.431 1.735 1.432 3.307.008.952-.862 2.483-1.415 3.402-1.23 1.476.298 1.418.658-.503 3.094l-2.173 2.756 2.159 3.494c2.141 3.464 2.142 3.494.134 3.494-1.114 0-2.635-.871-3.381-1.936-1.341-1.915-1.369-1.915-2.565 0-.665 1.065-2.142 1.936-3.282 1.936H86.21zM37.623 74.336h41.5c11.412.16 2.075.292-20.75.292s-32.162-.131-20.75-.292zM26.102 66.07c-5.961-1.031-10.203-3.477-13.849-7.989-6.145-7.604-4.148-14 4.37-13.992 4.527.004 9.879 2.629 11.875 5.825 1.113 1.782 1.355 1.695 4.166-1.506 4.338-4.941 6.346-5.79 9.224-3.904 2.696 1.767 3.053 1.456 3.934-3.425.45-2.495.081-4.492-1.294-6.992-1.839-3.344-2.137-3.485-6.697-3.152-2.625.192-6.471 1.233-8.546 2.315-4.873 2.54-13.908 3.495-17.802 1.882-3.504-1.451-7.807-7.286-8.712-11.814-.365-1.827-.106-4.519.601-6.225 2.284-5.515 8.234-3.097 9.637 3.917.629 3.143.821 3.264 4.262 2.695 1.982-.328 5.242-.601 7.245-.607 3.057-.009 3.744-.417 4.276-2.54.392-1.564 1.961-3.161 4.108-4.185 2.716-1.295 3.474-2.254 3.474-4.395 0-3.208 3.99-8.318 8.192-10.491 3.43-1.774 8.328-1.08 9.702 1.375.828 1.479 1.256 1.461 4.971-.214 8.318-3.751 16.758.063 17.788 8.037.416 3.216-.059 4.746-2.698 8.696-1.761 2.637-3.034 4.935-2.829 5.108s2.081.579 4.169.901c3.383.522 3.899.314 4.746-1.912 1.019-2.681 9.357-11.391 10.903-11.391.513 0 3.013-1.8 5.555-4 4.411-3.818 4.927-3.999 11.311-3.972 8.314.035 14.522 2.923 18.378 8.549 3.553 5.183 4.092 7.664 2.75 12.65-2.759 10.248-15.13 15.47-26.439 11.161-6.926-2.639-10.597-3.323-10.983-2.048-1.904 6.301-1.77 6.66 2.495 6.66 4.534 0 6.111 1.972 4.123 5.155-.866 1.386-.89 2.434-.091 3.926 1.432 2.675.278 7.676-2.059 8.927-4.456 2.385-13.986-.653-17.981-5.73-1.879-2.389-2.004-2.418-2.004-.468 0 1.144-1.527 3.746-3.393 5.783-2.61 2.849-3.822 3.517-5.25 2.894-1.021-.445-5.38-.849-9.687-.898-7.572-.086-7.918-.195-10.5-3.336-8.388-10.2-8.05-9.921-9.606-7.906-.785 1.016-1.207 2.42-.938 3.121s-.23 1.55-1.108 1.886c-1.404.539-1.32 1.095.693 4.607 3.867 6.747.597 8.938-10.482 7.023zm10.271-2.534c0-.852-.712-2.926-1.581-4.608-.936-1.81-1.326-4.074-.956-5.548.449-1.789.261-2.366-.669-2.049-.711.243-1.245 1.637-1.186 3.098.125 3.081-1.191 3.545-2.083.734-1.061-3.342-8.259-9.086-11.278-8.999-1.511.043-2.169.311-1.462.595s2.827 3.577 4.71 7.317 4.628 7.748 6.099 8.905c3.195 2.513 8.405 2.857 8.405.554zm-15.168-7.504c-4.506-7.816-8.375-11.28-9.902-8.867-1.417 2.239-1.109 3.94 1.527 8.437 2.371 4.046 7.22 7.414 10.743 7.461 1.371.018.913-1.342-2.368-7.031zm75.419.725c.424-.644.653-2.521.51-4.171-.217-2.495-.656-2.957-2.61-2.744-1.292.141-3.491 1.153-4.885 2.25s-3.464 1.994-4.6 1.994c-2.449 0-1.478 1.183 2.835 3.456 3.14 1.655 7.396 1.273 8.751-.785zm-27.251-2.171c0-.825-.177-1.5-.393-1.5s-.652.675-.969 1.5-.14 1.5.393 1.5.969-.675.969-1.5zm11.463-5.956c-.805-2.674-1.463-5.947-1.463-7.273 0-1.928-.451-2.347-2.25-2.091-1.838.261-2.309 1.053-2.574 4.32-.178 2.2-1.06 4.815-1.96 5.811-1.418 1.569-1.441 1.934-.176 2.728 1.115.701 1.671.214 2.355-2.061.818-2.723 2.605-4.172 2.605-2.113 0 1.085 4.103 6.365 4.577 5.891.192-.192-.309-2.537-1.114-5.212zm-5.463-6.576c0-.533.675-.969 1.5-.969 1.921 0 1.921.625 0 1.362-.825.317-1.5.14-1.5-.393zm13.816 8.732c1.412-1.132 4.545-6.716 4.008-7.145-.178-.142-1.79-.753-3.583-1.358-3.168-1.069-3.226-1.038-2.086 1.102 1.036 1.945.991 2.051-.393.91-.861-.71-1.87-2.506-2.243-3.99-.64-2.55-2.092-4.169-3.769-4.204-1.118-.023-.922 2.332.839 10.076 1.458 6.41 1.767 6.932 3.75 6.325 1.189-.364 2.753-1.136 3.477-1.716zM73.373 41.8c0-3.075.429-4.015 2.021-4.431 1.355-.354 1.716-.9 1.096-1.656-.509-.62-1.081-2.253-1.271-3.628-.329-2.376-.656-2.495-6.61-2.402-3.445.054-6.489.322-6.763.596s1.064 2.156 2.974 4.181c2.121 2.249 3.717 5.131 4.1 7.404.345 2.047.87 4.593 1.167 5.658.526 1.889.573 1.891 1.913.059.755-1.033 1.373-3.634 1.373-5.781zm24 2.046c0-1.765-2.312-.15-3.192 2.229-.869 2.348-.85 2.357 1.154.544 1.121-1.014 2.038-2.262 2.038-2.773zm21-9.315c3.452-1.382 3.419-1.393-2.402-.79-5.787.6-5.89.567-5.3-1.688.71-2.714-1.412-12.485-3.711-17.095-1.992-3.993-1.189-4.986 5.21-6.448l4.704-1.075-4.434-1.263c-4.948-1.41-8.825-.946-12.561 1.502-3.261 2.137-3.175 3.382.246 3.529 1.702.073.916.426-2.063.926-2.647.445-6.022 1.621-7.5 2.615l-2.687 1.807 7 1.101-4 .692c-4.625.801-8.5 3.216-8.5 5.298 0 .815.946 1.443 2.171 1.443 2.489 0 5.829 2.667 5.829 4.655 0 1.69 2.171 1.743 3.947.095 1.1-1.02 1.234-.929.731.5-.447 1.271-.093 1.75 1.294 1.75 1.05 0 2.188-.45 2.528-1 1.061-1.716 2.337-1.093 1.819.888-.97 3.71 10.616 5.387 17.681 2.559zm.25-3.152c-2.362-.455-3.153-2.283-1-2.31.836-.01.753-.342-.25-1-1.333-.875-1.333-1.094 0-1.969.825-.542 2.4-.956 3.5-.921s1.463.282.806.549c-1.671.68-.442 3.353 1.551 3.372 1.426.013 1.445.143.143.985-.825.533-1.028.976-.45.985 1.882.027 3.45-2.325 3.45-5.174 0-3.595-4.884-15.829-6.579-16.479-1.208-.463-12.421 1.444-12.421 2.113 0 .166.944 2.436 2.097 5.044 1.158 2.618 2.166 7.15 2.25 10.119l.153 5.377 4.5-.128c2.475-.07 3.487-.323 2.25-.561zm-3.25-9.187c0-1.896 1.828-3.107 4.689-3.107.945 0 1.306.571.95 1.5-.317.825-.14 1.5.393 1.5s.969.45.969 1-1.575 1-3.5 1c-2.767 0-3.5-.396-3.5-1.893zm-1-3.882c0-.993 5.132-2.412 5.917-1.637.665.657-.222 1.199-3.169 1.939-1.614.405-2.748.28-2.748-.302zm-1-3.225c0-.55.869-1 1.93-1 1.218 0 2.077-.83 2.327-2.25.395-2.241.4-2.24 1.445.25.906 2.158.759 2.589-1.077 3.15-3.248.994-4.626.949-4.626-.15zm-76.93 8.75c.067-2.137.111-2.15.885-.25.754 1.851.868 1.8 1.52-.678.388-1.473.283-3.431-.232-4.352-.829-1.482-1.185-1.359-3.09 1.062-1.184 1.505-2.153 3.576-2.153 4.602 0 2.706 2.985 2.332 3.07-.385zm-5.532-.689c-.319-.516-.008-1.304.691-1.75s1.946-1.673 2.771-2.725c1.414-1.804 1.373-1.846-.727-.727-3.152 1.68-5.487 6.141-3.214 6.141.582 0 .798-.422.479-.939zm95.439-7.355c-1.19-1.764-1.929-2.466-1.642-1.561l1.843 6c1.207 3.978 1.349 4.113 1.642 1.561.19-1.66-.558-4.095-1.843-6z" fill="#abadaa"/><path d="M17.373 83.585v-6.5h4.3c4.744 0 6.7 1.314 6.7 4.5 0 2.883-1.869 4.5-5.2 4.5-2.133 0-2.8.476-2.8 2 0 1.111-.667 2-1.5 2-1.18 0-1.5-1.389-1.5-6.5zm7.5-2c0-1.313-.773-2.11-2.25-2.32-1.846-.262-2.25.155-2.25 2.32s.404 2.582 2.25 2.32c1.477-.21 2.25-1.007 2.25-2.32zm6.155 6.671c-2.197-2.427-2.105-7.454.174-9.516 2.427-2.197 7.454-2.105 9.516.174 2.197 2.427 2.105 7.454-.174 9.516-2.427 2.197-7.454 2.105-9.516-.174zm7.145-1.371c3.026-3.026-.172-9.309-3.634-7.14-2.097 1.314-2.696 4.997-1.12 6.895 1.46 1.759 3.153 1.846 4.754.245zm6.867 2.533c-1.489-1.489-.502-2.25 2.212-1.708 4.306.861 4.781-1.323.662-3.044-3.673-1.535-4.616-4.106-2.34-6.381 1.687-1.687 7.8-1.56 7.8.161 0 .895-.816 1.205-2.383.906-3.904-.746-4.018 1.539-.158 3.152 3.673 1.535 4.616 4.106 2.34 6.381-1.276 1.276-7.015 1.652-8.133.533zm14.333-4.833c0-4.833-.242-5.5-2-5.5-1.1 0-2-.45-2-1s2.475-1 5.5-1 5.5.45 5.5 1-.9 1-2 1c-1.758 0-2 .667-2 5.5 0 4.222-.348 5.5-1.5 5.5s-1.5-1.278-1.5-5.5zm10-1v-6.5h4.5c2.475 0 4.5.45 4.5 1s-1.35 1-3 1c-2 0-3 .5-3 1.5s1 1.5 3 1.5c1.65 0 3 .45 3 1s-1.35 1-3 1c-2.667 0-3 .333-3 3 0 2-.5 3-1.5 3-1.18 0-1.5-1.389-1.5-6.5zm12 0c0-5.111.321-6.5 1.5-6.5s1.5 1.389 1.5 6.5-.321 6.5-1.5 6.5-1.5-1.389-1.5-6.5zm6.932 3.596c2.544-3.573 2.544-3.619 0-7.191l-2.068-2.904h2.033c1.118 0 2.538.944 3.156 2.098l1.123 2.098 1.469-2.098c.808-1.154 2.374-2.098 3.481-2.098 2.002 0 2.002.013-.057 2.904-2.544 3.573-2.544 3.619 0 7.191 2.019 2.836 2.022 2.904.122 2.904-1.07 0-2.608-.997-3.417-2.216l-1.471-2.216-1.186 2.216c-.652 1.219-2.101 2.216-3.219 2.216h-2.033zM37.623 74.337h41.5c11.412.16 2.075.292-20.75.292s-32.162-.131-20.75-.292zm-9.628-8.353C17.115 64.395 9.372 57.619 9.372 49.687c0-4.283 1.272-5.072 8.202-5.089 4.071-.01 5.212.482 8.5 3.669l3.798 3.681 4-3.985c3.941-3.926 5.309-4.269 9.677-2.426 1.381.583 1.797-.095 2.359-3.842.536-3.573.266-5.254-1.255-7.829-1.7-2.878-2.433-3.27-5.995-3.201-2.232.043-6.387 1.08-9.234 2.304-6.306 2.713-13.615 3.664-17.268 2.246-4.52-1.753-8.783-8.625-8.783-14.156 0-5.797 1.828-7.828 5.527-6.142 1.691.77 2.828 2.47 3.61 5.397l1.141 4.272 5.111-.286c7.71-.432 9.166-.942 10.396-3.642.62-1.362 2.445-3.157 4.053-3.989 2.149-1.111 3.112-2.507 3.628-5.26 1.01-5.384 6.488-10.323 11.449-10.323 2.418 0 4.383.673 5.468 1.872 1.655 1.829 1.78 1.827 5.405-.063 6.807-3.55 15.296-.783 17.046 5.557 1.329 4.812.455 7.934-3.519 12.577-3.449 4.029-3.456 4.056-1.019 4.056 1.349 0 3.859.281 5.578.625 2.521.504 3.125.296 3.125-1.077 0-.936 1.293-2.995 2.874-4.576s3.15-3.592 3.486-4.468 2.298-2.299 4.359-3.16 4.345-2.419 5.075-3.461c4.855-6.931 19.806-6.432 27.545.92 5.645 5.362 7.119 11.771 4.274 18.58-3.004 7.191-14.974 11.299-23.648 8.117-5.863-2.151-12.113-3.685-12.684-3.114-.251.251-.819 2.066-1.263 4.035l-.807 3.579h4.327c3.483 0 4.454.4 4.977 2.048.358 1.126.097 2.715-.58 3.53-.931 1.121-.957 2.08-.109 3.94 1.915 4.203-1.293 9.498-5.731 9.46-3.599-.03-10.124-3.203-12.99-6.315-2.456-2.667-4.105-2.691-4.105-.062 0 .816-.45 2.027-1 2.691s-1.842 2.31-2.871 3.657c-1.762 2.308-2.008 2.359-4.255.887-1.758-1.152-3.039-1.314-4.879-.618-3.19 1.208-10.661.229-13.763-1.803-1.319-.864-3.035-3.095-3.813-4.958-1.747-4.181-4.895-6.138-7.028-4.367-.815.676-1.255 1.821-.978 2.543s-.239 1.729-1.148 2.238c-1.497.838-1.423 1.361.792 5.588 2.402 4.584 2.41 4.688.502 6.102-1.068.791-2.193 1.384-2.5 1.317s-3.204-.508-6.437-.98zm8.378-2.448c0-.852-.712-2.926-1.581-4.608-.936-1.81-1.326-4.074-.956-5.548.449-1.789.261-2.366-.669-2.049-.711.243-1.245 1.637-1.186 3.098s-.278 2.656-.75 2.656-.858-.46-.858-1.022-1.857-3.037-4.127-5.5c-3.153-3.421-4.846-4.478-7.174-4.478h-3.047l2.064 2.25c1.135 1.237 3.224 4.568 4.641 7.401s3.778 6.096 5.245 7.25c3.19 2.509 8.398 2.85 8.398.549zm-15.168-7.504c-4.506-7.816-8.375-11.28-9.902-8.867-1.417 2.239-1.109 3.94 1.527 8.437 2.371 4.046 7.22 7.414 10.743 7.461 1.371.018.913-1.342-2.368-7.031zm40.523 2.471c.899-.345 1.27-1.232.908-2.174-.448-1.167-.178-1.425 1.012-.968 1.197.459 1.46.2 1.004-.99-.381-.993-.214-1.363.435-.962.581.359 1.596-.658 2.264-2.27 1.256-3.033.705-7.82-1.346-11.686-1.884-3.551-8.019-9.79-10.911-11.096-4.292-1.938-3.384-3.493 1.603-2.746 4.806.721 10.603-1.169 14.332-4.672 5.387-5.061 5.57-13.651.349-16.351C62.755.13 52.514 6.478 50.723 17.39c-.413 2.517-1.057 3.638-1.905 3.313-2.064-.792-2.532 2.207-.563 3.605 2.254 1.6 4.117 5.041 4.117 7.605 0 2.242-2.706 3.656-4.377 2.287-1.843-1.51-1.513 19.075.342 21.329 2.522 3.064 9.257 4.56 13.39 2.974zm-5.646-36.042c-.39-.39-.709-2.043-.709-3.674 0-4.142 7.538-11.702 11.668-11.702 3.457 0 5.356 1.604 5.268 4.45-.06 1.934-.115 1.923-.968-.2-2.211-5.502-13.059-.14-13.463 6.655-.163 2.741.103 3.169 1.708 2.75 1.171-.306 1.753-.047 1.515.674-.446 1.356-3.975 2.092-5.02 1.047zm15.291 35.565c0-.582-.45-.781-1-.441-1.281.792-1.281 1.5 0 1.5.55 0 1-.477 1-1.059zm25.251-1.27c.424-.644.653-2.521.51-4.171-.217-2.495-.656-2.957-2.61-2.744-1.292.141-3.491 1.153-4.885 2.25s-3.464 1.994-4.6 1.994c-2.449 0-1.478 1.183 2.835 3.456 3.14 1.655 7.396 1.273 8.751-.785zm-26.631-1.123c.816-2.127-.631-4.139-1.73-2.405-1.179 1.861-1.106 3.857.141 3.857.567 0 1.282-.653 1.589-1.452zm10.843-7.004c-.805-2.674-1.463-5.947-1.463-7.273 0-1.928-.451-2.347-2.25-2.091-1.838.261-2.309 1.053-2.574 4.32-.178 2.2-1.06 4.815-1.96 5.811-1.418 1.569-1.441 1.934-.176 2.728 1.115.701 1.671.214 2.355-2.061.818-2.723 2.605-4.172 2.605-2.113 0 1.085 4.103 6.365 4.577 5.891.192-.192-.309-2.537-1.114-5.212zm-5.463-6.576c0-.533.675-.969 1.5-.969 1.921 0 1.921.625 0 1.362-.825.317-1.5.14-1.5-.393zm13.816 8.732c1.412-1.132 4.545-6.716 4.008-7.145-.178-.142-1.79-.753-3.583-1.358-3.168-1.069-3.226-1.038-2.086 1.102 1.036 1.945.991 2.051-.393.91-.861-.71-1.87-2.506-2.243-3.99-.64-2.55-2.092-4.169-3.769-4.204-1.118-.023-.922 2.332.839 10.076 1.458 6.41 1.767 6.932 3.75 6.325 1.189-.364 2.753-1.136 3.477-1.716zm-52.816-2.2c.685-.825 1.02-1.5.745-1.5s-1.06.675-1.745 1.5-1.02 1.5-.745 1.5 1.06-.675 1.745-1.5zm35.608-.25c.731-.962 1.343-3.176 1.36-4.918.042-4.216.936-6.332 2.674-6.332 1.121 0 1.197-.433.352-2.011-.592-1.106-.945-2.794-.785-3.75.246-1.468-.642-1.779-5.709-1.997-8.489-.366-9.833.784-5.8 4.965 3.705 3.84 5.3 7.56 5.3 12.359 0 3.842.651 4.263 2.608 1.685zm-27.608.372c0-.208-.788-.995-1.75-1.75-1.586-1.244-1.621-1.209-.378.378 1.306 1.666 2.128 2.196 2.128 1.372zm53-4.861c0-1.765-2.312-.15-3.192 2.229-.869 2.348-.85 2.357 1.154.544 1.121-1.014 2.038-2.262 2.038-2.773zm-8-5.961c0-.594-.787-1.678-1.75-2.409-1.667-1.265-1.667-1.33 0-1.36 2.183-.04 2.31-2.88.166-3.702-1.277-.49-1.326-.774-.25-1.469 2.052-1.324-1.076-3.052-4.166-2.302-1.375.334-4.3.605-6.5.602-3.308-.004-3.568.123-1.5.733 2.045.604 2.441 1.27 2.174 3.664-.179 1.609-.011 2.611.374 2.226.95-.95 8.412 2.946 9.106 4.754.603 1.57 2.347 1.022 2.347-.738zm29-3.355c3.452-1.382 3.419-1.393-2.402-.79-5.787.6-5.89.567-5.3-1.688.71-2.714-1.412-12.485-3.711-17.095-1.992-3.993-1.189-4.986 5.21-6.448l4.704-1.075-4.434-1.263c-4.948-1.41-8.825-.946-12.561 1.502-3.261 2.137-3.175 3.382.246 3.529 1.702.073.916.426-2.063.926-2.647.445-6.022 1.621-7.5 2.615l-2.687 1.807 7 1.101-4 .692c-4.625.801-8.5 3.216-8.5 5.298 0 .815.946 1.443 2.171 1.443 2.489 0 5.829 2.667 5.829 4.655 0 1.69 2.171 1.743 3.947.095 1.1-1.02 1.234-.929.731.5-.447 1.271-.093 1.75 1.294 1.75 1.05 0 2.188-.45 2.528-1 1.061-1.716 2.337-1.093 1.819.888-.97 3.71 10.616 5.387 17.681 2.559zm-91-2.614c2.475-1.168 6.278-2.396 8.451-2.728 3.153-.482 4.625-1.488 7.29-4.984 3.784-4.963 3.769-6.482-.068-6.936-2.457-.291-2.673-.028-2.673 3.25 0 5.914-5.852 9.859-9 6.066-.885-1.066-3.225-1.5-8.089-1.5-6.481 0-7.029.185-10.324 3.48-3.088 3.088-3.289 3.592-1.783 4.47 2.961 1.727 11.405 1.144 16.197-1.117zm18-1.832c-.589-1.1-1.574-2-2.19-2s-.305.9.69 2 1.981 2 2.19 2-.101-.9-.69-2zm78.777.443c2.853-1.999 2.895-6.169.133-13.443-3.309-8.716-3.638-8.895-12.743-6.943l-4.931 1.057 1.922 3.978c2.18 4.511 4.257 14.426 3.335 15.917-1.032 1.67 9.803 1.17 12.284-.567zm-6.478-.783c.351-.913.201-1.661-.331-1.661s-.969-.45-.969-1c0-1.644 2.537-1.136 5 1 1.268 1.1 1.9 2.006 1.403 2.014s-1.991.305-3.322.661c-1.975.528-2.302.342-1.781-1.014zm1.971-4.265c.332-.332 1.195-.368 1.917-.079.798.319.561.556-.604.604-1.054.043-1.645-.193-1.312-.525zm-4.271-2.861c0-1.447 2.896-3.535 4.903-3.535.569 0 .775.675.459 1.5s-.051 1.5.59 1.5.888.45.548 1c-.998 1.615-6.5 1.221-6.5-.465zm4-.535c0-.55-.45-1-1-1s-1 .45-1 1 .45 1 1 1 1-.45 1-1zm-5-3.981c0-.56 1.425-1.019 3.167-1.019 3.641 0 3.509.437-.417 1.378-1.632.392-2.75.246-2.75-.359zm-1-2.912c0-.609 1.173-1.107 2.607-1.107 1.945 0 2.456-.394 2.011-1.552-.341-.89-.174-1.291.393-.941 1.498.926 1.182 3.493-.43 3.493-.78 0-2.13.273-3 .607s-1.582.109-1.582-.5zM37.149 25.528c2.241-1.57 3.137-6.76 1.356-7.861-1.669-1.031-6.755 6.603-5.621 8.438.833 1.348 1.679 1.233 4.265-.577zm33.953.864c-.973-.254-2.323-.237-3 .037s.119.481 1.769.461 2.204-.244 1.231-.498zm-39.223-3.294c-.336-.543.308-1.973 1.43-3.177 2.819-3.026 1.626-3.715-1.442-.832-2.823 2.652-3.262 4.996-.937 4.996.857 0 1.285-.444.949-.987zm94.469-7.306c-1.19-1.764-1.929-2.466-1.642-1.561l1.843 6c1.207 3.978 1.349 4.113 1.642 1.561.19-1.66-.558-4.095-1.843-6zM52.232 8.824c1.906-1.906 1.278-4.719-1.316-5.901-4.932-2.247-12.545 3.394-12.545 9.296 0 2.492.376 2.865 2.889 2.865 1.589 0 3.942.853 5.23 1.895l2.34 1.895 1.131-4.456c.622-2.451 1.644-4.968 2.27-5.595z" fill="#a79c6c"/><path d="M17.373 83.585v-6.5h4.3c4.744 0 6.7 1.314 6.7 4.5 0 2.883-1.869 4.5-5.2 4.5-2.133 0-2.8.476-2.8 2 0 1.111-.667 2-1.5 2-1.18 0-1.5-1.389-1.5-6.5zm7.5-2c0-1.313-.773-2.11-2.25-2.32-1.846-.262-2.25.155-2.25 2.32s.404 2.582 2.25 2.32c1.477-.21 2.25-1.007 2.25-2.32zm6.5 6.5c-2.557-2.557-2.557-6.443 0-9 1.1-1.1 3.125-2 4.5-2 5.581 0 8.461 7.039 4.5 11-1.1 1.1-3.125 2-4.5 2s-3.4-.9-4.5-2zm6.8-1.2c3.026-3.026-.172-9.309-3.634-7.14-2.097 1.314-2.696 4.997-1.12 6.895 1.46 1.759 3.153 1.846 4.754.245zm6.867 2.533c-1.428-1.428-.523-1.915 2.833-1.523 4.604.537 4.604-1.451 0-3.375-3.621-1.513-4.537-3.998-2.3-6.236 1.662-1.662 7.8-1.562 7.8.127 0 .905-.953 1.187-3 .886-4.142-.608-3.828 1.414.5 3.222 3.633 1.518 4.566 4.099 2.3 6.364-1.276 1.276-7.015 1.652-8.133.533zm14.333-4.833c0-4.833-.242-5.5-2-5.5-1.1 0-2-.45-2-1s2.475-1 5.5-1 5.5.45 5.5 1-.9 1-2 1c-1.758 0-2 .667-2 5.5 0 4.222-.348 5.5-1.5 5.5s-1.5-1.278-1.5-5.5zm10-1v-6.5h4.5c2.475 0 4.5.45 4.5 1s-1.35 1-3 1c-2 0-3 .5-3 1.5s1 1.5 3 1.5c1.65 0 3 .45 3 1s-1.35 1-3 1c-2.667 0-3 .333-3 3 0 2-.5 3-1.5 3-1.18 0-1.5-1.389-1.5-6.5zm12 0c0-5.111.321-6.5 1.5-6.5s1.5 1.389 1.5 6.5-.321 6.5-1.5 6.5-1.5-1.389-1.5-6.5zm6.932 3.596c2.544-3.573 2.544-3.619 0-7.191l-2.068-2.904h2.033c1.118 0 2.567.997 3.219 2.216l1.186 2.216 1.471-2.216c.809-1.219 2.347-2.216 3.417-2.216 1.9 0 1.897.069-.122 2.904-2.544 3.573-2.544 3.619 0 7.191 2.019 2.836 2.022 2.904.122 2.904-1.07 0-2.608-.997-3.417-2.216l-1.471-2.216-1.186 2.216c-.652 1.219-2.101 2.216-3.219 2.216h-2.033zM37.623 74.337h41.5c11.412.16 2.075.292-20.75.292s-32.162-.131-20.75-.292zm-14.005-9.228c-6.866-1.629-14.245-9.102-14.245-14.427 0-4.306 1.043-5.48 5.457-6.142 4.822-.723 8.542.749 12.441 4.922l2.398 2.567 4.102-4.02c4.04-3.959 5.427-4.309 9.791-2.468 1.35.569 1.824-.007 2.36-2.865 2.092-11.15-5.297-15.738-16.22-10.071-5.643 2.928-13.654 4.119-17.546 2.61-4.52-1.753-8.783-8.625-8.783-14.156 0-5.219 1.711-7.516 4.856-6.518 1.922.61 5.147 6.064 5.142 8.697-.002 1.034 1.619 1.272 6.948 1.019 6.726-.319 7.016-.441 8.981-3.771 1.371-2.324 3.019-3.639 5.078-4.05 2.359-.472 2.919-1.015 2.477-2.406-.92-2.9 2.132-8.737 5.708-10.918C46.819.515 51.536.503 53.869 3.082c1.115 1.233 2.227 1.665 2.905 1.13.604-.476 2.756-1.4 4.783-2.052 7.219-2.324 14.35 1.483 14.845 7.926.359 4.681-.029 5.846-3.434 10.307l-3.405 4.46 4.937.655c5.589.741 6.872.282 6.872-2.459 0-1.055 1.108-2.644 2.461-3.53s2.72-2.429 3.037-3.427 2.237-2.602 4.267-3.566 4.496-2.774 5.479-4.024c3.829-4.867 14.696-5.71 22.391-1.737 5.631 2.908 10.365 9.502 10.365 14.437 0 5.654-3.059 10.986-7.848 13.677-4.87 2.737-15.25 3.223-19.785.925-1.577-.799-4.541-1.755-6.588-2.126-3.479-.63-3.761-.492-4.334 2.116-.337 1.534-.786 3.352-.998 4.04-.262.85.845 1.25 3.461 1.25 4.808 0 7.062 2.215 5.233 5.144-.681 1.09-.969 2.966-.642 4.169.519 1.908.455 1.964-.502.437-1.429-2.279-3.142-2.211-6.271.25-3.504 2.756-4.145 2.509-1.182-.455 1.35-1.35 2.461-3.038 2.47-3.75.011-.945.265-.901.939.165.79 1.25 1.221 1.191 2.985-.405 1.134-1.026 2.061-2.245 2.061-2.71 0-1.045-3.676-1.127-4.253-.095-.231.413-.282.188-.115-.5.27-1.107-2.529-1.687-7.352-1.524-.671.023-1.519-.919-1.885-2.093-.653-2.093-2.159-3.588-3.646-3.618-.412-.008-.779 1.447-.813 3.235-.059 3.023-.129 3.087-.995.926-1.604-4-4.361-2.353-4.975 2.972-.293 2.544-1.12 5.331-1.836 6.195-1.532 1.846-.545 4.03 1.471 3.257 1.753-.673 1.849 1.934.149 4.014-4.43 5.421-4.616 5.52-7.197 3.829-1.954-1.28-2.846-1.357-4.636-.399-2.775 1.485-10.028.584-13.472-1.672-1.397-.915-3.156-3.137-3.908-4.938-2.411-5.77-8.537-6.771-8.537-1.395 0 .987-.562 1.986-1.25 2.22-.92.313-.679 1.56.914 4.726 1.19 2.365 1.93 4.911 1.643 5.658-.576 1.502-8.438 1.715-14.062.38zm13.046-.647c.343-.343-.272-2.38-1.367-4.526s-1.863-4.903-1.707-6.126c.431-3.38-1.638-3.533-2.264-.167l-.548 2.943-1.687-3.171c-1.922-3.613-6.086-6.881-10.028-7.871-2.657-.667-3.797.739-1.667 2.056.562.348 2.339 3.239 3.947 6.426s4.333 6.979 6.054 8.427c2.888 2.43 7.785 3.492 9.267 2.01zM24.57 61.335c-1.067-1.513-3.122-5.096-4.567-7.964-3.9-7.741-9.63-9.803-9.63-3.465 0 4.206 3.871 9.353 8.97 11.929 6.162 3.113 7.673 2.968 5.226-.5zm47.736-6.191c-.045-1.039-.429-.809-1.153.691-.597 1.237-1.777 2.25-2.623 2.25-1.229 0-1.166-.272.315-1.355 1.303-.953 1.621-1.918 1.071-3.25-.708-1.715-.894-1.634-1.963.855-.918 2.139-1.447 2.483-2.38 1.55-1.512-1.512-1.552-2.878-.075-2.55.619.138 1.587-1.08 2.152-2.706 1.615-4.648-.625-11.266-5.5-16.254l-4.115-4.21 2.728-1.037c4.902-1.864 10.338-2.287 13.97-1.088 3.248 1.072 3.512 1.438 2.974 4.129-.477 2.383-.294 2.839.948 2.363 1.912-.734 7.282 1.953 8.602 4.304.922 1.643 1.027 1.634 1.712-.145.488-1.266.171-2.303-.956-3.127-1.538-1.124-1.491-1.284.531-1.812 2.167-.567 2.175-.626.368-2.623-1.405-1.553-1.512-2.051-.444-2.075.976-.022.812-.48-.536-1.5-2.192-1.658-5.686-1.927-7.109-.547-.579.561-2.989.512-6.176-.128-4.201-.843-6.539-.719-11.919.633-6.543 1.643-6.739 1.636-8.723-.349l-2.03-2.03 4.949.545C69.603 27.075 80.522 13.144 72.8 5.422c-2.284-2.284-3.183-2.522-8.022-2.12-4.241.352-6.1 1.075-8.382 3.261-3.538 3.389-6.024 8.355-6.024 12.031 0 1.968-.4 2.552-1.468 2.142-2.851-1.094-2.649 1.452.391 4.914 3.379 3.849 3.88 6.525 1.577 8.435-1.885 1.564-3.765.188-5.514-4.033-.676-1.632-1.624-2.967-2.108-2.967-1.32 0-1.114.567 1.71 4.706 2.441 3.579 2.55 4.259 1.915 11.989-.828 10.072-.234 12.102 4.061 13.897 5.791 2.42 12.839 1.624 11.709-1.321-.41-1.069.638-.722 3.313 1.097 3.621 2.463 4.007 2.534 5.163.956.688-.938 1.219-2.407 1.182-3.264zM56.624 22.423c-2.434-.982-1.319-5.897 2.297-10.121 5.462-6.381 13.583-6.893 13.383-.844-.066 2-.116 2.012-.825.202-1.659-4.233-7.047-3.504-11.812 1.599-2.715 2.907-2.585 8.52.186 8.01 1.018-.187 1.452.119 1.062.75-.69 1.116-2.18 1.257-4.291.405zM42.087 47.566l2.787 1.76-2.133-2.225c-2.493-2.602-5.197-2.146-7.251 1.223-1.358 2.227-1.34 2.225 1.215-.128 2.533-2.333 2.66-2.348 5.381-.629zm29.952 1.269c.431-.687 1.02-3.263 1.309-5.724.394-3.35 1.098-4.758 2.802-5.605 2.026-1.007 2.104-1.275.713-2.43-.86-.714-1.434-2.218-1.277-3.343.377-2.687-4.486-3.774-10.828-2.422l-4.59.979 3.543 3.647c4.049 4.168 5.662 7.789 5.662 12.712 0 3.472 1.228 4.479 2.665 2.185zm46.835-14.304c2.97-1.449 2.948-1.459-2.222-1.005-2.872.252-5.486.031-5.809-.491-.345-.558 1.82-.95 5.25-.95 6.076 0 10.282-1.864 10.282-4.557 0-.794.45-1.443 1-1.443 1.748 0 1.069-7.374-.989-10.75-2.328-3.819-2.999-4.102-2.362-1 .254 1.238-.258.69-1.137-1.218-2.41-5.229-2.333-5.215-14.271-2.503l-2.259.513 1.886 3.729c1.93 3.814 4.521 14.174 3.741 14.954-.238.238-.975-2.19-1.636-5.396s-2.052-7.5-3.089-9.543c-1.787-3.519-1.794-3.762-.134-4.634.964-.506 3.777-1.265 6.252-1.688l4.5-.768-3-1.303c-5.823-2.53-12.182-1.592-16.86 2.485-1.786 1.557-1.747 1.647 1 2.253l2.86.632-3.216.118c-3.476.128-10.284 2.977-10.284 4.304 0 .448 1.237.86 2.75.915 2.343.086 2.186.233-1.06.997-8.249 1.941-10.473 5.67-4.44 7.446 1.801.53 3.69 1.96 4.237 3.207.543 1.238 1.754 2.25 2.691 2.25s1.971.433 2.298.962c.374.606 1.504.616 3.05.028 1.734-.659 2.385-.599 2.215.206-.73 3.458 12.925 5.096 18.759 2.25zm-1.185-4.824c.291-.758.081-1.826-.466-2.373-.66-.66-.089-1.223 1.696-1.671 1.48-.372 2.938-.429 3.24-.127s-.27.549-1.271.549c-1.636 0-1.601.189.348 1.88l2.167 1.88-2.264.607c-3.393.909-4.031.772-3.449-.744zm-1.909-6.774c-.391-.633.118-1.758 1.132-2.5 2.397-1.753 3.462-1.706 3.462.152 0 .825.477 1.5 1.059 1.5s.781.45.441 1c-.848 1.372-5.219 1.263-6.094-.152zm3.594-.848c0-.55-.45-1-1-1s-1 .45-1 1 .45 1 1 1 1-.45 1-1zm-5-4.173c0-.455 1.35-.827 3-.827 3.856 0 3.856.647 0 1.213-1.65.242-3 .068-3-.387zm-1-3c0-.455 1.173-.827 2.607-.827 1.945 0 2.456-.394 2.011-1.552-.341-.89-.174-1.291.393-.941 2.007 1.24.9 3.279-2.011 3.706-1.65.242-3 .068-3-.387zm-87 17.654l6.5-2.346c1.65-.593 4.2-1.315 5.667-1.605 1.69-.334 3.506-1.901 4.957-4.279 1.26-2.063 2.666-3.908 3.124-4.099 1.574-.655-1.493-3.153-3.872-3.153-2.05 0-2.378.481-2.378 3.5 0 5.85-5.874 9.766-9 6-.861-1.038-3.132-1.496-7.372-1.486-7.431.017-10.628.782-10.628 2.546 0 .73-.982 2.014-2.182 2.855-2.179 1.526-2.177 1.531 1.25 3.016 3.615 1.567 7.764 1.284 13.932-.951zm11.171-7.135c1.92-1.738 2.498-6.814.888-7.808-.517-.32-1.923.441-3.123 1.691l-2.183 2.272 1.159-2.25c1.473-2.86-.162-3-2.912-.25-2.345 2.345-2.628 5-.531 5 .959 0 1.247-.578.83-1.664-.446-1.161-.264-1.433.6-.899.681.421.981 1.435.667 2.254-1.272 3.314 1.623 4.354 4.606 1.654zm14.161-15.045c2.282-4.381 2.096-6.147-.788-7.461C45.856.618 38.373 6.342 38.373 12.52c0 2.953.235 3.165 3.514 3.165 2.004 0 4.26.746 5.25 1.737 1.648 1.649 1.765 1.596 2.318-1.05.32-1.533 1.333-4.227 2.25-5.987zm33.916 47.45c-4.94-2.734-10.249-7.233-10.249-8.685 0-1.756.909-1.237 3.996 2.278 6.475 7.375 15.859 9.659 17.984 4.377.657-1.632.91-1.772.957-.527.078 2.073-3.62 4.807-6.502 4.807-1.166 0-3.95-1.013-6.186-2.25zm-3.8-7.218c-.797-1.907-1.413-4.495-1.37-5.75.09-2.589.37-2.01 1.887 3.898.642 2.501 1.769 4.363 2.804 4.634 1.581.414 1.575.464-.071.57-1.165.075-2.312-1.108-3.25-3.352zm-5.716-8.656c.678-.683 1.485-.991 1.793-.683s-.247.867-1.233 1.243c-1.425.543-1.54.428-.56-.56z" fill="#5c5d57"/><path d="M17.373 83.585v-6.5h3.929c3.981 0 7.071 1.967 7.071 4.5 0 2.145-2.916 4.5-5.571 4.5-1.762 0-2.429.549-2.429 2 0 1.111-.667 2-1.5 2-1.18 0-1.5-1.389-1.5-6.5zm7.5-2c0-1.313-.773-2.11-2.25-2.32-1.846-.262-2.25.155-2.25 2.32s.404 2.582 2.25 2.32c1.477-.21 2.25-1.007 2.25-2.32zm6.5 6.5c-2.557-2.557-2.557-6.443 0-9 1.1-1.1 3.125-2 4.5-2 5.581 0 8.461 7.039 4.5 11-1.1 1.1-3.125 2-4.5 2s-3.4-.9-4.5-2zm7.571-2.428c.954-3.801-.362-6.572-3.12-6.572-2.692 0-4.119 3.323-2.975 6.928.969 3.053 5.302 2.8 6.094-.356zm6.679 3.766c-2.544-1.026-1.137-1.923 2.375-1.513 4.391.513 4.297-1.375-.194-3.862-3.631-2.012-4.224-4.467-1.44-5.958 2.452-1.312 6.192-.991 6.707.576.222.675-.78.914-2.672.636-4.232-.621-4.054 2.199.216 3.424 1.931.554 3.391 1.698 3.609 2.829.628 3.26-4.449 5.544-8.602 3.868zm13.75-4.838c0-4.833-.242-5.5-2-5.5-1.1 0-2-.45-2-1s2.475-1 5.5-1 5.5.45 5.5 1-.9 1-2 1c-1.758 0-2 .667-2 5.5 0 4.222-.348 5.5-1.5 5.5s-1.5-1.278-1.5-5.5zm10-1v-6.5h4.5c2.475 0 4.5.45 4.5 1s-1.35 1-3 1c-2 0-3 .5-3 1.5s1 1.5 3 1.5c1.65 0 3 .45 3 1s-1.35 1-3 1c-2.667 0-3 .333-3 3 0 2-.5 3-1.5 3-1.18 0-1.5-1.389-1.5-6.5zm12 0c0-5.111.321-6.5 1.5-6.5s1.5 1.389 1.5 6.5-.321 6.5-1.5 6.5-1.5-1.389-1.5-6.5zm6 5.965c0-.294.739-1.663 1.642-3.041 1.423-2.172 1.461-2.867.282-5.215l-1.725-3.459c-.895-1.837 2.463-.521 3.692 1.447l1.372 2.197 1.779-2.197c1.618-1.998 3.958-2.98 3.958-1.662 0 .294-.739 1.663-1.642 3.041-1.423 2.172-1.461 2.867-.282 5.215l1.725 3.459c.895 1.837-2.463.521-3.692-1.447l-1.372-2.197-1.779 2.197c-1.618 1.998-3.958 2.98-3.958 1.662zm-49.75-15.214h41.5c11.412.16 2.075.292-20.75.292s-32.162-.131-20.75-.292zm-13.178-9.339c-2.436-.478-4.911-1.357-5.5-1.953-.77-.779-.28-.785 1.743-.022 3.843 1.451 5.993 1.371 5.033-.187-.445-.721.288-.558 1.733.387 1.377.9 3.384 1.86 4.461 2.134 3.492.887-2.615.594-7.47-.358zm10.199.484c.332-.332 1.195-.368 1.917-.079.798.319.561.556-.604.604-1.054.043-1.645-.193-1.312-.525zm-20.771-6.396c-1.581-1.65-2.649-3-2.374-3s1.793 1.35 3.374 3 2.649 3 2.374 3-1.793-1.35-3.374-3zm53.071 1.114c-.301-.487-3.544-.645-7.205-.351-7.252.582-12.779-1.339-13.886-4.827-.997-3.142-4.571-6.936-6.533-6.936-1.246 0-2.147.951-2.596 2.74-.697 2.775-3.35 6.253-3.35 4.39 0-.557.472-1.304 1.049-1.66 1.452-.897-.91-3.652-2.412-2.812-.625.35-.518.007.238-.761 1.154-1.172 1.455-1.177 1.871-.033.35.961 1.17.52 2.776-1.495 2.187-2.743 2.358-2.788 4.207-1.114 2.65 2.398 3.996 2.204 1.77-.255s-4.209-2.533-6.921-.25c-2.077 1.748-2.077 1.748-.174-.5 2.203-2.602 4.812-2.898 6.595-.75 1.644 1.98 2.756 1.896 3.285-.25.237-.962.418.635.402 3.55-.023 4.045.458 5.788 2.03 7.36 2.251 2.251 9.457 3.515 13.812 2.421 2.327-.584 2.486-.87 1.31-2.363-.736-.934.159-.466 1.989 1.041 3.771 3.106 4.278 3.231 6.033 1.489 1.01-1.002 1.127-.903.593.5-.695 1.825-3.933 2.399-4.882.864zm23.7-.718c.332-.332 1.195-.368 1.917-.079.798.319.561.556-.604.604-1.054.043-1.645-.193-1.312-.525zm-24.594-3.2c-1.807-1.996-2.265-3.677-.746-2.738 1.294.8 2.383-1.253 3.159-5.957l.66-4 .125 3.905.125 3.905 4.5-3.81-1.862 2.203c-1.841 2.177-1.832 2.21.75 2.858 2.857.717 3.492 2.887 1.112 3.8-1.053.404-1.504-.085-1.515-1.643-.015-2.184-.034-2.181-1.25.202-1.625 3.185-3.013 3.535-5.058 1.275zm3.829-.205c.343-.555.32-1.964-.05-3.132-.53-1.669-.861-1.828-1.549-.741-1.166 1.84-1.144 4.882.035 4.882.518 0 1.222-.454 1.564-1.009zm12.994.14c-3.151-1.956-7.929-7.035-7.252-7.712.218-.218 2.724 1.849 5.571 4.593s5.064 4.986 4.929 4.984-1.597-.841-3.247-1.865zm-53.164-1.964c-.906-1.451-.852-1.833.259-1.833.772 0 1.404.825 1.404 1.833s-.117 1.833-.259 1.833-.775-.825-1.404-1.833zM9.503 50.535c-.236-5.469 3.917-7.23 7.545-3.2 3.426 3.805 3.881 5.458.529 1.922-3.958-4.176-6.487-3.886-7.324.84-.616 3.473-.619 3.475-.75.439zm81.517-1.161l1.995-3.152c.137-.2.181.537.098 1.637s-.981 2.518-1.995 3.152c-1.778 1.11-1.781 1.051-.098-1.637zm-64.199.63c-.367-.595-2.081-1.943-3.809-2.996s-2.585-1.917-1.907-1.919c1.28-.004 8.298 5.915 7.075 5.967-.38.016-.992-.457-1.359-1.052zm69.321-.296c-1.606-1.219-1.54-1.485.92-3.718l2.649-2.405-1.641 2.432c-1.213 1.798-1.356 2.775-.547 3.75 1.377 1.659.852 1.637-1.38-.059zM73.45 43.394c-.043-2.305.277-4.411.712-4.68s.627 1.167.428 3.191c-.547 5.534-1.051 6.193-1.14 1.489zm7 2.274c-.043-1.054.193-1.645.525-1.312s.368 1.195.079 1.917c-.319.798-.556.561-.604-.604zm-34.079-6.179c0-3.706-2.637-9.323-4.466-9.51-.569-.058-2.159-.126-3.534-.15-2.27-.04-2.294-.082-.266-.459 1.229-.228 3.668-2.41 5.419-4.85 3.576-4.979 3.862-5.211 3.172-2.573-.287 1.099.139 2.102 1.041 2.449 2.006.77 4.927 6.48 4.237 8.28-1.014 2.643-4.18 1.522-5.902-2.09-.918-1.925-2.126-3.5-2.685-3.5-1.462 0-1.304.486 1.484 4.595 1.599 2.356 2.5 5.076 2.5 7.544 0 2.123-.225 3.861-.5 3.861s-.5-1.618-.5-3.596zm20.607 1.167c-.348-1.387-2.518-4.333-4.822-6.547s-3.91-4.025-3.569-4.025 1.444-.267 2.451-.594c1.442-.468 1.529-.379.407.417-1.167.828-.874 1.476 1.62 3.574 2.972 2.501 6.087 8.154 5.06 9.182-.283.283-.799-.62-1.147-2.007zm25.393 1.643c-3.503-.417-6.984-2.315-8.113-4.425-1.293-2.416-.4-2.256 2.045.368 1.793 1.924 2.079 1.977 2.651.487.352-.919.085-2.339-.593-3.157-1.006-1.212-.934-1.487.388-1.487 2.082 0 2.049-.854-.128-3.343-.963-1.1-1.187-1.672-.5-1.27 1.616.945 1.616-.593 0-2.334-1.005-1.082-.993-1.201.062-.603.721.409 1.733 1.852 2.248 3.207s1.356 2.204 1.869 1.887 1.184-.17 1.491.326-.337 1.137-1.431 1.423c-1.154.302-1.989 1.365-1.989 2.532 0 1.106-.273 2.724-.607 3.594-.492 1.282.161 1.582 3.441 1.582 2.226 0 4.266.354 4.534.786.503.814-1.071.94-5.368.428zm-13.039-4.214c-.109-.825-.133-1.871-.054-2.324s-.287-.559-.812-.234-1.2.195-1.499-.288c-.47-.761.92-.836 4.905-.266.603.086.563.435-.1.878-.605.404-1.357 1.41-1.671 2.235-.508 1.333-.593 1.333-.768 0zm32.039-1.936c4.125-.349 8.175-1.037 9-1.53 2.752-1.644 5.965-5.019 5.983-6.284.01-.687.483-1.25 1.052-1.25 1.413 0-.226 2.917-3.193 5.683-3.457 3.223-7.235 4.335-14.157 4.166l-6.185-.151zm-95.25-.727c.688-.277 1.813-.277 2.5 0s.125.504-1.25.504-1.938-.227-1.25-.504zm-5.981-1.407C7.301 32.36 3.371 24.7 3.371 20.818c0-3.281 2.008-6.734 3.916-6.734 1.515 0 4.195 3.82 5.178 7.382.549 1.99 1.446 3.618 1.992 3.618.999 0-.077 1.566-3.367 4.901-1.858 1.884-1.234 3.085 2.28 4.386 1.333.494 1.333.561 0 .604-.825.027-2.279-.405-3.231-.96zM8.185 21.911c-.359-3.631-2.348-4.869-3.251-2.023-.801 2.523.284 5.196 2.108 5.196 1.035 0 1.366-.918 1.143-3.173zm16.687 11.293c8.672-3.147 9.124-3.221 4-.652-2.75 1.379-5.9 2.498-7 2.487s.25-.836 3-1.834zm70.583.515c.229-.2 1.419-.886 2.644-1.523 1.872-.974 2.134-.916 1.643.365-.321.838-1.511 1.523-2.644 1.523s-1.872-.164-1.643-.365zm21.167-1.325c.963-.252 2.537-.252 3.5 0s.175.457-1.75.457-2.713-.206-1.75-.457zm-40.25-2.252c0-.582.45-1.059 1-1.059 1.281 0 1.281.708 0 1.5-.55.34-1 .141-1-.441zm41.379-.604c.256-.666-.04-1.716-.657-2.333-.829-.829-.827-1.122.007-1.122.621 0 1.731.603 2.468 1.339s2.006 1.566 2.821 1.842 0 .724-1.811.994c-2.319.346-3.156.133-2.828-.72zm-63.773-2.338c-1.649-1.822-1.559-1.866 2.785-1.377 2.469.278 5.633.219 7.03-.132 3.445-.865 9.573-6.393 11.184-10.09.723-1.66 1.333-2.318 1.354-1.463.047 1.883-4.33 7.995-6.731 9.398-1.457.851-1.178 1.111 1.77 1.647l3.5.636-4 .144c-2.2.079-6.475.808-9.5 1.62l-5.595 1.488c-.052.006-.862-.835-1.799-1.871zm9.665 1.279c.332-.332 1.195-.368 1.917-.079.798.319.561.556-.604.604-1.054.043-1.645-.193-1.312-.525zm9 0c.332-.332 1.195-.368 1.917-.079.798.319.561.556-.604.604-1.054.043-1.645-.193-1.312-.525zm-40.398-2.146c-1.269-1.619-1.222-1.64.628-.283l2.417 1.75c.229.156-.053.283-.628.283s-1.662-.788-2.417-1.75zm4.438-1.551c-.059-1.209.111-1.634.376-.943s.895 1.002 1.398.691c1.374-.849 1.1.154-.376 1.379-.985.818-1.316.551-1.398-1.128zm42.189 1.244c5.066-1.048 9.159-1.001 5 .057-1.65.42-4.35.765-6 .767-2.522.003-2.363-.128 1-.824zm31.579-1.359c-.043-1.054.193-1.645.525-1.312s.368 1.195.079 1.917c-.319.798-.556.561-.604-.604zm-88.329-.324c4.506-.256 6.25-.744 6.25-1.748 0-.766.337-1.602.75-1.857s.75.619.75 1.941c0 2.329-.221 2.398-7 2.212l-7-.193zm106.5-2.76c-.011-2.2.185-3.218.435-2.262s.259 2.756.02 4-.444.462-.455-1.738zm-12.586 1.833c-1.24-1.24-.676-2.394 1.583-3.241 1.689-.633 2.406-.438 2.875.782.344.894.43 1.963.191 2.375-.538.929-3.746.987-4.649.083zm3.333-1.333c0-.55-.423-1-.941-1s-1.219.45-1.559 1 .084 1 .941 1 1.559-.45 1.559-1zm-80-1.941c0-2.636-1.736-3.517-3.736-1.895-1.175.953-1.433.977-.897.086.917-1.527.185-1.58-2.683-.195-2.11 1.019-2.118 1.002-.243-.5 1.068-.855 2.755-1.555 3.75-1.555s1.809-.468 1.809-1.039c0-.629.513-.56 1.301.176 1.256 1.174 2.264 6.864 1.215 6.864-.284 0-.516-.873-.516-1.941zm16.525.56c-1.461-3.275 5.079-12.619 8.833-12.619.598 0-.025.765-1.385 1.7-3.538 2.433-5.389 5.281-6.041 9.298-.471 2.905-.711 3.182-1.407 1.622zm-7.525-.668c0-.577-1.462-1.684-3.25-2.461s-2.563-1.43-1.722-1.452 2.496.639 3.679 1.468c2.001 1.402 2.182 1.349 2.586-.75.316-1.641.471-1.37.571.993.075 1.788-.314 3.25-.864 3.25s-1-.472-1-1.048zm38.285-3.397c2.541-2.505 5.228-4.555 5.971-4.555s2.878-1.575 4.743-3.5 3.789-3.5 4.273-3.5-.523 1.181-2.238 2.624-2.861 2.882-2.546 3.197-1.353 1.279-3.708 2.143c-2.41.884-4.7 2.517-5.24 3.738-.527 1.192-2.065 2.671-3.417 3.287-1.755.8-1.136-.183 2.162-3.435zm22.794 3.029c-.043-1.054.193-1.645.525-1.312s.368 1.195.079 1.917c-.319.798-.556.561-.604-.604zm-19.329-2.246c.688-.277 1.813-.277 2.5 0s.125.504-1.25.504-1.937-.227-1.25-.504zm26 0c.688-.277 1.813-.277 2.5 0s.125.504-1.25.504-1.937-.227-1.25-.504zm-8.291-1.404c-.363-.587-.445-1.281-.183-1.543s.743.218 1.069 1.067c.676 1.762.1 2.072-.886.477zm8.368-1.649c1.55-.295 2.138-.935 1.761-1.916-.317-.827-.132-1.205.424-.861 2.124 1.313.98 3.492-1.761 3.357-2.469-.122-2.513-.181-.424-.58zm8.942-1.284c-.687-1.1-1.623-2-2.08-2s-1.506-.675-2.332-1.501c-.923-.923-2.531-1.302-4.179-.985-2.209.426-2.327.357-.678-.394 1.917-.872 1.896-.954-.5-1.952-1.375-.573-1.915-1.07-1.2-1.105 3.073-.15 10.513 4.784 12.328 8.175 1.297 2.424.18 2.228-1.36-.239zm-74.764.618c-.002-.485.883-2.317 1.966-4.07 1.794-2.903 1.834-3.383.443-5.368-.965-1.378-2.582-2.18-4.394-2.18-3.158 0-8.707 4.095-10.051 7.418-.619 1.53-.859 1.648-.905.448-.035-.899 1.738-3.261 3.94-5.25C46 .52 50.241-.044 53.387 3.101c1.873 1.873 2.227 1.909 4.95.5 1.613-.834 5.127-1.517 7.809-1.517 4.023 0 5.299.47 7.3 2.688L75.87 7.46l-2.885-2.188c-4.304-3.264-11.465-3.027-15.679.52-1.77 1.489-4.053 4.077-5.073 5.75s-1.857 2.646-1.859 2.161zm20.625-3.142c-.322-.838-1.607-1.935-2.857-2.437-1.611-.647-1.784-.931-.594-.976 1.785-.067 4.821 2.457 4.821 4.008 0 1.419-.718 1.107-1.371-.595zm4.529-.476c0-1.375.227-1.937.504-1.25s.277 1.813 0 2.5-.504.125-.504-1.25zm34.113-.604c.332-.332 1.195-.368 1.917-.079.798.319.561.556-.604.604-1.054.043-1.645-.193-1.312-.525zm-4.032-5.083c.956-.25 2.756-.259 4-.02s.462.444-1.738.455-3.218-.185-2.262-.435z" fill="#cc000d"/><path d="M17.373 83.585v-6.5h3.929c3.981 0 7.071 1.967 7.071 4.5 0 2.145-2.916 4.5-5.571 4.5-1.762 0-2.429.549-2.429 2 0 1.111-.667 2-1.5 2-1.18 0-1.5-1.389-1.5-6.5zm7.5-2c0-1.313-.773-2.11-2.25-2.32-1.846-.262-2.25.155-2.25 2.32s.404 2.582 2.25 2.32c1.477-.21 2.25-1.007 2.25-2.32zm6.5 6.5c-2.557-2.557-2.557-6.443 0-9 1.1-1.1 3.125-2 4.5-2 5.581 0 8.461 7.039 4.5 11-1.1 1.1-3.125 2-4.5 2s-3.4-.9-4.5-2zm7.571-2.428c.954-3.801-.362-6.572-3.12-6.572-2.692 0-4.119 3.323-2.975 6.928.969 3.053 5.302 2.8 6.094-.356zm6.679 3.766c-2.544-1.026-1.137-1.923 2.375-1.513 4.391.513 4.297-1.375-.194-3.862-3.631-2.012-4.224-4.467-1.44-5.958 2.452-1.312 6.192-.991 6.707.576.222.675-.78.914-2.672.636-4.232-.621-4.054 2.199.216 3.424 1.931.554 3.391 1.698 3.609 2.829.628 3.26-4.449 5.544-8.602 3.868zm13.75-4.838c0-4.833-.242-5.5-2-5.5-1.1 0-2-.45-2-1s2.475-1 5.5-1 5.5.45 5.5 1-.9 1-2 1c-1.758 0-2 .667-2 5.5 0 4.222-.348 5.5-1.5 5.5s-1.5-1.278-1.5-5.5zm10-1v-6.5h4.5c2.475 0 4.5.45 4.5 1s-1.35 1-3 1c-2 0-3 .5-3 1.5s1 1.5 3 1.5c1.65 0 3 .45 3 1s-1.35 1-3 1c-2.667 0-3 .333-3 3 0 2-.5 3-1.5 3-1.18 0-1.5-1.389-1.5-6.5zm12 0c0-5.111.321-6.5 1.5-6.5s1.5 1.389 1.5 6.5-.321 6.5-1.5 6.5-1.5-1.389-1.5-6.5zm6 5.965c0-.294.739-1.663 1.642-3.041 1.423-2.172 1.461-2.867.282-5.215l-1.725-3.459c-.895-1.837 2.463-.521 3.692 1.447l1.372 2.197 1.779-2.197c1.618-1.998 3.958-2.98 3.958-1.662 0 .294-.739 1.663-1.642 3.041-1.423 2.172-1.461 2.867-.282 5.215l1.725 3.459c.895 1.837-2.463.521-3.692-1.447l-1.372-2.197-1.779 2.197c-1.618 1.998-3.958 2.98-3.958 1.662zm-49.75-15.214h41.5c11.412.16 2.075.292-20.75.292s-32.162-.131-20.75-.292zm-13.178-9.339c-2.436-.478-4.911-1.357-5.5-1.953-.77-.779-.28-.785 1.743-.022 3.843 1.451 5.993 1.371 5.033-.187-.445-.721.288-.558 1.733.387 1.377.9 3.384 1.86 4.461 2.134 3.492.887-2.615.594-7.47-.358zm10.199.484c.332-.332 1.195-.368 1.917-.079.798.319.561.556-.604.604-1.054.043-1.645-.193-1.312-.525zm-20.771-6.396c-1.581-1.65-2.649-3-2.374-3s1.793 1.35 3.374 3 2.649 3 2.374 3-1.793-1.35-3.374-3zm53.071 1.114c-.301-.487-3.544-.645-7.205-.351-7.252.582-12.779-1.339-13.886-4.827-.997-3.142-4.571-6.936-6.533-6.936-1.246 0-2.147.951-2.596 2.74-.697 2.775-3.35 6.253-3.35 4.39 0-.557.472-1.304 1.049-1.66 1.452-.897-.91-3.652-2.412-2.812-.625.35-.518.007.238-.761 1.154-1.172 1.455-1.177 1.871-.033.35.961 1.17.52 2.776-1.495 2.187-2.743 2.358-2.788 4.207-1.114 2.65 2.398 3.996 2.204 1.77-.255s-4.209-2.533-6.921-.25c-2.077 1.748-2.077 1.748-.174-.5 2.203-2.602 4.812-2.898 6.595-.75 1.644 1.98 2.756 1.896 3.285-.25.237-.962.418.635.402 3.55-.023 4.045.458 5.788 2.03 7.36 2.251 2.251 9.457 3.515 13.812 2.421 2.327-.584 2.486-.87 1.31-2.363-.736-.934.159-.466 1.989 1.041 3.771 3.106 4.278 3.231 6.033 1.489 1.01-1.002 1.127-.903.593.5-.695 1.825-3.933 2.399-4.882.864zm23.7-.718c.332-.332 1.195-.368 1.917-.079.798.319.561.556-.604.604-1.054.043-1.645-.193-1.312-.525zm-24.594-3.2c-1.807-1.996-2.265-3.677-.746-2.738 1.294.8 2.383-1.253 3.159-5.957l.66-4 .125 3.905.125 3.905 4.5-3.81-1.862 2.203c-1.841 2.177-1.832 2.21.75 2.858 2.857.717 3.492 2.887 1.112 3.8-1.053.404-1.504-.085-1.515-1.643-.015-2.184-.034-2.181-1.25.202-1.625 3.185-3.013 3.535-5.058 1.275zm3.829-.205c.343-.555.32-1.964-.05-3.132-.53-1.669-.861-1.828-1.549-.741-1.166 1.84-1.144 4.882.035 4.882.518 0 1.222-.454 1.564-1.009zm12.994.14c-3.151-1.956-7.929-7.035-7.252-7.712.218-.218 2.724 1.849 5.571 4.593s5.064 4.986 4.929 4.984-1.597-.841-3.247-1.865zm-53.164-1.964c-.906-1.451-.852-1.833.259-1.833.772 0 1.404.825 1.404 1.833s-.117 1.833-.259 1.833-.775-.825-1.404-1.833zM9.503 50.535c-.236-5.469 3.917-7.23 7.545-3.2 3.426 3.805 3.881 5.458.529 1.922-3.958-4.176-6.487-3.886-7.324.84-.616 3.473-.619 3.475-.75.439zm81.517-1.161l1.995-3.152c.137-.2.181.537.098 1.637s-.981 2.518-1.995 3.152c-1.778 1.11-1.781 1.051-.098-1.637zm-64.199.63c-.367-.595-2.081-1.943-3.809-2.996s-2.585-1.917-1.907-1.919c1.28-.004 8.298 5.915 7.075 5.967-.38.016-.992-.457-1.359-1.052zm69.321-.296c-1.606-1.219-1.54-1.485.92-3.718l2.649-2.405-1.641 2.432c-1.213 1.798-1.356 2.775-.547 3.75 1.377 1.659.852 1.637-1.38-.059zM73.45 43.394c-.043-2.305.277-4.411.712-4.68s.627 1.167.428 3.191c-.547 5.534-1.051 6.193-1.14 1.489zm7 2.274c-.043-1.054.193-1.645.525-1.312s.368 1.195.079 1.917c-.319.798-.556.561-.604-.604zm-34.079-6.179c0-3.706-2.637-9.323-4.466-9.51-.569-.058-2.159-.126-3.534-.15-2.27-.04-2.294-.082-.266-.459 1.229-.228 3.668-2.41 5.419-4.85 3.357-4.675 4.155-5.405 3.207-2.933-.317.826.269 2.289 1.303 3.25s1.442 1.41.908.998c-1.533-1.184-2.76-.875-1.983.5.565 1 .436 1-.641 0-1.91-1.772-3.445-1.555-1.928.273 1.057 1.273.995 1.42-.378.893-2.221-.852-2.075-.144.859 4.179 1.599 2.356 2.5 5.076 2.5 7.544 0 2.123-.225 3.861-.5 3.861s-.5-1.618-.5-3.596zm20.607 1.167c-.348-1.387-2.518-4.333-4.822-6.547s-3.91-4.025-3.569-4.025 1.444-.267 2.451-.594c1.442-.468 1.529-.379.407.417-1.167.828-.874 1.476 1.62 3.574 2.972 2.501 6.087 8.154 5.06 9.182-.283.283-.799-.62-1.147-2.007zm25.393 1.643c-3.503-.417-6.984-2.315-8.113-4.425-1.293-2.416-.4-2.256 2.045.368 1.793 1.924 2.079 1.977 2.651.487.352-.919.085-2.339-.593-3.157-1.006-1.212-.934-1.487.388-1.487 2.082 0 2.049-.854-.128-3.343-.963-1.1-1.187-1.672-.5-1.27 1.616.945 1.616-.593 0-2.334-1.005-1.082-.993-1.201.062-.603.721.409 1.733 1.852 2.248 3.207s1.356 2.204 1.869 1.887 1.184-.17 1.491.326-.337 1.137-1.431 1.423c-1.154.302-1.989 1.365-1.989 2.532 0 1.106-.273 2.724-.607 3.594-.492 1.282.161 1.582 3.441 1.582 2.226 0 4.266.354 4.534.786.503.814-1.071.94-5.368.428zm-13.039-4.214c-.109-.825-.133-1.871-.054-2.324s-.287-.559-.812-.234-1.2.195-1.499-.288c-.47-.761.92-.836 4.905-.266.603.086.563.435-.1.878-.605.404-1.357 1.41-1.671 2.235-.508 1.333-.593 1.333-.768 0zm32.039-1.936c4.125-.349 8.175-1.037 9-1.53 2.752-1.644 5.965-5.019 5.983-6.284.01-.687.483-1.25 1.052-1.25 1.413 0-.226 2.917-3.193 5.683-3.457 3.223-7.235 4.335-14.157 4.166l-6.185-.151zm-95.25-.727c.688-.277 1.813-.277 2.5 0s.125.504-1.25.504-1.938-.227-1.25-.504zm-5.981-1.407C7.301 32.36 3.371 24.7 3.371 20.818c0-3.281 2.008-6.734 3.916-6.734 1.515 0 4.195 3.82 5.178 7.382.549 1.99 1.446 3.618 1.992 3.618.999 0-.077 1.566-3.367 4.901-1.858 1.884-1.234 3.085 2.28 4.386 1.333.494 1.333.561 0 .604-.825.027-2.279-.405-3.231-.96zM8.185 21.911c-.359-3.631-2.348-4.869-3.251-2.023-.801 2.523.284 5.196 2.108 5.196 1.035 0 1.366-.918 1.143-3.173zm16.687 11.293c8.672-3.147 9.124-3.221 4-.652-2.75 1.379-5.9 2.498-7 2.487s.25-.836 3-1.834zm21.682-1.62c-.626-1.375-.975-2.5-.776-2.5s1.101 1.125 2.002 2.5 1.25 2.5.776 2.5-1.375-1.125-2.002-2.5zm4.549.42c.354-1.352.807-1.805 1.057-1.057.24.721-.038 1.787-.619 2.368-.742.742-.872.352-.437-1.312zm44.352 1.716c.229-.2 1.419-.886 2.644-1.523 1.872-.974 2.134-.916 1.643.365-.321.838-1.511 1.523-2.644 1.523s-1.872-.164-1.643-.365zm21.167-1.325c.963-.252 2.537-.252 3.5 0s.175.457-1.75.457-2.713-.206-1.75-.457zm-40.25-2.252c0-.582.45-1.059 1-1.059 1.281 0 1.281.708 0 1.5-.55.34-1 .141-1-.441zm41.379-.604c.256-.666-.154-1.831-.771-2.447-.829-.829-.942-1.236-.108-1.236.621 0 1.96.832 2.697 1.568s2.006 1.566 2.821 1.842 0 .724-1.811.994c-2.319.346-3.156.133-2.828-.72zm-63.773-2.338c-1.649-1.822-1.559-1.866 2.785-1.377 2.469.278 5.633.219 7.03-.132 3.445-.865 9.573-6.393 11.184-10.09.723-1.66 1.333-2.318 1.354-1.463.047 1.883-4.33 7.995-6.731 9.398-1.457.851-1.178 1.111 1.77 1.647l3.5.636-4 .144c-2.2.079-6.475.808-9.5 1.62l-5.595 1.488c-.052.006-.862-.835-1.799-1.871zm9.665 1.279c.332-.332 1.195-.368 1.917-.079.798.319.561.556-.604.604-1.054.043-1.645-.193-1.312-.525zm9 0c.332-.332 1.195-.368 1.917-.079.798.319.561.556-.604.604-1.054.043-1.645-.193-1.312-.525zm-40.398-2.146c-1.269-1.619-1.222-1.64.628-.283l2.417 1.75c.229.156-.053.283-.628.283s-1.662-.788-2.417-1.75zm4.438-1.551c-.059-1.209.111-1.634.376-.943s.895 1.002 1.398.691c1.374-.849 1.1.154-.376 1.379-.985.818-1.316.551-1.398-1.128zm42.189 1.244c5.066-1.048 9.159-1.001 5 .057-1.65.42-4.35.765-6 .767-2.522.003-2.363-.128 1-.824zm31.579-1.359c-.043-1.054.193-1.645.525-1.312s.368 1.195.079 1.917c-.319.798-.556.561-.604-.604zm-88.329-.324c4.506-.256 6.25-.744 6.25-1.748 0-.766.337-1.602.75-1.857s.75.619.75 1.941c0 2.329-.221 2.398-7 2.212l-7-.193zm106.5-2.76c-.011-2.2.185-3.218.435-2.262s.259 2.756.02 4-.444.462-.455-1.738zm-12.586 1.833c-1.24-1.24-.676-2.394 1.583-3.241 1.689-.633 2.406-.438 2.875.782.344.894.43 1.963.191 2.375-.538.929-3.746.987-4.649.083zm3.333-1.333c0-.55-.423-1-.941-1s-1.219.45-1.559 1 .084 1 .941 1 1.559-.45 1.559-1zm-80-1.941c0-2.636-1.736-3.517-3.736-1.895-1.175.953-1.433.977-.897.086.917-1.527.185-1.58-2.683-.195-2.11 1.019-2.118 1.002-.243-.5 1.068-.855 2.755-1.555 3.75-1.555s1.809-.468 1.809-1.039c0-.629.513-.56 1.301.176 1.256 1.174 2.264 6.864 1.215 6.864-.284 0-.516-.873-.516-1.941zm16.525.56c-1.461-3.275 5.079-12.619 8.833-12.619.598 0-.025.765-1.385 1.7-3.538 2.433-5.389 5.281-6.041 9.298-.471 2.905-.711 3.182-1.407 1.622zm-7.525-.668c0-.577-1.462-1.684-3.25-2.461s-2.563-1.43-1.722-1.452 2.496.639 3.679 1.468c2.001 1.402 2.182 1.349 2.586-.75.316-1.641.471-1.37.571.993.075 1.788-.314 3.25-.864 3.25s-1-.472-1-1.048zm38.285-3.397c2.541-2.505 5.228-4.555 5.971-4.555s2.878-1.575 4.743-3.5 3.789-3.5 4.273-3.5-.523 1.181-2.238 2.624-2.861 2.882-2.546 3.197-1.353 1.279-3.708 2.143c-2.41.884-4.7 2.517-5.24 3.738-.527 1.192-2.065 2.671-3.417 3.287-1.755.8-1.136-.183 2.162-3.435zm22.794 3.029c-.043-1.054.193-1.645.525-1.312s.368 1.195.079 1.917c-.319.798-.556.561-.604-.604zM90.12 17.422c.688-.277 1.813-.277 2.5 0s.125.504-1.25.504-1.937-.227-1.25-.504zm26 0c.688-.277 1.813-.277 2.5 0s.125.504-1.25.504-1.937-.227-1.25-.504zm-8.291-1.404c-.363-.587-.445-1.281-.183-1.543s.743.218 1.069 1.067c.676 1.762.1 2.072-.886.477zm8.368-1.649c1.55-.295 2.138-.935 1.761-1.916-.317-.827-.132-1.205.424-.861 2.124 1.313.98 3.492-1.761 3.357-2.469-.122-2.513-.181-.424-.58zm8.942-1.284c-.687-1.1-1.623-2-2.08-2s-1.506-.675-2.332-1.501c-.923-.923-2.531-1.302-4.179-.985-2.209.426-2.327.357-.678-.394 1.917-.872 1.896-.954-.5-1.952-1.375-.573-1.915-1.07-1.2-1.105 3.073-.15 10.513 4.784 12.328 8.175 1.297 2.424.18 2.228-1.36-.239zm-74.764.618c-.002-.485.883-2.317 1.966-4.07 1.794-2.903 1.834-3.383.443-5.368-.965-1.378-2.582-2.18-4.394-2.18-3.158 0-8.707 4.095-10.051 7.418-.619 1.53-.859 1.648-.905.448-.035-.899 1.738-3.261 3.94-5.25C46 .52 50.241-.044 53.387 3.101c1.873 1.873 2.227 1.909 4.95.5 1.613-.834 5.127-1.517 7.809-1.517 4.023 0 5.299.47 7.3 2.688L75.87 7.46l-2.885-2.188c-4.304-3.264-11.465-3.027-15.679.52-1.77 1.489-4.053 4.077-5.073 5.75s-1.857 2.646-1.859 2.161zm20.625-3.142c-.322-.838-1.607-1.935-2.857-2.437-1.611-.647-1.784-.931-.594-.976 1.785-.067 4.821 2.457 4.821 4.008 0 1.419-.718 1.107-1.371-.595zm4.529-.476c0-1.375.227-1.937.504-1.25s.277 1.813 0 2.5-.504.125-.504-1.25zm34.113-.604c.332-.332 1.195-.368 1.917-.079.798.319.561.556-.604.604-1.054.043-1.645-.193-1.312-.525zm-4.032-5.083c.956-.25 2.756-.259 4-.02s.462.444-1.738.455-3.218-.185-2.262-.435z" fill="#2d2f2b"/><path d="M17.373 83.585v-6.5h3.5c4.631 0 8.015 3.17 6.468 6.059-.593 1.107-2.403 2.278-4.023 2.602-2.004.401-2.946 1.189-2.946 2.464 0 1.031-.675 1.875-1.5 1.875-1.18 0-1.5-1.389-1.5-6.5zm8-2c0-2-.5-2.5-2.5-2.5s-2.5.5-2.5 2.5.5 2.5 2.5 2.5 2.5-.5 2.5-2.5zm6.454 6.046c-1.35-1.35-2.454-3.171-2.454-4.046 0-2.059 4.441-6.5 6.5-6.5s6.5 4.441 6.5 6.5c0 .875-1.105 2.695-2.455 4.046s-3.17 2.454-4.045 2.454-2.695-1.105-4.045-2.454zm7.045-4.046c0-3.778-.167-4-3-4-2.551 0-3.048.424-3.325 2.835-.5 4.37.457 5.841 3.569 5.483 2.496-.287 2.756-.695 2.756-4.317zm7 5.521c-1.621-.714-1.289-.894 1.75-.951 4.367-.082 5.276-2.649 1.291-3.649-3.1-.778-4.748-2.718-3.989-4.696.761-1.984 4.068-2.821 6.795-1.721 1.886.761 1.75.876-1.097.932-4.214.082-4.245 2.256-.059 4.133 1.755.787 3.322 1.88 3.484 2.43.838 2.86-4.477 5.149-8.174 3.521zm13.5-4.521c0-4.833-.242-5.5-2-5.5-1.1 0-2-.45-2-1s2.475-1 5.5-1 5.5.45 5.5 1-.9 1-2 1c-1.758 0-2 .667-2 5.5 0 4.222-.348 5.5-1.5 5.5s-1.5-1.278-1.5-5.5zm10-1v-6.5h4.5c2.475 0 4.5.45 4.5 1s-1.35 1-3 1c-2 0-3 .5-3 1.5s1 1.5 3 1.5c1.65 0 3 .45 3 1s-1.35 1-3 1c-2.667 0-3 .333-3 3 0 2-.5 3-1.5 3-1.18 0-1.5-1.389-1.5-6.5zm12 0c0-5.111.321-6.5 1.5-6.5s1.5 1.389 1.5 6.5-.321 6.5-1.5 6.5-1.5-1.389-1.5-6.5zm6.022 5.75c.012-.412.883-1.87 1.934-3.239 1.886-2.455 1.885-2.532-.104-5.75-1.478-2.392-1.658-3.261-.675-3.261.738 0 1.958.989 2.713 2.197l1.372 2.197 1.779-2.197c2.803-3.462 4.462-2.682 2.13 1.001l-2.025 3.198 2.036 2.859c2.45 3.441 1.415 5.192-1.179 1.994-2.245-2.769-3.168-2.818-4.772-.25-1.219 1.953-3.254 2.745-3.21 1.25zM37.623 74.336h41.5c11.412.16 2.075.292-20.75.292s-32.162-.131-20.75-.292zm-13-9.94c.962-.252 2.538-.252 3.5 0s.175.457-1.75.457-2.712-.206-1.75-.457zm40.75-4.894c-1.375-.763-2.107-1.394-1.628-1.402s.272-.802-.462-1.765-.001-.569 1.628.875 3.637 2.871 4.462 3.171c1.333.485 1.333.544 0 .527-.825-.011-2.625-.643-4-1.406zm-12.729-.021c.332-.332 1.195-.368 1.917-.079.798.319.561.556-.604.604-1.054.043-1.645-.193-1.312-.525zm-4.866-2.646l-1.905-2.25 2.5 1.989c1.375 1.094 2.688 2.107 2.917 2.25s-.039.261-.595.261-1.869-1.013-2.917-2.25zm-17.841-2.457c-.543-1.425-.428-1.54.56-.56.683.678.991 1.485.683 1.793s-.867-.247-1.243-1.233zm4.815-1.673c.126-.859.509-1.842.85-2.183s.517.083.391.942-.509 1.842-.85 2.183-.517-.083-.391-.942zm35.278-.07c-.371-.967-.076-1.265.887-.895.794.305 1.194.957.89 1.449-.766 1.24-1.133 1.126-1.777-.554zm-25.643-2.634c.008-1.329.458-3.092.999-3.917.692-1.055.793-.462.341 2-.791 4.313-1.36 5.126-1.34 1.917zm24.064-2.333c-.043-1.054.193-1.645.525-1.312s.368 1.195.079 1.917c-.319.798-.556.561-.604-.604zm-56.329-2.246c.688-.277 1.813-.277 2.5 0s.125.504-1.25.504-1.937-.227-1.25-.504zm72.814-7.045c-.543-1.425-.428-1.54.56-.56.683.678.991 1.485.683 1.793s-.867-.247-1.243-1.233zm-5.485-.71c-.043-1.054.193-1.645.525-1.312s.368 1.195.079 1.917c-.319.798-.556.561-.604-.604zm10-2c-.043-1.054.193-1.645.525-1.312s.368 1.195.079 1.917c-.319.798-.556.561-.604-.604zm27.192-3.187c.332-.332 1.195-.368 1.917-.079.798.319.561.556-.604.604-1.054.043-1.645-.193-1.312-.525zM6.563 29.354c-2.546-3.575-2.765-4.704-.765-3.936 1.946.747 3.798-1.72 3.4-4.529-.507-3.574-4.145-3.063-4.949.695l-.642 3-.118-2.816c-.3-7.128 4.862-9.142 7.519-2.934l2.302 5.186c.851 1.753-.996 6.046-2.606 6.057-.642.004-1.343.536-1.558 1.182s-1.378-.211-2.583-1.904zm116.81 2.337c0-.216.698-.661 1.552-.989.89-.341 1.291-.174.941.393-.587.95-2.493 1.405-2.493.596zm-4.675-2.265c.362-.362-.244-1.26-.927-2.136-.882-.651-.623-1.293.852-.334 2.005 1.573 5.271 3.128 3.559 3.128-.642 0-3.846-.296-3.484-.658zm-77.082-1.854c1.456-1.589 1.95-1.68 3-.549 1.012 1.09 1.005 1.211-.037.621-.712-.403-2.062-.156-3 .549-1.536 1.154-1.532 1.092.037-.621zm18.334-.455c.592-.597 3.517-1.284 6.5-1.526l5.423-.44-4.85.898c-2.668.494-5.593 1.18-6.5 1.526-1.183.45-1.345.321-.573-.458zm-14.838-1.433c-1.572-1.193-1.596-1.473-.227-2.61 1.301-1.08 1.429-.999.841.532-.424 1.104-.303 1.565.31 1.185.552-.341 1.003.035 1.003.836s-.038 1.442-.083 1.424-.876-.633-1.844-1.368zm70.72-2.666c-.363-.587-.389-1.337-.059-1.667s.6-.023.6.683c0 .791.767 1.083 2.001.76 1.101-.288 1.749-.115 1.441.383-.766 1.24-3.178 1.143-3.984-.16zM56.07 20.692c-.409-1.041-.508-2.129-.22-2.417.912-.912 1.715.583 1.332 2.482-.35 1.74-.404 1.737-1.112-.065zm-6.502-2.107c-.02-1.65.187-2.446.461-1.769s.291 2.027.037 3-.478.419-.498-1.231zm-14.195-1.487c0-1.175 2.848-2.068 3.457-1.083.286.463-.374 1.077-1.468 1.363s-1.989.16-1.989-.279zm81.271.382c.332-.332 1.195-.368 1.917-.079.798.319.561.556-.604.604-1.054.043-1.645-.193-1.312-.525zm-1.271-2.779c0-.211.9-.619 2-.906s2-.115 2 .383-.9.906-2 .906-2-.173-2-.383zm-20-3.558c0-.518.445-1.216.989-1.552.567-.35.735.051.393.941-.665 1.732-1.382 2.049-1.382.611zm21.507-4.048c-.35-.567.051-.735.941-.393 1.732.665 2.049 1.382.611 1.382-.518 0-1.216-.445-1.552-.989zM53.937 5.378c-.543-1.425-.428-1.54.56-.56.683.678.991 1.485.683 1.793s-.867-.247-1.243-1.233z" fill="#060705"/></svg>