<?xml version="1.0" encoding="utf-8"?>
<!-- Generator: Adobe Illustrator 26.0.1, SVG Export Plug-In . SVG Version: 6.00 Build 0)  -->
<svg version="1.1" id="Layer_1" xmlns="http://www.w3.org/2000/svg" xmlns:xlink="http://www.w3.org/1999/xlink" x="0px" y="0px"
	 viewBox="0 0 1600 370" style="enable-background:new 0 0 1600 370;" xml:space="preserve">
<style type="text/css">
	.st0{fill:#D11E5C;}
</style>
<g transform="matrix(4.339739 0 0 4.339739 4.49071 6.419748)">
	<rect x="95.2" y="14.9" class="st0" width="3.9" height="4.2"/>
	<rect x="95.9" y="22.1" class="st0" width="3.8" height="4"/>
	<rect x="108.8" y="24.1" class="st0" width="4.3" height="4.6"/>
	<rect x="65.8" y="16.8" class="st0" width="2.9" height="3.1"/>
	<rect x="75.1" y="16.7" class="st0" width="3.1" height="3.4"/>
	<polygon class="st0" points="103.2,16.4 103.2,20.8 107.4,20.8 107.4,19.4 111.4,19.4 111.4,14.2 106.7,14.2 106.7,16.4 	"/>
	<rect x="61.5" y="9.6" class="st0" width="2.3" height="2.6"/>
	<rect x="114.4" y="31.4" class="st0" width="3.9" height="4.2"/>
	<rect x="102" y="29.1" class="st0" width="3.4" height="3.6"/>
	<rect x="88.9" y="12.8" class="st0" width="3.3" height="3.4"/>
	<rect x="85.7" y="18.9" class="st0" width="3.6" height="3.9"/>
	<rect x="118.7" y="25.7" class="st0" width="2.3" height="2.6"/>
	<rect x="78.3" y="22.9" class="st0" width="2.2" height="2.5"/>
	<polygon class="st0" points="98.4,9.8 100.7,9.8 100.7,11.6 103.1,11.6 103.1,9.1 101.1,9.1 101.1,6.8 98.4,6.8 	"/>
	<rect x="81.8" y="12.2" class="st0" width="2.2" height="2.5"/>
	<rect x="49.9" y="5.6" class="st0" width="2.2" height="2.5"/>
	<rect x="90.4" y="27.5" class="st0" width="2.2" height="2.5"/>
	<rect x="72.7" y="6.6" class="st0" width="2.6" height="2.7"/>
	<rect x="87" y="5.2" class="st0" width="2.2" height="2.5"/>
	<path class="st0" d="M111.8,10.4v1.4h3.1v4.7h3.8v2.3h-4.3v4.8h4.6v-3.3h1.2V22h2.6v5.1h2v4.7h-1.3v1.6h-1
		c2.7,8.5,3.8,18.1,3.8,18.1c2.2-4.3,12.9-45.9-29.7-49.2c5.9,2.9,10.2,6.3,12.4,8.1H111.8z"/>
	<path class="st0" d="M95.6,80.1h13.8l-20-42.6H76.5l-14,27.6h-4v9.6l-1.3,3.6L43.4,61.7c1.6-0.4,2.9-0.9,4.2-1.6
		c0.4-0.3,0.9-0.4,1.3-0.7c0.1,0,0.1-0.1,0.3-0.1c0.3-0.1,0.7-0.4,0.9-0.5c0.1,0,0.3-0.1,0.3-0.3c0.3-0.1,0.5-0.4,0.8-0.7l0.3-0.3
		c0.4-0.3,0.7-0.5,0.9-0.8c2.1-2.1,3.1-4.4,3.1-7.3c0-1.3-0.4-2.7-1.2-4.3s-2-2.9-3.5-4.2c-1.6-1.3-3.5-2.3-5.7-3.1
		s-4.9-1.3-7.8-1.3H5.6V53H2.5v9.8h3.1v17.3h13V62.8h10.8l13.9,17.3H69l3.3-5.3h21.4L95.6,80.1z M18.7,45.6h16.2
		c0.8,0,1.6,0.1,2.3,0.4c0.8,0.3,1.4,0.5,2.1,0.9s1,0.9,1.4,1.3c0.4,0.5,0.5,1,0.5,1.6c0,0.5-0.1,1.2-0.5,1.7s-0.9,0.9-1.4,1.4
		c-0.7,0.4-1.3,0.8-2.1,0.9c-0.8,0.3-1.6,0.4-2.3,0.4H18.7V45.6z M76.5,65.1l2.3-4.8l4.2-8.7l6.5,13.7h-13V65.1z"/>
	<polygon class="st0" points="203.2,60.2 203.2,80 215.7,80 215.7,60.2 215.7,60.2 215.7,53 243.7,80 256.2,80 256.2,60.2 
		256.2,37.5 240.6,37.5 240.6,47 243.7,47 243.7,60.2 243.7,64.5 239.3,60.2 215.7,37.5 203.2,37.5 	"/>
	<path class="st0" d="M362.9,72.8c1.2-2.2,1.6-6,0.8-8.7c-0.4-1.2-0.8-2.3-1.4-3.1c-0.1-0.3-0.4-0.4-0.5-0.7l-0.4-0.4
		c-0.1-0.1-0.1-0.3-0.3-0.3c-0.3-0.3-0.7-0.7-0.9-0.8c-0.8-0.5-1.6-0.9-2.3-1.2c0.5-0.3,1.2-0.7,1.8-1c0.7-0.4,1.3-1,1.8-1.7
		s1-1.4,1.3-2.5c0.4-0.9,0.7-2.7,0.5-4.6c-0.1-1-0.3-2.2-0.8-3.1c-0.8-1.6-1.3-2.3-2.7-3.5s-3.3-2.1-5.5-2.7c-2.2-0.8-4.9-1-8.2-1
		h-30.6v16h-3.1v9.6h3.1v17.1h31.8c2.5,0,4.7-0.3,6.8-0.9s3.9-1.4,5.5-2.5C361,75.4,362.3,74.3,362.9,72.8L362.9,72.8z M328,46h16.2
		c0.8,0,1.6,0.1,2.2,0.4c0.8,0.3,1.4,0.5,2.1,0.9s1.2,0.8,1.6,1.3s0.5,1,0.5,1.4c0,0.5-0.1,1-0.5,1.6c-0.4,0.5-0.9,0.9-1.6,1.3
		c-0.7,0.4-1.3,0.8-2.1,0.9c-0.8,0.3-1.6,0.4-2.2,0.4H328V46z M352,68.6c-0.4,0.5-0.9,0.9-1.6,1.3s-1.4,0.7-2.3,0.9
		c-0.9,0.3-1.8,0.4-2.9,0.4H328v-8.5h17.2c2.1,0,3.8,0.4,5.2,1.3c1.4,0.8,2.1,1.8,2.1,3C352.5,67.6,352.2,68.1,352,68.6L352,68.6z"
		/>
	<path class="st0" d="M198.7,80.1v-8.5h-35.2V63h26.6v-9.6h-26.6v-7.3h35.2v-8.6h-38.8c-4.9,2.1-9.1,6.5-9.1,6.5v9.4h-3.1v9.5h3.1
		v17.2L198.7,80.1z"/>
	<path class="st0" d="M137.6,60.2c0.1-0.1,0.3-0.4,0.3-0.5c0.4-0.7,0.7-1.3,1-1.8c0.3-0.4,0.4-0.8,0.7-1.2c1.4-2.7,2.7-5.1,3.6-6.6
		l-1.8,1.8c-0.1,0.1-0.4,0.3-0.5,0.5c-0.4,0.4-0.9,0.8-1.3,1.2c-0.3,0.1-0.4,0.4-0.7,0.5c-0.4,0.3-0.8,0.7-1.2,0.9
		c-0.3,0.1-0.4,0.4-0.7,0.5c-0.4,0.3-0.8,0.5-1.2,0.8c-0.3,0.1-0.4,0.3-0.7,0.4c-0.4,0.3-0.8,0.5-1.2,0.8c-0.3,0.1-0.4,0.3-0.5,0.4
		c-0.4,0.3-0.8,0.5-1.2,0.7c-0.1,0.1-0.4,0.1-0.5,0.3c-0.4,0.3-0.8,0.4-1.2,0.7c-0.1,0.1-0.3,0.1-0.4,0.3c-0.4,0.3-0.8,0.4-1.2,0.5
		c-3.9,2-6.5,2.6-6.5,2.6l-1.4-2.6l-12.5-23.3h-13L118,80.3h8.7C126.9,80.1,132.6,69.3,137.6,60.2L137.6,60.2z"/>
	<path class="st0" d="M262.1,47v33h21.2c3.6,0,7.2-0.5,10.3-1.7c3.3-1,6-2.6,8.3-4.6s4.2-4.2,5.6-6.8c1.2-2.1,1.8-4.4,2-6.8
		c0-0.5,0.1-1,0.1-1.4c0-2.9-0.7-5.6-1.8-8.2c-1.3-2.6-3-4.8-5.2-6.8s-4.8-3.5-7.9-4.6c-3.1-1.2-6.5-1.7-10.2-1.7h-25.4V47H262.1z
		 M283.3,46.1c2.1,0.3,4,0.8,6,1.6s3.6,1.7,5.1,2.9c1.4,1.2,2.6,2.3,3.5,3.8c0.9,1.4,1.3,2.9,1.3,4.4c0,0.5,0,1-0.1,1.4
		c-0.1,1.3-0.5,2.6-1.2,3.6c-0.9,1.6-2.1,3-3.5,4c-1.4,1.2-3.1,2.1-5.1,2.7s-3.9,0.9-6,0.9h-9.8V46.1L283.3,46.1z"/>
	<path class="st0" d="M126.4,12.1L129,12l-1.6,1.4c0.5,0.7,0.9,1.3,1.3,2l4.3-0.8l-3,3.3c7.4,25.3-5.5,40.8-5.5,40.8
		c10.6-3.6,24.6-19.4,35.8-25.1c10.8-5.6,20.8-0.1,20.2-2.2c-1.4-4.4-11.3-9.6-11.3-9.6c-4.3-4.9-9.1-6.3-12.2-6.9
		c-5.7-1-11.5,0.1-14.3,0.8C132.5,2.3,110.4,2,110.4,2C117.9,4.4,123,7.9,126.4,12.1L126.4,12.1z M159.7,20.3c1.3,0,3.6,0.9,5.5,2.6
		c0,0-1.2,0.3-2.5,0.1c-1,0-2.2-0.4-3.4-1.4C158.4,20.7,158.8,20.2,159.7,20.3z"/>
</g>
</svg>
