<?xml version="1.0" encoding="utf-8"?>
<!-- Generator: Adobe Illustrator 27.6.1, SVG Export Plug-In . SVG Version: 6.00 Build 0)  -->
<svg version="1.1" id="Layer_1" xmlns="http://www.w3.org/2000/svg" xmlns:xlink="http://www.w3.org/1999/xlink" x="0px" y="0px"
	 viewBox="0 0 1600 370" style="enable-background:new 0 0 1600 370;" xml:space="preserve">
<style type="text/css">
	.st0{fill:#388EE9;}
	.st1{fill:url(#SVGID_1_);fill-opacity:0.1;}
	.st2{fill-rule:evenodd;clip-rule:evenodd;fill:url(#SVGID_00000154395114413718718250000004943038042351611043_);}
</style>
<g>
	<path class="st0" d="M78.7,97.9l-36.9-5.1l0.6,4c1.1,8.5,8,14.8,16.5,15.3h0.6C69,113.2,77.5,107,78.7,97.9z"/>
	<path class="st0" d="M207.6,212.1c39.2-11.4,67-47.7,67-88.6c0-51.1-41.5-92.6-92.6-92.6H13.3v35.2c34.1-10.8,75,4,93.2,26.1
		c0,0,86.3-7.4,98.3,48.9c0,0-81.8-34.7-126.7,29.5c-10.8,15.3-13.6,33.5-19.9,56.2c-12.5,42-19.3,73.3-35.8,106.2h59.1l21-98.3
		h32.9l57.9,98.3h75l-69.3-117l7.4-4H207.6z"/>
	
		<linearGradient id="SVGID_1_" gradientUnits="userSpaceOnUse" x1="153.8847" y1="1080.6716" x2="42.3232" y2="1272.2948" gradientTransform="matrix(1 0 0 1 0 -948)">
		<stop  offset="0" style="stop-color:#000000"/>
		<stop  offset="1" style="stop-color:#000000;stop-opacity:0"/>
	</linearGradient>
	<path class="st1" d="M23,330.2c30.1-32.9,41.5-55.1,50.6-86.9c1.1-4,2.3-8,2.8-12.5c2.8-13.1,6.2-27.8,15.3-41.5
		c26.7-39.8,69.3-48.9,112.5-48.9c-4-1.7-82.4-32.9-126.7,29.5c-8,11.4-11.9,25-15.9,40.3c-1.1,5.1-2.8,10.2-4.5,15.9
		c-2.3,8-4.5,15.9-6.8,22.7C42.9,279.7,35.5,304.6,23,330.2z"/>
	
		<linearGradient id="SVGID_00000047763237349981235260000010394844705914772629_" gradientUnits="userSpaceOnUse" x1="336.807" y1="1074.8951" x2="1566.2688" y2="1252.411" gradientTransform="matrix(1 0 0 1 0 -948)">
		<stop  offset="0" style="stop-color:#388EE9"/>
		<stop  offset="1" style="stop-color:#1CC8EE"/>
	</linearGradient>
	<path style="fill-rule:evenodd;clip-rule:evenodd;fill:url(#SVGID_00000047763237349981235260000010394844705914772629_);" d="
		M1170.5,332.5V84.8h81.2c23.9,0,45.4,4.5,63.6,13.6c18.7,9.7,32.9,23.3,43.2,42c10.2,18.2,14.8,40.3,14.8,65.9
		c0,26.1-5.1,49.4-15.3,68.7c-10.2,19.3-25.6,33.5-44.9,43.2s-42,14.2-68.2,14.2H1170.5z M1299.5,264.3
		c11.9-11.4,18.7-29.5,18.7-56.8c0-18.2-2.8-31.8-8.5-42l0,0l0,0c-5.1-10.2-12.5-17-22.2-22.2l0,0l0,0c-10.2-5.1-23.3-8-39.2-8
		h-23.3v147.1h17C1269.4,282.5,1288.1,275.7,1299.5,264.3z M1555.7,201.3c8.5,5.1,15.3,11.9,20.5,20.5c5.7,9.7,8.5,21.6,8.5,35.2
		c0,15.3-3.4,29.5-11.4,41.5l0,0l0,0c-8,11.9-18.7,20.5-32.4,26.1l0,0l0,0c-13.6,5.7-29,8-46,8H1404V84.8h76.1
		c19.3,0,35.8,1.7,49.4,5.7c14.2,4,26.7,10.8,35.2,22.2c8.5,10.8,12.5,25,12.5,40.3c0,10.2-1.7,19.9-6.2,29
		C1567.6,189.3,1562.5,196.1,1555.7,201.3z M1458,282.5h31.2c18.7,0,27.8-4,31.8-7.4c4.5-4.5,7.4-11.4,7.4-21
		c0-5.7-1.1-10.2-3.4-13.6l0,0l0,0c-1.1-2.3-4.5-5.1-10.2-7.4l0,0l0,0c-5.7-2.3-14.2-4-27.3-4H1458V282.5z M1515.9,173.4
		c3.4-2.8,6.2-8,6.2-17.6c0-8.5-2.8-12.5-6.8-14.8l0,0l0,0c-5.1-3.4-15.9-6.2-34.1-6.2H1458v44.3h27.8
		C1504,179.1,1513.1,176.3,1515.9,173.4z M417.2,307.5h0.6v25h56.8V230.8c0-17-1.1-31.2-4-44.3c-2.8-13.1-8-23.9-14.8-32.4
		c-6.8-8.5-16.5-15.3-27.8-19.9c-11.4-4.5-26.1-6.8-44.3-6.8c-16.5,0-32.4,2.8-47.7,8.5c-15.3,5.1-29,13.1-40.3,23.9l32.9,34.1
		c6.8-7.4,14.2-13.1,22.2-17c8.5-4.5,17.6-6.8,27.8-6.8c10.8,0,19.9,3.4,27.8,9.7c8,6.2,11.9,14.8,11.9,26.1c-8.5,0-17.6,0-27.8,0.6
		c-9.7,0-19.9,1.1-30.1,2.3c-9.7,1.1-19.3,3.4-29,6.8c-9.1,2.8-17.6,6.8-25,11.9c-7.4,5.1-13.1,11.9-17,19.9s-6.2,17.6-6.2,29.5
		c0,10.2,1.7,19.3,5.7,26.7c4,8,9.1,14.2,15.9,19.3c6.8,5.1,14.2,9.1,22.7,11.4c8.5,2.8,17.6,4,27.3,4c12.5,0,24.4-2.3,35.8-6.8
		C400.8,325.7,410.4,318.3,417.2,307.5z M402.5,244.4c-4.5,0-10.8,0-17.6,0.6c-6.8,0-13.6,1.1-20.5,3.4c-6.2,1.7-11.9,4.5-16.5,8.5
		c-4.5,4-6.8,9.1-6.8,15.9c0,7.4,3.4,13.1,9.7,16.5c6.2,3.4,13.1,5.1,19.9,5.1c6.2,0,11.9-0.6,17-2.3c5.7-1.7,10.8-4,15.3-6.8
		c4.5-2.8,8-6.8,10.2-11.4c2.8-4.5,4-10.2,4-16.5v-13.1H402.5z M867.7,326.8c15.3-6.8,27.8-16.5,37.5-29.5l-43.2-31.8
		c-5.1,7.4-11.4,13.1-18.7,17.6c-6.8,4.5-15.3,6.8-25.6,6.8c-11.9,0-22.2-3.4-30.7-10.2c-8-7.4-13.6-16.5-15.9-28.4h143.2v-19.3
		c0-15.9-2.3-30.1-6.8-43.2s-10.8-23.9-18.7-32.9c-8-9.1-17.6-16.5-29.5-21.6c-11.4-5.1-24.4-7.4-38.6-7.4
		c-15.3,0-30.1,2.3-43.7,7.4s-25,11.9-35.2,21.6c-9.7,9.1-17.6,19.9-23.3,32.9s-8.5,27.3-8.5,43.2s2.8,30.1,8.5,43.2
		c5.7,13.1,13.6,23.9,23.3,33.5c10.2,9.1,22.2,15.9,35.2,21c13.6,5.1,28.4,7.4,43.7,7.4C836.5,337.6,852.4,334.2,867.7,326.8z
		 M842.2,182.5c7.4,7.4,10.8,16.5,10.2,26.7h-81.8c0-5.1,1.1-9.7,3.4-14.2c2.3-4.5,5.1-8.5,8.5-11.9c4-3.4,8.5-6.2,13.6-8.5
		c5.1-2.3,11.4-3.4,18.2-3.4C826.3,171.7,835.4,175.1,842.2,182.5z M945,132h59.1v27.3h0.6c1.7-4,4.5-8,8-11.4
		c3.4-4,8-7.4,12.5-10.2c5.1-2.8,10.8-5.7,17-7.4c6.2-1.7,13.1-2.8,20.5-2.8c15.9,0,28.4,2.3,38.1,7.4c9.7,4.5,17,11.4,22.2,19.9
		c5.7,8.5,9.1,18.7,11.4,30.1c1.7,11.4,2.8,23.9,2.8,37.5v110.2h-61.9v-98.3c0-5.7,0-11.9-0.6-17.6c0-6.2-1.7-11.9-4-17
		c-1.7-5.1-5.1-9.7-9.7-12.5c-4-3.4-10.2-5.1-18.2-5.1s-14.2,1.7-19.3,4.5c-5.1,2.8-8.5,6.8-11.4,11.4c-2.3,4.5-4,10.2-5.1,15.9
		c-0.6,6.2-1.1,12.5-1.1,18.7v100h-61.9V132H945z M479.2,132h66.5l50.6,135.8h0.6L643.9,132h61.9l-79,200.5h-65.3L479.2,132z"/>
</g>
</svg>
