<?xml version="1.0" encoding="utf-8"?>
<!-- Generator: Adobe Illustrator 24.1.1, SVG Export Plug-In . SVG Version: 6.00 Build 0)  -->
<svg version="1.1" id="Layer_1" xmlns="http://www.w3.org/2000/svg" xmlns:xlink="http://www.w3.org/1999/xlink" x="0px" y="0px"
	 viewBox="0 0 64.27 30.21" style="enable-background:new 0 0 64.27 30.21;" xml:space="preserve">
<style type="text/css">
	.st0{display:none;}
	
		.st1{display:inline;fill:none;stroke:url(#SVGID_1_);stroke-width:2;stroke-linecap:round;stroke-linejoin:round;stroke-miterlimit:10;}
	.st2{display:inline;fill:#FFFFFF;}
	.st3{display:inline;fill:none;stroke:url(#SVGID_2_);stroke-width:2;stroke-linecap:round;stroke-miterlimit:10;}
	.st4{display:inline;fill:none;stroke:url(#SVGID_3_);stroke-width:2;stroke-linecap:round;stroke-miterlimit:10;}
	.st5{display:inline;fill:none;stroke:url(#SVGID_4_);stroke-width:2;stroke-linecap:round;stroke-miterlimit:10;}
	.st6{display:inline;fill:none;stroke:url(#SVGID_5_);stroke-width:2;stroke-linecap:round;stroke-miterlimit:10;}
	.st7{display:inline;fill:none;stroke:url(#SVGID_6_);stroke-width:2;stroke-linecap:round;stroke-miterlimit:10;}
	.st8{display:inline;fill:url(#SVGID_7_);}
	.st9{display:inline;fill:url(#SVGID_8_);}
	.st10{display:inline;fill:url(#SVGID_9_);}
	.st11{display:inline;fill:url(#SVGID_10_);}
	.st12{display:inline;fill:url(#SVGID_11_);}
	.st13{display:inline;fill:none;stroke:url(#SVGID_12_);stroke-width:2;stroke-linecap:round;stroke-miterlimit:10;}
	.st14{display:inline;fill:url(#SVGID_13_);}
	.st15{fill:none;stroke:url(#SVGID_14_);stroke-width:2;stroke-linecap:round;stroke-linejoin:round;stroke-miterlimit:10;}
</style>
<g class="st0">
	<linearGradient id="SVGID_1_" gradientUnits="userSpaceOnUse" x1="20.3871" y1="26.6223" x2="43.5402" y2="3.4692">
		<stop  offset="0" style="stop-color:#BF2FE5"/>
		<stop  offset="1" style="stop-color:#22ADF6;stop-opacity:0.984"/>
	</linearGradient>
	<path class="st1" d="M21.18,25.62V4.47 M42.74,4.47v21.15 M31.96,1.58c-5.95,0-10.78,1.3-10.78,2.9s4.83,2.9,10.78,2.9
		s10.78-1.3,10.78-2.9S37.92,1.58,31.96,1.58z M21.18,25.62c0,1.6,4.83,2.9,10.78,2.9s10.78-1.3,10.78-2.9 M21.18,18.57
		c0,1.6,4.83,2.9,10.78,2.9s10.78-1.3,10.78-2.9 M21.18,11.52c0,1.6,4.83,2.9,10.78,2.9s10.78-1.3,10.78-2.9"/>
	<rect x="39.82" y="25.27" class="st2" width="1.92" height="3.8"/>
	<linearGradient id="SVGID_2_" gradientUnits="userSpaceOnUse" x1="8.8294" y1="18.383" x2="15.504" y2="11.7084">
		<stop  offset="0" style="stop-color:#BF2FE5"/>
		<stop  offset="1" style="stop-color:#22ADF6;stop-opacity:0.984"/>
	</linearGradient>
	<line class="st3" x1="17.43" y1="15.05" x2="6.91" y2="15.05"/>
	
		<linearGradient id="SVGID_3_" gradientUnits="userSpaceOnUse" x1="11.5284" y1="9.3942" x2="16.8127" y2="4.11" gradientTransform="matrix(0.7512 0.2938 -0.3643 0.9313 6.3338 -4.2234)">
		<stop  offset="0" style="stop-color:#BF2FE5"/>
		<stop  offset="1" style="stop-color:#22ADF6;stop-opacity:0.984"/>
	</linearGradient>
	<line class="st4" x1="17.43" y1="7.37" x2="11.61" y2="5.09"/>
	
		<linearGradient id="SVGID_4_" gradientUnits="userSpaceOnUse" x1="56.038" y1="-4.6494" x2="61.3223" y2="-9.9337" gradientTransform="matrix(-0.7512 0.2938 0.3643 0.9313 96.1467 -4.2234)">
		<stop  offset="0" style="stop-color:#BF2FE5"/>
		<stop  offset="1" style="stop-color:#22ADF6;stop-opacity:0.984"/>
	</linearGradient>
	<line class="st5" x1="46.5" y1="7.37" x2="52.31" y2="5.09"/>
	
		<linearGradient id="SVGID_5_" gradientUnits="userSpaceOnUse" x1="22.7892" y1="32.6177" x2="28.0734" y2="27.3335" gradientTransform="matrix(0.7512 -0.2938 -0.3643 -0.9313 6.3338 59.3654)">
		<stop  offset="0" style="stop-color:#BF2FE5"/>
		<stop  offset="1" style="stop-color:#22ADF6;stop-opacity:0.984"/>
	</linearGradient>
	<line class="st6" x1="17.43" y1="22.84" x2="11.61" y2="25.11"/>
	
		<linearGradient id="SVGID_6_" gradientUnits="userSpaceOnUse" x1="67.2988" y1="18.5741" x2="72.583" y2="13.2899" gradientTransform="matrix(-0.7512 -0.2938 0.3643 -0.9313 96.1467 59.3654)">
		<stop  offset="0" style="stop-color:#BF2FE5"/>
		<stop  offset="1" style="stop-color:#22ADF6;stop-opacity:0.984"/>
	</linearGradient>
	<line class="st7" x1="46.5" y1="22.84" x2="52.31" y2="25.11"/>
	<linearGradient id="SVGID_7_" gradientUnits="userSpaceOnUse" x1="4.1256" y1="15.0457" x2="9.687" y2="15.0457">
		<stop  offset="0" style="stop-color:#BF2FE5"/>
		<stop  offset="1" style="stop-color:#22ADF6;stop-opacity:0.984"/>
	</linearGradient>
	<circle class="st8" cx="6.91" cy="15.05" r="2.78"/>
	<linearGradient id="SVGID_8_" gradientUnits="userSpaceOnUse" x1="8.702" y1="5.0408" x2="14.2635" y2="5.0408">
		<stop  offset="0" style="stop-color:#BF2FE5"/>
		<stop  offset="1" style="stop-color:#22ADF6;stop-opacity:0.984"/>
	</linearGradient>
	<circle class="st9" cx="11.48" cy="5.04" r="2.78"/>
	<linearGradient id="SVGID_9_" gradientUnits="userSpaceOnUse" x1="49.6638" y1="5.0408" x2="55.2253" y2="5.0408">
		<stop  offset="0" style="stop-color:#BF2FE5"/>
		<stop  offset="1" style="stop-color:#22ADF6;stop-opacity:0.984"/>
	</linearGradient>
	<circle class="st10" cx="52.44" cy="5.04" r="2.78"/>
	<linearGradient id="SVGID_10_" gradientUnits="userSpaceOnUse" x1="8.702" y1="25.1644" x2="14.2635" y2="25.1644">
		<stop  offset="0" style="stop-color:#BF2FE5"/>
		<stop  offset="1" style="stop-color:#22ADF6;stop-opacity:0.984"/>
	</linearGradient>
	<circle class="st11" cx="11.48" cy="25.16" r="2.78"/>
	<linearGradient id="SVGID_11_" gradientUnits="userSpaceOnUse" x1="49.6638" y1="25.1644" x2="55.2253" y2="25.1644">
		<stop  offset="0" style="stop-color:#BF2FE5"/>
		<stop  offset="1" style="stop-color:#22ADF6;stop-opacity:0.984"/>
	</linearGradient>
	<circle class="st12" cx="52.44" cy="25.16" r="2.78"/>
	
		<linearGradient id="SVGID_12_" gradientUnits="userSpaceOnUse" x1="51.204" y1="18.4123" x2="57.8786" y2="11.7377" gradientTransform="matrix(-1 0 0 -1 106.3019 30.0915)">
		<stop  offset="0" style="stop-color:#BF2FE5"/>
		<stop  offset="1" style="stop-color:#22ADF6;stop-opacity:0.984"/>
	</linearGradient>
	<line class="st13" x1="46.5" y1="15.02" x2="57.02" y2="15.02"/>
	
		<linearGradient id="SVGID_13_" gradientUnits="userSpaceOnUse" x1="46.5002" y1="15.075" x2="52.0617" y2="15.075" gradientTransform="matrix(-1 0 0 -1 106.3019 30.0915)">
		<stop  offset="0" style="stop-color:#BF2FE5"/>
		<stop  offset="1" style="stop-color:#22ADF6;stop-opacity:0.984"/>
	</linearGradient>
	<circle class="st14" cx="57.02" cy="15.02" r="2.78"/>
</g>
<linearGradient id="SVGID_14_" gradientUnits="userSpaceOnUse" x1="12.0482" y1="35.1886" x2="52.2202" y2="-4.9834">
	<stop  offset="0" style="stop-color:#BF2FE5"/>
	<stop  offset="1" style="stop-color:#22ADF6;stop-opacity:0.984"/>
</linearGradient>
<path class="st15" d="M21.18,25.62V4.47 M42.74,4.47v21.15 M31.96,1.58c-5.95,0-10.78,1.3-10.78,2.9s4.83,2.9,10.78,2.9
	s10.78-1.3,10.78-2.9S37.92,1.58,31.96,1.58z M42.74,25.62 M21.18,25.62c0,1.6,4.83,2.9,10.78,2.9c2.84,0,5.43-0.3,7.36-0.78
	 M21.18,18.57c0,1.6,4.83,2.9,10.78,2.9s10.78-1.3,10.78-2.9 M21.18,11.52c0,1.6,4.83,2.9,10.78,2.9s10.78-1.3,10.78-2.9
	 M17.43,15.05H6.91 M11.61,5.09l5.81,2.27 M46.5,7.37l5.81-2.27 M17.43,22.84l-5.81,2.27 M52.31,25.11l-5.81-2.27 M46.5,15.02h10.52
	 M5.9,25.32c0.52-1.55,2.19-2.38,3.73-1.87s2.38,2.19,1.87,3.73s-2.19,2.38-3.73,1.87S5.39,26.86,5.9,25.32z M1.15,14.08
	c0.52-1.55,2.19-2.38,3.73-1.87s2.38,2.19,1.87,3.73s-2.19,2.38-3.73,1.87S0.64,15.63,1.15,14.08z M5.9,3.02
	c0.52-1.55,2.19-2.38,3.73-1.87s2.38,2.19,1.87,3.73S9.31,7.27,7.77,6.75S5.39,4.57,5.9,3.02z M56.5,29.05
	c-1.55,0.52-3.22-0.32-3.73-1.87c-0.52-1.55,0.32-3.22,1.87-3.73s3.22,0.32,3.73,1.87C58.88,26.86,58.05,28.54,56.5,29.05z
	 M61.25,17.82c-1.55,0.52-3.22-0.32-3.73-1.87s0.32-3.22,1.87-3.73s3.22,0.32,3.73,1.87C63.63,15.63,62.8,17.3,61.25,17.82z
	 M56.5,6.75c-1.55,0.52-3.22-0.32-3.73-1.87c-0.52-1.55,0.32-3.22,1.87-3.73s3.22,0.32,3.73,1.87C58.88,4.57,58.05,6.24,56.5,6.75z"
	/>
</svg>
