<?xml version="1.0" encoding="UTF-8"?>
<svg version="1.1" id="Layer_1" xmlns="http://www.w3.org/2000/svg" xmlns:xlink="http://www.w3.org/1999/xlink" x="0px" y="0px"
	 viewBox="0 0 180 140" style="enable-background:new 0 0 180 140;" xml:space="preserve">
	<defs>
		<linearGradient id="linear0" gradientUnits="userSpaceOnUse" x1="0" y1="0" x2="1" y2="1" gradientTransform="matrix(179.277344,0,0,120.519531,0.226562,0.75)">
			<stop offset="0" style="stop-color:rgb(79.607843%,80.784314%,81.568627%);stop-opacity:1;"/>
			<stop offset="1" style="stop-color:rgb(51.764706%,51.372549%,54.509804%);stop-opacity:1;"/>
		</linearGradient>
		<linearGradient id="linear1" gradientUnits="userSpaceOnUse" x1="0" y1="0" x2="1" y2="1" gradientTransform="matrix(98.949219,0,0,101.347656,74.089844,38.167969)">
			<stop offset="0" style="stop-color:rgb(15.294118%,42.745098%,76.470588%);stop-opacity:1;"/>
			<stop offset="1" style="stop-color:rgb(8.627451%,36.078431%,66.666667%);stop-opacity:1;"/>
		</linearGradient>
	</defs>
	<g id="surface1">
	<path style=" stroke:none;fill-rule:evenodd;fill:url(#linear0);" d="M 89.863281 121.269531 C 40.359375 121.269531 0.226562 94.289062 0.226562 61.007812 C 0.226562 27.726562 40.359375 0.75 89.863281 0.75 C 139.371094 0.75 179.503906 27.726562 179.503906 61.007812 C 179.503906 94.289062 139.371094 121.269531 89.863281 121.269531 Z M 103.585938 24.308594 C 65.957031 24.308594 35.453125 42.753906 35.453125 65.503906 C 35.453125 88.257812 65.957031 106.699219 103.585938 106.699219 C 141.214844 106.699219 168.984375 94.089844 168.984375 65.503906 C 168.984375 36.925781 141.214844 24.308594 103.585938 24.308594 Z M 103.585938 24.308594 "/>
	<path style=" stroke:none;fill-rule:evenodd;fill:url(#linear1);" d="M 136.742188 94.082031 C 136.742188 94.082031 142.164062 95.726562 145.316406 97.328125 C 146.410156 97.882812 148.304688 98.988281 149.667969 100.445312 C 151.003906 101.871094 151.65625 103.316406 151.65625 103.316406 L 173.039062 139.5 L 138.480469 139.515625 L 122.320312 109.054688 C 122.320312 109.054688 119.011719 103.347656 116.976562 101.695312 C 115.277344 100.3125 114.550781 99.820312 112.871094 99.820312 C 111.703125 99.820312 104.660156 99.820312 104.660156 99.820312 L 104.667969 139.496094 L 74.089844 139.507812 L 74.089844 38.167969 L 135.496094 38.167969 C 135.496094 38.167969 163.46875 38.671875 163.46875 65.382812 C 163.46875 92.09375 136.742188 94.082031 136.742188 94.082031 Z M 123.4375 60.148438 L 104.925781 60.136719 L 104.917969 77.367188 L 123.4375 77.363281 C 123.4375 77.363281 132.015625 77.335938 132.015625 68.597656 C 132.015625 59.683594 123.4375 60.148438 123.4375 60.148438 Z M 123.4375 60.148438 "/>
	</g>
</svg>
