<?xml version="1.0" encoding="utf-8"?>
<!-- Generator: Adobe Illustrator 24.1.2, SVG Export Plug-In . SVG Version: 6.00 Build 0)  -->
<svg version="1.1" id="Layer_1" xmlns="http://www.w3.org/2000/svg" xmlns:xlink="http://www.w3.org/1999/xlink" x="0px" y="0px"
	 viewBox="0 0 820 470" style="enable-background:new 0 0 820 470;" xml:space="preserve">
<style type="text/css">
	.st0{opacity:0.6;}
	.st1{fill:url(#SVGID_1_);}
	.st2{fill:url(#SVGID_2_);}
	.st3{opacity:0.21;}
	.st4{fill:url(#SVGID_3_);}
	.st5{opacity:0.2;}
	.st6{fill:url(#SVGID_4_);}
	.st7{fill:url(#SVGID_5_);}
	.st8{fill:url(#SVGID_6_);}
	.st9{fill:url(#SVGID_7_);}
	.st10{opacity:0.7;}
	.st11{fill:url(#SVGID_8_);}
	.st12{fill:url(#SVGID_9_);}
	.st13{fill:url(#SVGID_10_);}
	.st14{fill:url(#SVGID_11_);}
	.st15{opacity:0.65;enable-background:new    ;}
	.st16{fill:#D4D7DD;}
	.st17{opacity:0.14;fill:url(#SVGID_12_);enable-background:new    ;}
	.st18{fill:url(#SVGID_13_);}
	.st19{fill:url(#SVGID_14_);}
	.st20{fill:url(#SVGID_15_);}
	.st21{fill:url(#SVGID_16_);}
	.st22{fill:url(#SVGID_17_);}
	.st23{fill:#FFFFFF;}
	.st24{opacity:0.63;}
	.st25{fill:url(#SVGID_18_);}
	.st26{fill:url(#SVGID_19_);}
	.st27{fill:url(#SVGID_20_);}
	.st28{opacity:0.1;fill:#5EE4E4;enable-background:new    ;}
	.st29{fill:#5EE4E4;}
	.st30{opacity:0.5;fill:#5EE4E4;enable-background:new    ;}
	.st31{fill:url(#SVGID_21_);}
	.st32{fill:url(#SVGID_22_);}
	.st33{fill:url(#SVGID_23_);}
	.st34{fill:url(#SVGID_24_);}
</style>
<g class="st0">
	
		<linearGradient id="SVGID_1_" gradientUnits="userSpaceOnUse" x1="304.5211" y1="285.2625" x2="363.03" y2="183.9221" gradientTransform="matrix(1 0 0 1 0 170)">
		<stop  offset="0" style="stop-color:#D4D7DD;stop-opacity:0"/>
		<stop  offset="1" style="stop-color:#D4D7DD"/>
	</linearGradient>
	<path class="st1" d="M439,397.8l-96.1-55.5c-5.6-3.2-12.6-3.2-18.2,0l-96.1,55.5c-2.5,1.4-3.9,3.9-3.9,6.8c0,2.8,1.5,5.4,3.9,6.8
		l84.3,48.7h2l-85.8-49.5c-2.1-1.2-3.4-3.4-3.4-5.9s1.3-4.7,3.4-5.9l96.1-55.5c5.3-3.1,11.9-3.1,17.2,0l96.1,55.5
		c2.1,1.2,3.4,3.4,3.4,5.9s-1.3,4.7-3.4,5.9L352.7,460h2l84.3-48.7c2.5-1.4,3.9-3.9,3.9-6.8C442.9,401.7,441.5,399.2,439,397.8z"/>
</g>
<g class="st0">
	
		<linearGradient id="SVGID_2_" gradientUnits="userSpaceOnUse" x1="174.4483" y1="209.0654" x2="232.9517" y2="107.7346" gradientTransform="matrix(1 0 0 1 0 170)">
		<stop  offset="0" style="stop-color:#D4D7DD;stop-opacity:0"/>
		<stop  offset="1" style="stop-color:#D4D7DD"/>
	</linearGradient>
	<path class="st2" d="M203.7,393.1c-3.2,0-6.3-0.8-9.1-2.4l-96.1-55.5c-2.4-1.4-3.9-3.9-3.9-6.8c0-2.8,1.5-5.4,3.9-6.8l96.1-55.5
		c5.6-3.2,12.6-3.2,18.2,0l96.1,55.5c2.4,1.4,3.9,3.9,3.9,6.8c0,2.8-1.5,5.4-3.9,6.8l-96.1,55.5C210,392.3,206.9,393.1,203.7,393.1z
		 M203.7,264.7c-3,0-6,0.8-8.6,2.3L99,322.5c-2.1,1.2-3.4,3.4-3.4,5.9s1.3,4.7,3.4,5.9l96.1,55.5c5.3,3.1,11.9,3.1,17.3,0l96.1-55.5
		c2.1-1.2,3.4-3.4,3.4-5.9s-1.3-4.7-3.4-5.9L212.3,267C209.7,265.5,206.7,264.7,203.7,264.7z"/>
</g>
<g class="st3">
	
		<linearGradient id="SVGID_3_" gradientUnits="userSpaceOnUse" x1="466.05" y1="285.1" x2="466.05" y2="243.6" gradientTransform="matrix(1 0 0 1 0 170)">
		<stop  offset="0" style="stop-color:#D4D7DD;stop-opacity:0"/>
		<stop  offset="1" style="stop-color:#D4D7DD"/>
	</linearGradient>
	<path class="st4" d="M536.7,455.1l-66.2-38.2c-5.3-3.1-11.9-3.1-17.3,0l-57.7,33.3l-0.5-0.9l57.7-33.3c5.6-3.2,12.6-3.2,18.2,0
		l66.2,38.2L536.7,455.1z"/>
</g>
<g class="st5">
	
		<linearGradient id="SVGID_4_" gradientUnits="userSpaceOnUse" x1="720.35" y1="285.1" x2="720.35" y2="243.6" gradientTransform="matrix(1 0 0 1 0 170)">
		<stop  offset="0" style="stop-color:#D4D7DD;stop-opacity:0"/>
		<stop  offset="1" style="stop-color:#D4D7DD"/>
	</linearGradient>
	<path class="st6" d="M791,455.1l-66.2-38.2c-5.3-3.1-11.9-3.1-17.3,0l-57.7,33.3l-0.5-0.9L707,416c5.6-3.2,12.6-3.2,18.2,0
		l66.2,38.2L791,455.1z"/>
</g>
<g class="st0">
	
		<linearGradient id="SVGID_5_" gradientUnits="userSpaceOnUse" x1="54.8649" y1="140.7258" x2="113.325" y2="39.47" gradientTransform="matrix(1 0 0 1 0 170)">
		<stop  offset="0" style="stop-color:#D4D7DD;stop-opacity:0"/>
		<stop  offset="1" style="stop-color:#D4D7DD"/>
	</linearGradient>
	<path class="st7" d="M178.3,247l-96.1-55.5c-5.6-3.2-12.6-3.2-18.2,0l-54,31.2v1.1l54.5-31.4c5.3-3.1,11.9-3.1,17.2,0l96.1,55.5
		c2.1,1.2,3.4,3.4,3.4,5.9c0,2.5-1.3,4.7-3.4,5.9l-96.1,55.5c-5.3,3.1-11.9,3.1-17.2,0L10,283.7v1.1L64,316c2.8,1.6,6,2.4,9.1,2.4
		s6.3-0.8,9.1-2.4l96.1-55.5c2.5-1.4,3.9-3.9,3.9-6.8C182.2,251,180.7,248.4,178.3,247z"/>
</g>
<g class="st3">
	
		<linearGradient id="SVGID_6_" gradientUnits="userSpaceOnUse" x1="810" y1="229.5" x2="735.1" y2="229.5" gradientTransform="matrix(1 0 0 1 0 170)">
		<stop  offset="0.2067" style="stop-color:#D4D7DD;stop-opacity:0"/>
		<stop  offset="1" style="stop-color:#D4D7DD"/>
	</linearGradient>
	<path class="st8" d="M736.1,399.6c0,2.5,1.3,4.7,3.4,5.9l70.5,40.7v1.1l-71-41c-2.4-1.4-3.9-3.9-3.9-6.8c0-2.8,1.5-5.4,3.9-6.8
		l71-41v1.2l-70.5,40.7C737.4,394.9,736.1,397.1,736.1,399.6z"/>
</g>
<g class="st3">
	
		<linearGradient id="SVGID_7_" gradientUnits="userSpaceOnUse" x1="810" y1="80.8" x2="735.1" y2="80.8" gradientTransform="matrix(1 0 0 1 0 170)">
		<stop  offset="0.2067" style="stop-color:#D4D7DD;stop-opacity:0"/>
		<stop  offset="1" style="stop-color:#D4D7DD"/>
	</linearGradient>
	<path class="st9" d="M736.1,250.8c0,2.5,1.3,4.7,3.4,5.9l70.5,40.7v1.2l-71-41c-2.4-1.4-3.9-3.9-3.9-6.8c0-2.8,1.5-5.4,3.9-6.8
		l71-41v1.1l-70.5,40.7C737.4,246.1,736.1,248.3,736.1,250.8z"/>
</g>
<g class="st10">
	
		<linearGradient id="SVGID_8_" gradientUnits="userSpaceOnUse" x1="52.1665" y1="-124.5448" x2="110.6259" y2="-23.2901" gradientTransform="matrix(1 0 0 1 0 170)">
		<stop  offset="0.2067" style="stop-color:#D4D7DD;stop-opacity:0"/>
		<stop  offset="1" style="stop-color:#D4D7DD"/>
	</linearGradient>
	<path class="st11" d="M174.8,96.2L78.7,40.7c-5.6-3.2-12.6-3.2-18.2,0L10,69.8V71l51-29.4c5.3-3.1,11.9-3.1,17.3,0l96,55.4
		c2.1,1.2,3.4,3.5,3.4,5.9s-1.3,4.7-3.4,5.9l-96.1,55.5c-5.3,3.1-11.9,3.1-17.3,0l-51-29.4v1.1l50.5,29.2c2.8,1.6,6,2.4,9.1,2.4
		c3.2,0,6.3-0.8,9.1-2.4l96.1-55.5c2.4-1.4,3.9-3.9,3.9-6.8C178.7,100.1,177.2,97.6,174.8,96.2z"/>
</g>
<g class="st10">
	
		<linearGradient id="SVGID_9_" gradientUnits="userSpaceOnUse" x1="189.467" y1="-195.265" x2="208.7519" y2="-64.6069" gradientTransform="matrix(1 0 0 1 0 170)">
		<stop  offset="0.2067" style="stop-color:#D4D7DD;stop-opacity:0"/>
		<stop  offset="1" style="stop-color:#D4D7DD"/>
	</linearGradient>
	<path class="st12" d="M302.6,21.7L282.3,10h-2l21.8,12.6c2.1,1.2,3.4,3.4,3.4,5.9s-1.3,4.7-3.4,5.9L206,89.9
		c-5.3,3.1-11.9,3.1-17.2,0L92.7,34.4c-2.1-1.2-3.4-3.5-3.4-5.9c0-2.5,1.3-4.7,3.4-5.9L114.5,10h-2L92.2,21.7
		c-2.4,1.4-3.9,3.9-3.9,6.8c0,2.8,1.5,5.4,3.9,6.8l96.1,55.5c2.8,1.6,6,2.4,9.1,2.4c3.2,0,6.3-0.8,9.1-2.4l96.1-55.5
		c2.5-1.4,3.9-3.9,3.9-6.8C306.5,25.7,305.1,23.1,302.6,21.7z"/>
</g>
<g class="st10">
	
		<linearGradient id="SVGID_10_" gradientUnits="userSpaceOnUse" x1="640.5883" y1="-120.7883" x2="528.2118" y2="-8.4117" gradientTransform="matrix(1 0 0 1 0 170)">
		<stop  offset="0.2067" style="stop-color:#D4D7DD;stop-opacity:0"/>
		<stop  offset="1" style="stop-color:#D4D7DD"/>
	</linearGradient>
	<path class="st13" d="M584.4,170.1c-3.2,0-6.3-0.8-9.1-2.4l-96.1-55.5c-2.4-1.4-3.9-3.9-3.9-6.8c0-2.8,1.5-5.4,3.9-6.8l96.1-55.5
		c5.6-3.2,12.6-3.2,18.2,0l96.1,55.5c2.4,1.4,3.9,3.9,3.9,6.8c0,2.8-1.5,5.4-3.9,6.8l-96.1,55.5
		C590.7,169.2,587.5,170.1,584.4,170.1z M479.7,99.5c-2.1,1.2-3.4,3.4-3.4,5.9s1.3,4.7,3.4,5.9l96.1,55.5c5.3,3.1,11.9,3.1,17.3,0
		l96.1-55.5c2.1-1.2,3.4-3.4,3.4-5.9s-1.3-4.7-3.4-5.9L593,44c-5.3-3.1-11.9-3.1-17.3,0L479.7,99.5z"/>
</g>
<g class="st10">
	
		<linearGradient id="SVGID_11_" gradientUnits="userSpaceOnUse" x1="483.7279" y1="-190.6055" x2="425.2565" y2="-89.3299" gradientTransform="matrix(1 0 0 1 0 170)">
		<stop  offset="0.451" style="stop-color:#D4D7DD;stop-opacity:0"/>
		<stop  offset="1" style="stop-color:#D4D7DD"/>
	</linearGradient>
	<path class="st14" d="M559.6,23.2L536.7,10h-2l24.4,14.1c2.1,1.2,3.4,3.4,3.4,5.9s-1.3,4.7-3.4,5.9L463,91.4
		c-5.3,3.1-11.9,3.1-17.2,0l-96.1-55.5c-2.1-1.2-3.4-3.4-3.4-5.9s1.3-4.7,3.4-5.9L374.2,10h-2l-22.9,13.2c-2.4,1.4-3.9,4-3.9,6.8
		s1.5,5.4,3.9,6.8l96.1,55.5c2.8,1.6,6,2.4,9.1,2.4s6.3-0.8,9.1-2.4l96.1-55.5c2.4-1.4,3.9-3.9,3.9-6.8
		C563.5,27.2,562.1,24.6,559.6,23.2z"/>
</g>
<g class="st15">
	<path class="st16" d="M458.1,392.7c-3.1,0-6.3-0.8-9.1-2.5L225.1,261.1c-2.5-1.4-3.9-3.9-3.9-6.8c0-2.8,1.5-5.4,3.9-6.8l96.1-55.5
		c5.6-3.3,12.5-3.3,18.2,0l223.8,129.2l0,0c2.5,1.4,3.9,3.9,3.9,6.7s-1.5,5.3-3.9,6.7l-96.1,55.5
		C464.4,391.9,461.2,392.7,458.1,392.7z M330.3,190.6c-3,0-5.9,0.8-8.6,2.3l-96.1,55.5c-2.1,1.2-3.4,3.4-3.4,5.9
		c0,2.5,1.3,4.7,3.4,5.9l223.8,129.1c5.4,3.1,11.9,3.1,17.2,0l96.1-55.5c2.1-1.2,3.4-3.4,3.4-5.9s-1.3-4.6-3.4-5.9l0,0L339,192.9
		C336.3,191.4,333.3,190.6,330.3,190.6z"/>
</g>
<g>
	<path class="st16" d="M199.9,244.2c-3.1,0-6.3-0.8-9.1-2.5l-96.1-55.5c-2.5-1.4-3.9-3.9-3.9-6.8c0-2.8,1.5-5.4,3.9-6.8l96.1-55.5
		c5.7-3.3,12.6-3.3,18.2,0l96.1,55.5c2.5,1.4,3.9,3.9,3.9,6.8c0,2.8-1.5,5.4-3.9,6.8L209,241.7C206.2,243.4,203.1,244.2,199.9,244.2
		z M200,115.7c-3,0-6,0.8-8.6,2.3l-96.1,55.5c-2.1,1.2-3.4,3.4-3.4,5.9c0,2.5,1.3,4.7,3.4,5.9l96.1,55.5c5.3,3.1,11.8,3.1,17.2,0
		l96.1-55.5c2.1-1.2,3.4-3.4,3.4-5.9c0-2.5-1.3-4.7-3.4-5.9L208.5,118C205.9,116.5,203,115.7,200,115.7z"/>
</g>
<g class="st15">
	<path class="st16" d="M457.6,245.1c-3.1,0-6.3-0.8-9.1-2.5l-96.1-55.5c-2.4-1.4-3.9-3.9-3.9-6.7c0-2.8,1.4-5.4,3.9-6.9l0,0
		l96.1-55.5c5.7-3.3,12.6-3.3,18.2,0l96.1,55.5c2.5,1.4,3.9,3.9,3.9,6.8c0,2.8-1.5,5.4-3.9,6.8l-96.1,55.5
		C463.9,244.3,460.8,245.1,457.6,245.1z M353,174.4c-2.2,1.3-3.4,3.5-3.4,6c0,2.4,1.3,4.6,3.4,5.8l96.1,55.5
		c5.3,3.1,11.8,3.1,17.2,0l96.1-55.5c2.1-1.2,3.4-3.4,3.4-5.9c0-2.5-1.3-4.7-3.4-5.9l-96.1-55.5c-5.3-3.1-11.8-3.1-17.2,0L353,174.4
		z"/>
</g>
<g>
	<path class="st16" d="M327.7,169.8c-3.1,0-6.3-0.8-9.1-2.5l-96.1-55.5c-2.5-1.5-3.9-4-3.9-6.9c0-2.8,1.5-5.3,3.9-6.7l96.1-55.5
		c5.7-3.3,12.6-3.3,18.2,0L433,98.3c2.5,1.4,3.9,3.9,3.9,6.8s-1.5,5.4-3.9,6.8l-96.1,55.5C334,169,330.9,169.8,327.7,169.8z
		 M327.8,41.3c-3,0-6,0.8-8.6,2.3L223,99.1c-2.1,1.2-3.4,3.4-3.4,5.8c0,2.5,1.3,4.7,3.4,6l96.1,55.5c5.3,3.1,11.8,3.1,17.2,0
		l96.1-55.5c2.1-1.2,3.4-3.4,3.4-5.9s-1.3-4.7-3.4-5.9l-96.1-55.5C333.7,42.1,330.8,41.3,327.8,41.3z"/>
</g>
<linearGradient id="SVGID_12_" gradientUnits="userSpaceOnUse" x1="459.6642" y1="200.9301" x2="744.5135" y2="235.5739" gradientTransform="matrix(1 0 0 -1 0 470)">
	<stop  offset="0" style="stop-color:#5EE4E4"/>
	<stop  offset="1" style="stop-color:#9B2AFF"/>
</linearGradient>
<path class="st17" d="M481.5,247.3l96.1-55.5c5.5-3.2,12.3-3.2,17.7,0l96.1,55.5c4.9,2.8,4.9,9.9,0,12.7l-96.1,55.5
	c-5.5,3.2-12.3,3.2-17.7,0L481.5,260C476.7,257.2,476.7,250.2,481.5,247.3z"/>
<g class="st10">
	
		<linearGradient id="SVGID_13_" gradientUnits="userSpaceOnUse" x1="809.9999" y1="143.4" x2="606.2999" y2="143.4" gradientTransform="matrix(1 0 0 -1 0 470)">
		<stop  offset="0.2067" style="stop-color:#9B2AFF;stop-opacity:0"/>
		<stop  offset="1" style="stop-color:#5EE4E4"/>
	</linearGradient>
	<path class="st18" d="M610.7,320.6l96.1-55.5c2.7-1.5,5.6-2.3,8.6-2.3s6,0.8,8.6,2.3l86,49.7v-1.1l-85.5-49.4
		c-5.6-3.2-12.6-3.2-18.2,0l-96.1,55.5c-2.4,1.4-3.9,3.9-3.9,6.8c0,2.8,1.5,5.4,3.9,6.8l96.1,55.5c2.8,1.6,6,2.4,9.1,2.4
		c3.2,0,6.3-0.8,9.1-2.4l85.5-49.4v-1.1l-86,49.7c-5.3,3.1-11.9,3.1-17.2,0l-96.1-55.5c-2.1-1.2-3.4-3.4-3.4-5.9
		C607.2,324.1,608.5,321.9,610.7,320.6z"/>
</g>
<g class="st10">
	
		<linearGradient id="SVGID_14_" gradientUnits="userSpaceOnUse" x1="766.4702" y1="346.5298" x2="656.0389" y2="236.0984" gradientTransform="matrix(1 0 0 -1 0 470)">
		<stop  offset="0.2067" style="stop-color:#9B2AFF;stop-opacity:0"/>
		<stop  offset="1" style="stop-color:#9B2AFF"/>
	</linearGradient>
	<path class="st19" d="M608.5,172.8l96.1-55.5c5.3-3.1,11.9-3.1,17.3,0l88.2,50.9v-1.1l-87.7-50.6c-5.6-3.2-12.6-3.2-18.2,0
		L608,171.9c-2.5,1.4-3.9,3.9-3.9,6.8c0,2.8,1.5,5.4,3.9,6.8l96.1,55.5c2.8,1.6,6,2.4,9.1,2.4s6.3-0.8,9.1-2.4l87.7-50.6v-1.1
		l-88.2,50.9c-5.3,3.1-11.9,3.1-17.3,0l-96.1-55.5c-2.1-1.2-3.4-3.4-3.4-5.9C605.1,176.2,606.3,174,608.5,172.8z"/>
</g>
<g class="st10">
	
		<linearGradient id="SVGID_15_" gradientUnits="userSpaceOnUse" x1="585.9" y1="10" x2="585.9" y2="132.9" gradientTransform="matrix(1 0 0 -1 0 470)">
		<stop  offset="0.2067" style="stop-color:#9B2AFF;stop-opacity:0"/>
		<stop  offset="1" style="stop-color:#63E5E5"/>
	</linearGradient>
	<path class="st20" d="M691,395l-96-55.5c-5.6-3.2-12.6-3.2-18.2,0L480.7,395c-2.5,1.4-3.9,4-3.9,6.8s1.5,5.4,3.9,6.8l89.1,51.4h2
		l-90.6-52.3c-2.1-1.2-3.4-3.5-3.4-5.9s1.3-4.7,3.4-5.9l96.1-55.5c2.7-1.5,5.6-2.3,8.6-2.3s6,0.8,8.6,2.3l96.1,55.5
		c2.1,1.2,3.4,3.4,3.4,5.9s-1.3,4.7-3.4,5.9L600,460h2l89.1-51.4c2.4-1.4,3.9-3.9,3.9-6.8C695,399,693.5,396.4,691,395z"/>
</g>
<linearGradient id="SVGID_16_" gradientUnits="userSpaceOnUse" x1="478.0419" y1="225.7792" x2="695.0639" y2="252.1737" gradientTransform="matrix(1 0 0 -1 0 470)">
	<stop  offset="0" style="stop-color:#5EE4E4"/>
	<stop  offset="0.1126" style="stop-color:#60DEE5"/>
	<stop  offset="0.2661" style="stop-color:#66CCE7"/>
	<stop  offset="0.4433" style="stop-color:#6FB0EC"/>
	<stop  offset="0.6381" style="stop-color:#7C88F1"/>
	<stop  offset="0.8448" style="stop-color:#8D55F9"/>
	<stop  offset="1" style="stop-color:#9B2AFF"/>
</linearGradient>
<path class="st21" d="M586.5,296.6c-3.3,0-6.7-0.9-9.6-2.6l-96-55.4c-2.8-1.6-4.4-4.5-4.4-7.6c0-3.2,1.7-6,4.4-7.6l96-55.4
	c6-3.4,13.3-3.4,19.3,0l96,55.4c2.8,1.6,4.4,4.5,4.4,7.6c0,3.2-1.6,6.1-4.4,7.6l-96,55.4C593.1,295.8,589.8,296.6,586.5,296.6z
	 M586.5,168.3c-2.8,0-5.6,0.7-8.1,2.2l-96,55.4c-1.8,1.1-2.9,2.9-2.9,5s1.1,4,2.9,5l96,55.4c5,2.9,11.3,2.9,16.3,0l96-55.4
	c1.8-1.1,2.9-2.9,2.9-5s-1.1-4-2.9-5l-96-55.4C592.1,169,589.3,168.3,586.5,168.3z M481.5,224.6L481.5,224.6L481.5,224.6z"/>
<linearGradient id="SVGID_17_" gradientUnits="userSpaceOnUse" x1="484.8292" y1="251.5968" x2="769.6784" y2="286.2406" gradientTransform="matrix(1 0 0 -1 0 470)">
	<stop  offset="0.206" style="stop-color:#5EE4E4"/>
	<stop  offset="1" style="stop-color:#9B2AFF"/>
</linearGradient>
<path class="st22" d="M481.5,199.7l96-55.4c5.5-3.2,12.3-3.2,17.8,0l96,55.4c4.9,2.8,4.9,9.9,0,12.7l-96,55.4
	c-5.5,3.2-12.3,3.2-17.8,0l-96-55.4C476.7,209.6,476.7,202.5,481.5,199.7z"/>
<path class="st23" d="M607.4,189.2c-2.3-1.3-5.9-1.3-8.2,0l-12.5,7.2l-12.5-7.2c-2.3-1.3-5.9-1.3-8.2,0s-2.2,3.4,0,4.7l12.5,7.2
	l-12.5,7.2c-2.3,1.3-2.2,3.4,0,4.7c2.3,1.3,5.9,1.3,8.2,0l12.5-7.2l12.5,7.2c2.3,1.3,5.9,1.3,8.2,0s2.2-3.4,0-4.7l-12.5-7.2
	l12.5-7.2C609.7,192.6,609.7,190.5,607.4,189.2L607.4,189.2z"/>
<g>
	<g class="st24">
		<linearGradient id="SVGID_18_" gradientUnits="userSpaceOnUse" x1="470.0276" y1="258.4399" x2="746.8593" y2="252.0241">
			<stop  offset="0" style="stop-color:#5EE4E4"/>
			<stop  offset="0.1126" style="stop-color:#60DEE5"/>
			<stop  offset="0.2661" style="stop-color:#66CCE7"/>
			<stop  offset="0.4433" style="stop-color:#6FB0EC"/>
			<stop  offset="0.6381" style="stop-color:#7C88F1"/>
			<stop  offset="0.8448" style="stop-color:#8D55F9"/>
			<stop  offset="1" style="stop-color:#9B2AFF"/>
		</linearGradient>
		<path class="st25" d="M682.7,265.6c-0.2,0-0.4-0.1-0.5-0.3c-0.1-0.2-0.1-0.6,0.2-0.7l8.7-5c2.1-1.2,3.4-3.4,3.4-5.9
			s-1.3-4.7-3.4-5.9l-9.4-5.4c-0.3-0.1-0.3-0.5-0.2-0.7c0.1-0.3,0.5-0.3,0.7-0.2l9.4,5.4c2.5,1.4,3.9,4,3.9,6.8s-1.5,5.4-3.9,6.8
			l-8.7,5C682.9,265.5,682.8,265.6,682.7,265.6z"/>
	</g>
	<g class="st24">
		<linearGradient id="SVGID_19_" gradientUnits="userSpaceOnUse" x1="469.9304" y1="254.243" x2="746.762" y2="247.8272">
			<stop  offset="0" style="stop-color:#5EE4E4"/>
			<stop  offset="0.1126" style="stop-color:#60DEE5"/>
			<stop  offset="0.2661" style="stop-color:#66CCE7"/>
			<stop  offset="0.4433" style="stop-color:#6FB0EC"/>
			<stop  offset="0.6381" style="stop-color:#7C88F1"/>
			<stop  offset="0.8448" style="stop-color:#8D55F9"/>
			<stop  offset="1" style="stop-color:#9B2AFF"/>
		</linearGradient>
		<path class="st26" d="M490.5,265.7c-0.1,0-0.2,0-0.3-0.1l-8.9-5.2c-2.5-1.4-3.9-4-3.9-6.8s1.5-5.4,3.9-6.8l8.6-4.9
			c0.2-0.1,0.6-0.1,0.7,0.2c0.1,0.2,0.1,0.6-0.2,0.7l-8.6,4.9c-2.1,1.2-3.4,3.4-3.4,5.9s1.3,4.7,3.4,5.9l8.9,5.2
			c0.3,0.1,0.3,0.5,0.2,0.7C490.8,265.6,490.7,265.7,490.5,265.7z"/>
	</g>
	<g class="st24">
		<linearGradient id="SVGID_20_" gradientUnits="userSpaceOnUse" x1="471.3535" y1="315.6469" x2="748.1851" y2="309.231">
			<stop  offset="0" style="stop-color:#5EE4E4"/>
			<stop  offset="0.1126" style="stop-color:#60DEE5"/>
			<stop  offset="0.2661" style="stop-color:#66CCE7"/>
			<stop  offset="0.4433" style="stop-color:#6FB0EC"/>
			<stop  offset="0.6381" style="stop-color:#7C88F1"/>
			<stop  offset="0.8448" style="stop-color:#8D55F9"/>
			<stop  offset="1" style="stop-color:#9B2AFF"/>
		</linearGradient>
		<path class="st27" d="M586.5,318.4c-3.2,0-6.3-0.8-9.1-2.4l-12.2-7c-0.3-0.1-0.3-0.5-0.2-0.7c0.1-0.3,0.5-0.3,0.7-0.2l12.2,7
			c5.3,3.1,11.9,3.1,17.2,0l11.1-6.4c0.3-0.1,0.6-0.1,0.7,0.2c0.1,0.2,0.1,0.6-0.2,0.7l-11.1,6.4
			C592.8,317.6,589.6,318.4,586.5,318.4z"/>
	</g>
</g>
<path class="st28" d="M718.9,270c-1.7-1-4.5-1-6.1,0c-1.7,1-1.7,2.6,0,3.6s4.5,1,6.1,0C720.6,272.6,720.6,271,718.9,270L718.9,270z"
	/>
<path class="st29" d="M333.6,200.1c-1.7-1-4.5-1-6.1,0c-1.7,1-1.7,2.6,0,3.6s4.5,1,6.1,0C335.4,202.6,335.3,201.1,333.6,200.1
	L333.6,200.1z"/>
<path class="st30" d="M202.8,129.1c-1.7-1-4.5-1-6.1,0c-1.7,1-1.7,2.6,0,3.6s4.5,1,6.1,0C204.5,131.7,204.5,130.1,202.8,129.1
	L202.8,129.1z"/>
<path class="st30" d="M330,51.8c-1.7-1-4.5-1-6.1,0c-1.7,1-1.7,2.6,0,3.6s4.5,1,6.1,0C331.7,54.4,331.7,52.8,330,51.8L330,51.8z"/>
<path class="st29" d="M462.5,125.8c-1.7-1-4.5-1-6.1,0c-1.7,1-1.7,2.6,0,3.6s4.5,1,6.1,0S464.2,126.8,462.5,125.8L462.5,125.8z"/>
<linearGradient id="SVGID_21_" gradientUnits="userSpaceOnUse" x1="174.1849" y1="163.5606" x2="148.2542" y2="177.9071">
	<stop  offset="0" style="stop-color:#7E83F2;stop-opacity:0.4797"/>
	<stop  offset="3.821827e-02" style="stop-color:#7F7FF3;stop-opacity:0.4612"/>
	<stop  offset="0.4698" style="stop-color:#8E51F9;stop-opacity:0.2531"/>
	<stop  offset="0.8026" style="stop-color:#9835FD;stop-opacity:9.252632e-02"/>
	<stop  offset="0.9944" style="stop-color:#9B2AFF;stop-opacity:0"/>
</linearGradient>
<polygon class="st31" points="179.5,165.9 169.5,160.1 142.6,175.7 152.7,181.5 "/>
<linearGradient id="SVGID_22_" gradientUnits="userSpaceOnUse" x1="207.4113" y1="161.2914" x2="167.0153" y2="187.9052">
	<stop  offset="5.586592e-02" style="stop-color:#5EE4E4"/>
	<stop  offset="0.225" style="stop-color:#6AC0E9;stop-opacity:0.8198"/>
	<stop  offset="0.7574" style="stop-color:#8D55F9;stop-opacity:0.2526"/>
	<stop  offset="0.9944" style="stop-color:#9B2AFF;stop-opacity:0"/>
</linearGradient>
<polygon class="st32" points="213.6,165.2 203.5,159.4 159,185.2 169.1,191 "/>
<linearGradient id="SVGID_23_" gradientUnits="userSpaceOnUse" x1="207.7167" y1="179.8916" x2="181.5781" y2="196.8817">
	<stop  offset="0" style="stop-color:#7E83F2;stop-opacity:0.4797"/>
	<stop  offset="3.821827e-02" style="stop-color:#7F7FF3;stop-opacity:0.4612"/>
	<stop  offset="0.4698" style="stop-color:#8E51F9;stop-opacity:0.2531"/>
	<stop  offset="0.8026" style="stop-color:#9835FD;stop-opacity:9.252632e-02"/>
	<stop  offset="0.9944" style="stop-color:#9B2AFF;stop-opacity:0"/>
</linearGradient>
<polygon class="st33" points="212.4,184 202.3,178.2 174.7,194.2 184.7,200 "/>
<linearGradient id="SVGID_24_" gradientUnits="userSpaceOnUse" x1="249.3951" y1="171.3277" x2="198.306" y2="205.7832">
	<stop  offset="5.586592e-02" style="stop-color:#5EE4E4"/>
	<stop  offset="0.1585" style="stop-color:#60DDE5;stop-opacity:0.8906"/>
	<stop  offset="0.3068" style="stop-color:#67CAE8;stop-opacity:0.7327"/>
	<stop  offset="0.4827" style="stop-color:#71AAEC;stop-opacity:0.5452"/>
	<stop  offset="0.6799" style="stop-color:#7F7FF3;stop-opacity:0.3351"/>
	<stop  offset="0.8922" style="stop-color:#9147FB;stop-opacity:0.1089"/>
	<stop  offset="0.9944" style="stop-color:#9B2AFF;stop-opacity:0"/>
</linearGradient>
<polygon class="st34" points="255.4,176.2 245.3,170.4 189.5,202.8 199.6,208.6 "/>
</svg>
