<svg width="925" height="444" viewBox="0 0 925 444" fill="none" xmlns="http://www.w3.org/2000/svg">
<g opacity="0.3">
<rect x="185.783" y="257.628" width="5" height="12" transform="rotate(34.0079 185.783 257.628)" fill="url(#paint0_linear_982_4264)"/>
<rect x="104.645" y="342.405" width="5" height="12" transform="rotate(-40.2257 104.645 342.405)" fill="url(#paint1_linear_982_4264)"/>
<rect x="198.678" y="355.269" width="3.77922" height="9.07013" transform="rotate(-4.13349 198.678 355.269)" fill="url(#paint2_linear_982_4264)"/>
<rect x="171.154" y="182.022" width="5" height="12" transform="rotate(81.6873 171.154 182.022)" fill="url(#paint3_linear_982_4264)"/>
<rect x="53.8418" y="179.108" width="5" height="12" transform="rotate(7.45371 53.8418 179.108)" fill="url(#paint4_linear_982_4264)"/>
<rect x="107.641" y="257.296" width="3.77922" height="9.07013" transform="rotate(43.5459 107.641 257.296)" fill="url(#paint5_linear_982_4264)"/>
<rect x="817.869" y="91.9141" width="5" height="12" transform="rotate(81.6873 817.869 91.9141)" fill="url(#paint6_linear_982_4264)"/>
<rect x="700.557" y="89" width="5" height="12" transform="rotate(7.45371 700.557 89)" fill="url(#paint7_linear_982_4264)"/>
<rect x="754.355" y="167.188" width="3.77922" height="9.07013" transform="rotate(43.5459 754.355 167.188)" fill="url(#paint8_linear_982_4264)"/>
<rect x="817.869" y="91.9141" width="5" height="12" transform="rotate(81.6873 817.869 91.9141)" fill="url(#paint9_linear_982_4264)"/>
<rect x="700.557" y="89" width="5" height="12" transform="rotate(7.45371 700.557 89)" fill="url(#paint10_linear_982_4264)"/>
<rect x="754.355" y="167.188" width="3.77922" height="9.07013" transform="rotate(43.5459 754.355 167.188)" fill="url(#paint11_linear_982_4264)"/>
<rect x="921.388" y="246.158" width="7.357" height="17.6568" transform="rotate(125.295 921.388 246.158)" fill="url(#paint12_linear_982_4264)"/>
<rect x="799.358" y="124" width="7.357" height="17.6568" transform="rotate(51.061 799.358 124)" fill="url(#paint13_linear_982_4264)"/>
<rect x="777.329" y="261.899" width="5.56074" height="13.3458" transform="rotate(87.1532 777.329 261.899)" fill="url(#paint14_linear_982_4264)"/>
<rect x="921.388" y="246.158" width="7.357" height="17.6568" transform="rotate(125.295 921.388 246.158)" fill="url(#paint15_linear_982_4264)"/>
<rect x="799.358" y="124" width="7.357" height="17.6568" transform="rotate(51.061 799.358 124)" fill="url(#paint16_linear_982_4264)"/>
<rect x="777.329" y="261.899" width="5.56074" height="13.3458" transform="rotate(87.1532 777.329 261.899)" fill="url(#paint17_linear_982_4264)"/>
<rect x="853.254" y="222" width="7.357" height="17.6568" transform="rotate(60.2641 853.254 222)" fill="url(#paint18_linear_982_4264)"/>
<rect x="691" y="281.056" width="7.357" height="17.6568" transform="rotate(-13.9695 691 281.056)" fill="url(#paint19_linear_982_4264)"/>
<rect x="806.711" y="359.238" width="5.56074" height="13.3458" transform="rotate(22.1227 806.711 359.238)" fill="url(#paint20_linear_982_4264)"/>
<rect x="853.254" y="222" width="7.357" height="17.6568" transform="rotate(60.2641 853.254 222)" fill="url(#paint21_linear_982_4264)"/>
<rect x="691" y="281.056" width="7.357" height="17.6568" transform="rotate(-13.9695 691 281.056)" fill="url(#paint22_linear_982_4264)"/>
<rect x="806.711" y="359.238" width="5.56074" height="13.3458" transform="rotate(22.1227 806.711 359.238)" fill="url(#paint23_linear_982_4264)"/>
<rect x="162.254" y="335" width="7.357" height="17.6568" transform="rotate(60.2641 162.254 335)" fill="#C4C4C4"/>
<rect y="394.056" width="7.357" height="17.6568" transform="rotate(-13.9695 0 394.056)" fill="url(#paint24_linear_982_4264)"/>
<rect x="261.422" y="434.435" width="5.56074" height="13.3458" transform="rotate(-44.6411 261.422 434.435)" fill="url(#paint25_linear_982_4264)"/>
<rect x="162.254" y="335" width="7.357" height="17.6568" transform="rotate(60.2641 162.254 335)" fill="url(#paint26_linear_982_4264)"/>
<rect x="445" y="382.776" width="7.357" height="17.6568" transform="rotate(-13.9695 445 382.776)" fill="url(#paint27_linear_982_4264)"/>
<rect x="158.025" y="413" width="5.56074" height="13.3458" transform="rotate(22.1227 158.025 413)" fill="url(#paint28_linear_982_4264)"/>
<rect x="298.359" y="111.073" width="7.357" height="17.6568" transform="rotate(86.063 298.359 111.073)" fill="#C4C4C4"/>
<rect x="126.576" y="93.6279" width="7.357" height="17.6568" transform="rotate(11.8295 126.576 93.6279)" fill="#C4C4C4"/>
<rect x="196.728" y="214.377" width="5.56074" height="13.3458" transform="rotate(47.9216 196.728 214.377)" fill="#C4C4C4"/>
<rect x="298.359" y="111.073" width="7.357" height="17.6568" transform="rotate(86.063 298.359 111.073)" fill="url(#paint29_linear_982_4264)"/>
<rect x="126.576" y="93.6279" width="7.357" height="17.6568" transform="rotate(11.8295 126.576 93.6279)" fill="url(#paint30_linear_982_4264)"/>
<rect x="196.728" y="214.377" width="5.56074" height="13.3458" transform="rotate(47.9216 196.728 214.377)" fill="url(#paint31_linear_982_4264)"/>
<rect x="924.402" y="327.445" width="7.357" height="17.6568" transform="rotate(86.063 924.402 327.445)" fill="url(#paint32_linear_982_4264)"/>
<rect x="752.619" y="310" width="7.357" height="17.6568" transform="rotate(11.8295 752.619 310)" fill="url(#paint33_linear_982_4264)"/>
<rect x="822.771" y="430.749" width="5.56074" height="13.3458" transform="rotate(47.9216 822.771 430.749)" fill="url(#paint34_linear_982_4264)"/>
<rect x="924.402" y="327.445" width="7.357" height="17.6568" transform="rotate(86.063 924.402 327.445)" fill="url(#paint35_linear_982_4264)"/>
<rect x="752.619" y="310" width="7.357" height="17.6568" transform="rotate(11.8295 752.619 310)" fill="url(#paint36_linear_982_4264)"/>
<rect x="822.771" y="430.749" width="5.56074" height="13.3458" transform="rotate(47.9216 822.771 430.749)" fill="url(#paint37_linear_982_4264)"/>
<rect x="647.402" y="10.4453" width="7.357" height="17.6568" transform="rotate(86.063 647.402 10.4453)" fill="url(#paint38_linear_982_4264)"/>
<rect x="475.619" y="-7" width="7.357" height="17.6568" transform="rotate(11.8295 475.619 -7)" fill="url(#paint39_linear_982_4264)"/>
<rect x="545.771" y="113.749" width="5.56074" height="13.3458" transform="rotate(47.9216 545.771 113.749)" fill="url(#paint40_linear_982_4264)"/>
<rect x="647.402" y="10.4453" width="7.357" height="17.6568" transform="rotate(86.063 647.402 10.4453)" fill="url(#paint41_linear_982_4264)"/>
<rect x="475.619" y="-7" width="7.357" height="17.6568" transform="rotate(11.8295 475.619 -7)" fill="url(#paint42_linear_982_4264)"/>
<rect x="545.771" y="113.749" width="5.56074" height="13.3458" transform="rotate(47.9216 545.771 113.749)" fill="url(#paint43_linear_982_4264)"/>
</g>
<defs>
<linearGradient id="paint0_linear_982_4264" x1="185.783" y1="269.628" x2="194.304" y2="266.078" gradientUnits="userSpaceOnUse">
<stop stop-color="#BF3D5E"/>
<stop offset="1" stop-color="#E85B1C"/>
</linearGradient>
<linearGradient id="paint1_linear_982_4264" x1="104.645" y1="354.405" x2="109.588" y2="353.879" gradientUnits="userSpaceOnUse">
<stop stop-color="#0098F0"/>
<stop offset="1" stop-color="#8E1FC3"/>
</linearGradient>
<linearGradient id="paint2_linear_982_4264" x1="198.678" y1="355.269" x2="202.449" y2="355.265" gradientUnits="userSpaceOnUse">
<stop stop-color="#066FC5"/>
<stop offset="1" stop-color="#00A3FF"/>
</linearGradient>
<linearGradient id="paint3_linear_982_4264" x1="171.154" y1="182.022" x2="176.144" y2="182.018" gradientUnits="userSpaceOnUse">
<stop stop-color="#066FC5"/>
<stop offset="1" stop-color="#00A3FF"/>
</linearGradient>
<linearGradient id="paint4_linear_982_4264" x1="53.8418" y1="191.108" x2="58.7857" y2="190.582" gradientUnits="userSpaceOnUse">
<stop stop-color="#0098F0"/>
<stop offset="1" stop-color="#8E1FC3"/>
</linearGradient>
<linearGradient id="paint5_linear_982_4264" x1="107.641" y1="266.366" x2="114.081" y2="263.683" gradientUnits="userSpaceOnUse">
<stop stop-color="#00A3FF"/>
<stop offset="1" stop-color="#513CC6"/>
</linearGradient>
<linearGradient id="paint6_linear_982_4264" x1="817.869" y1="103.914" x2="826.39" y2="100.364" gradientUnits="userSpaceOnUse">
<stop stop-color="#BF3D5E"/>
<stop offset="1" stop-color="#E85B1C"/>
</linearGradient>
<linearGradient id="paint7_linear_982_4264" x1="700.557" y1="101" x2="709.077" y2="97.4497" gradientUnits="userSpaceOnUse">
<stop stop-color="#00A3FF"/>
<stop offset="1" stop-color="#34BB55"/>
</linearGradient>
<linearGradient id="paint8_linear_982_4264" x1="754.355" y1="176.258" x2="760.796" y2="173.574" gradientUnits="userSpaceOnUse">
<stop stop-color="#00A3FF"/>
<stop offset="1" stop-color="#34BB55"/>
</linearGradient>
<linearGradient id="paint9_linear_982_4264" x1="817.869" y1="103.914" x2="826.39" y2="100.364" gradientUnits="userSpaceOnUse">
<stop stop-color="#BF3D5E"/>
<stop offset="1" stop-color="#E85B1C"/>
</linearGradient>
<linearGradient id="paint10_linear_982_4264" x1="700.557" y1="101" x2="709.077" y2="97.4497" gradientUnits="userSpaceOnUse">
<stop stop-color="#00A3FF"/>
<stop offset="1" stop-color="#34BB55"/>
</linearGradient>
<linearGradient id="paint11_linear_982_4264" x1="754.355" y1="176.258" x2="760.796" y2="173.574" gradientUnits="userSpaceOnUse">
<stop stop-color="#00A3FF"/>
<stop offset="1" stop-color="#34BB55"/>
</linearGradient>
<linearGradient id="paint12_linear_982_4264" x1="921.388" y1="263.815" x2="933.925" y2="258.591" gradientUnits="userSpaceOnUse">
<stop stop-color="#5C10A0"/>
<stop offset="1" stop-color="#BF2FE5"/>
</linearGradient>
<linearGradient id="paint13_linear_982_4264" x1="799.358" y1="141.657" x2="811.896" y2="136.433" gradientUnits="userSpaceOnUse">
<stop stop-color="#BF3D5E"/>
<stop offset="1" stop-color="#E85B1C"/>
</linearGradient>
<linearGradient id="paint14_linear_982_4264" x1="777.329" y1="275.245" x2="786.805" y2="271.297" gradientUnits="userSpaceOnUse">
<stop stop-color="#5C10A0"/>
<stop offset="1" stop-color="#BF2FE5"/>
</linearGradient>
<linearGradient id="paint15_linear_982_4264" x1="921.388" y1="263.815" x2="933.925" y2="258.591" gradientUnits="userSpaceOnUse">
<stop stop-color="#5C10A0"/>
<stop offset="1" stop-color="#BF2FE5"/>
</linearGradient>
<linearGradient id="paint16_linear_982_4264" x1="799.358" y1="141.657" x2="811.896" y2="136.433" gradientUnits="userSpaceOnUse">
<stop stop-color="#BF3D5E"/>
<stop offset="1" stop-color="#E85B1C"/>
</linearGradient>
<linearGradient id="paint17_linear_982_4264" x1="777.329" y1="275.245" x2="786.805" y2="271.297" gradientUnits="userSpaceOnUse">
<stop stop-color="#5C10A0"/>
<stop offset="1" stop-color="#BF2FE5"/>
</linearGradient>
<linearGradient id="paint18_linear_982_4264" x1="853.254" y1="239.657" x2="865.791" y2="234.433" gradientUnits="userSpaceOnUse">
<stop stop-color="#5C10A0"/>
<stop offset="1" stop-color="#BF2FE5"/>
</linearGradient>
<linearGradient id="paint19_linear_982_4264" x1="691" y1="298.712" x2="703.537" y2="293.489" gradientUnits="userSpaceOnUse">
<stop stop-color="#00A3FF"/>
<stop offset="1" stop-color="#34BB55"/>
</linearGradient>
<linearGradient id="paint20_linear_982_4264" x1="806.711" y1="372.584" x2="816.187" y2="368.636" gradientUnits="userSpaceOnUse">
<stop stop-color="#00A3FF"/>
<stop offset="1" stop-color="#513CC6"/>
</linearGradient>
<linearGradient id="paint21_linear_982_4264" x1="853.254" y1="239.657" x2="865.791" y2="234.433" gradientUnits="userSpaceOnUse">
<stop stop-color="#5C10A0"/>
<stop offset="1" stop-color="#BF2FE5"/>
</linearGradient>
<linearGradient id="paint22_linear_982_4264" x1="691" y1="298.712" x2="703.537" y2="293.489" gradientUnits="userSpaceOnUse">
<stop stop-color="#00A3FF"/>
<stop offset="1" stop-color="#34BB55"/>
</linearGradient>
<linearGradient id="paint23_linear_982_4264" x1="806.711" y1="372.584" x2="816.187" y2="368.636" gradientUnits="userSpaceOnUse">
<stop stop-color="#00A3FF"/>
<stop offset="1" stop-color="#513CC6"/>
</linearGradient>
<linearGradient id="paint24_linear_982_4264" x1="-5.45398e-07" y1="411.712" x2="12.5374" y2="406.489" gradientUnits="userSpaceOnUse">
<stop stop-color="#34BB55"/>
<stop offset="1" stop-color="#00A3FF"/>
</linearGradient>
<linearGradient id="paint25_linear_982_4264" x1="261.422" y1="447.78" x2="270.898" y2="443.832" gradientUnits="userSpaceOnUse">
<stop stop-color="#34BB55"/>
<stop offset="1" stop-color="#00A3FF"/>
</linearGradient>
<linearGradient id="paint26_linear_982_4264" x1="162.254" y1="352.657" x2="174.791" y2="347.433" gradientUnits="userSpaceOnUse">
<stop stop-color="#BF3D5E"/>
<stop offset="1" stop-color="#E85B1C"/>
</linearGradient>
<linearGradient id="paint27_linear_982_4264" x1="445" y1="400.433" x2="457.537" y2="395.209" gradientUnits="userSpaceOnUse">
<stop stop-color="#BF3D5E"/>
<stop offset="1" stop-color="#E85B1C"/>
</linearGradient>
<linearGradient id="paint28_linear_982_4264" x1="158.025" y1="426.346" x2="167.502" y2="422.397" gradientUnits="userSpaceOnUse">
<stop stop-color="#34BB55"/>
<stop offset="1" stop-color="#00A3FF"/>
</linearGradient>
<linearGradient id="paint29_linear_982_4264" x1="298.359" y1="128.73" x2="310.897" y2="123.506" gradientUnits="userSpaceOnUse">
<stop stop-color="#BF3D5E"/>
<stop offset="1" stop-color="#E85B1C"/>
</linearGradient>
<linearGradient id="paint30_linear_982_4264" x1="126.576" y1="111.285" x2="139.114" y2="106.061" gradientUnits="userSpaceOnUse">
<stop stop-color="#BF3D5E"/>
<stop offset="1" stop-color="#E85B1C"/>
</linearGradient>
<linearGradient id="paint31_linear_982_4264" x1="196.728" y1="214.377" x2="202.276" y2="214.372" gradientUnits="userSpaceOnUse">
<stop stop-color="#066FC5"/>
<stop offset="1" stop-color="#00A3FF"/>
</linearGradient>
<linearGradient id="paint32_linear_982_4264" x1="924.402" y1="345.102" x2="936.94" y2="339.878" gradientUnits="userSpaceOnUse">
<stop stop-color="#00A3FF"/>
<stop offset="1" stop-color="#34BB55"/>
</linearGradient>
<linearGradient id="paint33_linear_982_4264" x1="752.619" y1="327.657" x2="765.156" y2="322.433" gradientUnits="userSpaceOnUse">
<stop stop-color="#00A3FF"/>
<stop offset="1" stop-color="#34BB55"/>
</linearGradient>
<linearGradient id="paint34_linear_982_4264" x1="822.771" y1="444.095" x2="832.248" y2="440.146" gradientUnits="userSpaceOnUse">
<stop stop-color="#00A3FF"/>
<stop offset="1" stop-color="#34BB55"/>
</linearGradient>
<linearGradient id="paint35_linear_982_4264" x1="924.402" y1="345.102" x2="936.94" y2="339.878" gradientUnits="userSpaceOnUse">
<stop stop-color="#00A3FF"/>
<stop offset="1" stop-color="#34BB55"/>
</linearGradient>
<linearGradient id="paint36_linear_982_4264" x1="752.619" y1="327.657" x2="765.156" y2="322.433" gradientUnits="userSpaceOnUse">
<stop stop-color="#00A3FF"/>
<stop offset="1" stop-color="#34BB55"/>
</linearGradient>
<linearGradient id="paint37_linear_982_4264" x1="822.771" y1="444.095" x2="832.248" y2="440.146" gradientUnits="userSpaceOnUse">
<stop stop-color="#BF3D5E"/>
<stop offset="1" stop-color="#E85B1C"/>
</linearGradient>
<linearGradient id="paint38_linear_982_4264" x1="647.402" y1="28.1021" x2="659.94" y2="22.8782" gradientUnits="userSpaceOnUse">
<stop stop-color="#00A3FF"/>
<stop offset="1" stop-color="#34BB55"/>
</linearGradient>
<linearGradient id="paint39_linear_982_4264" x1="475.619" y1="10.6568" x2="482.894" y2="9.88182" gradientUnits="userSpaceOnUse">
<stop stop-color="#0098F0"/>
<stop offset="1" stop-color="#8E1FC3"/>
</linearGradient>
<linearGradient id="paint40_linear_982_4264" x1="545.771" y1="127.095" x2="551.27" y2="126.509" gradientUnits="userSpaceOnUse">
<stop stop-color="#0098F0"/>
<stop offset="1" stop-color="#8E1FC3"/>
</linearGradient>
<linearGradient id="paint41_linear_982_4264" x1="647.402" y1="28.1021" x2="659.94" y2="22.8782" gradientUnits="userSpaceOnUse">
<stop stop-color="#00A3FF"/>
<stop offset="1" stop-color="#34BB55"/>
</linearGradient>
<linearGradient id="paint42_linear_982_4264" x1="475.619" y1="10.6568" x2="482.894" y2="9.88182" gradientUnits="userSpaceOnUse">
<stop stop-color="#0098F0"/>
<stop offset="1" stop-color="#8E1FC3"/>
</linearGradient>
<linearGradient id="paint43_linear_982_4264" x1="545.771" y1="127.095" x2="551.27" y2="126.509" gradientUnits="userSpaceOnUse">
<stop stop-color="#0098F0"/>
<stop offset="1" stop-color="#8E1FC3"/>
</linearGradient>
</defs>
</svg>
