<?xml version="1.0" encoding="UTF-8"?> <svg xmlns="http://www.w3.org/2000/svg" width="345" height="73" viewBox="0 0 345 73" fill="none"><path d="M106.52 0H115.132V39.173H106.52V0Z" fill="#020A47"></path><path d="M122.68 0H132.087L141.487 22.3341V0H150.107V39.173H140.7L131.3 16.8711V39.1971H122.68V0Z" fill="#020A47"></path><path d="M157.736 0H179.677V7.83299H166.356V15.674H175.25L173.458 23.507H166.356V39.173H157.736V0Z" fill="#020A47"></path><path d="M187.272 0H195.893V31.332H209.213V39.165H187.272V0Z" fill="#020A47"></path><path d="M216.817 34.1036V0H225.437V31.332H232.877V0H241.497V34.0795C241.493 35.4291 240.955 36.7222 240 37.6765C239.046 38.6307 237.753 39.1688 236.404 39.173H221.943C220.591 39.1794 219.292 38.6492 218.331 37.6987C217.37 36.7483 216.826 35.4553 216.817 34.1036Z" fill="#020A47"></path><path d="M256.903 20.0043L248.62 0H257.859L263.957 15.2643L270.054 0H279.341L271.026 20.0043L279.414 39.1971H270.07L263.973 24.6478L257.931 39.1971H248.532L256.903 20.0043Z" fill="#020A47"></path><path d="M286.528 0H306.508C307.857 0.006338 309.149 0.545005 310.103 1.49884C311.057 2.45268 311.595 3.74456 311.602 5.09347V34.0795C311.598 35.4291 311.06 36.7222 310.105 37.6765C309.151 38.6307 307.858 39.1688 306.508 39.173H286.528V0ZM303.022 31.332V7.85711H295.189V31.332H303.022Z" fill="#020A47"></path><path d="M319.223 0H339.195C340.544 0.00423728 341.838 0.542247 342.792 1.49654C343.746 2.45083 344.284 3.74391 344.288 5.09347V14.8867C344.29 15.8923 343.993 16.8758 343.436 17.7125C342.878 18.5492 342.084 19.2014 341.155 19.5865C342.083 19.9733 342.875 20.626 343.433 21.4623C343.99 22.2986 344.288 23.2811 344.288 24.2863V34.0795C344.286 35.4297 343.749 36.7241 342.794 37.6788C341.839 38.6336 340.545 39.1709 339.195 39.173H319.223V0ZM335.676 15.674V7.83299H327.835V15.674H335.676ZM335.676 31.34V23.507H327.835V31.332L335.676 31.34Z" fill="#020A47"></path><path d="M109.64 73H118.523C120.238 73 121.644 71.5939 121.644 69.8791V48.9933H116.362V68.1987H111.801V48.9933H106.52V69.8791C106.52 71.5939 107.926 73 109.64 73Z" fill="#020A47"></path><path d="M133.239 73H138.521V59.3162L144.282 73H150.044V48.9933H144.763V62.6771L139.001 48.9933H133.239V73Z" fill="#020A47"></path><path d="M161.634 73H166.915V48.9933H161.634V73Z" fill="#020A47"></path><path d="M182.623 73H190.476L195.586 48.9933H190.202L186.532 68.1987L182.863 48.9933H177.478L182.623 73Z" fill="#020A47"></path><path d="M206.165 73H219.608V68.1987H211.446V63.3973H215.802L216.899 58.596H211.446V53.7946H219.608V48.9933H206.165V73Z" fill="#020A47"></path><path d="M231.21 73H236.491V66.2781H239.647L241.396 73H246.849L245.031 65.9695C246.128 65.4893 246.814 64.3919 246.814 63.1915V52.1142C246.814 50.3994 245.408 48.9933 243.693 48.9933H231.21V73ZM236.491 61.4768V53.7946H241.533V61.4768H236.491Z" fill="#020A47"></path><path d="M261.553 73H269.715C271.43 73 272.836 71.5939 272.836 69.8791V63.0544C272.836 61.8197 272.082 60.688 270.916 60.2078L263.714 57.1556V53.7946H267.555V56.6754L272.836 55.4751V52.1142C272.836 50.3994 271.43 48.9933 269.715 48.9933H261.553C259.838 48.9933 258.432 50.3994 258.432 52.1142V58.2187C258.432 59.4534 259.187 60.5851 260.353 61.0652L267.555 64.1175V68.1987H263.714V65.3178L258.432 66.5182V69.8791C258.432 71.5939 259.838 73 261.553 73Z" fill="#020A47"></path><path d="M284.415 73H289.697V48.9933H284.415V73Z" fill="#020A47"></path><path d="M305.884 73H311.166V53.7946H316.447V48.9933H300.603V53.7946H305.884V73Z" fill="#020A47"></path><path d="M332.654 73H337.901V65.0778L344.211 48.9933H338.552L335.294 59.0761L332.002 48.9933H326.343L332.654 65.0778V73Z" fill="#020A47"></path><path d="M77 26.3038V46.7334C76.8947 47.463 76.8947 48.1926 76.7893 48.9223C76.2627 51.4239 75.104 53.4043 73.3133 55.072C71.4172 56.844 69.2052 57.8863 66.6772 58.0947C65.2025 58.199 63.7658 58.0872 62.3964 58.1914V51.6214L65.5185 51.6323C65.9398 51.6323 66.2558 51.5281 66.5718 51.5281C68.8892 51.0069 70.3639 49.1307 70.3639 46.7334V26.3038C70.3639 25.8869 70.3639 25.5742 70.2586 25.1572C69.7319 22.9683 67.8358 21.5091 65.4131 21.5091H25.2743V14.9424H64.7811C65.6238 14.9424 66.4665 14.9424 67.3092 15.0467C71.2066 15.7763 74.0506 17.8609 75.8413 21.3006C76.684 22.8641 77 24.6361 77 26.3038Z" fill="#D30971"></path><path d="M9.79617 51.6323H52.7729V58.199H0.948017C0.842682 58.199 0.805621 58.199 0.632011 58.199C0.316006 58.199 0 57.954 0 57.6778C0 57.3158 0.255323 57.0476 0.632011 56.9482C2.21204 56.5313 3.16006 55.3847 3.26539 53.6127V19.5287C3.26539 17.8609 2.42271 16.6102 0.526676 16.089C0.270899 16.0187 -3.45149e-08 15.8818 9.31601e-09 15.6721C7.9642e-08 15.3356 0.115086 14.9424 0.737346 14.9424H15.6949V21.5091H9.79617V51.6323Z" fill="#D30971"></path><path d="M62.3964 14.6V14.9424H55.8392C55.8392 14.8136 55.8392 14.8086 55.8392 14.7043V11.4714C55.8392 10.8457 55.7335 10.22 55.5219 9.59429C54.8874 8.03 53.1952 6.57 50.7627 6.57H25.2743V21.4829V33.1629H50.7627C51.08 33.1629 51.1767 33.1538 51.8203 33.0586C53.9355 32.7457 55.6277 30.9729 55.7335 28.7829C55.8392 27.3229 55.8392 25.7585 55.8392 24.2986V23.9857H62.3964V28.47C62.3964 30.0343 62.0791 31.5986 61.4446 33.0586C60.81 34.31 60.0697 35.4571 59.0121 36.3957L59.1178 36.5C61.233 38.69 62.2906 41.1929 62.3964 44.1129C62.5022 46.5114 62.3964 48.91 62.3964 51.3086V51.6214V58.1914V59.8602C62.3964 61.0072 62.3964 62.0501 62.2907 63.1971C62.0791 65.4914 61.1273 67.4729 59.5409 69.2457C57.2141 71.7486 54.2528 73 50.7627 73H15.9673C15.5442 73 15.367 72.8339 15.3327 72.5829C15.3052 72.3814 15.4385 72.0614 15.7557 71.9571C15.9673 71.8529 16.1811 71.8517 16.3903 71.7486C17.2364 71.3314 17.9767 70.9143 18.294 70.08C18.6113 69.4543 18.6113 68.9329 18.6113 68.4114V60.59H25.2743V66.5343H50.8685C51.3973 66.5343 51.9261 66.43 52.3491 66.3257C54.4643 65.7 55.8392 63.8229 55.8392 61.5286V44.7385C55.8392 44.7385 55.8144 44.5424 55.7335 43.9043C55.4162 41.4014 53.4067 39.7329 50.8685 39.7329H25.2743V51.6323H18.6113V4.27571C18.5055 3.02429 17.9767 2.08572 16.8134 1.56428C16.4961 1.46 15.9304 1.23729 15.7557 1.14715C15.4385 1.04286 15.2269 0.730003 15.3327 0.417144C15.4566 0.0506307 15.9304 0 15.8615 0H51.2915L51.3973 0.104285C54.5701 0.208575 57.2141 1.46 59.3293 3.65C61.233 5.63143 62.1849 7.92572 62.3964 10.5329C62.5022 11.8886 62.3964 13.2443 62.3964 14.6Z" fill="#020A47"></path></svg> 