<?xml version="1.0" encoding="utf-8"?>
<!-- Generator: Adobe Illustrator 25.0.1, SVG Export Plug-In . SVG Version: 6.00 Build 0)  -->
<svg version="1.1" xmlns="http://www.w3.org/2000/svg" xmlns:xlink="http://www.w3.org/1999/xlink" x="0px" y="0px"
	 viewBox="0 0 270 200" style="enable-background:new 0 0 270 200;" xml:space="preserve">
<style type="text/css">
	.st0{opacity:0.25;fill:url(#SVGID_1_);}
	.st1{fill:url(#SVGID_2_);}
	.st2{fill:url(#SVGID_3_);}
	.st3{fill:url(#SVGID_4_);}
	.st4{opacity:0.6;}
	.st5{fill:#202028;}
	.st6{fill:url(#SVGID_5_);}
	.st7{opacity:0.66;fill:url(#SVGID_6_);}
	.st8{opacity:0.66;fill:url(#SVGID_7_);}
	.st9{fill:url(#SVGID_8_);}
	.st10{fill:url(#SVGID_9_);}
	.st11{fill:url(#SVGID_10_);}
	.st12{fill:url(#SVGID_11_);}
	.st13{opacity:0.49;fill:url(#SVGID_12_);}
	.st14{fill:url(#SVGID_13_);}
	.st15{fill:url(#SVGID_14_);}
	.st16{fill:url(#SVGID_15_);}
	.st17{fill:url(#SVGID_16_);}
	.st18{opacity:0.57;fill:url(#SVGID_17_);}
	.st19{fill:url(#SVGID_18_);}
	.st20{fill:url(#SVGID_19_);}
	.st21{fill:url(#SVGID_20_);}
	.st22{fill:url(#SVGID_21_);}
	.st23{opacity:0.64;}
	.st24{fill:#2B2B35;}
	.st25{fill:url(#SVGID_22_);}
	.st26{fill:url(#SVGID_23_);}
	.st27{fill:url(#SVGID_24_);}
	.st28{fill:url(#SVGID_25_);}
	.st29{opacity:0.81;}
	.st30{opacity:0.85;fill:url(#SVGID_26_);}
	.st31{fill:#BA2FE0;}
	.st32{fill:#22A8F1;}
	.st33{opacity:0.85;fill:url(#SVGID_27_);}
	.st34{opacity:0.85;fill:url(#SVGID_28_);}
	.st35{fill:#D1F122;}
	.st36{opacity:0.85;fill:url(#SVGID_29_);}
	.st37{opacity:0.85;fill:url(#SVGID_30_);}
	.st38{opacity:0.85;fill:url(#SVGID_31_);}
	.st39{opacity:0.85;fill:url(#SVGID_32_);}
	.st40{opacity:0.85;fill:url(#SVGID_33_);}
	.st41{opacity:0.85;fill:url(#SVGID_34_);}
	.st42{fill:url(#SVGID_35_);}
	.st43{fill:url(#SVGID_36_);}
	.st44{fill:#292933;}
	.st45{fill:#3B3C47;}
	.st46{fill:#B67FEF;}
	.st47{opacity:0.83;fill:url(#SVGID_37_);}
	.st48{opacity:0.83;fill:url(#SVGID_38_);}
	.st49{fill:url(#SVGID_39_);}
	.st50{opacity:0.77;fill:url(#SVGID_40_);}
	.st51{opacity:0.65;}
	.st52{fill:#E8CCF0;}
	.st53{opacity:0.58;}
	.st54{fill:#43A7DE;}
	.st55{fill:#885AEA;}
</style>
<g id="platform">
	<g>
		
			<radialGradient id="SVGID_1_" cx="-669.4922" cy="211.4115" r="63.0616" gradientTransform="matrix(1.8767 5.896326e-02 -6.338398e-02 1.0681 1404.8597 -59.3306)" gradientUnits="userSpaceOnUse">
			<stop  offset="0" style="stop-color:#22A4ED;stop-opacity:0.8"/>
			<stop  offset="0.925" style="stop-color:#21A8F1;stop-opacity:0"/>
		</radialGradient>
		<ellipse class="st0" cx="135" cy="127" rx="134.2" ry="73"/>
		<g>
			<linearGradient id="SVGID_2_" gradientUnits="userSpaceOnUse" x1="21.1831" y1="112.8979" x2="265.2045" y2="112.8979">
				<stop  offset="0" style="stop-color:#2A2A34"/>
				<stop  offset="1" style="stop-color:#2A2A35"/>
			</linearGradient>
			<path class="st1" d="M265.2,112.1V99h-9.6v3.6L153.2,43.5c-6.2-3.6-13.8-3.6-19.9,0L30.8,102.7v-3.7h-9.6l0.1,14.2l0,0.3
				c0.2,2.6,1.5,5,4.1,6.5l107.9,62.3c6.2,3.6,13.8,3.6,19.9,0L261.1,120C264.1,118.3,265.5,115.1,265.2,112.1z"/>
			<linearGradient id="SVGID_3_" gradientUnits="userSpaceOnUse" x1="147.1452" y1="112.9878" x2="271.1105" y2="116.0325">
				<stop  offset="0" style="stop-color:#2A2A34"/>
				<stop  offset="0.809" style="stop-color:#3B3B46"/>
			</linearGradient>
			<path class="st2" d="M261.1,120l-107.9,62.3c-3,1.8-6.4,2.6-9.8,2.7V40.8c3.4,0,6.7,0.9,9.8,2.7l102.4,59.1V99h9.6v13.1
				C265.4,115.1,264.1,118.3,261.1,120z"/>
		</g>
		<g>
			
				<linearGradient id="SVGID_4_" gradientUnits="userSpaceOnUse" x1="1999.9363" y1="167.2527" x2="1994.7473" y2="-35.1207" gradientTransform="matrix(-1 0 0 1 2141.3416 0)">
				<stop  offset="0" style="stop-color:#434453"/>
				<stop  offset="1" style="stop-color:#383846"/>
			</linearGradient>
			<path class="st3" d="M261,95.8L153,33.4c-6.2-3.6-13.8-3.6-19.9,0l-108,62.3c-5.5,3.2-5.5,11.1,0,14.3l108,62.3
				c6.2,3.6,13.8,3.6,19.9,0L261,110C266.5,106.9,266.5,98.9,261,95.8z"/>
			<g>
				<g>
					<g class="st4">
						<path class="st5" d="M70.4,146.3c-0.2,0-0.3-0.1-0.3-0.3v-9.7c0-0.1,0.1-0.2,0.2-0.3l10.7-6.1c0.4-0.2,0.7-0.7,0.7-1.1
							c0-0.5-0.2-0.9-0.6-1.1l-7.4-4.3c-0.5-0.3-0.9-0.9-0.9-1.5c0-0.6,0.3-1.2,0.8-1.5l28.1-17.2c0.1-0.1,0.3,0,0.4,0.1
							c0.1,0.1,0,0.3-0.1,0.4l-28.1,17.2c-0.3,0.2-0.6,0.6-0.5,1c0,0.4,0.2,0.8,0.6,1l7.4,4.3c0.6,0.3,0.9,1,0.9,1.6
							c0,0.7-0.4,1.3-1,1.6l-10.6,6v9.6C70.7,146.1,70.6,146.3,70.4,146.3z"/>
					</g>
					<g class="st4">
						<path class="st5" d="M66.4,118.2c-1,0-2-0.3-2.9-0.8c-6-3.6-28.4-17.6-36.3-22.6c-0.1-0.1-0.2-0.3-0.1-0.4
							c0.1-0.1,0.3-0.2,0.4-0.1c7.9,5,30.3,19,36.3,22.6c1.6,0.9,3.6,1,5.1,0c6.4-3.7,28-16.1,28-16.1l0.3,0.5
							c0,0-21.6,12.4-28,16.1C68.4,117.9,67.4,118.2,66.4,118.2z"/>
					</g>
				</g>
				<g>
					<g class="st4">
						<path class="st5" d="M66.2,115.2c-0.8,0-1.5-0.2-2.2-0.6c-5.2-3.1-26.5-16.4-34.5-21.4c-0.1-0.1-0.2-0.3-0.1-0.4
							c0.1-0.1,0.3-0.2,0.4-0.1c8,5,29.3,18.3,34.4,21.4c1.1,0.7,2.5,0.7,3.7,0c5.9-3.4,26.1-14.9,26.3-15c0.1-0.1,0.3,0,0.4,0.1
							c0.1,0.1,0,0.3-0.1,0.4c-0.2,0.1-20.4,11.7-26.3,15C67.6,115,66.9,115.2,66.2,115.2z"/>
					</g>
				</g>
			</g>
			<g>
				
					<linearGradient id="SVGID_5_" gradientUnits="userSpaceOnUse" x1="1998.2863" y1="29.7199" x2="1998.2863" y2="176.0801" gradientTransform="matrix(-1 0 0 1 2141.3416 0)">
					<stop  offset="0" style="stop-color:#383846;stop-opacity:0"/>
					<stop  offset="1" style="stop-color:#504C66"/>
				</linearGradient>
				<path class="st6" d="M143.1,176.1c-3.6,0-7.3-0.9-10.5-2.8l-108-62.3c-2.9-1.7-4.6-4.7-4.6-8c0-3.4,1.7-6.4,4.6-8l108-62.3
					c6.5-3.7,14.5-3.7,21,0l108,62.3c2.9,1.7,4.6,4.7,4.6,8c0,3.4-1.7,6.4-4.6,8l-108,62.3C150.3,175.1,146.7,176.1,143.1,176.1z
					 M143.1,31.8c-3.3,0-6.5,0.8-9.5,2.5l-108,62.3c-2.3,1.3-3.6,3.6-3.6,6.2s1.3,4.9,3.6,6.2l108,62.3c5.8,3.4,13.1,3.4,18.9,0
					l108-62.3c2.3-1.3,3.6-3.6,3.6-6.2s-1.3-4.9-3.6-6.2l-108-62.3C149.6,32.6,146.3,31.8,143.1,31.8z"/>
			</g>
		</g>
	</g>
	<linearGradient id="SVGID_6_" gradientUnits="userSpaceOnUse" x1="209.1026" y1="162.5984" x2="119.3182" y2="118.4098">
		<stop  offset="0" style="stop-color:#1C1C23"/>
		<stop  offset="0.7676" style="stop-color:#292933;stop-opacity:0"/>
	</linearGradient>
	<polygon class="st7" points="189.3,153.1 113.9,133.6 133.7,121.4 206.6,143.5 192.3,145.3 	"/>
	<linearGradient id="SVGID_7_" gradientUnits="userSpaceOnUse" x1="137.9231" y1="110.4539" x2="46.1764" y2="65.2995">
		<stop  offset="0" style="stop-color:#1C1C23"/>
		<stop  offset="0.7676" style="stop-color:#292933;stop-opacity:0"/>
	</linearGradient>
	<polygon class="st8" points="114.6,112.6 36.1,90 81.3,64.8 139.9,81.8 118.6,102.8 	"/>
</g>
<g id="Layer_15">
	<g>
		<linearGradient id="SVGID_8_" gradientUnits="userSpaceOnUse" x1="120.0659" y1="106.1326" x2="60.3312" y2="72.6422">
			<stop  offset="0.1872" style="stop-color:#31313C"/>
			<stop  offset="0.9963" style="stop-color:#353542"/>
		</linearGradient>
		<path class="st9" d="M116.7,112c-0.7,0.6-3,0.5-3.8,0L77.5,91.7c-0.9-0.5-1.5-1.5-1.5-2.5V72.1c0-0.2,0.3-0.4,0.5-0.3l38.2,21.9
			c0,0,0,0,0,0v16.9C114.8,111.7,115.8,112.4,116.7,112z"/>
		<linearGradient id="SVGID_9_" gradientUnits="userSpaceOnUse" x1="171.3923" y1="71.1451" x2="124.1714" y2="97.939">
			<stop  offset="5.715192e-02" style="stop-color:#6C6E7F"/>
			<stop  offset="1" style="stop-color:#4E4F5E"/>
		</linearGradient>
		<path class="st10" d="M153.7,71.4v18.1c0,0.8-0.4,1.6-1.1,2l-35.6,20.4c-0.9,0.5-2.1-0.1-2.1-1.2v-17L153.7,71.4z"/>
		<linearGradient id="SVGID_10_" gradientUnits="userSpaceOnUse" x1="106.8851" y1="101.5852" x2="123.268" y2="100.3957">
			<stop  offset="0.1663" style="stop-color:#2F2F3A"/>
			<stop  offset="0.9428" style="stop-color:#4F505F"/>
		</linearGradient>
		<path class="st11" d="M123.1,88.9v19.5l-6.2,3.6c0,0-0.1,0-0.1,0.1c-0.6,0.6-3.1,0.5-3.8,0.1l-4-2.3V90.5l5.8,3.3c0,0,0,0,0,0
			v-0.1L123.1,88.9z"/>
		
			<linearGradient id="SVGID_11_" gradientUnits="userSpaceOnUse" x1="2427.5239" y1="91.6889" x2="2425.8816" y2="27.6338" gradientTransform="matrix(-1 0 0 1 2541.9236 0)">
			<stop  offset="0" style="stop-color:#434453"/>
			<stop  offset="1" style="stop-color:#383846"/>
		</linearGradient>
		<path class="st12" d="M152.4,69.2l-33.6-19.7c-2.1-1.2-4.7-1.2-6.8,0l-34.6,20c-1.7,1-1.7,3.4,0,4.4l33.9,19.5
			c2.1,1.2,4.6,1.2,6.7,0l34.2-19.7C154,72.6,154.1,70.2,152.4,69.2z"/>
		<linearGradient id="SVGID_12_" gradientUnits="userSpaceOnUse" x1="31.0226" y1="73.5595" x2="169.5607" y2="62.9481">
			<stop  offset="0" style="stop-color:#292933;stop-opacity:0"/>
			<stop  offset="0.8128" style="stop-color:#1E1E26"/>
		</linearGradient>
		<path class="st13" d="M150,67.5c-0.1-0.1-0.2-0.2-0.3-0.3c-2.1-1.6-1.7-1.4-3.5-3.4c-0.9-0.9-1.4-2.1-1.7-3.3l-25.9-15.3
			c-2.1-1.2-4.7-1.2-6.8,0L92,56.6l-15.5-8.9c-0.2-0.1-0.5,0-0.5,0.3v17.1c0,1,0.6,2,1.5,2.5l1.5,0.9l-1,0.6
			c-0.3,0.1-0.6,0.3-0.9,0.4c0,0,0.1,0,0.1,0.1c-1.4,1.1-1.4,3.3,0.2,4.2l27.2,15.6l8.8,0.5c0.5,0.1,0.9,0.1,1.4,0.1l0.5,0l-0.1-0.1
			c0.9-0.1,1.8-0.4,2.6-0.8l34.5-19.8C152.6,69.2,149.9,67.6,150,67.5z"/>
		
			<linearGradient id="SVGID_13_" gradientUnits="userSpaceOnUse" x1="2460.1614" y1="76.1023" x2="2425.4683" y2="56.6516" gradientTransform="matrix(-1 0 0 1 2541.9236 0)">
			<stop  offset="3.724167e-03" style="stop-color:#30313B"/>
			<stop  offset="0.8128" style="stop-color:#2C2C37"/>
		</linearGradient>
		<path class="st14" d="M114.9,69.9l2,17.6c0,1-3.1,0.9-4,0.4L77.5,67.6c-0.9-0.5-1.5-1.5-1.5-2.5V48.1c0-0.2,0.3-0.4,0.5-0.3
			l38.2,21.9C114.8,69.7,114.9,69.8,114.9,69.9z"/>
		<linearGradient id="SVGID_14_" gradientUnits="userSpaceOnUse" x1="171.3923" y1="47.0664" x2="124.1714" y2="73.8603">
			<stop  offset="5.715192e-02" style="stop-color:#6C6E7F"/>
			<stop  offset="1" style="stop-color:#4E4F5E"/>
		</linearGradient>
		<path class="st15" d="M153.7,47.3v18.1c0,0.8-0.4,1.6-1.1,2l-35.6,20.4c-0.9,0.5-2.1-0.1-2.1-1.2v-17L153.7,47.3z"/>
		<linearGradient id="SVGID_15_" gradientUnits="userSpaceOnUse" x1="106.8851" y1="77.3372" x2="123.268" y2="76.1477">
			<stop  offset="0.1663" style="stop-color:#2F2F3A"/>
			<stop  offset="0.9428" style="stop-color:#4F505F"/>
		</linearGradient>
		<path class="st16" d="M123.1,64.7v19.5l-6.2,3.6c0,0-0.1,0-0.1,0.1c-0.6,0.6-3.1,0.5-3.8,0.1l-4-2.3V66.2l5.8,3.3c0,0,0,0,0,0
			v-0.1L123.1,64.7z"/>
		
			<linearGradient id="SVGID_16_" gradientUnits="userSpaceOnUse" x1="2427.5239" y1="67.6101" x2="2425.8816" y2="3.555" gradientTransform="matrix(-1 0 0 1 2541.9236 0)">
			<stop  offset="0" style="stop-color:#434453"/>
			<stop  offset="1" style="stop-color:#383846"/>
		</linearGradient>
		<path class="st17" d="M152.4,45.1l-33.6-19.7c-2.1-1.2-4.7-1.2-6.8,0l-34.6,20c-1.7,1-1.7,3.4,0,4.4l33.9,19.5
			c2.1,1.2,4.6,1.2,6.7,0l34.2-19.7C154,48.5,154.1,46.1,152.4,45.1z"/>
		<linearGradient id="SVGID_17_" gradientUnits="userSpaceOnUse" x1="31.0226" y1="49.4807" x2="169.5607" y2="38.8693">
			<stop  offset="0" style="stop-color:#292933;stop-opacity:0"/>
			<stop  offset="0.8128" style="stop-color:#1E1E26"/>
		</linearGradient>
		<path class="st18" d="M150,43.4c-0.1-0.1-0.2-0.2-0.3-0.3c-2.1-1.6-1.7-1.4-3.5-3.4c-0.9-0.9-1.4-2.1-1.7-3.3l-25.9-15.3
			c-2.1-1.2-4.7-1.2-6.8,0L92,32.6l-15.4-8.8c-0.2-0.1-0.5,0-0.5,0.3v17.1c0,1,0.6,2,1.5,2.5l1.5,0.8L78,45
			c-0.3,0.1-0.6,0.3-0.9,0.4c0,0,0.1,0,0.1,0.1c-1.4,1.1-1.4,3.3,0.2,4.2l27.2,15.6l10.7,0.6l-0.1-0.1c0.9-0.1,1.8-0.4,2.6-0.8
			l34.5-19.8C152.6,45.1,149.9,43.6,150,43.4z"/>
		<linearGradient id="SVGID_18_" gradientUnits="userSpaceOnUse" x1="120.0988" y1="58.0302" x2="60.321" y2="24.5157">
			<stop  offset="3.724167e-03" style="stop-color:#30313B"/>
			<stop  offset="0.8128" style="stop-color:#2C2C37"/>
		</linearGradient>
		<path class="st19" d="M114.9,45.9l2,17.6c0,1-3.1,0.9-4,0.4L77.5,43.6c-0.9-0.5-1.5-1.5-1.5-2.5V24c0-0.2,0.3-0.4,0.5-0.3
			l38.2,21.9C114.8,45.7,114.9,45.8,114.9,45.9z"/>
		<linearGradient id="SVGID_19_" gradientUnits="userSpaceOnUse" x1="116.2048" y1="52.663" x2="159.1811" y2="32.0591">
			<stop  offset="0.1409" style="stop-color:#4E4F5E"/>
			<stop  offset="0.9428" style="stop-color:#6C6E7F"/>
		</linearGradient>
		<path class="st20" d="M153.7,23.3v18.1c0,0.8-0.4,1.6-1.1,2l-35.6,20.4c-0.9,0.5-2.1-0.1-2.1-1.2v-17L153.7,23.3z"/>
		<linearGradient id="SVGID_20_" gradientUnits="userSpaceOnUse" x1="106.8851" y1="53.397" x2="123.268" y2="52.2074">
			<stop  offset="0.1663" style="stop-color:#2F2F3A"/>
			<stop  offset="0.9428" style="stop-color:#4F505F"/>
		</linearGradient>
		<path class="st21" d="M123.1,40.7v19.5l-6.2,3.6c0,0-0.1,0-0.1,0.1c-0.6,0.6-3.1,0.5-3.8,0.1l-4-2.3V42.3l5.8,3.3c0,0,0,0,0,0
			v-0.1L123.1,40.7z"/>
		
			<linearGradient id="SVGID_21_" gradientUnits="userSpaceOnUse" x1="2427.5239" y1="43.5684" x2="2425.8816" y2="-20.4868" gradientTransform="matrix(-1 0 0 1 2541.9236 0)">
			<stop  offset="0" style="stop-color:#434453"/>
			<stop  offset="1" style="stop-color:#383846"/>
		</linearGradient>
		<path class="st22" d="M152.4,21L118.8,1.3c-2.1-1.2-4.7-1.2-6.8,0l-34.6,20c-1.7,1-1.7,3.4,0,4.4l33.9,19.5c2.1,1.2,4.6,1.2,6.7,0
			l34.2-19.7C154,24.5,154.1,22,152.4,21z"/>
		<g>
			<g class="st23">
				<g>
					<path class="st24" d="M102.1,14.2c-0.2,0-0.3-0.1-0.4-0.2c-0.1-0.2-0.1-0.5,0.2-0.7l3.3-2c0.2-0.1,0.5-0.1,0.7,0.2
						c0.1,0.2,0.1,0.5-0.2,0.7l-3.3,2C102.3,14.2,102.2,14.2,102.1,14.2z"/>
				</g>
				<g>
					<path class="st24" d="M109.3,9.9c-0.2,0-0.3-0.1-0.4-0.2c-0.1-0.2-0.1-0.5,0.2-0.7l3-1.8c0.2-0.1,0.5-0.1,0.7,0.2
						c0.1,0.2,0.1,0.5-0.2,0.7l-3,1.8C109.5,9.9,109.4,9.9,109.3,9.9z"/>
				</g>
			</g>
			<g class="st23">
				<g>
					<path class="st24" d="M105.9,16.3c-0.2,0-0.3-0.1-0.4-0.2c-0.1-0.2-0.1-0.5,0.2-0.7l3.3-2c0.2-0.1,0.5-0.1,0.7,0.2
						c0.1,0.2,0.1,0.5-0.2,0.7l-3.3,2C106.1,16.3,106,16.3,105.9,16.3z"/>
				</g>
				<g>
					<path class="st24" d="M113.1,12.1c-0.2,0-0.3-0.1-0.4-0.2c-0.1-0.2-0.1-0.5,0.2-0.7l3-1.8c0.2-0.1,0.5-0.1,0.7,0.2
						c0.1,0.2,0.1,0.5-0.2,0.7l-3,1.8C113.3,12.1,113.2,12.1,113.1,12.1z"/>
				</g>
			</g>
			<g class="st23">
				<g>
					<path class="st24" d="M109.7,18.5c-0.2,0-0.3-0.1-0.4-0.2c-0.1-0.2-0.1-0.5,0.2-0.7l3.3-2c0.2-0.1,0.5-0.1,0.7,0.2
						c0.1,0.2,0.1,0.5-0.2,0.7l-3.3,2C109.8,18.5,109.8,18.5,109.7,18.5z"/>
				</g>
				<g>
					<path class="st24" d="M116.9,14.2c-0.2,0-0.3-0.1-0.4-0.2c-0.1-0.2-0.1-0.5,0.2-0.7l3-1.8c0.2-0.1,0.5-0.1,0.7,0.2
						c0.1,0.2,0.1,0.5-0.2,0.7l-3,1.8C117,14.2,117,14.2,116.9,14.2z"/>
				</g>
			</g>
			<g class="st23">
				<g>
					<path class="st24" d="M113.4,20.6c-0.2,0-0.3-0.1-0.4-0.2c-0.1-0.2-0.1-0.5,0.2-0.7l3.3-2c0.2-0.1,0.5-0.1,0.7,0.2
						c0.1,0.2,0.1,0.5-0.2,0.7l-3.3,2C113.6,20.6,113.5,20.6,113.4,20.6z"/>
				</g>
				<g>
					<path class="st24" d="M120.6,16.4c-0.2,0-0.3-0.1-0.4-0.2c-0.1-0.2-0.1-0.5,0.2-0.7l3-1.8c0.2-0.1,0.5-0.1,0.7,0.2
						c0.1,0.2,0.1,0.5-0.2,0.7l-3,1.8C120.8,16.3,120.7,16.4,120.6,16.4z"/>
				</g>
			</g>
			<g class="st23">
				<g>
					<path class="st24" d="M117.2,22.8c-0.2,0-0.3-0.1-0.4-0.2c-0.1-0.2-0.1-0.5,0.2-0.7l3.3-2c0.2-0.1,0.5-0.1,0.7,0.2
						c0.1,0.2,0.1,0.5-0.2,0.7l-3.3,2C117.4,22.8,117.3,22.8,117.2,22.8z"/>
				</g>
				<g>
					<path class="st24" d="M124.4,18.5c-0.2,0-0.3-0.1-0.4-0.2c-0.1-0.2-0.1-0.5,0.2-0.7l3-1.8c0.2-0.1,0.5-0.1,0.7,0.2
						c0.1,0.2,0.1,0.5-0.2,0.7l-3,1.8C124.6,18.5,124.5,18.5,124.4,18.5z"/>
				</g>
			</g>
			<g class="st23">
				<g>
					<path class="st24" d="M121,24.9c-0.2,0-0.3-0.1-0.4-0.2c-0.1-0.2-0.1-0.5,0.2-0.7l3.3-2c0.2-0.1,0.5-0.1,0.7,0.2
						c0.1,0.2,0.1,0.5-0.2,0.7l-3.3,2C121.1,24.9,121.1,24.9,121,24.9z"/>
				</g>
				<g>
					<path class="st24" d="M128.2,20.6c-0.2,0-0.3-0.1-0.4-0.2c-0.1-0.2-0.1-0.5,0.2-0.7l3-1.8c0.2-0.1,0.5-0.1,0.7,0.2
						c0.1,0.2,0.1,0.5-0.2,0.7l-3,1.8C128.3,20.6,128.3,20.6,128.2,20.6z"/>
				</g>
			</g>
			<g class="st23">
				<g>
					<path class="st24" d="M124.7,27.1c-0.2,0-0.3-0.1-0.4-0.2c-0.1-0.2-0.1-0.5,0.2-0.7l3.3-2c0.2-0.1,0.5-0.1,0.7,0.2
						c0.1,0.2,0.1,0.5-0.2,0.7l-3.3,2C124.9,27,124.8,27.1,124.7,27.1z"/>
				</g>
				<g>
					<path class="st24" d="M131.9,22.8c-0.2,0-0.3-0.1-0.4-0.2c-0.1-0.2-0.1-0.5,0.2-0.7l3-1.8c0.2-0.1,0.5-0.1,0.7,0.2
						c0.1,0.2,0.1,0.5-0.2,0.7l-3,1.8C132.1,22.8,132,22.8,131.9,22.8z"/>
				</g>
			</g>
			<g class="st23">
				<g>
					<path class="st24" d="M128.5,29.2c-0.2,0-0.3-0.1-0.4-0.2c-0.1-0.2-0.1-0.5,0.2-0.7l3.3-2c0.2-0.1,0.5-0.1,0.7,0.2
						c0.1,0.2,0.1,0.5-0.2,0.7l-3.3,2C128.7,29.2,128.6,29.2,128.5,29.2z"/>
				</g>
				<g>
					<path class="st24" d="M135.7,24.9c-0.2,0-0.3-0.1-0.4-0.2c-0.1-0.2-0.1-0.5,0.2-0.7l3-1.8c0.2-0.1,0.5-0.1,0.7,0.2
						c0.1,0.2,0.1,0.5-0.2,0.7l-3,1.8C135.9,24.9,135.8,24.9,135.7,24.9z"/>
				</g>
			</g>
		</g>
		<g>
			<linearGradient id="SVGID_22_" gradientUnits="userSpaceOnUse" x1="114.9179" y1="2.728484e-12" x2="114.9179" y2="46.4051">
				<stop  offset="0" style="stop-color:#383846;stop-opacity:0"/>
				<stop  offset="1" style="stop-color:#504C66"/>
			</linearGradient>
			<path class="st25" d="M114.8,46.4c-1.2,0-2.4-0.3-3.5-0.9L77.3,26c-0.9-0.5-1.5-1.5-1.5-2.5c0-1.1,0.5-2,1.5-2.5l34.6-20
				c2.2-1.3,5-1.3,7.2,0l33.6,19.7c0.9,0.5,1.4,1.5,1.4,2.5c0,1-0.5,2-1.5,2.5l-34.2,19.7C117.2,46.1,116,46.4,114.8,46.4z
				 M115.4,0.8c-1.1,0-2.2,0.3-3.2,0.9l-34.6,20c-0.7,0.4-1.1,1.1-1.1,1.9c0,0.8,0.4,1.5,1.1,1.9l33.9,19.5c2,1.1,4.4,1.1,6.3,0
				l34.2-19.7c0.7-0.4,1.1-1.1,1.1-1.9c0-0.8-0.4-1.5-1.1-1.9L118.6,1.6C117.6,1,116.5,0.8,115.4,0.8z"/>
		</g>
		
			<linearGradient id="SVGID_23_" gradientUnits="userSpaceOnUse" x1="1236.8865" y1="52.5025" x2="1202.3606" y2="33.1456" gradientTransform="matrix(1 0 0 1 -1127.2916 0)">
			<stop  offset="3.724167e-03" style="stop-color:#383945"/>
			<stop  offset="0.8128" style="stop-color:#2C2C37"/>
		</linearGradient>
		<path class="st26" d="M107.6,47.9l-8.2-4.7c0,0-0.1,0-0.2-0.1l-14.9-8.6c-0.7-0.4-1.5,0.1-1.5,0.9l0,4.7c0,0.7,0.4,1.4,1,1.8
			l22.9,12.9c0.8,0.5,1.8-0.1,1.8-1l0-3.9C108.7,49.1,108.3,48.3,107.6,47.9z"/>
		
			<linearGradient id="SVGID_24_" gradientUnits="userSpaceOnUse" x1="1236.8865" y1="77.5339" x2="1202.3606" y2="58.177" gradientTransform="matrix(1 0 0 1 -1127.2916 0)">
			<stop  offset="3.724167e-03" style="stop-color:#383945"/>
			<stop  offset="0.8128" style="stop-color:#2C2C37"/>
		</linearGradient>
		<path class="st27" d="M107.6,73l-8.2-4.7c0,0-0.1,0-0.2-0.1l-14.9-8.6c-0.7-0.4-1.5,0.1-1.5,0.9l0,4.7c0,0.7,0.4,1.4,1,1.8
			l22.9,12.9c0.8,0.5,1.8-0.1,1.8-1l0-3.9C108.7,74.1,108.3,73.4,107.6,73z"/>
		
			<linearGradient id="SVGID_25_" gradientUnits="userSpaceOnUse" x1="1236.8865" y1="100.3081" x2="1202.3606" y2="80.9512" gradientTransform="matrix(1 0 0 1 -1127.2916 0)">
			<stop  offset="3.724167e-03" style="stop-color:#383945"/>
			<stop  offset="0.8128" style="stop-color:#2C2C37"/>
		</linearGradient>
		<path class="st28" d="M107.6,95.8L99.4,91c0,0-0.1,0-0.2-0.1l-14.9-8.6c-0.7-0.4-1.5,0.1-1.5,0.9l0,4.7c0,0.7,0.4,1.4,1,1.8
			l22.9,12.9c0.8,0.5,1.8-0.1,1.8-1l0-3.9C108.7,96.9,108.3,96.1,107.6,95.8z"/>
		<g class="st29">
			
				<linearGradient id="SVGID_26_" gradientUnits="userSpaceOnUse" x1="3246.2812" y1="88.4497" x2="3252.0327" y2="91.0109" gradientTransform="matrix(-1 0 0 1 3337.3267 0)">
				<stop  offset="0" style="stop-color:#D1F122;stop-opacity:0.78"/>
				<stop  offset="1" style="stop-color:#D1F122;stop-opacity:0"/>
			</linearGradient>
			<polygon class="st30" points="90.6,90.6 86.2,92.6 82.2,90.4 88.9,87.9 			"/>
			
				<ellipse transform="matrix(0.7964 -0.6048 0.6048 0.7964 -36.3888 75.6273)" class="st31" cx="94.1" cy="91.9" rx="0.9" ry="1.6"/>
			
				<ellipse transform="matrix(0.7964 -0.6048 0.6048 0.7964 -35.1729 69.3682)" class="st32" cx="85.4" cy="86.9" rx="0.9" ry="1.6"/>
			
				<linearGradient id="SVGID_27_" gradientUnits="userSpaceOnUse" x1="3250.5422" y1="86.0682" x2="3256.2939" y2="88.6294" gradientTransform="matrix(-1 0 0 1 3337.3267 0)">
				<stop  offset="0" style="stop-color:#22A8F1"/>
				<stop  offset="1" style="stop-color:#22A8F1;stop-opacity:0"/>
			</linearGradient>
			<polygon class="st33" points="86.4,88.2 81.9,90.2 77.9,88 84.7,85.5 			"/>
			
				<linearGradient id="SVGID_28_" gradientUnits="userSpaceOnUse" x1="3241.8777" y1="91.0259" x2="3247.6292" y2="93.5871" gradientTransform="matrix(-1 0 0 1 3337.3267 0)">
				<stop  offset="0" style="stop-color:#BA2FE0"/>
				<stop  offset="1" style="stop-color:#BA2FE0;stop-opacity:0"/>
			</linearGradient>
			<polygon class="st34" points="95,93.2 90.6,95.2 86.6,93 93.3,90.5 			"/>
			
				<ellipse transform="matrix(0.7964 -0.6048 0.6048 0.7964 -35.7487 72.3936)" class="st35" cx="89.6" cy="89.3" rx="0.9" ry="1.6"/>
		</g>
		<g>
			
				<linearGradient id="SVGID_29_" gradientUnits="userSpaceOnUse" x1="3246.2812" y1="65.4157" x2="3252.0327" y2="67.9769" gradientTransform="matrix(-1 0 0 1 3337.3267 0)">
				<stop  offset="0" style="stop-color:#D1F122;stop-opacity:0.78"/>
				<stop  offset="1" style="stop-color:#D1F122;stop-opacity:0"/>
			</linearGradient>
			<polygon class="st36" points="90.6,67.6 86.2,69.6 82.2,67.4 88.9,64.8 			"/>
			
				<ellipse transform="matrix(0.7964 -0.6048 0.6048 0.7964 -22.4575 70.9367)" class="st31" cx="94.1" cy="68.8" rx="0.9" ry="1.6"/>
			
				<ellipse transform="matrix(0.7964 -0.6048 0.6048 0.7964 -21.2416 64.6776)" class="st32" cx="85.4" cy="63.9" rx="0.9" ry="1.6"/>
			
				<linearGradient id="SVGID_30_" gradientUnits="userSpaceOnUse" x1="3250.5422" y1="63.0342" x2="3256.2939" y2="65.5954" gradientTransform="matrix(-1 0 0 1 3337.3267 0)">
				<stop  offset="0" style="stop-color:#22A8F1"/>
				<stop  offset="1" style="stop-color:#22A8F1;stop-opacity:0"/>
			</linearGradient>
			<polygon class="st37" points="86.4,65.2 81.9,67.2 77.9,65 84.7,62.5 			"/>
			
				<linearGradient id="SVGID_31_" gradientUnits="userSpaceOnUse" x1="3241.8777" y1="67.9918" x2="3247.6292" y2="70.5531" gradientTransform="matrix(-1 0 0 1 3337.3267 0)">
				<stop  offset="0" style="stop-color:#BA2FE0"/>
				<stop  offset="1" style="stop-color:#BA2FE0;stop-opacity:0"/>
			</linearGradient>
			<polygon class="st38" points="95,70.2 90.6,72.1 86.6,70 93.3,67.4 			"/>
			
				<ellipse transform="matrix(0.7964 -0.6048 0.6048 0.7964 -21.8174 67.703)" class="st35" cx="89.6" cy="66.3" rx="0.9" ry="1.6"/>
		</g>
		<g>
			
				<linearGradient id="SVGID_32_" gradientUnits="userSpaceOnUse" x1="3246.2812" y1="40.6801" x2="3252.0327" y2="43.2413" gradientTransform="matrix(-1 0 0 1 3337.3267 0)">
				<stop  offset="0" style="stop-color:#D1F122;stop-opacity:0.78"/>
				<stop  offset="1" style="stop-color:#D1F122;stop-opacity:0"/>
			</linearGradient>
			<polygon class="st39" points="90.6,42.8 86.2,44.8 82.2,42.6 88.9,40.1 			"/>
			<ellipse transform="matrix(0.7964 -0.6048 0.6048 0.7964 -7.497 65.8997)" class="st31" cx="94.1" cy="44.1" rx="0.9" ry="1.6"/>
			
				<ellipse transform="matrix(0.7964 -0.6048 0.6048 0.7964 -6.2811 59.6406)" class="st32" cx="85.4" cy="39.1" rx="0.9" ry="1.6"/>
			
				<linearGradient id="SVGID_33_" gradientUnits="userSpaceOnUse" x1="3250.5422" y1="38.2986" x2="3256.2939" y2="40.8598" gradientTransform="matrix(-1 0 0 1 3337.3267 0)">
				<stop  offset="0" style="stop-color:#22A8F1"/>
				<stop  offset="1" style="stop-color:#22A8F1;stop-opacity:0"/>
			</linearGradient>
			<polygon class="st40" points="86.4,40.5 81.9,42.4 77.9,40.3 84.7,37.7 			"/>
			
				<linearGradient id="SVGID_34_" gradientUnits="userSpaceOnUse" x1="3241.8777" y1="43.2563" x2="3247.6292" y2="45.8175" gradientTransform="matrix(-1 0 0 1 3337.3267 0)">
				<stop  offset="0" style="stop-color:#BA2FE0"/>
				<stop  offset="1" style="stop-color:#BA2FE0;stop-opacity:0"/>
			</linearGradient>
			<polygon class="st41" points="95,45.4 90.6,47.4 86.6,45.2 93.3,42.7 			"/>
			<ellipse transform="matrix(0.7964 -0.6048 0.6048 0.7964 -6.8569 62.666)" class="st35" cx="89.6" cy="41.5" rx="0.9" ry="1.6"/>
		</g>
	</g>
	<g>
		
			<linearGradient id="SVGID_35_" gradientUnits="userSpaceOnUse" x1="-2178.249" y1="126.9255" x2="-2224.115" y2="117.1668" gradientTransform="matrix(-1 0 0 1 -2031.132 0)">
			<stop  offset="0" style="stop-color:#B32FD9"/>
			<stop  offset="0.1398" style="stop-color:#A639DA"/>
			<stop  offset="0.3962" style="stop-color:#8553DE"/>
			<stop  offset="0.7378" style="stop-color:#507DE5"/>
			<stop  offset="1" style="stop-color:#22A1EA"/>
		</linearGradient>
		<path class="st42" d="M179.1,101.2c0,0-5.2,1.6-6.8,5.6c-0.8,2-1.4,10.6-1.4,10.6s-3,18.9-1.1,23.9c0,0,17.4-13.5,24.1-11.2
			l-0.5-17.8l3.1-0.5c0,0,0.8-9.8-4.8-11.5C186,98.4,179.1,101.2,179.1,101.2z"/>
		
			<linearGradient id="SVGID_36_" gradientUnits="userSpaceOnUse" x1="-2247.3943" y1="190.4677" x2="-2215.7976" y2="129.2911" gradientTransform="matrix(-1 0 0 1 -2031.132 0)">
			<stop  offset="0" style="stop-color:#6D6F80"/>
			<stop  offset="1" style="stop-color:#3E3F4B"/>
		</linearGradient>
		<path class="st43" d="M189.7,139.9l7.5,9.6l-1.5,32.2l-7.8-0.1l0.7-28.6c0,0-14.9-9.1-17.5-12.4l11.1-7.3c0,0,6.7-4.4,10.7-3.6
			c4,0.9,21,10.3,21,10.3l0.6,36.2l-7.4,0.4l-1.2-32.5L189.7,139.9z"/>
		<polygon class="st44" points="218.2,134.6 201.1,131 184.8,141 197.7,145.5 		"/>
		<polygon class="st45" points="218.9,134 201.7,130.4 185.4,140.4 198.3,144.8 		"/>
		<path class="st46" d="M189.7,91.5c0,0,0,5.3-4.4,6.7l0.2,1.5l2.1-0.1c0.9,7-5.3,8.4-9.5,1.9l2.3-1.3l-0.7-10.1L189.7,91.5z"/>
		<path class="st46" d="M177.3,126.4l-0.2-10.9l-5.9,0.8l0.7,11.1c0.1,1.9,1.5,3.6,3.3,4l17.6,4.1c0,0,1.6,3.1,4.1,3.8l5.9-0.7
			l-0.6-0.8c-1.9-2.6-4.6-4.5-7.7-5.3l0,0L177.3,126.4z"/>
		<polygon class="st46" points="195.8,111.8 198.8,124.3 206.9,129.3 204,132.6 193.9,126.9 193.5,112.3 		"/>
		<linearGradient id="SVGID_37_" gradientUnits="userSpaceOnUse" x1="205.3239" y1="174.4753" x2="226.9815" y2="186.6355">
			<stop  offset="0" style="stop-color:#22A1EA"/>
			<stop  offset="0.2622" style="stop-color:#507DE5"/>
			<stop  offset="0.6038" style="stop-color:#8553DE"/>
			<stop  offset="0.8602" style="stop-color:#A639DA"/>
			<stop  offset="1" style="stop-color:#B32FD9"/>
		</linearGradient>
		<path class="st47" d="M208.3,176.6c0,0,0.3,2.8,1.5,3.3s5.8,4.1,7.6,4.1s2.7-0.2,2.1-1.7c-0.6-1.5-4.6-3.9-5.6-6.3L208.3,176.6z"
			/>
		
			<linearGradient id="SVGID_38_" gradientUnits="userSpaceOnUse" x1="-2220.9719" y1="186.9713" x2="-2234.4766" y2="184.098" gradientTransform="matrix(-1 0 0 1 -2031.132 0)">
			<stop  offset="0" style="stop-color:#22A1EA"/>
			<stop  offset="0.2622" style="stop-color:#507DE5"/>
			<stop  offset="0.6038" style="stop-color:#8553DE"/>
			<stop  offset="0.8602" style="stop-color:#A639DA"/>
			<stop  offset="1" style="stop-color:#B32FD9"/>
		</linearGradient>
		<path class="st48" d="M194.9,181.8c0,0,0.6,2.4,2.5,3.8s2.5,1.5,2.7,3.1c0.2,1.6-0.8,2-1.9,1.6s-8.3-4.4-8.9-5.4l-0.2-3.4
			L194.9,181.8z"/>
		<path class="st44" d="M181.8,91.3c0,0,9.1,1.9,10-1.9s-0.7-5-4-4.1c0,0-5.2-2.8-8,1.2c-2.8,4-3.1,6.9,0.3,10.3l0.7-2.6
			c0,0-1.9-1.1-0.8-3C180.6,90.3,181.8,91.3,181.8,91.3z"/>
		<polygon class="st44" points="226.1,118.1 202.4,129.3 197.3,145.3 219.8,133.7 		"/>
		
			<linearGradient id="SVGID_39_" gradientUnits="userSpaceOnUse" x1="-2247.7742" y1="138.8433" x2="-2240.7234" y2="125.1918" gradientTransform="matrix(-1 0 0 1 -2031.132 0)">
			<stop  offset="0" style="stop-color:#6D6F80"/>
			<stop  offset="1" style="stop-color:#3E3F4B"/>
		</linearGradient>
		<polygon class="st49" points="227.1,117.7 203.4,128.9 198.3,144.8 220.8,133.3 		"/>
	</g>
	<g>
		
			<linearGradient id="SVGID_40_" gradientUnits="userSpaceOnUse" x1="-6296.6006" y1="74.0326" x2="-6183.626" y2="15.9216" gradientTransform="matrix(-1 0 0 1 -6060.4868 0)">
			<stop  offset="0" style="stop-color:#22A1EA"/>
			<stop  offset="0.2622" style="stop-color:#507DE5"/>
			<stop  offset="0.6038" style="stop-color:#8553DE"/>
			<stop  offset="0.8602" style="stop-color:#A639DA"/>
			<stop  offset="1" style="stop-color:#B32FD9"/>
		</linearGradient>
		<path class="st50" d="M232.3,87.3l0.1-27.2c0-1.8-0.8-3.4-2.2-4.3l-35.5-22.6c-1.7-1.1-3.8,0.3-3.8,2.4l-0.1,27.2
			c0,1.8,0.8,3.4,2.2,4.3l35.5,22.6C230.2,90.8,232.3,89.4,232.3,87.3z"/>
		<g class="st51">
			<g>
				<path class="st52" d="M199.7,61.1c0,0-0.1,0-0.1,0c-0.2,0-0.3-0.1-0.4-0.3l-4.1-7.8c-0.1-0.3,0-0.6,0.2-0.8
					c0.3-0.1,0.6,0,0.8,0.2l3.8,7.2l10.8-7.3c0.3-0.2,0.6-0.1,0.8,0.2c0.2,0.3,0.1,0.6-0.2,0.8L200.1,61
					C200,61.1,199.8,61.1,199.7,61.1z"/>
			</g>
		</g>
		<g class="st53">
			<g>
				<path class="st52" d="M224.7,76.4c-0.1,0-0.2,0-0.3-0.1l-15.8-9.1c-0.3-0.2-0.4-0.5-0.2-0.8c0.2-0.3,0.5-0.4,0.8-0.2l15.8,9.1
					c0.3,0.2,0.4,0.5,0.2,0.8C225.1,76.3,224.9,76.4,224.7,76.4z"/>
			</g>
			<g>
				<path class="st52" d="M218.7,77.2c-0.1,0-0.2,0-0.3-0.1l-9.7-5.6c-0.2-0.1-0.3-0.3-0.3-0.5c0-0.1,0-0.2,0.1-0.3
					c0.2-0.3,0.5-0.4,0.8-0.2l9.7,5.6c0.2,0.1,0.3,0.3,0.3,0.5c0,0.1,0,0.2-0.1,0.3C219.1,77.1,218.9,77.2,218.7,77.2z"/>
			</g>
		</g>
		<g>
			<path class="st54" d="M236.4,62.6c-0.2,0-0.3-0.1-0.3-0.3l0-9.5l-8.8-5.1c-0.2-0.1-0.2-0.3-0.1-0.4c0.1-0.2,0.3-0.2,0.5-0.1
				l9,5.2c0.1,0.1,0.2,0.2,0.2,0.3l0,9.7C236.7,62.4,236.6,62.6,236.4,62.6z"/>
		</g>
		<g>
			<path class="st54" d="M236.3,98.7c-0.1,0-0.1,0-0.2,0l-8.9-5.1c-0.2-0.1-0.2-0.3-0.1-0.4c0.1-0.2,0.3-0.2,0.5-0.1l8.4,4.8l0-9
				c0-0.2,0.1-0.3,0.3-0.3c0,0,0,0,0,0c0.2,0,0.3,0.1,0.3,0.3l0,9.5c0,0.1-0.1,0.2-0.2,0.3C236.4,98.7,236.3,98.7,236.3,98.7z"/>
		</g>
		<g>
			<path class="st55" d="M193.9,74.2c-0.1,0-0.1,0-0.2,0l-7.1-4.1c-0.1-0.1-0.2-0.2-0.2-0.3l0-8.4c0-0.2,0.1-0.3,0.3-0.3
				c0,0,0,0,0,0c0.2,0,0.3,0.1,0.3,0.3l0,8.2l6.9,4c0.2,0.1,0.2,0.3,0.1,0.4C194.1,74.2,194,74.2,193.9,74.2z"/>
		</g>
		<g>
			<path class="st55" d="M186.9,35C186.9,35,186.9,35,186.9,35c-0.2,0-0.3-0.1-0.3-0.3l0-10.6c0-0.1,0.1-0.2,0.2-0.3
				c0.1-0.1,0.2-0.1,0.3,0l9,5.2c0.2,0.1,0.2,0.3,0.1,0.4c-0.1,0.2-0.3,0.2-0.5,0.1l-8.5-4.9l0,10.1C187.3,34.9,187.1,35,186.9,35z"
				/>
		</g>
	</g>
</g>
</svg>
