<?xml version="1.0" encoding="utf-8"?>
<!-- Generator: Adobe Illustrator 25.0.1, SVG Export Plug-In . SVG Version: 6.00 Build 0)  -->
<svg version="1.1" id="Layer_15" xmlns="http://www.w3.org/2000/svg" xmlns:xlink="http://www.w3.org/1999/xlink" x="0px" y="0px"
	 viewBox="0 0 605.2 676.4" style="enable-background:new 0 0 605.2 676.4;" xml:space="preserve">
<style type="text/css">
	.st0{opacity:0.16;}
	.st1{fill:url(#SVGID_1_);}
	.st2{fill:url(#SVGID_2_);}
	.st3{fill:url(#SVGID_3_);}
	.st4{opacity:0.45;fill:url(#SVGID_4_);}
	.st5{fill:url(#SVGID_5_);}
	.st6{fill:url(#SVGID_6_);}
	.st7{fill:url(#SVGID_7_);}
	.st8{fill:url(#SVGID_8_);}
	.st9{opacity:0.9;}
	.st10{opacity:0.37;fill:url(#SVGID_9_);}
	.st11{opacity:0.37;fill:url(#SVGID_10_);}
	.st12{opacity:0.12;fill:#2F204C;}
	.st13{opacity:0.75;fill:url(#SVGID_11_);}
	.st14{opacity:0.61;fill:url(#SVGID_12_);}
	.st15{opacity:0.3;fill:url(#SVGID_13_);}
	.st16{opacity:0.55;fill:url(#SVGID_14_);}
	.st17{fill:#AD70FC;}
	.st18{fill:url(#SVGID_15_);}
	.st19{fill:url(#SVGID_16_);}
	.st20{fill:url(#SVGID_17_);}
	.st21{fill:url(#SVGID_18_);}
	.st22{fill:url(#SVGID_19_);}
	.st23{opacity:0.35;fill:url(#SVGID_20_);}
	.st24{fill:url(#SVGID_21_);}
	.st25{opacity:0.35;fill:url(#SVGID_22_);}
	.st26{fill:#61CFFF;}
	.st27{opacity:0.4;fill:url(#SVGID_23_);}
	.st28{opacity:0.4;fill:url(#SVGID_24_);}
	.st29{opacity:0.61;}
	.st30{opacity:0.77;fill:url(#SVGID_25_);}
	.st31{fill:url(#SVGID_26_);}
	.st32{opacity:0.77;fill:url(#SVGID_27_);}
	.st33{fill:url(#SVGID_28_);}
	.st34{opacity:0.77;fill:url(#SVGID_29_);}
	.st35{fill:url(#SVGID_30_);}
	.st36{opacity:0.42;}
	.st37{opacity:0.77;fill:url(#SVGID_31_);}
	.st38{fill:url(#SVGID_32_);}
	.st39{opacity:0.77;fill:url(#SVGID_33_);}
	.st40{fill:url(#SVGID_34_);}
	.st41{fill:url(#SVGID_35_);}
	.st42{fill:#58C6E8;}
	.st43{opacity:0.65;fill:url(#SVGID_36_);}
	.st44{fill:url(#SVGID_37_);}
	.st45{fill:url(#SVGID_38_);}
	.st46{fill:url(#SVGID_39_);}
	.st47{opacity:0.35;fill:url(#SVGID_40_);}
	.st48{fill:url(#SVGID_41_);}
	.st49{fill:url(#SVGID_42_);}
	.st50{fill:url(#SVGID_43_);}
	.st51{fill:url(#SVGID_44_);}
	.st52{fill:url(#SVGID_45_);}
	.st53{opacity:0.35;fill:url(#SVGID_46_);}
	.st54{opacity:0.35;fill:url(#SVGID_47_);}
	.st55{fill:url(#SVGID_48_);}
	.st56{opacity:0.55;fill:url(#SVGID_49_);}
	.st57{opacity:0.29;fill:url(#SVGID_50_);}
	.st58{opacity:0;clip-path:url(#SVGID_52_);fill:url(#SVGID_53_);}
	.st59{fill:url(#SVGID_54_);}
	.st60{fill:url(#SVGID_55_);}
	.st61{fill:url(#SVGID_56_);}
	.st62{opacity:0.8;}
	.st63{opacity:0.45;fill:#FFFFFF;}
	.st64{opacity:0.5;fill:url(#SVGID_57_);}
	.st65{opacity:0.5;fill:url(#SVGID_58_);}
	.st66{opacity:0.5;fill:url(#SVGID_59_);}
	.st67{opacity:0.45;}
	.st68{fill:#FFFFFF;}
	.st69{opacity:0.5;fill:#FFFFFF;}
	.st70{opacity:0.6;}
	.st71{fill:url(#SVGID_60_);}
	.st72{fill:url(#SVGID_61_);}
	.st73{fill:url(#SVGID_62_);}
	.st74{fill:url(#SVGID_63_);}
	.st75{fill:url(#SVGID_64_);}
	.st76{fill:url(#SVGID_65_);}
	.st77{fill:url(#SVGID_66_);}
</style>
<linearGradient id="SVGID_1_" gradientUnits="userSpaceOnUse" x1="554.3107" y1="461.8722" x2="-55.2553" y2="461.8722">
	<stop  offset="0" style="stop-color:#6D6F80"/>
	<stop  offset="0.2915" style="stop-color:#686A7A"/>
	<stop  offset="0.6751" style="stop-color:#595B6A"/>
	<stop  offset="1" style="stop-color:#484956"/>
</linearGradient>
<path class="st1" d="M10.2,444.2l267.7-154.5c15.3-8.8,34.1-8.8,49.4,0L595,444.2c13.6,7.9,13.6,27.5,0,35.4L327.3,634.1
	c-15.3,8.8-34.1,8.8-49.4,0L10.2,479.6C-3.4,471.7-3.4,452,10.2,444.2z"/>
<linearGradient id="SVGID_2_" gradientUnits="userSpaceOnUse" x1="302.6163" y1="283.0163" x2="302.6163" y2="640.728">
	<stop  offset="0.3315" style="stop-color:#7E8082;stop-opacity:0"/>
	<stop  offset="0.9782" style="stop-color:#7E8082;stop-opacity:0.9673"/>
	<stop  offset="1" style="stop-color:#7E8082"/>
</linearGradient>
<path class="st2" d="M302.6,286c8.1,0,16.2,2.2,23.2,6.2l267.7,154.5c5.5,3.1,8.7,8.8,8.7,15.1s-3.3,11.9-8.7,15.1L325.8,631.5
	c-7.1,4.1-15.1,6.2-23.2,6.2c-8.1,0-16.2-2.2-23.2-6.2L11.7,477c-5.5-3.1-8.7-8.8-8.7-15.1s3.3-11.9,8.7-15.1l267.7-154.5
	C286.4,288.2,294.5,286,302.6,286L302.6,286z M302.6,283c-8.5,0-17.1,2.2-24.7,6.6L10.2,444.2c-13.6,7.9-13.6,27.5,0,35.4
	l267.7,154.5c7.6,4.4,16.2,6.6,24.7,6.6c8.5,0,17.1-2.2,24.7-6.6L595,479.6c13.6-7.9,13.6-27.5,0-35.4L327.3,289.6
	C319.7,285.2,311.2,283,302.6,283L302.6,283z"/>
<linearGradient id="SVGID_3_" gradientUnits="userSpaceOnUse" x1="399.4698" y1="371.1073" x2="379.6989" y2="590.7818">
	<stop  offset="4.476800e-02" style="stop-color:#3B1F57"/>
	<stop  offset="0.6787" style="stop-color:#361C57"/>
</linearGradient>
<path class="st3" d="M488.6,474.1L488.6,474.1c-0.4,3.9-2.4,7.7-6.3,9.9l-165.7,95.6c-4.6,2.7-9.7,4-14.8,4.1V362.4
	c5.1,0.1,10.2,1.4,14.8,4.1l57.5,33.2l114.5,28.5L488.6,474.1z"/>
<g>
	<linearGradient id="SVGID_4_" gradientUnits="userSpaceOnUse" x1="337.4693" y1="508.3864" x2="526.6086" y2="513.1447">
		<stop  offset="4.476800e-02" style="stop-color:#3B1F57"/>
		<stop  offset="0.6787" style="stop-color:#361C57;stop-opacity:0"/>
	</linearGradient>
	<polygon class="st4" points="304.6,584.9 431.7,576.6 605.2,471 407.9,432.9 344.3,483.6 	"/>
	<linearGradient id="SVGID_5_" gradientUnits="userSpaceOnUse" x1="301.0986" y1="438.5375" x2="303.5676" y2="575.9363">
		<stop  offset="0" style="stop-color:#3D2B55"/>
		<stop  offset="1" style="stop-color:#3B2056"/>
	</linearGradient>
	<path class="st5" d="M488.6,474.1l0-45.9l-114.5-28.5l-57.5-33.2c-9.5-5.5-21.1-5.5-30.6,0l-57,32.9l-115,28.1l0.1,43.8
		c-0.7,4.8,1.3,10,6.2,12.8L286,579.7c9.5,5.5,21.1,5.5,30.6,0L482.3,484C486.2,481.8,488.2,478,488.6,474.1L488.6,474.1z"/>
	<linearGradient id="SVGID_6_" gradientUnits="userSpaceOnUse" x1="399.4698" y1="371.1073" x2="379.6989" y2="590.7818">
		<stop  offset="4.476800e-02" style="stop-color:#3B1F57"/>
		<stop  offset="0.6787" style="stop-color:#361C57"/>
	</linearGradient>
	<path class="st6" d="M488.6,474.1L488.6,474.1c-0.4,3.9-2.4,7.7-6.3,9.9l-165.7,95.6c-4.6,2.7-9.7,4-14.8,4.1V362.4
		c5.1,0.1,10.2,1.4,14.8,4.1l57.5,33.2l114.5,28.5L488.6,474.1z"/>
	<linearGradient id="SVGID_7_" gradientUnits="userSpaceOnUse" x1="532.0302" y1="425.8172" x2="171.8813" y2="425.8172">
		<stop  offset="0" style="stop-color:#605477"/>
		<stop  offset="6.863326e-02" style="stop-color:#5D5174"/>
		<stop  offset="0.638" style="stop-color:#493E5D"/>
		<stop  offset="1" style="stop-color:#423755"/>
	</linearGradient>
	<path class="st7" d="M120.3,414.9L286,319.2c9.5-5.5,21.1-5.5,30.6,0l165.7,95.6c8.4,4.9,8.4,17,0,21.9l-165.7,95.6
		c-9.5,5.5-21.1,5.5-30.6,0l-165.7-95.6C111.9,431.9,111.9,419.7,120.3,414.9z"/>
	<g>
		<linearGradient id="SVGID_8_" gradientUnits="userSpaceOnUse" x1="301.3147" y1="314.6495" x2="301.3147" y2="536.9848">
			<stop  offset="0" style="stop-color:#383846;stop-opacity:0"/>
			<stop  offset="1" style="stop-color:#6D6F7A;stop-opacity:0.9"/>
		</linearGradient>
		<path class="st8" d="M301.3,537c-5.4,0-10.8-1.4-15.5-4.2l-165.7-95.6c-4.1-2.4-6.6-6.6-6.6-11.4c0-4.7,2.5-9,6.6-11.4l165.7-95.6
			c9.6-5.5,21.5-5.5,31.1,0l165.7,95.6c4.1,2.4,6.6,6.6,6.6,11.4c0,4.7-2.5,9-6.6,11.4l-165.7,95.6C312.1,535.6,306.7,537,301.3,537
			z M120.6,415.3L120.6,415.3c-3.8,2.2-6.1,6.1-6.1,10.5c0,4.4,2.3,8.3,6.1,10.5L286.3,532c9.3,5.4,20.8,5.4,30.1,0L482,436.3
			c3.8-2.2,6.1-6.1,6.1-10.5c0-4.4-2.3-8.3-6.1-10.5l-165.7-95.6c-9.3-5.4-20.8-5.4-30.1,0L120.6,415.3z"/>
	</g>
</g>
<g class="st9">
	<linearGradient id="SVGID_9_" gradientUnits="userSpaceOnUse" x1="505.2247" y1="355.787" x2="314.2343" y2="272.0391">
		<stop  offset="0.3683" style="stop-color:#5FDDFF"/>
		<stop  offset="0.7475" style="stop-color:#60DCFF;stop-opacity:0"/>
	</linearGradient>
	<path class="st10" d="M454.3,420.2v-3.1l-0.5-330.1l-312.8,6.3l6.8,323.8v0c0,1,0,6,0,7.3v0c0,2.3,0.8,4.6,2.5,6.4
		c0.7,0.8,1.6,1.5,2.6,2l135.6,73.8c7.8,4.2,17.3,4.2,25,0l126.6-68.9l9-4.9c2.2-1.2,3.6-2.9,4.4-4.9c0.5-1.1,0.7-2.3,0.7-3.5v-0.2
		C454.3,423.2,454.3,420.2,454.3,420.2z"/>
	<linearGradient id="SVGID_10_" gradientUnits="userSpaceOnUse" x1="95.1022" y1="334.795" x2="248.1143" y2="295.0444">
		<stop  offset="0.3683" style="stop-color:#5FDDFF"/>
		<stop  offset="0.7835" style="stop-color:#60DCFF;stop-opacity:0"/>
	</linearGradient>
	<path class="st11" d="M454.3,420.2v-3.1l-0.5-330.1l-312.8,6.3l6.8,323.8v0c0,1,0,6,0,7.3v0c0,2.3,0.8,4.6,2.5,6.4
		c0.7,0.8,1.6,1.5,2.6,2l135.6,73.8c7.8,4.2,17.3,4.2,25,0l126.6-68.9l9-4.9c2.2-1.2,3.6-2.9,4.4-4.9c0.5-1.1,0.7-2.3,0.7-3.5v-0.2
		C454.3,423.2,454.3,420.2,454.3,420.2z"/>
	<g>
		<path class="st12" d="M454.3,424.5v0.2c0,1.2-0.2,2.4-0.7,3.5c-0.4,1.1-1.1,2.1-2,3c-0.7-0.7-1.5-1.4-2.5-1.9l-135.6-73.8
			c-7.8-4.2-17.3-4.2-25,0l-135.6,73.8c-1,0.5-1.8,1.2-2.5,1.9c0,0-0.1-0.1-0.1-0.1c-1.7-1.8-2.5-4.1-2.5-6.4v0
			c0-3.3,1.7-6.5,5.2-8.4l135.6-73.8c7.8-4.2,17.3-4.2,25,0l135.6,73.8C452.5,418,454.2,421.2,454.3,424.5z"/>
	</g>
	<linearGradient id="SVGID_11_" gradientUnits="userSpaceOnUse" x1="297.5974" y1="508.8509" x2="297.5974" y2="131.6752">
		<stop  offset="0" style="stop-color:#5FDDFF"/>
		<stop  offset="0.2207" style="stop-color:#52C0FA;stop-opacity:0.8239"/>
		<stop  offset="0.5012" style="stop-color:#4095F3;stop-opacity:0.6"/>
		<stop  offset="1" style="stop-color:#4095F3;stop-opacity:0"/>
	</linearGradient>
	<path class="st13" d="M454.3,417.1l-0.5-330.1l-312.8,6.3l6.8,323.8v0c0,1,0,6,0,7.3v0c0,2.3,0.8,4.6,2.5,6.4
		c0.7,0.8,1.6,1.5,2.6,2l135.6,73.8c7.8,4.2,17.3,4.2,25,0l126.6-68.9l9-4.9c2.2-1.2,3.6-2.9,4.4-4.9c0.5-1.1,0.7-2.3,0.7-3.5v-0.2
		C454.3,423.2,454.3,417.1,454.3,417.1z"/>
</g>
<linearGradient id="SVGID_12_" gradientUnits="userSpaceOnUse" x1="301.2555" y1="475.2402" x2="301.2555" y2="320.1917">
	<stop  offset="0" style="stop-color:#22ADF6"/>
	<stop  offset="0.308" style="stop-color:#5C7FF0;stop-opacity:0.692"/>
	<stop  offset="0.6283" style="stop-color:#9154EA;stop-opacity:0.3717"/>
	<stop  offset="0.8689" style="stop-color:#B239E6;stop-opacity:0.1311"/>
	<stop  offset="1" style="stop-color:#BF2FE5;stop-opacity:0"/>
</linearGradient>
<path class="st14" d="M159.1,380.2l130.1-75.1c7.4-4.3,16.6-4.3,24,0l130.1,75.1c6.6,3.8,6.6,13.4,0,17.2l-130.1,75.1
	c-7.4,4.3-16.6,4.3-24,0l-130.1-75.1C152.5,393.6,152.5,384,159.1,380.2z"/>
<linearGradient id="SVGID_13_" gradientUnits="userSpaceOnUse" x1="298.8471" y1="387.8612" x2="298.8471" y2="225.8049">
	<stop  offset="0" style="stop-color:#22ADF6"/>
	<stop  offset="0.308" style="stop-color:#5C7FF0;stop-opacity:0.692"/>
	<stop  offset="0.6283" style="stop-color:#9154EA;stop-opacity:0.3717"/>
	<stop  offset="0.8689" style="stop-color:#B239E6;stop-opacity:0.1311"/>
	<stop  offset="1" style="stop-color:#BF2FE5;stop-opacity:0"/>
</linearGradient>
<path class="st15" d="M150.3,288.5l136-78.5c7.8-4.5,17.3-4.5,25.1,0l136,78.5c6.9,4,6.9,14,0,18l-136,78.5
	c-7.8,4.5-17.3,4.5-25.1,0l-136-78.5C143.4,302.5,143.4,292.5,150.3,288.5z"/>
<g>
	
		<linearGradient id="SVGID_14_" gradientUnits="userSpaceOnUse" x1="42.6104" y1="443.0179" x2="150.6244" y2="449.9419" gradientTransform="matrix(1 0 0 1 458.6066 0)">
		<stop  offset="4.476800e-02" style="stop-color:#3B1F57"/>
		<stop  offset="0.6787" style="stop-color:#361C57;stop-opacity:0"/>
	</linearGradient>
	<path class="st16" d="M501.8,449.8l70.4-19.7c12.1,6.2,17.1,10.7,18.9,15.3l-58.1,17.2l4.5-13.7l-34.3,9.2L501.8,449.8z"/>
	<path class="st17" d="M499,302.5c0.1-0.1,1.6-1.3,3.4-2.8c0.4-0.3,0.9-0.5,1.5-0.5l7,0.2l-0.2,1.9l-6.9,1.4l-3,3.2L499,302.5z"/>
	<linearGradient id="SVGID_15_" gradientUnits="userSpaceOnUse" x1="480.7073" y1="332.8463" x2="517.9884" y2="301.0497">
		<stop  offset="0" style="stop-color:#22ADF6"/>
		<stop  offset="0.1291" style="stop-color:#28A8F5"/>
		<stop  offset="0.2968" style="stop-color:#389BF4"/>
		<stop  offset="0.4856" style="stop-color:#5386F1"/>
		<stop  offset="0.6902" style="stop-color:#7868ED"/>
		<stop  offset="0.9049" style="stop-color:#A842E8"/>
		<stop  offset="1" style="stop-color:#BF2FE5"/>
	</linearGradient>
	<path class="st18" d="M503.9,329.8c0,0-32.6,6.1-28-5.2c4-9.8,22.6-23.4,22.6-23.4l3.2,5.1c0,0-8,10-12.6,15.3
		c1.7-0.6,16.8-5.2,21.7-5.6L503.9,329.8z"/>
	<path class="st17" d="M518.3,309.8c0.2-0.3,0.4-0.5,0.4-0.5l-0.9-4.3l-3.9-4.3l-2.7-1.1c0,0-4.3,7.7-5.2,10.8
		c-0.5,1.7,0.8,2.1,2,2.1c-0.1,0.4-0.2,0.7-0.2,0.7c-0.9,3,0,8.8,0,8.8l7.9-1.5c-1.5-1.5-1.3-3.9-1.1-5.7c0.1-0.8,1.1-2.8,2-3.6l0,0
		C516.8,311.1,517.6,310.7,518.3,309.8z"/>
	<linearGradient id="SVGID_16_" gradientUnits="userSpaceOnUse" x1="513.6483" y1="320.882" x2="517.7917" y2="278.4117">
		<stop  offset="0" style="stop-color:#D6F622"/>
		<stop  offset="0.3516" style="stop-color:#CEB364"/>
		<stop  offset="1" style="stop-color:#BF2FE5"/>
	</linearGradient>
	<path class="st19" d="M510.2,300.7c0,0,4-0.2,4.4,2.2c0.4,2.4-0.8,5.5-0.8,5.5s2.1-1.8,3.2-0.8c0.6,0.6-0.9,2.5-0.9,2.5l-0.2,2.8
		l5.3-6.8c-0.4-4.9-3.7-7.7-6.5-9c-1.2-0.5-2.5-0.3-3.5,0.1C509.8,297.7,509.3,299.4,510.2,300.7L510.2,300.7z"/>
	<linearGradient id="SVGID_17_" gradientUnits="userSpaceOnUse" x1="532.8802" y1="451.9772" x2="542.3115" y2="457.5961">
		<stop  offset="0" style="stop-color:#38334B"/>
		<stop  offset="1" style="stop-color:#1F1334"/>
	</linearGradient>
	<path class="st20" d="M537.9,451.8c0,0-7.6,4-7.9,9.5c-0.3,5.5,15.8-5.1,16.9-9.5l-1-4.2H538L537.9,451.8z"/>
	<linearGradient id="SVGID_18_" gradientUnits="userSpaceOnUse" x1="495.5732" y1="452.5848" x2="505.3173" y2="458.3901">
		<stop  offset="0" style="stop-color:#38334B"/>
		<stop  offset="1" style="stop-color:#1F1334"/>
	</linearGradient>
	<path class="st21" d="M502.4,452c0,0-13.2,7.8-8.1,9.3c5.1,1.5,14.2-5.6,16.2-9.4L502.4,452z"/>
	<linearGradient id="SVGID_19_" gradientUnits="userSpaceOnUse" x1="475.0523" y1="384.9409" x2="550.1951" y2="429.7091">
		<stop  offset="0" style="stop-color:#38334B"/>
		<stop  offset="1" style="stop-color:#1F1334"/>
	</linearGradient>
	<path class="st22" d="M521.2,361.2l-6.3,1h-12.7l-0.6,89.7c0,0,7.7,1.5,10.7-0.6c0,0-0.1-42,2.9-55.4l-0.2-0.4l0.5-0.3l20.9,56.1
		c0,0,3.6,1.8,10.6-0.3L521.2,361.2z"/>
	<path class="st17" d="M525.6,359c0,0-2.9,0.6-4.8,4.7c-1.9,4-0.1,8.5-0.1,8.5l1.1,0.6l0-4.6c0.6,1.8,3.3,1.8,3.3,1.8s1.1-7.2,3.6-8
		C529,359.7,528.7,358.1,525.6,359z"/>
	<linearGradient id="SVGID_20_" gradientUnits="userSpaceOnUse" x1="509.8074" y1="313.1248" x2="509.6762" y2="314.583">
		<stop  offset="4.476800e-02" style="stop-color:#3B1F57"/>
		<stop  offset="0.6787" style="stop-color:#361C57"/>
	</linearGradient>
	<path class="st23" d="M508.1,312.4c1.1,0,2.6,0,3.8-0.4l-4.3,3.4C507.6,314.5,507.8,313.5,508.1,312.4z"/>
	<linearGradient id="SVGID_21_" gradientUnits="userSpaceOnUse" x1="497.9076" y1="357.5215" x2="543.8326" y2="318.3527">
		<stop  offset="0" style="stop-color:#22ADF6"/>
		<stop  offset="0.1213" style="stop-color:#29A7F5"/>
		<stop  offset="0.3028" style="stop-color:#3E97F3"/>
		<stop  offset="0.522" style="stop-color:#5F7CEF"/>
		<stop  offset="0.7682" style="stop-color:#8D57EA"/>
		<stop  offset="1" style="stop-color:#BF2FE5"/>
	</linearGradient>
	<path class="st24" d="M503.4,327.5c-3.9,9.4-2.9,34.4-2.9,34.4c6.2,2.6,17.9,0,20.8-0.7c-2.2-6.3-0.5-22.4-0.5-22.4s0,0,0-0.1
		c10.7,12.9,4,20.2,4,20.2c2.6-0.3,4.3,3.2,4.3,3.2c9.8-6.8,7.1-13.1,0.1-29.1c-7-16-12.8-16-12.8-16c-7.4,5.8-9.8,1.8-9.8,1.8
		L503.4,327.5z"/>
	<linearGradient id="SVGID_22_" gradientUnits="userSpaceOnUse" x1="518.9379" y1="338.6074" x2="518.5979" y2="342.3846">
		<stop  offset="4.476800e-02" style="stop-color:#3B1F57"/>
		<stop  offset="0.6787" style="stop-color:#361C57"/>
	</linearGradient>
	<path class="st25" d="M520.7,338.7l-3.4-3.7c0,0,0.2,4.9,3,10.2L520.7,338.7z"/>
	<path class="st26" d="M499.9,361.9l-0.2-4.9l0-4.9c0-1.6,0.1-3.3,0.2-4.9c0.1-1.6,0.2-3.3,0.4-4.9c0.3-3.3,0.8-6.5,1.4-9.8
		c0.7-3.2,1.6-6.4,3.2-9.3l0.2,0.1c-1.5,2.9-2.3,6.1-2.9,9.3c-0.6,3.2-1,6.5-1.2,9.7c-0.2,1.6-0.2,3.3-0.3,4.9c0,1.6,0,3.3-0.1,4.9
		l0.1,4.9l0.3,4.9L499.9,361.9z"/>
	<path class="st26" d="M498.8,301.5c-2.3,1.6-4.6,3.4-6.8,5.2c-2.2,1.8-4.3,3.7-6.4,5.7c-2,2-4,4.1-5.7,6.4
		c-1.7,2.3-3.3,4.7-4.2,7.4l-0.2,0c0.9-2.8,2.5-5.2,4.1-7.5c1.7-2.3,3.6-4.5,5.7-6.5c2-2,4.1-4,6.3-5.9c2.2-1.9,4.4-3.7,6.7-5.4
		L498.8,301.5z"/>
</g>
<linearGradient id="SVGID_23_" gradientUnits="userSpaceOnUse" x1="375.4192" y1="484.883" x2="375.4192" y2="148.4264">
	<stop  offset="2.141550e-02" style="stop-color:#2FA3F5"/>
	<stop  offset="1" style="stop-color:#5FDDFF;stop-opacity:0"/>
</linearGradient>
<path class="st27" d="M399.1,108.6v351.9c-13.9,6.4-47.4,26.8-47.4,25.3V108.6H399.1z"/>
<linearGradient id="SVGID_24_" gradientUnits="userSpaceOnUse" x1="-7747.5259" y1="497.5689" x2="-7747.5259" y2="186.6039" gradientTransform="matrix(-1 0 0 1 -7485.2969 0)">
	<stop  offset="2.141550e-02" style="stop-color:#2FA3F5"/>
	<stop  offset="1" style="stop-color:#5FDDFF;stop-opacity:0"/>
</linearGradient>
<path class="st28" d="M250.7,149.8v336.4c10.5,5.7,17.7,9.7,23,12.3V149.8H250.7z"/>
<g class="st29">
	
		<radialGradient id="SVGID_25_" cx="-2233.6631" cy="23.2927" r="7.9894" gradientTransform="matrix(0.5629 1.146673e-02 -4.458336e-03 0.6021 1409.7692 208.6729)" gradientUnits="userSpaceOnUse">
		<stop  offset="0" style="stop-color:#22ADF6"/>
		<stop  offset="1" style="stop-color:#22ADF6;stop-opacity:0"/>
	</radialGradient>
	<path class="st30" d="M156.3,193.1c-2.2-2.2-5.6-2.2-7.8,0c-2.1,2.2-2.1,5.8,0,8c2.2,2.2,5.6,2.2,7.8,0
		C158.5,198.9,158.5,195.3,156.3,193.1L156.3,193.1z"/>
	
		<radialGradient id="SVGID_26_" cx="-2233.6631" cy="23.2927" r="3.3438" gradientTransform="matrix(0.5629 8.000000e-04 -8.011346e-04 0.5722 1409.7889 185.5424)" gradientUnits="userSpaceOnUse">
		<stop  offset="0" style="stop-color:#FFFFFF"/>
		<stop  offset="1" style="stop-color:#FFFFFF;stop-opacity:0"/>
	</radialGradient>
	<path class="st31" d="M153.8,195.7c-0.8-0.8-2-0.8-2.8,0c-0.8,0.8-0.8,2.1,0,2.9c0.8,0.8,2,0.8,2.8,0
		C154.6,197.7,154.6,196.4,153.8,195.7L153.8,195.7z"/>
</g>
<g class="st29">
	
		<radialGradient id="SVGID_27_" cx="-2319.7056" cy="-0.6857" r="7.9893" gradientTransform="matrix(0.5629 1.146673e-02 -4.458336e-03 0.6021 1409.6918 200.0495)" gradientUnits="userSpaceOnUse">
		<stop  offset="0" style="stop-color:#22ADF6"/>
		<stop  offset="1" style="stop-color:#22ADF6;stop-opacity:0"/>
	</radialGradient>
	<path class="st32" d="M107.9,169c-2.2-2.2-5.6-2.2-7.8,0c-2.1,2.2-2.1,5.8,0,8c2.2,2.2,5.6,2.2,7.8,0
		C110.1,174.8,110.1,171.3,107.9,169L107.9,169z"/>
	
		<radialGradient id="SVGID_28_" cx="-2319.7056" cy="-0.6857" r="3.3438" gradientTransform="matrix(0.5629 8.000000e-04 -8.011346e-04 0.5722 1409.8032 175.2854)" gradientUnits="userSpaceOnUse">
		<stop  offset="0" style="stop-color:#FFFFFF"/>
		<stop  offset="1" style="stop-color:#FFFFFF;stop-opacity:0"/>
	</radialGradient>
	<path class="st33" d="M105.4,171.6c-0.8-0.8-2-0.8-2.8,0c-0.8,0.8-0.8,2.1,0,2.9c0.8,0.8,2,0.8,2.8,0
		C106.2,173.7,106.2,172.4,105.4,171.6L105.4,171.6z"/>
</g>
<g class="st29">
	
		<radialGradient id="SVGID_29_" cx="-1628.323" cy="-105.0769" r="7.9894" gradientTransform="matrix(0.5629 1.146673e-02 -4.458336e-03 0.6021 1409.405 151.1367)" gradientUnits="userSpaceOnUse">
		<stop  offset="0" style="stop-color:#22ADF6"/>
		<stop  offset="1" style="stop-color:#22ADF6;stop-opacity:0"/>
	</radialGradient>
	<path class="st34" d="M497.3,65.2c-2.2-2.2-5.6-2.2-7.8,0c-2.1,2.2-2.1,5.8,0,8c2.2,2.2,5.6,2.2,7.8,0
		C499.4,71,499.4,67.4,497.3,65.2L497.3,65.2z"/>
	
		<radialGradient id="SVGID_30_" cx="-1628.323" cy="-105.0769" r="3.3438" gradientTransform="matrix(0.5629 8.000000e-04 -8.011346e-04 0.5722 1409.8657 130.6309)" gradientUnits="userSpaceOnUse">
		<stop  offset="0" style="stop-color:#FFFFFF"/>
		<stop  offset="1" style="stop-color:#FFFFFF;stop-opacity:0"/>
	</radialGradient>
	<path class="st35" d="M494.8,67.8c-0.8-0.8-2-0.8-2.8,0c-0.8,0.8-0.8,2.1,0,2.9c0.8,0.8,2,0.8,2.8,0
		C495.5,69.8,495.5,68.6,494.8,67.8L494.8,67.8z"/>
</g>
<g class="st36">
	
		<radialGradient id="SVGID_31_" cx="-2298.0115" cy="-26.1085" r="17.2502" gradientTransform="matrix(0.5629 1.146673e-02 -4.458336e-03 0.6021 1409.6151 189.7022)" gradientUnits="userSpaceOnUse">
		<stop  offset="0" style="stop-color:#22ADF6"/>
		<stop  offset="1" style="stop-color:#22ADF6;stop-opacity:0"/>
	</radialGradient>
	<path class="st37" d="M124.7,139c-4.6-4.8-12.2-4.8-16.8,0c-4.6,4.8-4.6,12.5,0,17.3c4.7,4.8,12.2,4.8,16.8,0
		C129.3,151.5,129.3,143.8,124.7,139L124.7,139z"/>
	
		<radialGradient id="SVGID_32_" cx="-2298.0115" cy="-26.1085" r="7.2197" gradientTransform="matrix(0.5629 8.000000e-04 -8.011346e-04 0.5722 1409.8185 164.4105)" gradientUnits="userSpaceOnUse">
		<stop  offset="0" style="stop-color:#FFFFFF"/>
		<stop  offset="1" style="stop-color:#FFFFFF;stop-opacity:0"/>
	</radialGradient>
	<path class="st38" d="M119.3,144.5c-1.7-1.7-4.4-1.7-6,0c-1.7,1.7-1.7,4.5,0,6.2c1.7,1.7,4.4,1.7,6,0
		C121,149,120.9,146.3,119.3,144.5L119.3,144.5z"/>
</g>
<g class="st36">
	
		<radialGradient id="SVGID_33_" cx="-1671.4088" cy="-161.539" r="17.2502" gradientTransform="matrix(0.5629 1.146673e-02 -4.458336e-03 0.6021 1409.2303 129.1296)" gradientUnits="userSpaceOnUse">
		<stop  offset="0" style="stop-color:#22ADF6"/>
		<stop  offset="1" style="stop-color:#22ADF6;stop-opacity:0"/>
	</radialGradient>
	<path class="st39" d="M477.6,4.1c-4.6-4.8-12.2-4.8-16.8,0c-4.6,4.8-4.6,12.5,0,17.3c4.7,4.8,12.2,4.8,16.8,0
		C482.2,16.6,482.2,8.8,477.6,4.1L477.6,4.1z"/>
	
		<radialGradient id="SVGID_34_" cx="-1671.4088" cy="-161.5389" r="7.2197" gradientTransform="matrix(0.5629 8.000000e-04 -8.011346e-04 0.5722 1409.8995 106.4786)" gradientUnits="userSpaceOnUse">
		<stop  offset="0" style="stop-color:#FFFFFF"/>
		<stop  offset="1" style="stop-color:#FFFFFF;stop-opacity:0"/>
	</radialGradient>
	<path class="st40" d="M472.2,9.6c-1.7-1.7-4.4-1.7-6,0c-1.7,1.7-1.7,4.5,0,6.2c1.7,1.7,4.4,1.7,6,0
		C473.9,14.1,473.9,11.3,472.2,9.6L472.2,9.6z"/>
</g>
<g>
	<linearGradient id="SVGID_35_" gradientUnits="userSpaceOnUse" x1="247.6312" y1="411.5427" x2="261.4689" y2="416.4485">
		<stop  offset="0" style="stop-color:#FFFFFF"/>
		<stop  offset="0.403" style="stop-color:#E6D6FA"/>
		<stop  offset="0.7893" style="stop-color:#D3B5F6"/>
		<stop  offset="1" style="stop-color:#CBA8F4"/>
	</linearGradient>
	<path class="st41" d="M242.2,421l6.5-19.3c0.4-1.2,1.7-1.9,2.9-1.6l11.5,3.1c1.3,0.4,2.1,1.8,1.7,3.1l-6.4,20.1
		c-0.4,1.3-1.8,2-3.1,1.6l-11.7-3.9C242.4,423.6,241.7,422.2,242.2,421z"/>
	<polygon class="st42" points="243.5,421.7 250.4,401.5 263.8,405.1 257,426.2 	"/>
	<linearGradient id="SVGID_36_" gradientUnits="userSpaceOnUse" x1="259.9011" y1="413.4543" x2="237.2114" y2="414.1498">
		<stop  offset="0" style="stop-color:#22ADF6"/>
		<stop  offset="0.9646" style="stop-color:#22ADF6;stop-opacity:0"/>
	</linearGradient>
	<polygon class="st43" points="250.4,401.5 237.1,401.5 235.3,422.5 257,426.2 263.8,405.1 	"/>
	<linearGradient id="SVGID_37_" gradientUnits="userSpaceOnUse" x1="209.4577" y1="496.1507" x2="243.9467" y2="466.7355">
		<stop  offset="0" style="stop-color:#22ADF6"/>
		<stop  offset="0.2714" style="stop-color:#498EF2"/>
		<stop  offset="0.8759" style="stop-color:#AA40E7"/>
		<stop  offset="1" style="stop-color:#BF2FE5"/>
	</linearGradient>
	<path class="st44" d="M214.3,468.6l-1.4,11.7l-0.6,20.2l16.4,2.7l-3.2-36.9C221.8,467,218,467.8,214.3,468.6z"/>
	<linearGradient id="SVGID_38_" gradientUnits="userSpaceOnUse" x1="193.7181" y1="562.9628" x2="204.7195" y2="569.5171">
		<stop  offset="0" style="stop-color:#38334B"/>
		<stop  offset="1" style="stop-color:#1F1334"/>
	</linearGradient>
	<path class="st45" d="M195,564.1c0,0.3-0.8,7.2-0.8,7.2s-0.3,2.7,6.8-1.4c7.1-4.2,9.9-5.3,7.3-6.8c-2.5-1.5-4.9-0.5-4.9-0.5
		L195,564.1z"/>
	<linearGradient id="SVGID_39_" gradientUnits="userSpaceOnUse" x1="177.4142" y1="542.3168" x2="278.4948" y2="456.1066">
		<stop  offset="0" style="stop-color:#22ADF6"/>
		<stop  offset="0.2714" style="stop-color:#498EF2"/>
		<stop  offset="0.8759" style="stop-color:#AA40E7"/>
		<stop  offset="1" style="stop-color:#BF2FE5"/>
	</linearGradient>
	<path class="st46" d="M213,468c0,0-1.1,28.9-10.4,57.6c-9.3,28.7-10.3,37.2-10.3,37.2s4.9,5.2,17.5-4.2l7.1-29l8-22.1l-2.3-29.4
		l8-6.6l0.5-8.7L213,468z"/>
	<linearGradient id="SVGID_40_" gradientUnits="userSpaceOnUse" x1="222.2918" y1="466.0338" x2="222.0311" y2="468.9306">
		<stop  offset="4.476800e-02" style="stop-color:#3B1F57"/>
		<stop  offset="0.6787" style="stop-color:#361C57"/>
	</linearGradient>
	<path class="st47" d="M212.9,469.7c0,0,8.5,3.9,18.6-5.5l-17.8,2.1L212.9,469.7z"/>
	<linearGradient id="SVGID_41_" gradientUnits="userSpaceOnUse" x1="220.3169" y1="562.7145" x2="232.4757" y2="569.9584">
		<stop  offset="0" style="stop-color:#38334B"/>
		<stop  offset="1" style="stop-color:#1F1334"/>
	</linearGradient>
	<path class="st48" d="M221.2,564.9c0,0-2.6,7.8,0.6,7.9c4.2,0.1,14.9-6.2,15.1-7.7c0.1-1.4-1-3.7-3.9-2.9L221.2,564.9z"/>
	<linearGradient id="SVGID_42_" gradientUnits="userSpaceOnUse" x1="199.9653" y1="540.9688" x2="281.1942" y2="471.6898">
		<stop  offset="0" style="stop-color:#22ADF6"/>
		<stop  offset="0.2714" style="stop-color:#498EF2"/>
		<stop  offset="0.8759" style="stop-color:#AA40E7"/>
		<stop  offset="1" style="stop-color:#BF2FE5"/>
	</linearGradient>
	<path class="st49" d="M217.5,481.5c0,0-0.7,65.7-1.1,81.2c0,0,9.2,7.9,21.6-4.4l-2.1-50.9l-4.1-43.7L217.5,481.5z"/>
	<path class="st26" d="M232.3,463.7c1.5,15.7,2.9,31.5,4,47.3c0.5,7.9,1,15.8,1.4,23.7c0.3,7.9,0.6,15.8,0.5,23.7l-0.2,0
		c0-7.9-0.3-15.8-0.7-23.7c-0.4-7.9-0.9-15.8-1.5-23.7c-1.2-15.8-2.6-31.5-4.2-47.2L232.3,463.7z"/>
	<path class="st17" d="M217.4,458.3l-5.2-2l-1.5,4.6c0,0,0,0,0,0c0.8,0.8,0.4,2.3-0.7,2.5c-0.8,0.2-1.5,0.2-1.5,0.2
		c1.8,4.8,5.3,3.8,5.3,3.8l-0.2-4.5L217.4,458.3z"/>
	<path class="st17" d="M225.8,410c0,0,4.3-2.6,3.4-4.8c-0.9-2.2-3.3-5-3.3-5C219.9,403.1,218.8,409.4,225.8,410z"/>
	<linearGradient id="SVGID_43_" gradientUnits="userSpaceOnUse" x1="208.3468" y1="496.3386" x2="213.0504" y2="357.404">
		<stop  offset="0" style="stop-color:#D6F622"/>
		<stop  offset="0.1028" style="stop-color:#D3DD3B"/>
		<stop  offset="0.425" style="stop-color:#CB9383"/>
		<stop  offset="0.6925" style="stop-color:#C45DB8"/>
		<stop  offset="0.8915" style="stop-color:#C03CD9"/>
		<stop  offset="1" style="stop-color:#BF2FE5"/>
	</linearGradient>
	<path class="st50" d="M211.2,461.9c-10.9-2.6-9.6-11.4-7-19.9c3-9.6,12.4-20.8,12.4-20.8l1.8,1.2l-3.2,16.6
		c-8.9,12.1-1.2,17.5-1.2,17.5L211.2,461.9z"/>
	<linearGradient id="SVGID_44_" gradientUnits="userSpaceOnUse" x1="221.5616" y1="496.786" x2="226.2652" y2="357.8516">
		<stop  offset="0" style="stop-color:#D6F622"/>
		<stop  offset="0.1028" style="stop-color:#D3DD3B"/>
		<stop  offset="0.425" style="stop-color:#CB9383"/>
		<stop  offset="0.6925" style="stop-color:#C45DB8"/>
		<stop  offset="0.8915" style="stop-color:#C03CD9"/>
		<stop  offset="1" style="stop-color:#BF2FE5"/>
	</linearGradient>
	<path class="st51" d="M215.1,423.4c0,0,0.7,28.8-3.3,43.9c0,0,8.6,6.8,21.6-4.6l-0.7-38C226.6,413.9,220.7,411.9,215.1,423.4z"/>
	<path class="st17" d="M254.7,429.4c0,0,3.7-10.1,1.4-14.9c0,0,3.5,0.3,3.3,7.9l3.7-9.7c0,0-0.8,11.9-5,17.9L254.7,429.4z"/>
	<linearGradient id="SVGID_45_" gradientUnits="userSpaceOnUse" x1="239.9044" y1="497.4072" x2="244.608" y2="358.4723">
		<stop  offset="0" style="stop-color:#D6F622"/>
		<stop  offset="0.1028" style="stop-color:#D3DD3B"/>
		<stop  offset="0.425" style="stop-color:#CB9383"/>
		<stop  offset="0.6925" style="stop-color:#C45DB8"/>
		<stop  offset="0.8915" style="stop-color:#C03CD9"/>
		<stop  offset="1" style="stop-color:#BF2FE5"/>
	</linearGradient>
	<path class="st52" d="M227.7,418.1c3,0.5,10.3,14.2,14.8,18c4.5,3.7,11.6-7,11.6-7c1.3,1.9,5.3,1.8,5.3,1.8s-6.7,13.2-16.2,18.1
		c-9.6,4.8-18.3-13.4-18.3-13.4L227.7,418.1z"/>
	<linearGradient id="SVGID_46_" gradientUnits="userSpaceOnUse" x1="229.3182" y1="442.5047" x2="228.6624" y2="449.7911">
		<stop  offset="4.476800e-02" style="stop-color:#3B1F57"/>
		<stop  offset="0.6787" style="stop-color:#361C57"/>
	</linearGradient>
	<path class="st53" d="M224.8,435.5c0,0,3.8,16.4,8.5,19.9V447L224.8,435.5z"/>
	<path class="st26" d="M226.8,417c0.7,0.2,1.1,0.5,1.5,0.9c0.4,0.4,0.8,0.7,1.1,1.1c0.7,0.8,1.3,1.6,2,2.4c1.2,1.6,2.4,3.3,3.6,5
		c1.2,1.7,2.3,3.3,3.6,5c1.2,1.6,2.5,3.3,4,4.6l-0.1,0.2c-1.6-1.3-2.9-3-4.2-4.5c-1.3-1.6-2.5-3.2-3.7-4.9c-1.2-1.6-2.5-3.3-3.7-4.9
		c-0.6-0.8-1.3-1.6-2-2.3c-0.3-0.4-0.7-0.7-1.1-1c-0.4-0.3-0.8-0.6-1.1-0.6L226.8,417z"/>
	<linearGradient id="SVGID_47_" gradientUnits="userSpaceOnUse" x1="216.4476" y1="516.6622" x2="214.6085" y2="537.0962">
		<stop  offset="4.476800e-02" style="stop-color:#3B1F57"/>
		<stop  offset="0.6787" style="stop-color:#361C57"/>
	</linearGradient>
	<polygon class="st54" points="217,530 217.3,498.4 211.6,551.5 	"/>
	<linearGradient id="SVGID_48_" gradientUnits="userSpaceOnUse" x1="197.5438" y1="416.9781" x2="226.1339" y2="407.4481">
		<stop  offset="0" style="stop-color:#6D6F80"/>
		<stop  offset="0.3231" style="stop-color:#595B6A"/>
		<stop  offset="0.7368" style="stop-color:#454653"/>
		<stop  offset="1" style="stop-color:#3E3F4B"/>
	</linearGradient>
	<path class="st55" d="M225.8,400.1c-0.3-1.2-1.2-2.1-2.3-2.5c-1.8-0.6-4.7-1-7,2.4c-3.4,5.1-0.4,6.4-3.7,8.9
		c-3.3,2.6-8.6,10.1-2.6,11.6c6,1.5,14.6,1.3,17.1-3.3c2.5-4.6-4.2-7.2-2.9-9.7C226.3,404.1,226.2,401.6,225.8,400.1z"/>
	
		<linearGradient id="SVGID_49_" gradientUnits="userSpaceOnUse" x1="-7556.8828" y1="575.3425" x2="-7487.8125" y2="579.7701" gradientTransform="matrix(-1 0 0 1 -7330.2583 0)">
		<stop  offset="4.476800e-02" style="stop-color:#3B1F57"/>
		<stop  offset="0.6787" style="stop-color:#361C57;stop-opacity:0"/>
	</linearGradient>
	<polygon class="st56" points="196.6,567.4 168.7,569.8 198.8,587 225.8,572.2 220.2,570.5 196.2,571.9 	"/>
</g>
<linearGradient id="SVGID_50_" gradientUnits="userSpaceOnUse" x1="298.3148" y1="292.9329" x2="298.3148" y2="131.2105">
	<stop  offset="0" style="stop-color:#22ADF6"/>
	<stop  offset="0.308" style="stop-color:#5C7FF0;stop-opacity:0.692"/>
	<stop  offset="0.6283" style="stop-color:#9154EA;stop-opacity:0.3717"/>
	<stop  offset="0.8689" style="stop-color:#B239E6;stop-opacity:0.1311"/>
	<stop  offset="1" style="stop-color:#BF2FE5;stop-opacity:0"/>
</linearGradient>
<path class="st57" d="M150.1,193.8l135.7-78.3c7.8-4.5,17.3-4.5,25.1,0l135.7,78.3c6.9,4,6.9,13.9,0,17.9l-135.7,78.3
	c-7.8,4.5-17.3,4.5-25.1,0l-135.7-78.3C143.2,207.7,143.2,197.8,150.1,193.8z"/>
<g>
	<defs>
		<rect id="SVGID_51_" x="141" y="97.5" width="311.1" height="299.1"/>
	</defs>
	<clipPath id="SVGID_52_">
		<use xlink:href="#SVGID_51_"  style="overflow:visible;"/>
	</clipPath>
	<linearGradient id="SVGID_53_" gradientUnits="userSpaceOnUse" x1="304.304" y1="95.8396" x2="297" y2="176.9948">
		<stop  offset="4.476800e-02" style="stop-color:#3B1F57"/>
		<stop  offset="0.6787" style="stop-color:#361C57"/>
	</linearGradient>
	<path class="st58" d="M127.5,118.5l159.1-91.8c9.1-5.2,20.3-5.2,29.4,0l159.1,91.8c8.1,4.7,8.1,16.3,0,21L316,231.4
		c-9.1,5.2-20.3,5.2-29.4,0l-159.1-91.8C119.4,134.9,119.4,123.2,127.5,118.5z"/>
</g>
<linearGradient id="SVGID_54_" gradientUnits="userSpaceOnUse" x1="522.8591" y1="106.7684" x2="177.0263" y2="106.7684">
	<stop  offset="0" style="stop-color:#605477"/>
	<stop  offset="6.863326e-02" style="stop-color:#5D5174"/>
	<stop  offset="0.638" style="stop-color:#493E5D"/>
	<stop  offset="1" style="stop-color:#423755"/>
</linearGradient>
<path class="st59" d="M127.5,96.3L286.6,4.4c9.1-5.2,20.3-5.2,29.4,0l159.1,91.8c8.1,4.7,8.1,16.3,0,21L316,209.1
	c-9.1,5.2-20.3,5.2-29.4,0l-159.1-91.8C119.4,112.6,119.4,100.9,127.5,96.3z"/>
<g>
	<linearGradient id="SVGID_55_" gradientUnits="userSpaceOnUse" x1="301.3146" y1="0" x2="301.3146" y2="213.5366">
		<stop  offset="0" style="stop-color:#383846;stop-opacity:0"/>
		<stop  offset="1" style="stop-color:#6D6F7A;stop-opacity:0.9"/>
	</linearGradient>
	<path class="st60" d="M301.3,213.5c-5.2,0-10.3-1.3-14.9-4l-159.1-91.8c-4-2.3-6.3-6.4-6.3-10.9c0-4.6,2.4-8.6,6.3-10.9l0.2,0.4
		l-0.2-0.4L286.4,4c9.2-5.3,20.7-5.3,29.9,0l159.1,91.8c4,2.3,6.3,6.4,6.3,10.9c0,4.6-2.4,8.7-6.3,10.9l-159.1,91.8
		C311.6,212.2,306.5,213.5,301.3,213.5z M301.3,1c-5,0-10,1.3-14.5,3.9L127.8,96.7c-3.6,2.1-5.8,5.9-5.8,10.1c0,4.2,2.2,8,5.8,10.1
		l159.1,91.8c8.9,5.1,20,5.1,28.9,0l159.1-91.8c3.6-2.1,5.8-5.9,5.8-10.1c0-4.2-2.2-8-5.8-10.1L315.8,4.8C311.3,2.3,306.3,1,301.3,1
		z"/>
</g>
<g>
	<linearGradient id="SVGID_56_" gradientUnits="userSpaceOnUse" x1="307.8459" y1="34.2009" x2="294.7837" y2="179.336">
		<stop  offset="4.476800e-02" style="stop-color:#3B1F57"/>
		<stop  offset="0.6787" style="stop-color:#361C57"/>
	</linearGradient>
	<path class="st61" d="M301.3,179.8c-3.6,0-7.2-0.9-10.4-2.8l-108.3-62.5c-2.8-1.6-4.5-4.5-4.5-7.8c0-3.3,1.7-6.2,4.5-7.8
		l108.3-62.5c6.4-3.7,14.3-3.7,20.7,0L419.9,99c2.8,1.6,4.5,4.5,4.5,7.8c0,3.3-1.7,6.2-4.5,7.8l-108.3,62.5
		C308.5,178.9,304.9,179.8,301.3,179.8z M183.1,99.6l0.4,0.6c-2.4,1.4-3.8,3.8-3.8,6.5c0,2.7,1.4,5.1,3.8,6.5l108.3,62.5
		c5.9,3.4,13.3,3.4,19.2,0l108.3-62.5c2.4-1.4,3.8-3.8,3.8-6.5c0-2.7-1.4-5.1-3.8-6.5L310.9,37.8c-5.9-3.4-13.3-3.4-19.2,0
		l-108.3,62.5L183.1,99.6z"/>
</g>
<g class="st62">
	<path class="st63" d="M363.6,326L263,267.9l-33.5,19.6c-1.5,0.9-2.4,2.4-2.4,4.2v10.6c0,0.1,0,0.1,0,0.2v0.2l0,0
		c0,0.5,0.1,1,0.3,1.5l7,15.9l-1.8,1.1c-0.9,0.5-1.4,1.4-1.4,2.4V334l0,0c0,0.6,0.4,1.3,1,1.8l0,0L213.1,347
		c-0.3,0.2-0.5,0.5-0.5,0.8l0.2,10.3c0,0.7,0.4,1.4,1.1,1.8l11.2,6.4c0.7,0.4,1.5,0.4,2.1,0l28.8-16.7l8.5,4.9
		c2.3,1.3,6.1,1.3,8.4,0l5.2-3l-0.5-0.3l41.8,6.1c4.2,0.6,8.7-0.1,11.7-1.9l32.5-18.9V326z"/>
	<linearGradient id="SVGID_57_" gradientUnits="userSpaceOnUse" x1="212.6573" y1="357.1584" x2="227.9767" y2="357.1584">
		<stop  offset="0" style="stop-color:#FFFFFF"/>
		<stop  offset="1" style="stop-color:#FFFFFF;stop-opacity:0"/>
	</linearGradient>
	<path class="st64" d="M226.6,365.7v-9.8l-14-8l0.2,10.4c0,0.7,0.4,1.3,1,1.6l11.5,6.6C225.9,366.7,226.6,366.3,226.6,365.7z"/>
	<linearGradient id="SVGID_58_" gradientUnits="userSpaceOnUse" x1="256.0278" y1="347.2523" x2="270.0361" y2="347.2523">
		<stop  offset="0" style="stop-color:#FFFFFF"/>
		<stop  offset="1" style="stop-color:#FFFFFF;stop-opacity:0"/>
	</linearGradient>
	<path class="st65" d="M268.8,345.2l-0.4,10.3c-1.4,0-2.8-0.4-3.8-1l-8.5-4.9V339L268.8,345.2z"/>
	<linearGradient id="SVGID_59_" gradientUnits="userSpaceOnUse" x1="278.1" y1="348.895" x2="331.8018" y2="348.895">
		<stop  offset="0" style="stop-color:#FFFFFF"/>
		<stop  offset="1" style="stop-color:#FFFFFF;stop-opacity:0"/>
	</linearGradient>
	<polygon class="st66" points="278.1,351.5 278.1,340.1 327.1,345.8 326.4,357.7 	"/>
	<g class="st67">
		<g>
			<path class="st68" d="M390.1,274.2l-9,5.3l-19.4,11.3l-29.4-17l10.2-6c4.8-2.8,12-6.6,16.2-9.7c2.1-1.5,3.4-4,3.4-6.6v-8.3
				l-26.4-0.4l-13.2,7.7l-15.2,8.9l-17.7-10.2c-1.8-1.1-4.8-1.1-6.6,0l-10.2,5.9c-3.1,1.8-4.3,4.2-3.8,6.6v8.5
				c-0.2,0.7-0.2,1.4,0,2.1v0l0,0c0.4,1.6,1.7,3.2,3.9,4.5l92.7,53.5c5.3,3.1,13.9,3.1,19.1,0l10.2-5.9c0.9-0.5,1.4-1.3,1.3-2l0,0
				v-10.5l0,0c0-0.7-0.4-1.4-1.4-2l-8.1-4.7L406,294l0,0c3.5-2.1,5.9-3.2,7.5-4.3c1.9-1.3,3-3.4,3-5.7v-9.4L390.1,274.2z"/>
		</g>
		<g>
			<path class="st69" d="M390.1,274.2l-9,5.3l-19.4,11.3l-29.4-17l10.2-6c4.8-2.8,12-6.6,16.2-9.7c2.1-1.5,3.4-4,3.4-6.6v-8.3
				l-26.4-0.4l-13.2,7.7l-15.2,8.9l-17.7-10.2c-1.8-1.1-4.8-1.1-6.6,0l-10.2,5.9c-3.1,1.8-4.3,4.2-3.8,6.6v8.5
				c-0.2,0.7-0.2,1.4,0,2.1v0l0,0c0.4,1.6,1.7,3.2,3.9,4.5l92.7,53.5c5.3,3.1,13.9,3.1,19.1,0l10.2-5.9c0.9-0.5,1.4-1.3,1.3-2l0,0
				v-10.5l0,0c0-0.7-0.4-1.4-1.4-2l-8.1-4.7L406,294l0,0c3.5-2.1,5.9-3.2,7.5-4.3c1.9-1.3,3-3.4,3-5.7v-9.4L390.1,274.2z"/>
		</g>
	</g>
	<g class="st70">
		<linearGradient id="SVGID_60_" gradientUnits="userSpaceOnUse" x1="377.9924" y1="289.9409" x2="415.5467" y2="289.9409">
			<stop  offset="0" style="stop-color:#F2D6FA;stop-opacity:0"/>
			<stop  offset="0.2682" style="stop-color:#F2D6FA"/>
			<stop  offset="0.4372" style="stop-color:#F4DBFB;stop-opacity:0.7034"/>
			<stop  offset="0.6415" style="stop-color:#F8EAFC;stop-opacity:0.3447"/>
			<stop  offset="0.838" style="stop-color:#FFFFFF;stop-opacity:0"/>
		</linearGradient>
		<path class="st71" d="M378.9,301.2c-0.3,0-0.6-0.2-0.8-0.5c-0.3-0.4-0.1-1,0.3-1.3l35.7-20.7c0.4-0.3,1-0.1,1.3,0.3
			c0.3,0.4,0.1,1-0.3,1.3l-35.7,20.7C379.2,301.2,379.1,301.2,378.9,301.2z"/>
	</g>
	<g class="st70">
		<linearGradient id="SVGID_61_" gradientUnits="userSpaceOnUse" x1="322.4243" y1="259.4103" x2="359.9787" y2="259.4103">
			<stop  offset="0" style="stop-color:#F2D6FA;stop-opacity:0"/>
			<stop  offset="0.2682" style="stop-color:#F2D6FA"/>
			<stop  offset="0.4372" style="stop-color:#F4DBFB;stop-opacity:0.7034"/>
			<stop  offset="0.6415" style="stop-color:#F8EAFC;stop-opacity:0.3447"/>
			<stop  offset="0.838" style="stop-color:#FFFFFF;stop-opacity:0"/>
		</linearGradient>
		<path class="st72" d="M323.4,270.7c-0.3,0-0.6-0.2-0.8-0.5c-0.3-0.4-0.1-1,0.3-1.3l35.7-20.7c0.4-0.3,1-0.1,1.3,0.3
			c0.3,0.4,0.1,1-0.3,1.3l-35.7,20.7C323.7,270.7,323.5,270.7,323.4,270.7z"/>
	</g>
	<g>
		<linearGradient id="SVGID_62_" gradientUnits="userSpaceOnUse" x1="385.8713" y1="189.7282" x2="285.048" y2="336.3804">
			<stop  offset="0" style="stop-color:#BF2FE5"/>
			<stop  offset="1" style="stop-color:#22ADF6"/>
		</linearGradient>
		<path class="st73" d="M358.7,238.6c-4.4-2.5-11.5-2.5-15.9,0l-7.3,4.2l15.9,9.2l7.3-4.2c2.2-1.3,3.3-2.9,3.3-4.6
			C362,241.5,360.9,239.8,358.7,238.6L358.7,238.6z"/>
		<linearGradient id="SVGID_63_" gradientUnits="userSpaceOnUse" x1="437.5159" y1="225.2338" x2="336.6923" y2="371.8864">
			<stop  offset="0" style="stop-color:#BF2FE5"/>
			<stop  offset="1" style="stop-color:#22ADF6"/>
		</linearGradient>
		<path class="st74" d="M413.2,270c-4.4-2.5-11.5-2.5-15.8,0l-7.3,4.2l15.9,9.2l7.3-4.2c2.2-1.3,3.3-2.9,3.3-4.6
			C416.5,272.9,415.4,271.3,413.2,270L413.2,270z"/>
		<linearGradient id="SVGID_64_" gradientUnits="userSpaceOnUse" x1="394.4282" y1="195.6109" x2="293.6042" y2="342.2641">
			<stop  offset="0" style="stop-color:#BF2FE5"/>
			<stop  offset="1" style="stop-color:#22ADF6"/>
		</linearGradient>
		<path class="st75" d="M396.9,288.6l-15.9-9.2l-19.4,11.3l-38.5-22.3l19.4-11.3l-15.9-9.2l-19.4,11.3l-17.7-10.2
			c-1.8-1.1-4.8-1.1-6.6,0l-10.2,5.9c-5.3,3.1-5.2,8,0.1,11.1l92.7,53.5c5.3,3.1,13.9,3.1,19.1,0l10.2-5.9c1.8-1.1,1.8-2.8,0-3.8
			l-17.3-10L396.9,288.6L396.9,288.6z"/>
		<g class="st62">
			<linearGradient id="SVGID_65_" gradientUnits="userSpaceOnUse" x1="223.6651" y1="341.9103" x2="364.5299" y2="341.9103">
				<stop  offset="0" style="stop-color:#F2D6FA;stop-opacity:0"/>
				<stop  offset="0.5978" style="stop-color:#F2D6FA"/>
				<stop  offset="0.7171" style="stop-color:#F4DBFB;stop-opacity:0.7034"/>
				<stop  offset="0.8613" style="stop-color:#F8EAFC;stop-opacity:0.3447"/>
				<stop  offset="1" style="stop-color:#FFFFFF;stop-opacity:0"/>
			</linearGradient>
			<path class="st76" d="M226.2,357.8c-0.7,0-1.4-0.2-2.1-0.6c-0.4-0.3-0.6-0.8-0.3-1.3c0.3-0.4,0.8-0.6,1.3-0.3
				c0.7,0.4,1.6,0.4,2.3,0l28.2-16.4c0.3-0.2,0.6-0.2,0.9,0l8.5,4.9c2,1.2,5.5,1.2,7.5,0l5.6-3.2c0.2-0.1,0.4-0.1,0.5-0.1l41,6
				c4,0.6,8.3-0.1,11.1-1.8l32.5-18.9c0.4-0.3,1-0.1,1.3,0.3c0.3,0.4,0.1,1-0.3,1.3l-32.5,18.9c-3.3,1.9-7.9,2.6-12.3,2l-40.7-6
				l-0.1,0l-5.1,3c-2.6,1.5-6.7,1.5-9.3,0l-8-4.6l-27.7,16.1C227.6,357.6,226.9,357.8,226.2,357.8z"/>
		</g>
		<linearGradient id="SVGID_66_" gradientUnits="userSpaceOnUse" x1="379.7146" y1="185.4953" x2="278.8906" y2="332.1486">
			<stop  offset="0" style="stop-color:#BF2FE5"/>
			<stop  offset="1" style="stop-color:#22ADF6"/>
		</linearGradient>
		<path class="st77" d="M363.6,326L263,267.9l-32.4,18.8c-3.1,1.8-4.3,4.4-3.2,6.8l10.7,24.3l-5.2,3c-2.3,1.3-2.3,3.5,0,4.9l8.4,4.8
			l-28.2,16.4c-0.7,0.4-0.7,1.4,0,1.9l11.4,6.6c1,0.6,2.2,0.6,3.2,0L256,339l8.5,4.9c2.3,1.3,6.1,1.3,8.4,0l5.2-3l0.4-0.2l41,6
			c4.2,0.6,8.7-0.1,11.7-1.9L363.6,326L363.6,326z"/>
	</g>
</g>
</svg>
